/* XPM */
static char *result[] = {
/* columns rows colors chars-per-pixel */
"64 64 246 2 ",
"   c #5D3E19",
".  c #663B03",
"X  c #663B16",
"o  c #713003",
"O  c #4A332D",
"+  c #4A3736",
"@  c #543725",
"#  c #5C2D12",
"$  c #6B4400",
"%  c #6C4807",
"&  c #764800",
"*  c #6D4914",
"=  c #6D4B1B",
"-  c #684419",
";  c #714E1C",
":  c #734D16",
">  c #74501C",
",  c #775116",
"<  c #5C4435",
"1  c #5B412B",
"2  c #6E4D24",
"3  c #6C4D2A",
"4  c #684625",
"5  c #724D24",
"6  c #784E2A",
"7  c #6E5129",
"8  c #735125",
"9  c #74522B",
"0  c #7B5627",
"q  c #745536",
"w  c #6D4C38",
"e  c #4E4149",
"r  c #584749",
"t  c #554B59",
"y  c #5C515D",
"u  c #4F4451",
"i  c #654D44",
"p  c #6B5345",
"a  c #775949",
"s  c #68595B",
"d  c #765F59",
"f  c #7A6254",
"g  c #5B5567",
"h  c #594A65",
"j  c #635966",
"k  c #685D67",
"l  c #6D636E",
"z  c #67606D",
"x  c #7E6A65",
"c  c #7C6C6A",
"v  c #73656A",
"b  c #6D6472",
"n  c #716770",
"m  c #756A73",
"M  c #7A6E75",
"N  c #7C6B7C",
"B  c #7E7276",
"V  c #7E7379",
"C  c #861400",
"Z  c #8D5112",
"A  c #A46615",
"S  c #865729",
"D  c #965A28",
"F  c #875936",
"G  c #945D34",
"H  c #9A5E37",
"J  c #964A29",
"K  c #876835",
"L  c #9C6235",
"P  c #906B31",
"I  c #A6632C",
"U  c #A36335",
"Y  c #A46339",
"T  c #AB7335",
"R  c #A05918",
"E  c #845A46",
"W  c #966549",
"Q  c #856A57",
"!  c #936C4E",
"~  c #A7754D",
"^  c #897268",
"/  c #927869",
"(  c #847576",
")  c #81757A",
"_  c #8C7B7B",
"`  c #8A7878",
"'  c #937D74",
"]  c #927E7A",
"[  c #806461",
"{  c #A67A65",
"}  c #A1873E",
"|  c #9C824F",
" . c #A4844A",
".. c #B48C50",
"X. c #968075",
"o. c #95817C",
"O. c #9C857C",
"+. c #9E887E",
"@. c #998176",
"#. c #A18A7D",
"$. c #A88376",
"%. c #B2986E",
"&. c #C79C4B",
"*. c #D3AD54",
"=. c #D7BB78",
"-. c #D1B26F",
";. c #DEC37A",
":. c #E3C777",
">. c #EBD075",
",. c #FDE477",
"<. c #EAC457",
"1. c #797693",
"2. c #75718D",
"3. c #887B84",
"4. c #8E7E88",
"5. c #867DA1",
"6. c #7E82BD",
"7. c #749DE7",
"8. c #6B9BE8",
"9. c #7CA0EA",
"0. c #7994D1",
"q. c #8E8189",
"w. c #948385",
"e. c #9A8684",
"r. c #9E8984",
"t. c #93848B",
"y. c #9C8A8C",
"u. c #98878A",
"i. c #8A8495",
"p. c #9C8D93",
"a. c #948C99",
"s. c #958A95",
"d. c #9D919B",
"f. c #9F9193",
"g. c #A38C83",
"h. c #A28E8C",
"j. c #AA8C84",
"k. c #A99187",
"l. c #A5918C",
"z. c #AC948B",
"x. c #AF988E",
"c. c #B2978D",
"v. c #A49194",
"b. c #AB9693",
"n. c #AD9893",
"m. c #A4949B",
"M. c #AD9B9C",
"N. c #A9979B",
"B. c #B39B95",
"V. c #B39E9B",
"C. c #BA9D93",
"Z. c #A18F94",
"A. c #B5A19D",
"S. c #BAA49E",
"D. c #BBA197",
"F. c #8889A7",
"G. c #9994A7",
"H. c #959ABD",
"J. c #9A98B5",
"K. c #8F8DB6",
"L. c #A19AAB",
"P. c #A79AA6",
"I. c #A49EB7",
"U. c #B69FA3",
"Y. c #ABA2AB",
"T. c #B4A2A3",
"R. c #BAA5A3",
"E. c #BEA9A5",
"W. c #B3A3AB",
"Q. c #BCAAAC",
"!. c #B9A7AA",
"~. c #A8A4B8",
"^. c #B8ABB5",
"/. c #BDB2BC",
"(. c #BFB2A4",
"). c #9DA1BE",
"_. c #C4AC85",
"`. c #C9B392",
"'. c #C2ADAB",
"]. c #C2AAA4",
"[. c #C6B1AC",
"{. c #C8B5AB",
"}. c #C2AEB0",
"|. c #C5B2B3",
" X c #CAB6B5",
".X c #CDBABA",
"XX c #C9B7B9",
"oX c #D1BCB8",
"OX c #C09F98",
"+X c #DACA95",
"@X c #E4CD86",
"#X c #ECD588",
"$X c #EADB9A",
"%X c #F1DD90",
"&X c #F9E896",
"*X c #FFF19D",
"=X c #F5E28E",
"-X c #D6C5B7",
";X c #E5D5A7",
":X c #F7ECA5",
">X c #FFF4A4",
",X c #FEF8A9",
"<X c #F6EAB7",
"1X c #9A9CC4",
"2X c #8E96D1",
"3X c #9CA7CC",
"4X c #A8A8C3",
"5X c #BAB5C9",
"6X c #A5A7D5",
"7X c #B8BAD8",
"8X c #A7B2D2",
"9X c #8D9FE6",
"0X c #83A1E7",
"qX c #88A2E8",
"wX c #9CA3E7",
"eX c #9DA5E9",
"rX c #98A6E8",
"tX c #98ADF6",
"yX c #8EAEFA",
"uX c #A4AAE6",
"iX c #A6AEE8",
"pX c #AAAEE8",
"aX c #A7A8E5",
"sX c #B6ADE6",
"dX c #B5AEE8",
"fX c #B8AEE8",
"gX c #B0A7E2",
"hX c #ABB2EE",
"jX c #BAB2EC",
"kX c #A5B3FA",
"lX c #B4BCFB",
"zX c #BFB6F2",
"xX c #A4ABF1",
"cX c #CCBDC3",
"vX c #C4B9C5",
"bX c #C1BED3",
"nX c #BAC3E1",
"mX c #BDC1DD",
"MX c #D4C4CB",
"NX c #D5C9D4",
"BX c #D1CBD8",
"VX c #DDD8E8",
"CX c #E7DAE4",
"ZX c #ECE4F1",
"AX c #E4DAE5",
"SX c None",
/* pixels */
"SXSXSXSXSXSXSXSXSXSXSXSXSXSXSXSXSXSXSXSXSXSXSXSXSXSXSXSXSXSXSXSXSXSXSXSXSXSXSXSXSXSXSXSXSXSXSXSXSXSXSXSXSXSXSXSXSXSXSXSXSXSXSXSX",
"SXSXSXSXSXSXSXSXSXSXSXSXSXSXSXSXSXSXSXSXSXSXSXSXSXSXSXSXSXSXSXSXSXSXSXSXSXSXSXSXSXSXSXSXSXSXSXSXSXSXSXSXSXSXSXSXSXSXSXSXSXSXSXSX",
"SXSXSXSXSXSXSXSXSXSXSXSXSXSXSXSXSXSXSXSXSXSXSXSXSXSXSXSXSXSXSXSXSXSXSXSXSXSXSXSXSXSXSXSXSXSXSXSXSXSXSXSXSXSXSXSXSXSXSXSXSXSXSXSX",
"SXSXSXSXSXSXSXSXSXSXSXSXSXSXSXSXSXSXSXSXSXSXSXSXSXSXSXSXSXSXSXSXSXSXSXSXSXSXSXSXSXSXSXSXSXSXSXSXSXSXSXSXSXSXSXSXSXSXSXSXSXSXSXSX",
"SXSXSXSXSXSXSXSXSXSXSXSXSXSXSXSXSXSXSXSXSXSXSXSXSXSXSXSXSXSXSXSXSXSXSXSXSXSXSXSXSXSXSXSXSXSXSXSXSXSXSXSXSXSXSXSXSXSXSXSXSXSXSXSX",
"SXSXSXSXSXSXSXSXSXSXSXSXSXSXSXSXSXSXSXSXSXSXSXSXSXSXSXSXSXSXSXSXSXSXSXSXSXSXSXSXSXSXSXSXSXSXSXSXSXSXSXSXSXSXSXSXSXSXSXSXSXSXSXSX",
"SXSXSXSXSXSXSXSXSXSXSXSXSXSXSXSXSXSXSXSXSXSXSXSXSXSXSXSXSXSXSXSXSXSXSXSXSXSXSXSXSXSXSXSXSXSXSXSXSXSXSXSXSXSXSXSXSXSXSXSXSXSXSXSX",
"SXSXSXSXSXSXSXSXSXSXSXSXSXSXBXMXSXSXSXSXSXSXSXSXSXSXSXSXSXSXSXSXSXSXSXSXSXSXSXSXSXSXSXSXSXSXSXSXSXSXSXSXSXSXSXSXSXSXSXSXSXSXSXSX",
"SXSXSXSXSXSXSXSXSXSXSXSXSXCXVXZXVXSXSXSXSXSXSXSXSXSXSXSXSXSXSXSXSXSXSXSXSXSXSXSXSXSXSXSXSXSXSXSXZXVXVXSXSXSXSXSXSXSXSXSXSXSXSXSX",
"SXSXSXSXSXSXSXSXSXSXSXSX|..XcXXX!.!.CXoXSXSXSXSXSXSXSXSXSXSXSXSXSXSXSXSXSXSXSXSXSXSXSXSX!.MXSX7XnXcXCXSXSXSXSXSXSXSXSXSXSXSXSXSX",
"SXSXSXSXSXSXSXSXSXSXSXSXn.].V.b.3.a.N.S.SXSXSXSXSXSXSXSXSXSXSXSXSXSXSXSXSXSXSXSXSXSXSXSXW.Q.oXi.P.N.oXXXSXSXSXSXSXSXSXSXSXSXSXSX",
"SXSXSXSXSXSXSXSXSXSXd.Z.d.I.~.H.~.G.f.b.v.t.4.SXSXSXSXSXSXSXSXSXSXSXSXSXSXSXSXSXSXq.) n m V y.V 3.U.Y.K.SXSXSXSXSXSXSXSXSXSXSXSX",
"SXSXSXSXSXSXSXSXSXSX'.MXXX[.bXmXdXvX X|.}.XX X X|. X X XQ.[. X|.}.XX!.Q.}.}.!.'.}.Q.N.U.T.V.U.R.T.V.W.W.cXU.SXSXSXSXSXSXSXSXSXSX",
"SXSXSXSXSXSXSXSXSXSX$.' ] !.NXvXbXP.k.l.j.g.M.N.v.b.b.v.A.S.Q.S.B.].D.R.'.'.!.R.'.'.R.'.E.!.Q.Q.Q.cXXXcXcXNXSXSXSXSXSXSXSXSXSXSX",
"SXSXSXSXSXSXSXNXCXNXNXcXXXcXMXOX}.{ { R.{ W D G D $.~ $.{ /.BX5Xc.~ { Z D 6 D = D 6 E D W ! W W s.^.BX5X5XVXVXSXSXSXSXSXSXSXSXSX",
"SXSXSXSXw F d Y.^.W.|.~.~.P.p.F d.h.P.P.m.h.F a [ ^.m.P.f.G.!.~.P.d.m.W E 5 E E F   & w Q @ Z # q ^ $.F S z.G.c.o o SXSXSXSXSXSX",
"SXSXSXSXs t.J.1XH.H.H.H.H.H.H.~.1X~.~.H.8X3XK.G.8X3X8X).H.F.J.H.).).H.H.q.6.6.q.o.1.F.J.L.Y.G.F.i.1.2.1.i.i.q.F.F.G.i.u SXSXSXSX",
"SXSXSXSXSXv.Z.f.m.m.m.v.d.y.h.e.v.p.y.f.d.y.l.k.l.a.s.a.a.i.a.a.a.a.a.a.o.q.w.t.p.p.Y.Y.W.Y.L.L.J.G.d.P.L.L.J.~.).).G.SXSXSXSXSX",
"SXSXSXSXSX#.k.+.+.+.#.+.O.+.g.e.y.e.e.O.e.o.e.f.h.y.y.y.u.y.y.t.t.q.q.y.w.t.y.t.q.q.u.y.y.t.u.t.t.q.t.t.q.q.q.w.w.t.B SXSXSXSXSX",
"SXSXSXSXSXSXr.@.O.@.X.o._ _ _ ] o.o.( o._ V ( ( ) ( ( ( ( ` ( V V V V ( ( B V V V B V ( V ( ` ( ( B B ( V B B V B V b SXSXSXSXSX",
"SXSXSXSXSXO ^ g.O.O.O.O.O.O.o.o.o.o.o.o.V V V _ V V _ V V V V V V V ( V V V V o.V V V ) V V V V V V ) V ( V V V V ' SXSXSXSXSXSX",
"SXSXSXSXSXSXSXO.t.q.e.t.o._ V ` V m M M B M M B M B B M B B B M B B M V M V ) V V ) ) ) ) ) ) ) ) V ) ) ) ) ( V w.#.SXSXSXSXSXSX",
"SXSXSXSXSXSXSXSXn m ) M g n M M M m m M M m m m m m m m m m m m m z n b n l M B n n m m n n n n m n n l n n l l M SXSXSXSXSXSXSX",
"SXSXSXSXSXSXSXSX] ) ) V n M m m V V ) m m V ) V m M V ( V m M ` V n m V ) M l n V V M l B V V m l V m g j g g n + SXSXSXSXSXSXSX",
"SXSXSXSXSXSXSXO.u.) ) ) B n j u s ) n g e n ` v t y M V k e y B m t t m ( n t y ) B z y j B M y t b ) k g k ( z.SXSXSXSXSXSXSXSX",
"SXSXSXSXSXSXSXSXM n V ) z z t % 7 M j r $ k 2.l < - v V g   < 2.z < @ z V g O < V m u @ r ) z O + n V j M O.g.V.SXSXSXSXSXSXSXSX",
"SXSXSXSXSXSXSXSXB m n y < s p > 8 s s q > q c p > 8 d v i > 9 ^ z < > q ^ s 7 q x v < > q M B 7 2 s s g M ` ( g.SXSXSXSXSXSXSXSX",
"SXSXSXSXSXSXSXSXSXw.) M w : 8 8 8 > > 8 8 9 = 2 7 - . % . X X . $ 7 7 > . = w 4 * > 9 9 > a f ; 9 ;   v ( ) ) SXSXSXSXSXSXSXSXSX",
"SXSXSXSXSXSXSXSXSXw.V B w 8 9 7 8 7 2 2 6 X o S &  .~ K | .... . .. * K | 0 ! | , & X 2 5 5 5 9 5 9 > ( g.O.B.SXSXSXSXSXSXSXSXSX",
"SXSXSXSXSXSXSXSXSXq.) V p > 9 9 2 0 Z J A =.:.=.#X#X>X:.$X@X*X&X=.q a P *X..#X:.:.;.~ P - # - 6 9 9 ; ^ #.O.R.SXSXSXSXSXSXSXSXSX",
"SXSXSXSXSXSXSXSXSX_ M v 4 > 7 4 S ..>.-.=X>X>X<X,X:.:X*X$Xj.=X&Xw.w.f.( $X>.=X..`.=X&X:.K @X| 4 X . 7 c ] O.A.SXSXSXSXSXSXSXSXSX",
"SXSXSXSXSXSXSXSXG.~.J.J.3.7 = &.<.=.>X-.,X>X:.:X:X$X$X$X,X{.&X`.`.m.f.i.`.,X$XC =.@X%X:.A ,X-.C -.-.. ] T.|.}.SXSXSXSXSXSXSXSXSX",
"SXSXSXSXSXSXSXSXM.A.A.A.f.p P ,.*.=.&X-.>X>X=.:.:X-X;X`.+X'.;X!.[.Q.y.s.T.<X].N +X:.&X&X*.*X=.*.*X*XK e.x.B.'.V.SXSXSXSXSXSXSXSX",
"SXSXSXSXSXSXSXSXx.x.k.x.g.w 0 *.>.%X*X&X=X&.%.n.V._.;.^.W.U.W.W.W.W.Q.cX.X4XcXg.M.$.&.@X&.=X,X*X%X&X-.M O.X.X.A.SXSXSXSXSXSXSXSX",
"SXSXSXSXSXSXSXSXk.x.x.x.n.1 K *.,.*.~ } A W B.R.].C.U.B.] j 1.2.2.1.V i.5X5X}. X^.K.i o J ~ ..@X>.#X:X` O.r.O.A.SXSXSXSXSXSXSXSX",
"SXSXSXSXSXSXSXSXg.B.k.l.l., 9  .| 6 - . a z.b.'.].5X3.t 2X2XxXhXhXhX6X2Xh G.NX}.~.K.u.~ L L R T 0 S %.r.O.O.O.S.SXSXSXSXSXSXSXSX",
"SXSXSXSXSXSXSXSXc ) n n a > 7 X X 7 8 q h.V.m.m.M.j 6.eXeXeXwXuXaXiXxXjXfXK.3.4X1X8Xa.@.U H U 5 7 > @ s ^ ) v ^ SXSXSXSXSXSXSXSX",
"SXSXSXSXSXSXSXSXSXr.X.f.Q $ 7 7 0 0 % ^ S.U.R.T.[ 2XxXwXwXwXeXwXiXiXgXfXsXzX2Xb nXjX Xq.{ U S 5 9 9 ; c O.V.b.SXSXSXSXSXSXSXSXSX",
"SXSXSXSXSXSXSXSXSXD.x.S./ $ 6 G U H * #.U.`.].4.2XxXwXwXwXwXwXwXxXaXdXfXfXfXzX1XG.BX].m.' U G 5 8 8 = ^ g.R.'.SXSXSXSXSXSXSXSXSX",
"SXSXSXSXSXSXSXSXSXD.x.S./ Z Y Y Y , Q R.U.j.#.K.wXwXwXwXwXwXwXeXiXiXgXfXfXfXfXzX5.5XQ.C.4.{ I S 7 7 ; ( l.R.'.SXSXSXSXSXSXSXSXSX",
"SXSXSXSXSXSXSXSXSXD.j.A.{ R Y L 8 * t.'. XM.t.rXwXwXwXwXwXwXwXuXpXiXpXdXfXfXsXfX6XJ.|.].R.! T T L S % X.z.B.R.SXSXSXSXSXSXSXSXSX",
"SXSXSXSXSXSXSXSXR.'.E.|.C.R Y S 8 * l.T.|.c.K.eXwXwXwXwXwXwXwXuXiXdXdXdXfXfXfXsXzX6XY.v.V.] Y Y L F 3 u.B.S.'.SXSXSXSXSXSXSXSXSX",
"SXSXSXSXSXSXSX` ].n.b.n.B.I H 3 : f A.N.h.N.wXwXwXwXwXwXwXwXwXuXpXpXfXfXfXfXfXsXjX1Xy.T.h.h.U U G > p y.n.z.z.R.SXSXSXSXSXSXSXSX",
"SXSXSXSXSXSXSXSXg.X.X.@.z.L 5 9 % Q V.B.l.I.qXqXqXwXwXwXwXwXwXuXpXpXpXpXpXdXfXfXfX6Xm.S.z.4.~ I Y > e ] O.@.X.n.SXSXSXSXSXSXSXSX",
"SXSXSXSXSXSXSXSXg.O.O.O.x.f * 9 % [ |.'.c.0.7.0X0X0XwXwXwXeXuXiXiXiXiXiXiXiXpXpXdXfX5.V.C.h.$.R 9 O u X.O.O.O.b.SXSXSXSXSXSXSXSX",
"SXSXSXSXSXSXSXSXg.#.#.O.k.Q * q $ w.vXcXoX3X8.7.0X0XrXwXwXrXiXiXiXiXiXiXiXiXiXiXiXaXF.5X/.~.$.& < O e o.+.O.O.n.SXSXSXSXSXSXSXSX",
"SXSXSXSXSXSXSXSX( ` ' ` O.f * 9 : / N.h.@.s.8.7.0X0XwXwXwXuXiXiXpXiXiXiXiXiXpXiXiXiXd.r.Z.M.@.% 9 ; i _ @.O.] A.SXSXSXSXSXSXSXSX",
"SXSXSXSXSXSXSXSXSX' ] e.^ % 9 6 $ ^ R.b.e.d.7.7.0XqXwXwXeXuXiXiXiXpXpXiXiXiXiXiXiXiXN.l.b.R./ $ 9 8 3 ( z.r.g.n.SXSXSXSXSXSXSXSX",
"SXSXSXSXSXSXSXSXSX].c.S./ $ 9 9 % / S.R.S.m.8.7.qX9XuXwXiXiXiXiXpXfXdXdXpXiXiXiXiXpXP.A.R.R./ % 9 9 $ / R.z.].SXSXSXSXSXSXSXSXSX",
"SXSXSXSXSXSXSXSXSXD.g.A.{ % 9 9 % Q S.Q.{.L.7.qXrXwXuXuXiXiXpXiXpXfXdXfXdXdXpXiXiXpXP.{.].S.Q % 9 9 $ { D.g.D.SXSXSXSXSXSXSXSXSX",
"SXSXSXSXSXSXSXSXn.[.E.|.c.& 9 8 8 8 z.W.[.W.0X7.wXiXuXpXiXiXiXiXpXpXpXdXdXdXpXiXpXiXW.[.T.z.8 8 5 9 & c.|.R.[.b.SXSXSXSXSXSXSXSX",
"SXSXSXSXSXSXSXSXw.B.n.M.C.S 9 9 = a A.N.l.P.0XrXiXpXiXiXpXiXiXpXiXiXiXiXpXiXiXiXuXeXP.l.N.T.a : 9 9 D V.V.n.B.w.SXSXSXSXSXSXSXSX",
"SXSXSXSXSXSXSXSX_ O.' ' c.G 5 8 % Q A.B.h.I.rXuXiXiXiXiXpXiXiXiXiXiXiXiXiXiXhXuXwXrXJ.g.B.V.Q % 9 2 G k.' ' O._ SXSXSXSXSXSXSXSX",
"SXSXSXSXSXSXSXSXh.g.O.O.b.Q * 9 % ^ '.'.j.3XhXiXpXiXhXiXiXiXiXiXiXpXiXiXiXiXiXiXwXqX2Xz.Q.'.x % 9 * Q n.O.#.#.h.SXSXSXSXSXSXSXSX",
"SXSXSXSXSXSXSXSXz.#.@.O.l.Q * 9 o y.NXcXoX7XiXiXiXiXiXiXiXpXiXpXuXuXiXwXuXrXuXuXiXqX3X.XMXMXu.$ 9 * Q k.O.O.O.z.SXSXSXSXSXSXSXSX",
"SXSXSXSXSXSXSXSXg.#.g.g.z.d + < + [ 4._ ' s.lXlXlXlXlXlXlXlXlXlXlXkXkXkXtXyXkXyXtXyXi.' ] 4.x + < + d l.g.g.g.g.SXSXSXSXSXSXSXSX",
"SXSXSXSXSXSXSXSXSX+ k z d < + + O e j l s z pXuXeXpXiXiXiXpXiXuXuXeX9.qX0X0X0X0X0X0Xg k l j e O + + 4 k z k + SXSXSXSXSXSXSXSXSX",
"SXSXSXSXSXSXSXSXSXSXSXSXSXSXSXSXSXSXSXSXSXSXSXSXSXSXSXSXSXSXSXSXSXSXSXSXSXSXSXSXSXSXSXSXSXSXSXSXSXSXSXSXSXSXSXSXSXSXSXSXSXSXSXSX",
"SXSXSXSXSXSXSXSXSXSXSXSXSXSXSXSXSXSXSXSXSXSXSXSXSXSXSXSXSXSXSXSXSXSXSXSXSXSXSXSXSXSXSXSXSXSXSXSXSXSXSXSXSXSXSXSXSXSXSXSXSXSXSXSX",
"SXSXSXSXSXSXSXSXSXSXSXSXSXSXSXSXSXSXSXSXSXSXSXSXSXSXSXSXSXSXSXSXSXSXSXSXSXSXSXSXSXSXSXSXSXSXSXSXSXSXSXSXSXSXSXSXSXSXSXSXSXSXSXSX",
"SXSXSXSXSXSXSXSXSXSXSXSXSXSXSXSXSXSXSXSXSXSXSXSXSXSXSXSXSXSXSXSXSXSXSXSXSXSXSXSXSXSXSXSXSXSXSXSXSXSXSXSXSXSXSXSXSXSXSXSXSXSXSXSX",
"SXSXSXSXSXSXSXSXSXSXSXSXSXSXSXSXSXSXSXSXSXSXSXSXSXSXSXSXSXSXSXSXSXSXSXSXSXSXSXSXSXSXSXSXSXSXSXSXSXSXSXSXSXSXSXSXSXSXSXSXSXSXSXSX",
"SXSXSXSXSXSXSXSXSXSXSXSXSXSXSXSXSXSXSXSXSXSXSXSXSXSXSXSXSXSXSXSXSXSXSXSXSXSXSXSXSXSXSXSXSXSXSXSXSXSXSXSXSXSXSXSXSXSXSXSXSXSXSXSX",
"SXSXSXSXSXSXSXSXSXSXSXSXSXSXSXSXSXSXSXSXSXSXSXSXSXSXSXSXSXSXSXSXSXSXSXSXSXSXSXSXSXSXSXSXSXSXSXSXSXSXSXSXSXSXSXSXSXSXSXSXSXSXSXSX"
};
