/* XPM */
static char *result[] = {
/* columns rows colors chars-per-pixel */
"64 64 235 2 ",
"   c #360900",
".  c #3F2A28",
"X  c #5B3C18",
"o  c #663B03",
"O  c #663B16",
"+  c #713003",
"@  c #48332C",
"#  c #583A24",
"$  c #493636",
"%  c #462F28",
"&  c #603E23",
"*  c #581B00",
"=  c #6C4500",
"-  c #6C4806",
";  c #754802",
":  c #6D4914",
">  c #6D4B1B",
",  c #684419",
"<  c #714E1C",
"1  c #734D16",
"2  c #74501C",
"3  c #775116",
"4  c #5C4436",
"5  c #5B412B",
"6  c #6D4D24",
"7  c #6C4E2B",
"8  c #664525",
"9  c #724D24",
"0  c #784E2A",
"q  c #6E5129",
"w  c #735126",
"e  c #74522B",
"r  c #7B5627",
"t  c #664B37",
"y  c #774C38",
"u  c #745432",
"i  c #74563A",
"p  c #6C513D",
"a  c #4C3F49",
"s  c #4E414B",
"d  c #584747",
"f  c #554C5B",
"g  c #544852",
"h  c #5C515C",
"j  c #4F4451",
"k  c #644D43",
"l  c #6B5345",
"z  c #765949",
"x  c #675759",
"c  c #775F5A",
"v  c #786257",
"b  c #7E6148",
"n  c #5B5465",
"m  c #625966",
"M  c #665C67",
"N  c #6D636E",
"B  c #69606A",
"V  c #7C6C6A",
"C  c #776768",
"Z  c #6C6472",
"A  c #716770",
"S  c #756A73",
"D  c #7A6E75",
"F  c #7C6B7C",
"G  c #7D7176",
"H  c #7E7379",
"J  c #861400",
"K  c #835018",
"L  c #905110",
"P  c #A46615",
"I  c #86572A",
"U  c #965A28",
"Y  c #875936",
"T  c #955D33",
"R  c #9A5E37",
"E  c #964A29",
"W  c #876835",
"Q  c #9C6235",
"!  c #906B31",
"~  c #A6632C",
"^  c #A36435",
"/  c #A46339",
"(  c #AB7335",
")  c #A05918",
"_  c #845A46",
"`  c #88644A",
"'  c #966549",
"]  c #826751",
"[  c #866B5C",
"{  c #9B6A54",
"}  c #90754F",
"|  c #A7754D",
" . c #877269",
".. c #927869",
"X. c #847575",
"o. c #81757A",
"O. c #8C7B7A",
"+. c #8A7778",
"@. c #937D75",
"#. c #927E7A",
"$. c #806461",
"%. c #A77A65",
"&. c #A1873E",
"*. c #9C824F",
"=. c #A4844A",
"-. c #B68948",
";. c #B28F57",
":. c #968076",
">. c #95817C",
",. c #9C857C",
"<. c #9E887E",
"1. c #988176",
"2. c #A1897D",
"3. c #A88375",
"4. c #B2986E",
"5. c #C79C4B",
"6. c #D4AE58",
"7. c #D2AD52",
"8. c #C9A86A",
"9. c #DBB96C",
"0. c #D7BB78",
"q. c #CBB479",
"w. c #DEC37A",
"e. c #E3C777",
"r. c #EBD075",
"t. c #FDE477",
"y. c #EAC457",
"u. c #7B758B",
"i. c #887B84",
"p. c #927F80",
"a. c #8E828B",
"s. c #8E8086",
"d. c #948385",
"f. c #9A8684",
"g. c #9E8984",
"h. c #93848B",
"j. c #9C8A8C",
"k. c #98878A",
"l. c #888396",
"z. c #9C8C93",
"x. c #948C99",
"c. c #948A95",
"v. c #9D919C",
"b. c #9F9194",
"n. c #A38C83",
"m. c #A28E8D",
"M. c #AA8C84",
"N. c #A5918D",
"B. c #AB938B",
"V. c #AB9388",
"C. c #B2978D",
"Z. c #A49295",
"A. c #AB9693",
"S. c #AE9894",
"D. c #A4949A",
"F. c #AC9A9C",
"G. c #A99799",
"H. c #B49C94",
"J. c #B39D9B",
"K. c #BA9C93",
"L. c #A18F95",
"P. c #B5A09C",
"I. c #BAA49D",
"U. c #BBA197",
"Y. c #8888A6",
"T. c #9C94A4",
"R. c #9795AB",
"E. c #959ABD",
"W. c #989AB5",
"Q. c #8D90AF",
"!. c #A19AAB",
"~. c #A79BA5",
"^. c #B29FA1",
"/. c #A49EB6",
"(. c #9DA1BE",
"). c #ABA2AB",
"_. c #B5A2A2",
"`. c #BAA5A3",
"'. c #BEA9A5",
"]. c #B3A3AC",
"[. c #BCAAAB",
"{. c #BAA7AB",
"}. c #A7A3B8",
"|. c #B9ACB6",
" X c #BEB2BC",
".X c #BEB2A3",
"XX c #C09F98",
"oX c #C8B28B",
"OX c #C9B28E",
"+X c #C2ADAB",
"@X c #C1AAA4",
"#X c #C6B1AE",
"$X c #C7B4A8",
"%X c #C2AEB0",
"&X c #C5B2B3",
"*X c #CAB7B5",
"=X c #CDBBBA",
"-X c #C7B6B9",
";X c #D0BAB4",
":X c #DACA95",
">X c #E4CD86",
",X c #ECD588",
"<X c #EADB9A",
"1X c #F1DD90",
"2X c #F8E28B",
"3X c #FCEA94",
"4X c #F8E798",
"5X c #FFF19D",
"6X c #EEE199",
"7X c #D5C3B8",
"8X c #E6D6A6",
"9X c #F7ECA5",
"0X c #FFF4A4",
"qX c #FEF8A9",
"wX c #F6EAB7",
"eX c #989EC2",
"rX c #9EA8C9",
"tX c #A7A8C3",
"yX c #BEB9CB",
"uX c #B9BBD7",
"iX c #AAB0D0",
"pX c #CCBDC3",
"aX c #C3B9C6",
"sX c #C1BED3",
"dX c #BEC3DF",
"fX c #BAC3E1",
"gX c #D5C4CA",
"hX c #D5CAD5",
"jX c #D9D1DA",
"kX c #C9C4D5",
"lX c #DDD8E8",
"zX c #E7DAE4",
"xX c #ECE4F1",
"cX c #E4DAE5",
"vX c None",
/* pixels */
"vXvXvXvXvXvXvXvXvXvXvXvXvXvXvXvXvXvXvXvXvXvXvXvXvXvXvXvXvXvXvXvXvXvXvXvXvXvXvXvXvXvXvXvXvXvXvXvXvXvXvXvXvXvXvXvXvXvXvXvXvXvXvXvX",
"vXvXvXvXvXvXvXvXvXvXvXvXvXvXvXvXvXvXvXvXvXvXvXvXvXvXvXvXvXvXvXvXvXvXvXvXvXvXvXvXvXvXvXvXvXvXvXvXvXvXvXvXvXvXvXvXvXvXvXvXvXvXvXvX",
"vXvXvXvXvXvXvXvXvXvXvXvXvXvXvXvXvXvXvXvXvXvXvXvXvXvXvXvXvXvXvXvXvXvXvXvXvXvXvXvXvXvXvXvXvXvXvXvXvXvXvXvXvXvXvXvXvXvXvXvXvXvXvXvX",
"vXvXvXvXvXvXvXvXvXvXvXvXvXvXvXvXvXvXvXvXvXvXvXvXvXvXvXvXvXvXvXvXvXvXvXvXvXvXvXvXvXvXvXvXvXvXvXvXvXvXvXvXvXvXvXvXvXvXvXvXvXvXvXvX",
"vXvXvXvXvXvXvXvXvXvXvXvXvXvXvXvXvXvXvXvXvXvXvXvXvXvXvXvXvXvXvXvXvXvXvXvXvXvXvXvXvXvXvXvXvXvXvXvXvXvXvXvXvXvXvXvXvXvXvXvXvXvXvXvX",
"vXvXvXvXvXvXvXvXvXvXvXvXvXvXvXvXvXvXvXvXvXvXvXvXvXvXvXvXvXvXvXvXvXvXvXvXvXvXvXvXvXvXvXvXvXvXvXvXvXvXvXvXvXvXvXvXvXvXvXvXvXvXvXvX",
"vXvXvXvXvXvXvXvXvXvXvXvXvXvXvXvXvXvXvXvXvXvXvXvXvXvXvXvXvXvXvXvXvXvXvXvXvXvXvXvXvXvXvXvXvXvXvXvXvXvXvXvXvXvXvXvXvXvXvXvXvXvXvXvX",
"vXvXvXvXvXvXvXvXvXvXvXvXvXvXhXgXvXvXvXvXvXvXvXvXvXvXvXvXvXvXvXvXvXvXvXvXvXvXvXvXvXvXvXvXvXvXvXvXvXvXvXvXvXvXvXvXvXvXvXvXvXvXvXvX",
"vXvXvXvXvXvXvXvXvXvXvXvXvXzXlXxXlXvXvXvXvXvXvXvXvXvXvXvXvXvXvXvXvXvXvXvXvXvXvXvXvXvXvXvXvXvXvXvXxXlXlXvXvXvXvXvXvXvXvXvXvXvXvXvX",
"vXvXvXvXvXvXvXvXvXvXvXvX&X=XpX-X{.{.zX=XvXvXvXvXvXvXvXvXvXvXvXvXvXvXvXvXvXvXvXvXvXvXvXvX{.gXvXuXkXpXzXvXvXvXvXvXvXvXvXvXvXvXvXvX",
"vXvXvXvXvXvXvXvXvXvXvXvXS.@XJ.G.o.v.G.I.vXvXvXvXvXvXvXvXvXvXvXvXvXvXvXvXvXvXvXvXvXvXvXvX].[.;Xc./.G.;X-XvXvXvXvXvXvXvXvXvXvXvXvX",
"vXvXvXvXvXvXvXvXvXvXv.L.v./.}.E./.!.L.A.Z.h.i.vXvXvXvXvXvXvXvXvXvXvXvXvXvXvXvXvXvXa.+.A D D z.F i.~./.E.vXvXvXvXvXvXvXvXvXvXvXvX",
"vXvXvXvXvXvXvXvXvXvX+XgX*X&XsXfXuXyX*X&X+X=X;X;X&X&X*X-X[.|.*X#X%X-X{.[.%X%X{.[.%X[.G.^._.J.^.[.^.^.^.].pX^.vXvXvXvXvXvXvXvXvXvX",
"vXvXvXvXvXvXvXvXvXvX3.1.3.].kXaXsX!.N.m.V.k.F.G.Z.A.G.A.P.I.+XI.K.@XU.@X+X[.{.'.+X@X`.+X[.@X+X%X+X=XpXpXaXkXvXvXvXvXvXvXvXvXvXvX",
"vXvXvXvXvXvXvXjXjXjXgXpX-XpXgXXX&X%.%.`.%.' E T Q 3./ M.%. XjXyXC.' %.L U 0 U > U 0 _ T ' ` ' _ c.|.hXyXaXxXlXvXvXvXvXvXvXvXvXvX",
"vXvXvXvXy Y v ).|.]. X/.|.~.z.Y v.j.~.~.Z.m.Y z v |.G.~.b.v.].}.).v.F.' _ 9 _ _ Y # ; 7 [ # K + i ..@.Y K B.T.B.+ + vXvXvXvXvXvX",
"vXvXvXvXx h.R.eXE.E.E.E.E.E.E.}.eX}./.eXiXeXQ.!.iXrXiXeXE.Y.W.E.eXeXE.E.l.u.l.s.i.i.Q.W.W.).T.Q.i.i.u.u.l.l.a.l.Q.R.l.j vXvXvXvX",
"vXvXvXvXvXZ.L.v.D.Z.v.Z.Z.j.m.f.Z.z.m.m.v.z.b.B.B.x.c.x.x.l.x.x.x.x.x.c.l.c.l.a.z.v.T.].{.).T.T./.R.R.R.!././.E.E.}.T.vXvXvXvXvX",
"vXvXvXvXvX<.M.2.2.2.<.,.g.<.<.f.j.f.f.,.k.,.f.j.N.k.j.j.k.j.j.h.h.a.a.j.j.h.j.c.a.a.d.j.k.k.k.h.h.p.i.c.p.i.i.p.h.j.D vXvXvXvXvX",
"vXvXvXvXvXvXg.,.>.,.>.>.O.O.O.>.>.>.+.O.O.o.X.o.o.o.X.X.o.+.X.H X.G H X.+.H o.O.H G o.X.H X.O.X.o.F o.X.H H H H o.H Z vXvXvXvXvX",
"vXvXvXvXvX% ..n.<.,.<.,.,.,.>.>.>.>.>.>.H H H >.o.H O.H H H H H o.H o.H H H H o.H H o.H o.H H H o.H H H o.o.o.o.H @.vXvXvXvXvXvX",
"vXvXvXvXvXvXvX,.h.a.,.h.>.@.G +.H D D S D D D S S G G D G G G D G G G G G H o.G o.o.o.o.o.o.o.o.o.o.o.+.o.o.o.o.d.2.vXvXvXvXvXvX",
"vXvXvXvXvXvXvXvXS A H D n A S S S S S D D S S S G S S S S S S S S B A Z A N S D A S S S S Z A A A A A N Z N A N D vXvXvXvXvXvXvX",
"vXvXvXvXvXvXvXvX>.H H G S D G G H o.o.S S H o.H S S H o.H S D H H A S G H G A A G G D N G H o.A Z H S n m n n N $ vXvXvXvXvXvXvX",
"vXvXvXvXvXvXvX,.k.o.o.o.D S n j m o.A h j A +.Z f h D G m s n H S f x S X.Z f h X.G B f B D D h f A o.M n N X.N.vXvXvXvXvXvXvXvX",
"vXvXvXvXvXvXvXvXD A H o.B M g , q G B d = x i.M 4 , N H h X 4 H A $ % M H n @ 4 u.S j # h H B @ $ Z H m S ,.2.J.vXvXvXvXvXvXvXvX",
"vXvXvXvXvXvXvXvXD D Z x 4 x l 2 w x x u < i V l w w v C k r e  .B t > i  .x q u V v 4 2 u D G q 6 x h m H +.+.n.vXvXvXvXvXvXvXvX",
"vXvXvXvXvXvXvXvXvXh.H S p 3 w w q 1 2 q q 0 < < q O o - o O , o = e w > o 1 l 8 : 2 e e 2 i v > w 9 X C +.G o.vXvXvXvXvXvXvXvXvX",
"vXvXvXvXvXvXvXvXvXh.H G p w e w w w 8 8 0 O O I ; =.*.W | 5.-.=.*.o : W *.I } ! 3 3 O 6 e r 9 q w e 2 X.n.,.H.vXvXvXvXvXvXvXvXvX",
"vXvXvXvXvXvXvXvXvXa.H G l 2 e e 6 r L U P e.e.9.,X,X0Xe.4XoX5X3Xq.y z ! 3X;.,X,Xe.w.( W , * , 7 e e 2  .n.,.I.vXvXvXvXvXvXvXvXvX",
"vXvXvXvXvXvXvXvXvXO.D C 8 2 6 8 I -.,X8.2X0X9XwXqXe.9X4X6X2.3X4Xg.d.b.+.<X,X2X;.oX1X3Xe.W :X;.O O o 6 V :.,.P.vXvXvXvXvXvXvXvXvX",
"vXvXvXvXvXvXvXvXT.}.W.W.i.7 < 5.y.0.0X9.qX0Xe.9X9X<X<X6XwX$X3XOXOXG.z.a.oXqX<XJ w.>X1Xe.P qXq.J 9.8.o >.^.%X&XvXvXvXvXvXvXvXvXvX",
"vXvXvXvXvXvXvXvXF.P.P.P.b.p ! t.7.0.5X8.0XqX9.e.9X7X8XOX:X#X8X`.#X|.c.c.I.wX'.F :Xe.4X3X6.4X0.6.5X5XW f.B.F.+XJ.vXvXvXvXvXvXvXvX",
"vXvXvXvXvXvXvXvXC.V.V.V.n.p r 6.r.2X5X3X2X5.4.A.J.oXe.|.]._.|.-X|.-X[.gX=X|.pXk.F.3.5.>X5.4X0X5X1X3Xq.D <.:.1.U.vXvXvXvXvXvXvXvX",
"vXvXvXvXvXvXvXvXV.S.B.H.S.5 W 6.t.6.( =.P { H.`.`.J.@X`.k.x 4 . % s G T.yXyX&X*X|.Q.z * E | -.,Xr.,X6X@.,.<.,._.vXvXvXvXvXvXvXvX",
"vXvXvXvXvXvXvXvX2.H.V.N.S.: e &.*.e , O l V.G.+X+X Xx.  vXvXvXvXvXvXvXvX  /.jX|.tXQ.m.| ~ R E ( r I 4.n.,.,.,.`.vXvXvXvXvXvXvXvX",
"vXvXvXvXvXvXvXvXV o.S A z 2 q , O w w i A.J.Z.L.^.x vXvXvXvXvXvXvXvXvXvXvXvXu.iXeXiXx.1./ / Q 6 q 2 # x  .o.v  .vXvXvXvXvXvXvXvX",
"vXvXvXvXvXvXvXvXvXg.>.N.[ = q q e r = .._.`.`.{.V vXvXvXvXvXvXvXvXvXvXvXvXvXvXZ fXfX-Xa.{ ~ I 6 e e 2 V ,.J.G.vXvXvXvXvXvXvXvXvX",
"vXvXvXvXvXvXvXvXvXU.V.I...o 0 T Q Q : n.J.OX@Xg.vXvXvXvXvXvXvXvXvXvXvXvXvXvXvXvX/.kX+XZ.#./ T 6 w w < X.n._.#XvXvXvXvXvXvXvXvXvX",
"vXvXvXvXvXvXvXvXvXI.V.I...L / / ^ K v I.P.V.A.vXvXvXvXvXvXvXvXvXvXvXvXvXvXvXvXvXx uX[.J.j.%.~ I q q >  .N.`.+XvXvXvXvXvXvXvXvXvX",
"vXvXvXvXvXvXvXvXvXU.M.P.%.) / Q e : k.+X*X_.O.vXvXvXvXvXvXvXvXvXvXvXvXvXvXvXvXvXvXR.-X@X^.{ ( ( Q I - :.C.H.`.vXvXvXvXvXvXvXvXvX",
"vXvXvXvXvXvXvXvX`.$X'.&XK.) / I q : N._.#X'.vXvXvXvXvXvXvXvXvXvXvXvXvXvXvXvXvXvXvXvX XL.J.2./ ^ Q I t k.H.I.[.vXvXvXvXvXvXvXvXvX",
"vXvXvXvXvXvXvX>.'.S.Z.S.H.^ T 6 1 b _.G.Z.G.vXvXvXvXvXvXvXvXvXvXvXvXvXvXvXvXvXvXvXvX^._.n.m.^ R Q 2 k m.S.B.B.`.vXvXvXvXvXvXvXvX",
"vXvXvXvXvXvXvXvXM.:.1.:.V.Q 9 e - [ F.H.C.G.vXvXvXvXvXvXvXvXvXvXvXvXvXvXvXvXvXvXvXvXj.@XB.,.{ ~ Q 2 s @.,.,.:.S.vXvXvXvXvXvXvXvX",
"vXvXvXvXvXvXvXvXM.,.,.,.G.] : e ; C &X+XI.vXvXvXvXvXvXvXvXvXvXvXvXvXvXvXvXvXvXvXvXvXu.`.H.Z.3.) e $ s >.<.,.,.B.vXvXvXvXvXvXvXvX",
"vXvXvXvXvXvXvXvXn.,.<.<.V.] : u = p.pXgXgXvXvXvXvXvXvXvXvXvXvXvXvXvXvXvXvXvXvXvXvXvXl.aX|.].3.; 7 8 d O.,.,.,.A.vXvXvXvXvXvXvXvX",
"vXvXvXvXvXvXvXvXX.@.@.@.,.b : e : ..A.j.n.,.vXvXvXvXvXvXvXvXvXvXvXvXvXvXvXvXvXvXvXvXN.d.j.`...= e 2 p >.<.<.,.P.vXvXvXvXvXvXvXvX",
"vXvXvXvXvXvXvXvXvX:.O.k.$.: e e =  .`.Z.m.n.vXvXvXvXvXvXvXvXvXvXvXvXvXvXvXvXvXvXvXvXN.J.J.`...= e q = ..I.V.H.H.vXvXvXvXvXvXvXvX",
"vXvXvXvXvXvXvXvXvX@XC.'...= e e - ..I.`.'.B.vXvXvXvXvXvXvXvXvXvXvXvXvXvXvXvXvXvXvXvXA.&X'.`...- e e = ..I.V.I.vXvXvXvXvXvXvXvXvX",
"vXvXvXvXvXvXvXvXvXU.2.P.%.- e e - [ I.'.;X~.vXvXvXvXvXvXvXvXvXvXvXvXvXvXvXvXvXvXvXvX^.7X[.H.i < e e ; 3.`.B.I.vXvXvXvXvXvXvXvXvX",
"vXvXvXvXvXvXvXvXS.#X'.&XC.; e w w w B._.*XP.vXvXvXvXvXvXvXvXvXvXvXvXvXvXvXvXvXvXvXvXH._.D.H.7 w w e K I.&X[.+Xm.vXvXvXvXvXvXvXvX",
"vXvXvXvXvXvXvXvXd.H.S.F.H.I e e > z P.G.S.G.vXvXvXvXvXvXvXvXvXvXvXvXvXvXvXvXvXvXvXvXG.A.J._.[ - e 0 U M.,.1.,.O.vXvXvXvXvXvXvXvX",
"vXvXvXvXvXvXvXvXO.,.@.@.C.T 6 e - [ P.H.H.A.vXvXvXvXvXvXvXvXvXvXvXvXvXvXvXvXvXvXvXvXvXA.H.J.[ - e > ` H.,.,.g.g.vXvXvXvXvXvXvXvX",
"vXvXvXvXvXvXvXvXM.n.,.,.C.] : u ; $.|.$XJ.vXvXvXvXvXvXvXvXvXvXvXvXvXvXvXvXvXvXvXvXvXvX=XgXgXX.= e 1 ] B.,.,.,.B.vXvXvXvXvXvXvXvX",
"vXvXvXvXvXvXvXvXV.f.,.,.V.v : u = k.hXpXgXvXvXvXvXvXvXvXvXvXvXvXvXvXvXvXvXvXvXvXvXvXH.%X_.{.#.X 7 # c B.,.,.n.V.vXvXvXvXvXvXvXvX",
"vXvXvXvXvXvXvXvXM.2.n.n.B.c % t $ $.p.#.f. .vXvXvXvXvXvXvXvXvXvXvXvXvXvXvXvXvXvXvXvXd x x h d $ $ $ d  .G X.v #.vXvXvXvXvXvXvXvX",
"vXvXvXvXvXvXvXvXvX$ B B B 4 @ $ @ s m N M vXvXvXvXvXvXvXvXvXvXvXvXvXvXvXvXvXvXvXvXvXvXvXvXvXvXvXvXvXvXvXvXvXvXvXvXvXvXvXvXvXvXvX",
"vXvXvXvXvXvXvXvXvXvXvXvXvXvXvXvXvXvXvXvXvXvXvXvXvXvXvXvXvXvXvXvXvXvXvXvXvXvXvXvXvXvXvXvXvXvXvXvXvXvXvXvXvXvXvXvXvXvXvXvXvXvXvXvX",
"vXvXvXvXvXvXvXvXvXvXvXvXvXvXvXvXvXvXvXvXvXvXvXvXvXvXvXvXvXvXvXvXvXvXvXvXvXvXvXvXvXvXvXvXvXvXvXvXvXvXvXvXvXvXvXvXvXvXvXvXvXvXvXvX",
"vXvXvXvXvXvXvXvXvXvXvXvXvXvXvXvXvXvXvXvXvXvXvXvXvXvXvXvXvXvXvXvXvXvXvXvXvXvXvXvXvXvXvXvXvXvXvXvXvXvXvXvXvXvXvXvXvXvXvXvXvXvXvXvX",
"vXvXvXvXvXvXvXvXvXvXvXvXvXvXvXvXvXvXvXvXvXvXvXvXvXvXvXvXvXvXvXvXvXvXvXvXvXvXvXvXvXvXvXvXvXvXvXvXvXvXvXvXvXvXvXvXvXvXvXvXvXvXvXvX",
"vXvXvXvXvXvXvXvXvXvXvXvXvXvXvXvXvXvXvXvXvXvXvXvXvXvXvXvXvXvXvXvXvXvXvXvXvXvXvXvXvXvXvXvXvXvXvXvXvXvXvXvXvXvXvXvXvXvXvXvXvXvXvXvX",
"vXvXvXvXvXvXvXvXvXvXvXvXvXvXvXvXvXvXvXvXvXvXvXvXvXvXvXvXvXvXvXvXvXvXvXvXvXvXvXvXvXvXvXvXvXvXvXvXvXvXvXvXvXvXvXvXvXvXvXvXvXvXvXvX",
"vXvXvXvXvXvXvXvXvXvXvXvXvXvXvXvXvXvXvXvXvXvXvXvXvXvXvXvXvXvXvXvXvXvXvXvXvXvXvXvXvXvXvXvXvXvXvXvXvXvXvXvXvXvXvXvXvXvXvXvXvXvXvXvX"
};
