/* XPM */
static char *result[] = {
/* columns rows colors chars-per-pixel */
"64 64 19 1 ",
"  c #55AB45",
". c #5DAF49",
"X c #63B14B",
"o c #68B44E",
"O c #6CB650",
"+ c #70B852",
"@ c #75B954",
"# c #79BB56",
"$ c #7CBD57",
"% c #7FBE58",
"& c #82BF5A",
"* c #84C05B",
"= c #86C15C",
"- c #87C35C",
"; c #8AC45D",
": c #8CC55E",
"> c #8FC75F",
", c #92C860",
"< c #97CB62",
/* pixels */
"**%%%**- X@%  .,;;<-% .X;>*.$o,,X #X$  *%X $<X .  XX#,:%.*.$o,,X",
"#. %X#**%=,#o:o$+$;;,Oo$#$>@. %<. %@&  oO  X<>@&&#.&-<o#&>@. %<.",
"XO.%.X**O@<&+<@X++*-<;***@>$o%.:+.@**$Xo.&..*,**&%.*;>Xo*>$o%.:+",
"-#.+-:**+=<*@,,-&***&Xo****%O<=  %$o$.*#o*%O..@&XX#*@.o.%*%O<=  ",
"<,#.;<*oO;,Xo+,@$#%. ..o**@@$:<#@% +<.$++&-@&&$#.oX*o.&;.@@$:<#@",
"-,>X*=&  &=X X%.@X.%<,:X$$. $O><*@.&<%.XXo><*&..%-.+.#:<o. $O><*",
"*OX<:&.,;+.*o...$.&*+%:***&oo O,-$X*;,+>%.X<;%.o+<=O.&;<&&oo O,-",
"*&O:<=+-,&.OX@,=-:&%.+<#o*o%*o$&&+&&.##<:X.<;$.&#:,&o**-Xo%*o$&&",
"&O$&,,##<*$ @=<;:<-*X#<#.@.o*o..@ #*. o<>&#-->$&..&***$&O.o*o..@",
"Xo++X&-&<XX@.%&-*=,+.%<.#.OX;+@+.o-*@ o;<=&o&><>$.o;<& XoOX;+@+.",
" XX:. $*=  :*o .**$%X@<.@>*,<@@&.*<&*&&@<<*&**%<:&#*<,..@*,<@@&.",
"...,,#%*#.O;<..X<-**+#>$+;*,;%**;,,oO***->***@ +-***=-****%.%***",
"*O.=<,@*#+*:<O$-<-********<,O#<*O.=<,@*#+*:<O$-<X*o.&;X#o**O$:**",
";& XOX.o%&*;<=*;<o%,>***&@&<%o<;& XOX.o%&*;<=*;<.+.#:<.#.@&#--$&",
";& X o%X*o**,*X&,.%<$O*%X oX#,>;& X o%X*o**,*X&,=O.&;<+.#.o #<$X",
"*X.*+.X@,,O**o..X *,O %&.o<&.<;*X.*+.X@,,O**o..X,&o**-&.@>; X-= ",
"*X.-<,#$-<O**@%..&*>o .*+X$<o>,*X.-<,#$-<O**@%..&***$&*$+;<*&*&.",
"-% .X;>$*,X$**%%%**- X@%  .,;;<-% .X;>$*,X$**%%%o;<& X****<,O#<*",
";,Oo$#$.**#&#. %X#**%=,#o:o$+$;;,Oo$#$.**#&#. %X#*<,..&*&@&<$o<;",
"-<;***@O*o  XO.%.X**O@<&+<@X++*-<;***@O*o  XO.%.**=-&*o%o oX#,>;",
"*&Xo****%&.#-#.+-:**+=<*@,,-&***&Xo****%&.#-#.+-:**+=<;*.o<%.<;*",
". ..o**@ ..@<,#.;<*oO;,Xo+,@$#%. ..o**@ ..@<,#.;<*oO;,,*+X$<o>,*",
"%<,:X$$+Xo@&=,>X*=&  &=X X%.@X.%<,:X$$+Xo@&=,>X*=&  &=<%  .,;;<-",
",<,<,;@ .,-****%@$+XX+**O  +o% ,<,<,;@ .,-****%@$+XX+*,#o:o$+$;;",
"o<<>;*% X+<,.@*% .o>oo**%.$**@ o<<>;*% X+<,.@*% .o>oo**&+<@X++*-",
"..O;,%% &+O$  #$  -<. #@$X,-*oO..O;,%% &+O$  #$  -<. #**@,,-&***",
"X$  *%X $<X .  XX#,:%. .$o,,X #X$  *%X $<X .  XX#,:%.  Xo+,@$#%.",
"@&  oO  X<>@&&#.&-<o#&@@. $<. %@&  oO  X<>@&&#.&-<o#&@ X X%.@X.%",
"**$Xo.&. *,**&%.*;>Xo**$o%.:+.@**$Xo.&. *,**&%.*;>Xo**$*O  +o% ,",
"o$.*#o*&O..@&XX#*@.o.%*%O<=  %$o$.*#o*&O..@&XX#*@.o.%***%.$**@ o",
"+<.$++&-@&&$#.oX*o.&;.#@$:<#@% +<.$++&-@&&$#.oX*o.&;.#@@$X,-*oO.",
"&<%.XXo><*&..%-.+.#:<o  $O><*@.&<%.XXo><*&..%-.+.#:<o *.$o,,X #X",
"*-,+>%.X<;%.o+<=O.&;<&ooo O,-$X*-,+>%.X<;%.o+<=O.&;<&o>@. %<. %@",
"&.##<:X.<;%.&#:,&o&*-X#%*o$&&+&&.##<:X.<;%.&#:,&o&*-X#>$o%.:+.@*",
"*. o<>&#-->$*..&*=*$&O.o*o..@ #*. o<>&#-->$*..&*=*$&O.*%O<=  %$o",
"*@ o;<=&o&><>$.o;<& Xo+X;+@+.o-*@ o;<=&o&><>$.o;<& Xo+@@$:<#@% +",
"&*&&@<<****%<:&#*<,..@%,<@@&.*<&*&&@<<****%<:&#*<,..@%. $O><*@.&",
"oO***->***@ +-***=-&*#.,;%**;,,oO***->***@ +-***=-&*#.&oo O,-$X*",
"*OX<:%.>;+.*o...$.&*+%****%.%***OX<:%.>;+.*o...$.&*+%:o%*o$&&+&&",
"*&O:<=@-,&.OX@,=-:&%.+X#o**O$:**&O:<=@-,&.OX@,=-:&%.+<.o*o..@ #*",
"&O$&,,##<*$ @=<;:<-*X#.#.@&#--$&O$&,,##<*$ @=<;:<-*X#<OX;+@+.o-*",
"Xo++X&-&<XX@.%&-*=,+.%O.#.o #<$Xo++X&-&<XX@.%&-*=,+.%<&,<@@&.*<&",
" XX:. $*=  :*o .**$%X@&.@>; X-= XX:. $*=  :*o .**$%X@<*,;%**;,,o",
"...,,#%*#.O;<..X<-**+#*$+;<*&*&...,,#%*#.O;<..X<-**+#>****%.%***",
"*O.=<,@*#+*:<O$-<-********<,O#<*O.=<,@*#+*:<O$-<-*****X#o**O$:**",
";& XOX.o%&*;<=*;<o%,>*&*&@&<%o<;& XOX.o%&*;<=*;<o%,>**.#.@&#--$&",
";& X o%X*o**,*X&,.%<$Oo%X oX#,>;& X o%X*o**,*X&,.%<$O*+.#.o #<$X",
"*X.*+.X@,,O**o..X *,O ;*.o<&.<;*X.*+.X@,,O**o..X *,O %&.@>; X-= ",
"*X.-<,#$-<O**@%..&*>o ,*+X$<o>,*X.-<,#$-<O**@%..&*>o .*$+;<*&*&.",
"-% .X;>$*,X$**%%%**- X<%  .,;;<-% .X;>$*,X$**%%%**- X@****<,O#<*",
"<,;@ .,-****%@$+X.+*%=,#o:o$+$;;,Oo$#$.**#&#. %X#**%=,&*&@&<$o<;",
">;*% X+<,.@*% .o>oo*O@*&+<@X++*-<;***@O*o  XO.%.X**O@<o%o oX#,>;",
";,%% &+O$  #$  -<. #+=**@,,-&***&Xo****%&.#-#.+-:**+=<;*.o<%.<;*",
" *%X $<X .  XX#,:%. O; Xo+,@$#%. ..o**@ ..@<,#.;<*oO;,,*+X$<o>,*",
" oO  X<>@&&#.&-<o#&@ & X X%.@X.%<,:X$$+Xo@&=,>X*=&  &=<%  .,;;<-",
"Xo.&. *,**&%.*;>XX**.+%*O  +o% ,<,<,;@ .,-****%@$+XX+*,#o:o$+$;;",
"*#o*&O..@&XX#*@.o.%*.%***OX<:&.>;+.*o...$.&*+%:***% %**&+<@X++*-",
"$++&-@&&$#.oX*o.&;.#O$:**&O:<=@-,&.OX@,=-:&%.+<#o**O$:**@,,-&***",
".XXo:<*&..%-.+.#:<o #--$&O$&,,##<*$ @=<;:<-*X#<#.@&#-- Xo+,@$#%.",
"+>%.X<;%.o+<=O.&;<&o #<$Xo++X&-&<XX@.%&-*=,+.%<.#.o #, X X%.@X.%",
"#<:X.<;%.&#:,&o&*-X# X-= XX:. $*=  :*o .**$%X@<.@>; X-%*O  +o% ,",
"o<>&#-->$*..&*=*$&O.*&*&...,,#%*#.O;<..X<-**+#>$+;<*&***%.$**@ o",
"o;<=&o&><>$.o;<& Xo+,O#<*O.=<,@*#+*:<O$-<-********<,O#@@$X,-*oO.",
"&@<<****%<:&#*<,..@%<%o<;* XOX.o%&*;<=*;<o%,>***&@&<%o*.$o,,X #X"
};
