/* XPM */
static char *result[] = {
/* columns rows colors chars-per-pixel */
"35 35 150 2 ",
"   c #6E1717",
".  c #741818",
"X  c #761919",
"o  c #791919",
"O  c #7B1A1A",
"+  c #7D1A1A",
"@  c #801B1B",
"#  c #821B1B",
"$  c #831B1B",
"%  c #851C1C",
"&  c #871C1C",
"*  c #881C1C",
"=  c #8A1D1D",
"-  c #8B1D1D",
";  c #8C1D1D",
":  c #8D1D1D",
">  c #8E1E1E",
",  c #8F1E1E",
"<  c #911E1E",
"1  c #921E1E",
"2  c #941F1F",
"3  c #961F1F",
"4  c #971F1F",
"5  c #8D2020",
"6  c #992020",
"7  c #9B2020",
"8  c #9C2020",
"9  c #9E2121",
"0  c #9F2121",
"q  c #982C2C",
"w  c #9E3232",
"e  c #A02121",
"r  c #A12121",
"t  c #A32222",
"y  c #A42222",
"u  c #A62222",
"i  c #A82323",
"p  c #A92323",
"a  c #AB2323",
"s  c #AD2424",
"d  c #AE2424",
"f  c #B02424",
"g  c #B22525",
"h  c #B32525",
"j  c #B52525",
"k  c #B72626",
"l  c #B82626",
"z  c #BA2626",
"x  c #BC2727",
"c  c #BD2727",
"v  c #BF2727",
"b  c #B52828",
"n  c #C12828",
"m  c #C22828",
"M  c #C42828",
"N  c #C62929",
"B  c #C92929",
"V  c #CB2A2A",
"C  c #CC2A2A",
"Z  c #CE2A2A",
"A  c #CB2D2D",
"S  c #D02B2B",
"D  c #D12B2B",
"F  c #D32B2B",
"G  c #D42C2C",
"H  c #D42E2E",
"J  c #D53030",
"K  c #D53131",
"L  c #D53333",
"P  c #D63535",
"I  c #D63838",
"U  c #D73B3B",
"Y  c #D73D3D",
"T  c #D83F3F",
"R  c #B75050",
"E  c #D84040",
"W  c #D84242",
"Q  c #D94444",
"!  c #D94545",
"~  c #D94747",
"^  c #DA4949",
"/  c #DA4A4A",
"(  c #DA4C4C",
")  c #DB4E4E",
"_  c #DB4F4F",
"`  c #DB5151",
"'  c #DC5353",
"]  c #DC5454",
"[  c #DC5656",
"{  c #DD5858",
"}  c #DD5959",
"|  c #DD5B5B",
" . c #DE5D5D",
".. c #DE5E5E",
"X. c #DF6262",
"o. c #DF6363",
"O. c #E06565",
"+. c #E06767",
"@. c #E06868",
"#. c #E16A6A",
"$. c #E16C6C",
"%. c #E16D6D",
"&. c #E26F6F",
"*. c #E27171",
"=. c #E27272",
"-. c #E37474",
";. c #E27777",
":. c #E37777",
">. c #E47B7B",
",. c #E47C7C",
"<. c #E57E7E",
"1. c #E58080",
"2. c #E58181",
"3. c #E68383",
"4. c #E68585",
"5. c #E68686",
"6. c #E78888",
"7. c #E78A8A",
"8. c #E78B8B",
"9. c #E88D8D",
"0. c #E99292",
"q. c #E99494",
"w. c #E99595",
"e. c #EA9797",
"r. c #EA9898",
"t. c #EA9A9A",
"y. c #EB9C9C",
"u. c #EB9D9D",
"i. c #EB9F9F",
"p. c #ECA1A1",
"a. c #ECA2A2",
"s. c #ECA4A4",
"d. c #EDA6A6",
"f. c #EDA7A7",
"g. c #EDA9A9",
"h. c #EEABAB",
"j. c #EEACAC",
"k. c #EEAEAE",
"l. c #EFB0B0",
"z. c #EFB1B1",
"x. c #EFB3B3",
"c. c #F0B5B5",
"v. c #F0B6B6",
"b. c #F0B8B8",
"n. c #F1BABA",
"m. c #F1BBBB",
"M. c #F3C4C4",
"N. c #F3C7C7",
"B. c #F6D4D4",
"V. c None",
/* pixels */
"V.V.V.V.V.V.V.V.V.V.V.V.V.V.V.V.V.V.V.V.V.V.V.V.V.V.V.V.V.V.V.V.V.V.V.",
"V.V.V.V.V.V.V.V.V.V.V.V.V.V.V.V.V.V.V.V.V.V.V.V.V.V.V.V.V.V.V.V.V.V.V.",
"V.V.V.V.V.V.V.V.V.V.V.V.V.V.V.V.V.V.V.V.V.V.V.V.V.V.V.V.V.V.V.V.V.V.V.",
"V.V.V.V.V.V.V.V.V.V.V.V.V.V.V.V.V.V.= = = = = = = = V.V.V.V.V.V.V.V.V.",
"V.V.V.V.V.V.V.V.V.V.V.V.V.V.V.V.h.w 5 q R b < - = > e : V.V.V.V.V.V.V.",
"V.V.V.V.V.V.V.V.V.V.V.V.V.V.&.v 7 A ;.s.f.4.K y * % # + X V.V.V.V.V.V.",
"V.V.V.V.V.V.V.V.V.V.V.V.Y 7 2 9 L ` ] O.#.o._ H z 9 * # + # V.V.V.V.V.",
"V.V.V.V.V.V.V.V.V.V.S 3 , 7 v z f < @ # * = , 8 k g 6 < $ . f V.V.V.V.",
"V.V.V.V.V.V.V.V._ 4 1 < 7 i t t 6 < : & # < y h n s 9 t 4 =   Y V.V.V.",
"V.V.V.V.V.V.V.v : r a h C V d 7 r 6 * 8 f N N l x d 7 9 y y 4 O 1.V.V.",
"V.V.V.V.V.V.h ; v z z F Z M x p u i f m V N x z m l t t u p d 1 @ V.V.",
"V.V.V.V.V., ; f k s z l j C ~ 3.{ F H N l x n m N n u y i r 3 p E V.V.",
"V.V.V.V.s ; h 0 r z P ` -.q.f.z.' F Q ^ K v l v m n p 0 7 8 E :.V.V.V.",
"V.V.V.J d B c V | 5.t.f.f.i.f.p.( E / ( _ ! D l z N t 2 Z 6.g.2.V.V.V.",
"V.V.V.W @.( ] ,.e.a.r.y.a.h.M.t.E ! ~ ^ ~ ) _ E D N z o.c.z.1.5.V.V.V.",
"V.V.V.! ../ O.1.$.7.j.l.x.x.M.,.L ~ ^ ~ ~ / _ ] E p =.N.d.e.#.V.V.V.V.",
"V.V.V.B } ~ +.3.9.i.z.c.k.l.m.X.I ~ / ) _ ~ H k 0 ; >.k.u.6.=.V.V.V.V.",
"V.V.V.h ) / 7.s.h.p.t.k.c.n.j.) Q _ ) I m u 4 3 6 0 8.j.u.+.g.V.V.V.V.",
"V.V.V.r | <.h.s.a.i.e.i.b.B.i.T U V g 7 3 7 r t 6 d u.g.q.#.V.V.V.V.V.",
"V.V.Q 7 7.i.g.d.h.k.l.j.g.x.' d 0 3 4 0 t t r t 6 k s.g.*.e.V.V.V.V.V.",
"V.V.0.3 ,.n.v.j.w.:.{ P l 7 < 4 9 t t t t t t t 2 C l.i.o.V.V.V.V.V.V.",
"V.V.V.y.K K G M r = % $ & * 2 9 t t t t t t t y 1 G v.2.6.V.V.V.V.V.V.",
"V.V.V.V.V.H o X * 1 2 3 3 3 1 3 0 t t r t t t y < T c.$.b.V.V.V.V.V.V.",
"V.V.V.V.V.V.V.Y # @ : 4 3 3 2 1 6 r t t t t t t , [ p.2.V.V.V.V.V.V.V.",
"V.V.V.V.V.V.V.V.V.F # @ < 4 3 1 2 7 r t t t t r ,  .7.f.V.V.V.V.V.V.V.",
"V.V.V.V.V.V.V.V.V.V.V.S @ # 2 3 1 2 7 r t r t 0 < %.9.V.V.V.V.V.V.V.V.",
"V.V.V.V.V.V.V.V.V.V.V.V.V.k @ $ 2 1 2 9 t t t 8 6 @.j.V.V.V.V.V.V.V.V.",
"V.V.V.V.V.V.V.V.V.V.V.V.V.V.V.h @ $ < 3 9 t t 7 r ..V.V.V.V.V.V.V.V.V.",
"V.V.V.V.V.V.V.V.V.V.V.V.V.V.V.V.V.7 O # 6 0 y 6 9 8.V.V.V.V.V.V.V.V.V.",
"V.V.V.V.V.V.V.V.V.V.V.V.V.V.V.V.V.V.%.4 o : 0 3 1 V.V.V.V.V.V.V.V.V.V.",
"V.V.V.V.V.V.V.V.V.V.V.V.V.V.V.V.V.V.V.V.+.8 = * V.V.V.V.V.V.V.V.V.V.V.",
"V.V.V.V.V.V.V.V.V.V.V.V.V.V.V.V.V.V.V.V.V.V.V.V.V.V.V.V.V.V.V.V.V.V.V.",
"V.V.V.V.V.V.V.V.V.V.V.V.V.V.V.V.V.V.V.V.V.V.V.V.V.V.V.V.V.V.V.V.V.V.V.",
"V.V.V.V.V.V.V.V.V.V.V.V.V.V.V.V.V.V.V.V.V.V.V.V.V.V.V.V.V.V.V.V.V.V.V.",
"V.V.V.V.V.V.V.V.V.V.V.V.V.V.V.V.V.V.V.V.V.V.V.V.V.V.V.V.V.V.V.V.V.V.V."
};
