/* XPM */
static char *result[] = {
/* columns rows colors chars-per-pixel */
"35 35 151 2 ",
"   c #741818",
".  c #761919",
"X  c #7B1A1A",
"o  c #7D1A1A",
"O  c #7E1A1A",
"+  c #801B1B",
"@  c #821B1B",
"#  c #831B1B",
"$  c #851C1C",
"%  c #871C1C",
"&  c #881C1C",
"*  c #891D1D",
"=  c #8A1D1D",
"-  c #8B1D1D",
";  c #8B1E1E",
":  c #8C1D1D",
">  c #8D1D1D",
",  c #8F1E1E",
"<  c #911E1E",
"1  c #921E1E",
"2  c #941F1F",
"3  c #961F1F",
"4  c #971F1F",
"5  c #992020",
"6  c #9B2020",
"7  c #9C2020",
"8  c #9E2121",
"9  c #9F2121",
"0  c #972B2B",
"q  c #9F3434",
"w  c #A02121",
"e  c #A12121",
"r  c #A32222",
"t  c #A42222",
"y  c #A62222",
"u  c #A82323",
"i  c #A92323",
"p  c #AB2323",
"a  c #AD2424",
"s  c #AE2424",
"d  c #B02424",
"f  c #B22525",
"g  c #B32525",
"h  c #B52525",
"j  c #B72626",
"k  c #B82626",
"l  c #BA2626",
"z  c #BC2727",
"x  c #BD2727",
"c  c #BF2727",
"v  c #A53838",
"b  c #C12828",
"n  c #C22828",
"m  c #C42828",
"M  c #C62929",
"N  c #C72929",
"B  c #C92929",
"V  c #CB2A2A",
"C  c #CC2A2A",
"Z  c #CE2A2A",
"A  c #D02B2B",
"S  c #D12B2B",
"D  c #D32B2B",
"F  c #D42C2C",
"G  c #D42E2E",
"H  c #D53030",
"J  c #D53131",
"K  c #D53333",
"L  c #D63535",
"P  c #D63636",
"I  c #D63838",
"U  c #D73A3A",
"Y  c #D73B3B",
"T  c #D73D3D",
"R  c #D83F3F",
"E  c #B54A4A",
"W  c #D84242",
"Q  c #D94545",
"!  c #D94747",
"~  c #D74F4F",
"^  c #DA4949",
"/  c #DB4E4E",
"(  c #DB4F4F",
")  c #C15555",
"_  c #CB5C5C",
"`  c #DC5353",
"'  c #DC5454",
"]  c #DC5656",
"[  c #DD5858",
"{  c #DD5959",
"}  c #DD5B5B",
"|  c #DE5D5D",
" . c #DE5E5E",
".. c #DE6060",
"X. c #DF6262",
"o. c #DF6363",
"O. c #E06565",
"+. c #E06767",
"@. c #E06868",
"#. c #E16C6C",
"$. c #E16D6D",
"%. c #E27171",
"&. c #E27272",
"*. c #E37474",
"=. c #E37676",
"-. c #E37777",
";. c #E47979",
":. c #E47B7B",
">. c #E47C7C",
",. c #E57E7E",
"<. c #E58080",
"1. c #E58181",
"2. c #E68383",
"3. c #E68585",
"4. c #E68686",
"5. c #E78888",
"6. c #E78A8A",
"7. c #E78B8B",
"8. c #E88D8D",
"9. c #E88F8F",
"0. c #E89090",
"q. c #E99292",
"w. c #E99494",
"e. c #E99595",
"r. c #EA9A9A",
"t. c #EB9C9C",
"y. c #ECA4A4",
"u. c #EDA6A6",
"i. c #EEABAB",
"p. c #EEAEAE",
"a. c #EFB0B0",
"s. c #EFB3B3",
"d. c #F0B6B6",
"f. c #F1BABA",
"g. c #F3C5C5",
"h. c #F4C9C9",
"j. c #F5CCCC",
"k. c #F5CECE",
"l. c #F5CFCF",
"z. c #F6D1D1",
"x. c #F6D4D4",
"c. c #F7D6D6",
"v. c #F7D8D8",
"b. c #F7D9D9",
"n. c #F9E0E0",
"m. c #F9E2E2",
"M. c #F9E3E3",
"N. c #FAE7E7",
"B. c #FCF1F1",
"V. c #FCF2F2",
"C. c None",
/* pixels */
"C.C.C.C.C.C.C.C.C.C.C.C.C.C.C.C.C.C.C.C.C.C.C.C.C.C.C.C.C.C.C.C.C.C.C.",
"C.C.C.C.C.C.C.C.C.C.C.C.C.C.C.C.C.C.C.C.C.C.C.C.C.C.C.C.C.C.C.C.C.C.C.",
"C.C.C.C.C.C.C.C.C.C.C.C.C.C.C.C.C.C.C.C.C.C.C.C.C.C.C.C.C.C.C.C.C.C.C.",
"C.C.C.C.C.C.C.C.C.C.C.C.C.C.C.C.C.C.= = = = q v E ) _ C.C.C.C.C.C.C.C.",
"C.C.C.C.C.C.C.C.C.C.C.C.C.C.C.C.0 ; = ; ; ; - = = * & = C.C.C.C.C.C.C.",
"C.C.C.C.C.C.C.C.C.C.C.C.C.6.F w 9 ~ 4.$.Q S n i , $ & # # C.C.C.C.C.C.",
"C.C.C.C.C.C.C.C.C.C.C.| f 1 3 l U K h # > j g 4 $ 2 e y @ X C.C.C.C.C.",
"C.C.C.C.C.C.C.C.C.{ 6 , , 9 s c i $ + = # < 9 3 7 r e e 7 o   C.C.C.C.",
"C.C.C.C.C.C.C.C.g > 1 9 p s d p p a r 3 4 u g r 6 8 7 8 e 1 O   C.C.C.",
"C.C.C.C.C.C.C.7 > n c s j j f i e e h F ( U C m d 7 6 e r 6 : & . C.C.",
"C.C.C.C.C...: , N Y S s a u e p m P ` { { D b C A b d 9 5 r 3 $ k C.C.",
"C.C.C.C.D = 1 b D m z y r l H ! ' ] [ } | S m N N Z Z z u 7 % g C.C.C.",
"C.C.C.g @ : a n F W #.} ^ / ( [ { | X.@.+.S m N N N N D G a J *.C.C.C.",
"C.C.p.= x { :.e.a.j.x.1.@.&.X.[ o.+.O.@.| B m N N C S B p j 8.2.C.C.C.",
"C.C.4.% #.b.k.x.k.c.i.@.>.0.e.-.}  .o.#.[ m m C S N f 8 X L ,.u.C.C.C.",
"C.C.w., N s.z.g.g.v.y.1.q.9.0.e.<...} $.' V A m d 6 , 2 = o.,.C.C.C.C.",
"C.C.;.9 e { n.k.x.v.r.3.9.8.8.8.w.7.=.-.' l p 4 , 2 6 : j *.q.C.C.C.C.",
"C.C.Q 4 d V h.M.m.g.4.7.8.8.0.e.r.t.1.Q g < , 3 5 5 7 $ W =.C.C.C.C.C.",
"C.C./ 6 G n ,.B.N.a.1.w.t.t.q.%.! m e < 1 4 5 5 5 5 3 2 ` 8.C.C.C.C.C.",
"C.C.{ l T F H l.V.y.q.5.o.Y j 4 , , 3 7 r 6 5 5 5 5 = c +.d.C.C.C.C.C.",
"C.C.C t J U l %.f.' D i < > < 4 8 8 7 7 r 8 4 5 5 5 % P 0.C.C.C.C.C.C.",
"C.C.C.I , , 5 r 5 # , 4 6 8 8 8 8 8 7 7 e 9 4 5 5 2 4 / C.C.C.C.C.C.C.",
"C.C.C.C.C.A < > 1 , 1 7 e 8 7 8 8 8 8 7 9 r 5 5 5 = x &.C.C.C.C.C.C.C.",
"C.C.C.C.C.C.C.R < , 1 1 2 9 9 7 8 8 8 7 8 t 7 4 5 & D C.C.C.C.C.C.C.C.",
"C.C.C.C.C.C.C.C.C.T , > : 1 7 9 8 7 8 8 7 r 9 4 1 3 ] C.C.C.C.C.C.C.C.",
"C.C.C.C.C.C.C.C.C.C.C.T 1 % % 4 9 9 7 8 7 e e 5 : s 9.C.C.C.C.C.C.C.C.",
"C.C.C.C.C.C.C.C.C.C.C.C.C.W , + & 8 9 8 7 9 t 5 & D C.C.C.C.C.C.C.C.C.",
"C.C.C.C.C.C.C.C.C.C.C.C.C.C.C.W & X , e e 8 t 3 1 +.C.C.C.C.C.C.C.C.C.",
"C.C.C.C.C.C.C.C.C.C.C.C.C.C.C.C.C.R # O 4 t t 1 u C.C.C.C.C.C.C.C.C.C.",
"C.C.C.C.C.C.C.C.C.C.C.C.C.C.C.C.C.C.C.W @ $ 2 , T C.C.C.C.C.C.C.C.C.C.",
"C.C.C.C.C.C.C.C.C.C.C.C.C.C.C.C.C.C.C.C.C.W j M C.C.C.C.C.C.C.C.C.C.C.",
"C.C.C.C.C.C.C.C.C.C.C.C.C.C.C.C.C.C.C.C.C.C.C.C.C.C.C.C.C.C.C.C.C.C.C.",
"C.C.C.C.C.C.C.C.C.C.C.C.C.C.C.C.C.C.C.C.C.C.C.C.C.C.C.C.C.C.C.C.C.C.C.",
"C.C.C.C.C.C.C.C.C.C.C.C.C.C.C.C.C.C.C.C.C.C.C.C.C.C.C.C.C.C.C.C.C.C.C.",
"C.C.C.C.C.C.C.C.C.C.C.C.C.C.C.C.C.C.C.C.C.C.C.C.C.C.C.C.C.C.C.C.C.C.C."
};
