/* XPM */
static char *result[] = {
/* columns rows colors chars-per-pixel */
"28 64 182 2 ",
"   c #051905",
".  c #360000",
"X  c #3E001D",
"o  c #002F05",
"O  c #152B1E",
"+  c #1A2D1F",
"@  c #152419",
"#  c #023A16",
"$  c #272D1E",
"%  c #372C1E",
"&  c #29331F",
"*  c #000020",
"=  c #0D2E21",
"-  c #012A23",
";  c #172E20",
":  c #182E20",
">  c #033B27",
",  c #063526",
"<  c #163223",
"1  c #193324",
"2  c #1A3B2A",
"3  c #173827",
"4  c #003C33",
"5  c #2B2F21",
"6  c #352F20",
"7  c #243523",
"8  c #570000",
"9  c #650000",
"0  c #6C1F16",
"q  c #4E291C",
"w  c #462B1E",
"e  c #542A1D",
"r  c #5C2C1F",
"t  c #502115",
"y  c #4A341C",
"u  c #642C1F",
"i  c #72281C",
"p  c #532E20",
"a  c #5D3726",
"s  c #7E2D22",
"d  c #713B2A",
"f  c #044C17",
"g  c #35441B",
"h  c #054126",
"j  c #17412F",
"k  c #1B412E",
"l  c #184E2D",
"z  c #0E4D38",
"x  c #1C4532",
"c  c #1D4934",
"v  c #1F4E39",
"b  c #174732",
"n  c #1E523C",
"m  c #25452E",
"M  c #214532",
"N  c #214B36",
"B  c #224E38",
"V  c #2A4437",
"C  c #30413F",
"Z  c #24533C",
"A  c #2A553E",
"S  c #27583F",
"D  c #514F1D",
"F  c #5D621E",
"G  c #6F721D",
"H  c #767F1E",
"J  c #5E7738",
"K  c #6E7D20",
"L  c #265740",
"P  c #2B5641",
"I  c #245941",
"U  c #2A5C43",
"Y  c #225248",
"T  c #315840",
"R  c #384A52",
"E  c #2E6147",
"W  c #2D654C",
"Q  c #2B6A4A",
"!  c #32654C",
"~  c #346A4E",
"^  c #38694F",
"/  c #366249",
"(  c #366D51",
")  c #3B6E52",
"_  c #3B7558",
"`  c #3E7060",
"'  c #436952",
"]  c #437558",
"[  c #437A5C",
"{  c #4B7E5F",
"}  c #537C5D",
"|  c #435D61",
" . c #65587A",
".. c #477F60",
"X. c #9C0004",
"o. c #B10000",
"O. c #802D22",
"+. c #942C24",
"@. c #853125",
"#. c #8F3328",
"$. c #9B372B",
"%. c #A6332A",
"&. c #AA3D2F",
"*. c #B12C30",
"=. c #B43E37",
"-. c #B3252C",
";. c #C92832",
":. c #80402D",
">. c #804333",
",. c #9C4136",
"<. c #A6493B",
"1. c #B14135",
"2. c #C0423B",
"3. c #9C5340",
"4. c #B15B47",
"5. c #BB624C",
"6. c #8B7B60",
"7. c #C95745",
"8. c #D95744",
"9. c #D74846",
"0. c #DA6049",
"q. c #4D8261",
"w. c #528464",
"e. c #548966",
"r. c #578D6A",
"t. c #598C6A",
"y. c #5D926F",
"u. c #5C887A",
"i. c #638F6C",
"p. c #63956D",
"a. c #649571",
"s. c #6B9B74",
"d. c #689775",
"f. c #719E77",
"g. c #7BA77D",
"h. c #76A37C",
"j. c #848B1C",
"k. c #9C886A",
"l. c #A48E6C",
"z. c #BC8F7E",
"x. c #AB9A72",
"c. c #AD9477",
"v. c #80A67D",
"b. c #8AA27F",
"n. c #A9AC7A",
"m. c #B1A979",
"M. c #CD9D6E",
"N. c #CA947F",
"B. c #E2966F",
"V. c #E09B75",
"C. c #C0AC75",
"Z. c #D5A375",
"A. c #E1A87B",
"S. c #697E8C",
"D. c #5E8289",
"F. c #738F8B",
"G. c #7C84AC",
"H. c #9A989B",
"J. c #84AD87",
"K. c #86B289",
"L. c #9EB28C",
"P. c #90AB9C",
"I. c #91B991",
"U. c #BDBB8C",
"Y. c #AAB28A",
"T. c #8398AD",
"R. c #939FA5",
"E. c #84AAA9",
"W. c #A5C39B",
"Q. c #B2CB98",
"!. c #B9CCB1",
"~. c #B6D1B7",
"^. c #D9C289",
"/. c #D6CA96",
"(. c #D8D798",
"). c #E3C18B",
"_. c #E3CD98",
"`. c #CED4A8",
"'. c #CED7B3",
"]. c #D2E0AC",
"[. c #DEE4C9",
"{. c None",
/* pixels */
"{.{.{.{.{.{.{.{.{.{.{.{.{.{.{.{.{.{.{.{.{.{.{.{.{.{.{.{.",
"{.{.{.{.{.{.{.{.{.{.{.{.{.{.{.{.{.{.{.{.{.{.{.{.{.{.{.{.",
"{.{.{.{.{.{.{.{.{.{.{.{.{.{.{.{.{.{.{.{.{.{.{.{.{.{.{.{.",
"{.{.{.{.{.{.{.{.{.{.{.{.{.{.{.{.{.{.{.{.{.{.{.{.{.{.{.{.",
"{.{.{.{.{.{.{.{.{.{.{.{.{.{.!.'.{.{.{.{.{.{.{.{.{.{.{.{.",
"{.{.{.{.{.{.{.{.{.{.G.{.{.f.F.E.g.{.{.{.{.{.{.{.{.{.{.{.",
"{.{.{.{.{.{.{.{.{.{.s.s.I.K.s.p.a.W.{.{.{.{.{.{.{.{.{.{.",
"{.{.{.{.{.{.{.{.{.{.e.[ K.J.s.K.] {.{.{.{.{.{.{.{.{.{.{.",
"{.{.{.{.{.{.{.{.{.q.( s.w.Q ( ~ p.d.~.!.{.{.{.{.{.{.{.{.",
"{.{.{.{.{.{.{.{.{._ E ] [ [ [ _ v.[.L.{.{.{.{.{.{.{.{.{.",
"{.{.{.{.{.{.{.{.{.( v ! ( q.r.e.Q b.W.u.{.{.{.{.{.{.{.{.",
"{.{.{.{.{.{.{.{._ ~ k l q.i.z ~ ^ [   R.P.{.{.{.{.{.{.{.",
"{.{.{.{.{.{.{.{.~ ( P ( d.q./ E ) t.R F.v.{.{.{.{.{.{.{.",
"{.{.{.{.{.{.{.! E Z n x I I e.[ Z 2 > h.g.{.{.{.{.{.{.{.",
"{.{.{.{.{.{.{.l E q.e.Z ~ _ ( c 3 c ! w.u.{.{.{.{.{.{.{.",
"{.{.{.{.{.{.{.D.( e.w.t.^ ! ~ x I Z E ~ {.{.{.{.{.{.{.{.",
"{.{.{.{.{.{.{.{.j b Z ) ( U ! U N B M } {.{.{.{.{.{.{.{.",
"{.{.{.{.{.{.{.{.~ U k b _ q.[ ~ 2 c ) {.{.{.{.{.{.{.{.{.",
"{.{.{.{.{.{.{.B Z U U ( Z ! ! Z B I q.t.{.{.{.{.{.{.{.{.",
"{.{.{.{.{.{.{.c c N N U N O 3 x x 3 , E {.{.{.{.{.{.{.{.",
"{.{.{.{.{.{.{.Z B B Z N c Z c v V 2   T r.{.{.{.{.{.{.{.",
"{.{.{.{.{.{.{.L x 3 x N c h S.C # 2 P ( ] {.{.{.{.{.{.{.",
"{.{.{.{.{.{.{.{.x ! x , ' H..  .R o / [ S {.{.{.{.{.{.{.",
"{.{.{.{.{.{.{.{.2 Z c < M T.G. .| b 3 > i.{.{.{.{.{.{.{.",
"{.{.{.{.{.{.{.{.{.2 k c # Y D.V h M 2 n y.K.{.{.{.{.{.{.",
"{.{.{.{.{.{.Z M B Z c x x x f x 2 O x N 4 J {.{.{.{.{.{.",
"{.{.{.{.{.{.{.2 2 U Z 2 x x x N c 2 N S 2 g {.{.{.{.{.{.",
"{.{.{.{.{.{.{.2 2 B x 2 x x Z B N M 2 S E {.{.{.{.{.{.{.",
"{.{.{.{.{.{.{.{.x 3 k < B E S N v c O 3 ] {.{.{.{.{.{.{.",
"{.{.{.{.{.{.2 2 3 x c c k I E 3 2 2 2 O M P {.{.{.{.{.{.",
"{.{.{.{.{.{.2 2 ; 2 k 2 Z k 2 k 2 O 1 : 3 {.{.{.{.{.{.{.",
"{.{.{.{.{.{.{.1 2 c Z Z U N k k : 3 < @ B {.{.{.{.{.{.{.",
"{.{.{.{.{.{.{.O < 2 k 2 O v U c @ 3 2 2 {.{.{.{.{.{.{.{.",
"{.{.{.{.{.{.{.{.: + O k 2 x Z k 2 k x O A {.{.{.{.{.{.{.",
"{.{.{.{.{.{.{.{.< : O : O x 2 c Z O + < M Z {.{.{.{.{.{.",
"{.{.{.{.{.{.{.3 < ; 1 O k v 3 2 N 3 + < < {.{.{.{.{.{.{.",
"{.{.{.{.{.{.{.{.: 3 c < c v x O c 3 : 3 3 {.{.{.{.{.{.{.",
"{.{.{.{.{.{.{.{.+ < k 3 O 2 x x ( S < x S {.{.{.{.{.{.{.",
"{.{.{.{.{.{.{.{.< < O 1 $ < 2 M U k ; < {.{.{.{.{.{.{.{.",
"{.{.{.{.{.{.{.{.O O 6 G X 5 ; : O @ : + {.{.{.{.{.{.{.{.",
"{.{.{.{.{.{.{.{.7 - F j.H y > 2 O ; ; 2 {.{.{.{.{.{.{.{.",
"{.{.{.{.{.{.{.{.2 3 : D K m 2 < 3 2 : M {.{.{.{.{.{.{.{.",
"{.{.{.{.{.{.{.{.; < ; , * x 2 O k 2 < O {.{.{.{.{.{.{.{.",
"{.{.{.{.{.{.{.{.{.; ; + 1 + O + + O : {.{.{.{.{.{.{.{.{.",
"{.{.{.{.{.{.{.{.{.{.: + ; ; ; + + < : {.{.{.{.{.{.{.{.{.",
"{.{.{.{.{.{.{.{.{.{.; 3 ; ; + < + < {.{.{.{.{.{.{.{.{.{.",
"{.{.{.{.{.{.{.{.{.{.{.: < ; = O < {.{.{.{.{.{.{.{.{.{.{.",
"{.{.{.{.{.{.{.{.{.{.{.{.= 5 w < {.{.{.{.{.{.{.{.{.{.{.{.",
"{.{.{.{.{.{.{.{.{.{.{.{.< 7 e % {.{.{.{.{.{.{.{.{.{.{.{.",
"{.{.{.{.{.{.{.{.{.{.{.{.- 6 u u {.{.{.{.{.{.{.{.{.{.{.{.",
"{.{.{.{.{.{.{.{.{.{.{.{.= = $.%.{.{.{.{.{.{.{.{.{.{.{.{.",
"{.{.{.{.{.{.{.{.{.{.{.{.+ $ $.%.{.{.{.{.{.{.{.{.{.{.{.{.",
"{.{.{.{.{.{.{.{.{.{.{.d a a ,.<.{.@.{.{.{.{.{.{.{.{.{.{.",
"{.{.{.{.{.{.{.{.{.{.X.-.*.4.o.z.N.7.X.{.{.{.{.{.{.{.{.{.",
"{.{.{.{.{.{.{.{.{.0.x.x.n.n.n.m.C.M.Z.{.{.{.{.{.{.{.{.{.",
"{.{.{.{.{.{.{.{.Q._.A.B.)._./.^.].].(.).{.{.{.{.{.{.{.{.",
"{.{.{.{.{.{.{.{.k.k.x.c.Y.U.(.^.`./.Z.V.5.{.{.{.{.{.{.{.",
"{.{.{.{.{.{.{.{.8 9 d <.,.<.7.7.8.8.9.;.2.{.{.{.{.{.{.{.",
"{.{.{.{.{.{.{.{.a e t 0 i +.+.%.=.=.1.&.{.{.{.{.{.{.{.{.",
"{.{.{.{.{.{.{.{.e r e e q p p s s @.@.#.{.{.{.{.{.{.{.{.",
"{.{.{.{.{.{.{.{.{.{.e u u p u p p q {.{.{.{.{.{.{.{.{.{.",
"{.{.{.{.{.{.{.{.{.{.{.{.{.{.{.{.{.{.{.{.{.{.{.{.{.{.{.{.",
"{.{.{.{.{.{.{.{.{.{.{.{.{.{.{.{.{.{.{.{.{.{.{.{.{.{.{.{.",
"{.{.{.{.{.{.{.{.{.{.{.{.{.{.{.{.{.{.{.{.{.{.{.{.{.{.{.{."
};
