/* XPM */
static char *result[] = {
/* columns rows colors chars-per-pixel */
"64 49 222 2 ",
"   c #1E0F2E",
".  c #2B153D",
"X  c #22123A",
"o  c #34193C",
"O  c #391C35",
"+  c #3C213D",
"@  c #46241E",
"#  c #49251D",
"$  c #4C2717",
"%  c #643714",
"&  c #401F34",
"*  c #4A2523",
"=  c #44222A",
"-  c #532C25",
";  c #59312A",
":  c #47263A",
">  c #552D36",
",  c #663722",
"<  c #723E26",
"1  c #7A3837",
"2  c #764200",
"3  c #784327",
"4  c #79473A",
"5  c #000042",
"6  c #00005E",
"7  c #270946",
"8  c #2C1542",
"9  c #2B1245",
"0  c #311644",
"q  c #341943",
"w  c #35164B",
"e  c #371A4B",
"r  c #3C1B4D",
"t  c #391540",
"y  c #240057",
"u  c #37015B",
"i  c #3D1953",
"p  c #381753",
"a  c #32084B",
"s  c #3F2040",
"d  c #000062",
"f  c #441B5C",
"g  c #431C55",
"h  c #540E50",
"j  c #45214C",
"k  c #442341",
"l  c #4C235C",
"z  c #462253",
"x  c #54285B",
"c  c #592E53",
"v  c #6A3B5D",
"b  c #612C5E",
"n  c #52006F",
"m  c #461961",
"M  c #4A1C65",
"N  c #4B1B6A",
"B  c #481768",
"V  c #511E69",
"C  c #511768",
"Z  c #571D79",
"A  c #420072",
"S  c #661B78",
"D  c #4D2161",
"F  c #522462",
"G  c #522069",
"H  c #5A2B6A",
"J  c #5B2A6A",
"K  c #5B2474",
"L  c #5E2579",
"P  c #5F2877",
"I  c #662B7C",
"U  c #652D79",
"Y  c #683276",
"T  c #733976",
"R  c #7A4558",
"E  c #7E4945",
"W  c #714D71",
"Q  c #945A02",
"!  c #8D5213",
"~  c #B77511",
"^  c #834D26",
"/  c #9C6226",
"(  c #AC6B2C",
")  c #A76529",
"_  c #AE6E31",
"`  c #B47331",
"'  c #BB7934",
"]  c #BD7A37",
"[  c #B46E2A",
"{  c #C0793A",
"}  c #8C5347",
"|  c #8A535A",
" . c #965A57",
".. c #8F554B",
"X. c #B77648",
"o. c #B47553",
"O. c #854C65",
"+. c #834775",
"@. c #93576A",
"#. c #B87464",
"$. c #A66873",
"%. c #B56F72",
"&. c #BB803D",
"*. c #D1920A",
"=. c #EDAA1B",
"-. c #EBA700",
";. c #D48D2B",
":. c #CA8739",
">. c #D48F30",
",. c #D99734",
"<. c #D5922A",
"1. c #E49F37",
"2. c #E89E23",
"3. c #F6AF29",
"4. c #F5B727",
"5. c #EBAA3C",
"6. c #E8A030",
"7. c #EDB336",
"8. c #F7BA35",
"9. c #F3A730",
"0. c #FBC53B",
"q. c #FFC82F",
"w. c #C48444",
"e. c #CC8A47",
"r. c #D39248",
"t. c #CB874F",
"y. c #F09F52",
"u. c #EF9844",
"i. c #D9A14C",
"p. c #F5A74C",
"a. c #F5BA49",
"s. c #EBA958",
"d. c #F2A154",
"f. c #FAA758",
"g. c #FEB15A",
"h. c #EBA748",
"j. c #D79070",
"k. c #DCA76B",
"l. c #DAA371",
"z. c #EABC6D",
"x. c #EAB564",
"c. c #EAA875",
"v. c #F4C245",
"b. c #FDC443",
"n. c #F4C34D",
"m. c #FFC44A",
"M. c #FFD745",
"N. c #F1C35C",
"B. c #F1C354",
"V. c #F0C062",
"C. c #EFC470",
"Z. c #F4C976",
"A. c #580091",
"S. c #6C2E81",
"D. c #6A2A87",
"F. c #732E8C",
"G. c #6E3181",
"H. c #6F318A",
"J. c #713384",
"K. c #74348C",
"L. c #7A3B8E",
"P. c #763B88",
"I. c #793594",
"U. c #7C3B92",
"Y. c #763695",
"T. c #742E9A",
"R. c #6C19A1",
"E. c #7A428D",
"W. c #7C4A8C",
"Q. c #7C5C8A",
"!. c #803F8E",
"~. c #813E94",
"^. c #803B99",
"/. c #843AA9",
"(. c #8A4C83",
"). c #834194",
"_. c #84429A",
"`. c #89449C",
"'. c #89489C",
"]. c #975795",
"[. c #AA6786",
"{. c #A86499",
"}. c #BE7E9A",
"|. c #8B44A4",
" X c #8843A7",
".X c #914BA3",
"XX c #954DAC",
"oX c #9B54AE",
"OX c #9A54A2",
"+X c #9C55B4",
"@X c #9F59B8",
"#X c #A25CB5",
"$X c #A55DBA",
"%X c #AA5FBE",
"&X c #9C71A8",
"*X c #A863A8",
"=X c #AB62BC",
"-X c #AB6ABD",
";X c #A463B7",
":X c #B875B6",
">X c #B478A3",
",X c #A15AC6",
"<X c #AB64C2",
"1X c #AC68C6",
"2X c #B26EC3",
"3X c #B36DCB",
"4X c #B065C7",
"5X c #B471C4",
"6X c #B675C9",
"7X c #AF72D0",
"8X c #B975D1",
"9X c #AA6CD1",
"0X c #C679DD",
"qX c #A38BA9",
"wX c #B8A1BC",
"eX c #DA9B94",
"rX c #C88591",
"tX c #D8A895",
"yX c #C88EAF",
"uX c #BD80CC",
"iX c #C384C5",
"pX c None",
/* pixels */
"pXpXpXpXpXpXpXpXpXpXpXpXpXpXpXpXpXpXpXpXpXpXpXpXpXpXpXpXpXpXpXpXpXpXpXpXpXpXpXpXpXpXpXpXpXpXpXpXpXpXpXpXpXpXpXpXpXpXpXpXpXpXpXpX",
"pXpXpXpXpXpXpXpXpXpXpXpXpXpXpXpXpXpXpXpXpXpXpXpXpXpXpXpXpXpXpXpXpXpXpXpXpXpXpXpXpXpXpXpXpXpXpXpXpXpXpXpXpXpXpXpXpXpXpXpXpXpXpXpX",
"pXpXpXpXpXpXpXpXpXpXpXpXpXpXpXpXpXpXpXpXpXpXpXpXpXpXpXpXpXpXpXpXpXpXpXpXpXpXpXpXpXpXpXpXpXpXpXpXpXpXpXpXpXpXpXpXpXpXpXpXpXpXpXpX",
"pXpXpXpXpXpXpXpXpXpXpXpXpXpXpXpXpXpXpXpXpXpXpXpXpXpXpXpXpXpXpXpXpXpXpXpXpXpXpXpXpXpXpXpXpXpXpXpXpXpXpXpXpXpXpXpXpXpXpXpXpXpXpXpX",
"pXpXpXpXpXpXpXpXpXpXpXpXpXpXpXpXpXpXpXpXpXpXpXpXpXpXpXpXpXpXpXpXpXpXpXpXpXpXpXpXpXpXpXpXpXpXpXpXpXpXpXpXpXpXpXpXpXpXpXpXpXpXpXpX",
"pXpXpXpXpXpXpXpXpXpXpXpXpXpXpXpXpXpXpXpXpXpXpXpXpXpXpXz.x.pXpXpXpXpXpXpXpXpXpXpXpXpXpXpXpXpXpXpXpXpXpXpXpXpXpXpXpXpXpXpXpXpXpXpX",
"pXpXpXpXpXpXpXpXpXpXpXpXpXpXpXpXpXpXpXpXpXpXpXpXpXpXC.x.pXpXpXpXpXpXpXpXpXpXpXpXpXpXpXpXpXpXpXpXpXpXpXpXpXpXpXpXpXpXpXpXpXpXpXpX",
"pXpXpXpXpXpXpXpXpXpXpXpXpXpXpXpXpXpXpXpXpXpXpXpXpXx.f.pXpXpXpXpXpXpXpXpXpXpXpXpXpXpXpXpXpXpXpXpXpXpXpXpXpXpXpXpXpXpXpXpXpXpXpXpX",
"pXpXpXpXpXpXpXpXpXpXpXpXpXpXpXpXpXpXpXpXpXpXpXpXi.u.w.pXpXpXpXpXpXpXpXpXpXpXpXpXpXpXpXpXpXpXpXpXpXpXpXpXpXpXpXpXpXpXpXpXpXpXpXpX",
"pXpXpXpXpXpXpXpXpXpXpXpXpXpXpXpXpXpXpXpXpXpXpXk.w.' r.pXpXpXpXpXpXpXpXpXpXpXpXpXpXpXpXpXpXpXpXpXpXpXpXpXpXpXpXpXpXpXpXpXpXpXpXpX",
"pXpXpXpXpXpXpXpXpXpXpXpXpXpXpXpXpXpXpXN.N.pXpXe._ ] pXpXpXpXpXpXpXpXpXpXpXpXpXpXpXpXpXpXpXpXpXpXpXpXpXpXpXpXpXpXpXpXpXpXpXpXpXpX",
"pXpXpXpXpXpXpXpXpXpXpXpXpXpXpXpXpXpXn.M.v.pXpX{ _ w.pXpXpXpXpXpXpXpXpXpXpXpXpXpXpXpXpXpXpXpXpXpXpXpXpXpXpXpXpXpXpXpXpXpXpXpXpXpX",
"pXpXpXpXpXpXpXpXpXpXpXpXB.pXpXpXpXN.M.v.B.pXe.' _ :.pXpXpXpXpXpXpXpXpXpXpXpXpXpXpXpXpXpXpXpXpXpXpXpXpXpXpXpXpXpXpXpXpXpXpXpXpXpX",
"pXpXpXpXpXpXpXpXpXpXpXpXb.n.C.pXB.q.4.q.v.g.r.{ ] ] pXpXpXpXpXpXpXpXpXpXpXpXpXpXpXpXpXpXpXpXpXpXpXpXpXpXpXpXpXpXpXpXpXpXpXpXpXpX",
"pXpXpXpXpXpXpXpXpXpXpXpX,.=.q.M.m.5.6.5.N.Z.z.e.` ` pXpXpXpXpXpXpXpXpXpXpXpXpXpXpXpXpXpXpXpXpXpXpXpXpXpXpXpXpXpXpXpXpXpXpXpXpXpX",
"pXpXpXpXpXpXpXpXpXpXpXpX~ ;.t.eXyXyXyXtXx.C.z.w.[ ,.pXpXpXpXpXpXpXpXpXpXpXpXpXpXpXpXpXpXpXpXpXpXpXpXpXpXpXpXpXpXpXpXpXpXpXpXpXpX",
"pXpXpXpXpXpXpXpXpXpXpXpXpXrX-X,X9X7X9X-Xj.*.{ / :.5.pXpXpXpXpXpXpXpXpXpXpXpXpXpXpXpXpXpXpXpXpXpXpXpXpXpXpXpXpXpXpXpXpXpXpXpXpXpX",
"pXpXpXpXpXpXpXpXpXpXpXpXE. X7X7X=X;X%X#X].@.} 1 6.b.pXpXpXpXpXpXpXpXpXpXpXpXpXpXpXpXpXpXpXpXpXpXpXpXpXpXpXpXpXpXpXpXpXpXpXpXpXpX",
"pXpXpXpXpXpXpXpXpXpXpXpXm W E.;X;XXXoXoX|.^.K.S r.0.pXpXpXpXpXpXpXpXpXpXpXpXpXpXpXpXpXpXpXpXpXpXpXpXpXpXpXpXpXpXpXpXpXpXpXpXpXpX",
"pXpXpXpXpXpXpXpXpXpXpXpXW wXQ.u E.`.'..X'.!.!.F.X.4.a.pXpXpXpXpXpXpXpXpXpXpXpXpXpXpXpXpXpXpXpXpXpXpXpXpXpXpXpXpXpXpXpXpXpXpXpXpX",
"pXpXpXpXpXpXpXpXpXpXpXpXpXqX&Xn P.L.L.L.S.T D.T w.=.8.m.pXpXpXpXpXpXpXpXpXpXpXpXpXpXpXpXpXpXpXpXpXpXpXpXpXpXpXpXpXpXpXpXpXpXpXpX",
"pXpXpXpXpXpXpXpXpXpXpXpXS.W.&X.X#X`.J.I I U A W 1.3.,.,.pXpXpXpXpXpXpXpXpXpXpXpXpXpXpXpXpXpXpXpXpXpXpXpXpXpXpXpXpXpXpXpXpXpXpXpX",
"pXpXpXpXpXpXpXpXpXL.;X$XoXK.J._.'.E.I V M x d | 6.<.pXpXpXpXpXpXpXpXpXpXpXpXpXpXpXpXpXpXpXpXpXpXpXpXpXpXpXpXpXpXpXpXpXpXpXpXpXpX",
"pXpXpXpXpXpXpXpXpXK |._.J.V f u y a r w e e 6 o.2.pXpXpXpXpXpXpXpXpXpXpXpXpXpXpXpXpXpXpXpXpXpXpXpXpXpXpXpXpXpXpXpXpXpXpXpXpXpXpX",
"pXpXpXpXpXpXpXpXpXpXN V m p i e e 9 7 X s y b i.8.h.pXpXpXpXpXpXpXpXpXpXpXpXpXpXpXpXpXpXpXpXpXpXpXpXpXpXpXpXpXpXpXpXpXpXpXpXpXpX",
"pXpXpXpXpXpXpXpXpXpXpXj z k o o o : : o D Z T ] 8.m.p.pXpXpXpXpXpXpXpXpXpXpXpXpXpXpXpXpXpXpXpXpXpXpXpXpXpXpXpXpXpXpXpXpXpXpXpXpX",
"pXpXpXpXpXpXpXpXpXpXpXpXpXpXpXpXpXpX2 R F.K.T  .;.7.m.d.y.pXpXpXpXpXpXpXpXpXpXpXpXpXpXpXpXpXpXpXpXpXpXpXpXpXpXpXpXpXpXpXpXpXpXpX",
"pXpXpXpXpXpXpXpXpXpXpXpXpXpXpXpXpXpX/ [. X^.J.pX/ e.a.g.f.d.pXpXpXpXpXpXpXpXpXpXpXpXpXpXpXpXpXpXpXpXpXpXpXpXpXpXpXpXpXpXpXpXpXpX",
"pXpXpXpXpXpXpXpXpXpXpXpXpXpXpXpXpXpXX.{./.!.I pXpXpX*.4.s.f.g.pXpXpXpXpXpXpXpXpXpXpXpXpXpXpXpXpXpXpXpXpXpXpXpXpXpXpXpXpXpXpXpXpX",
"pXpXpXpXpXpXpXpXpXpXpXpXpXpXpXpXpXQ o.OX^.C Y pXpXpX9Xl.a.d.g.p.pXpXpXpXpXpXpXpXpXpXpXpXpXpXpXpXpXpXpXpXpXpXpXpXpXpXpXpXpXpXpXpX",
"pXpXpXpXpXpXpXpXpXpXpXpXpXpXpXpXpXQ #.oX<X.XS.(.#.rX>X .*.p.p.j.:X6XpXpXpXpXpXpXpXpXpXpXpXpXpXpXpXpXpXpXpXpXpXpXpXpXpXpXpXpXpXpX",
"pXpXpXpXpXpXpXpXpXpXpXpXpXpXpXpXpXQ $.@X6X$XK.K | ..E h +.h.c.qX3X3X8X-XpXpXpXpXpXpXpXpXpXpXpXpXpXpXpXpXpXpXpXpXpXpXpXpXpXpXpXpX",
"pXpXpXpXpXpXpXpXpXpXpXpXpXpXpXpXpX~ $.+X#X.X).N u u u H A.$.l.iX7X5X<X%X-X8XpXpXpXpXpXpXpXpXpXpXpXpXpXpXpXpXpXpXpXpXpXpXpXpXpXpX",
"pXpXpXpXpXpXpXpXpXpXpXpXpXpXpXpX) ( O.I._.~.~.K m N D D F R.rXeX3X1X<X=X3X8X2XpXpXpXpXpXpXpXpXpXpXpXpXpXpXpXpXpXpXpXpXpXpXpXpXpX",
"pXpXpXpXpXpXpXpXpXpXpXpXpXpXpXpX^ 3 x V U I S.G p m M m l T.*Xj.:X@X$X#X#X=X4X=X5X6XpXpXpXpXpXpXpXpXpXpXpXpXpXpXpXpXpXpXpXpXpXpX",
"pXpXpXpXpXpXpXpXpXpXpXpXpXpXpXpX< < c y g f m g 0 w f M M Y |.{.*XXX`._..X+X$X4X3X0XpXpXpXpXpXpXpXpXpXpXpXpXpXpXpXpXpXpXpXpXpXpX",
"pXpXpXpXpXpXpXpXpXpXpXpXpXpXpXpX, 3 ^ : 5 9 8 0 8 . p m M I L.^.~.S.Z I J.U.`..X#X%X<X2X2XpXpXpXpXpXpXpXpXpXpXpXpXpXpXpXpXpXpXpX",
"pXpXpXpXpXpXpXpXpXpXpXpXpXpXpXpXpX- < 3 ; + . 9 8 8 f m V I I I Z f g r g m N L K.^.#X<X3XpXpXpXpXpXpXpXpXpXpXpXpXpXpXpXpXpXpXpX",
"pXpXpXpXpXpXpXpXpXpXpXpXpXpXpXpXw & $ $ , ; @ + 8 9 f m M V N H E < * @ - > ; : c l Z I.XX=X6X2XpXpXpXpXpXpXpXpXpXpXpXpXpXpXpXpX",
"pXpXpXpXpXpXpXpXpXpXpXpXpXpXpXpXw . = # @ @ $ @ o 8 q 0 i N l ; - : 0 0 o j T | % 3 } v K T.XX$X5X6XpXpXpX-.8.b.v.8.,.pXpXpXpXpX",
"pXpXpXpXpXpXpXpXpXpXpXpXpXpXpXz 9 0 o pX* * # # + 9 0 . 8 N H pXpX8 8 9 0 . B Y pXpXpX^ 4  .+.L. X+X@X$X/.[.9.7.3.,.pXpXpXpXpXpX",
"pXpXpXpXpXpXpXpXpXpXpXpXpXpXH 8 q o pXpXpXpXpXpX> e . pXpX9 F pXpXpXpXpXpXpX  l pXpXpXpXpXpX/ ....O.+.(.].%.>.9.>.pXpXpXpXpXpXpX",
"pXpXpXpXpXpXpXpXpXpXT F.). XM X pXpXpXpXpXpXpXpXpXq 8 pXpXF Y pXpXpXpXpXpXpXpXe H pXpXpXpXpXpXpXpXpXpXpXpXQ ( ` pXpXpXpXpXpXpXpX",
"pXpXpXpXpXpXpXpXpXpXpXv @.H 7 pXpXpXpXpXpXpXpXpXpX8 0 pXpXL T pXpXpXpXpXpXpXD p s pXpXpXpXpXpXpXpXpXpXpXpXpXpXpXpXpXpXpXpXpXpXpX",
"pXpXpXpXpXpXpXpXpXpXpXpXpXpXpXpXpXpXpXpXpXpXpXpXpX. e K S.I.J.pXpXpXpXpXpXpX8 q pXpXpXpXpXpXpXpXpXpXpXpXpXpXpXpXpXpXpXpXpXpXpXpX",
"pXpXpXpXpXpXpXpXpXpXpXpXpXpXpXpXpXpXpXpXpXpXpXpX0 0 p P J.P.pXpXpXpXpXpXpXpXpXpXpXpXpXpXpXpXpXpXpXpXpXpXpXpXpXpXpXpXpXpXpXpXpXpX",
"pXpXpXpXpXpXpXpXpXpXpXpXpXpXpXpXpXpXpXpXpXpXpXpXpX7 b R R R pXpXpXpXpXpXpXpXpXpXpXpXpXpXpXpXpXpXpXpXpXpXpXpXpXpXpXpXpXpXpXpXpXpX",
"pXpXpXpXpXpXpXpXpXpXpXpXpXpXpXpXpXpXpXpXpXpXpXpXpXpXpXpXpXpXpXpXpXpXpXpXpXpXpXpXpXpXpXpXpXpXpXpXpXpXpXpXpXpXpXpXpXpXpXpXpXpXpXpX",
"pXpXpXpXpXpXpXpXpXpXpXpXpXpXpXpXpXpXpXpXpXpXpXpXpXpXpXpXpXpXpXpXpXpXpXpXpXpXpXpXpXpXpXpXpXpXpXpXpXpXpXpXpXpXpXpXpXpXpXpXpXpXpXpX"
};
