/* XPM */
static char *result[] = {
/* columns rows colors chars-per-pixel */
"64 49 210 2 ",
"   c #1C023E",
".  c #220F3D",
"X  c #2C153E",
"o  c #27143E",
"O  c #33183D",
"+  c #381B38",
"@  c #31192C",
"#  c #4B261E",
"$  c #45231B",
"%  c #5D311D",
"&  c #411E3E",
"*  c #4E2820",
"=  c #482426",
"-  c #552A2A",
";  c #5E332D",
":  c #462438",
">  c #5E333E",
",  c #683828",
"<  c #723E24",
"1  c #6A3B36",
"2  c #7E481B",
"3  c #7C4624",
"4  c #7E4A32",
"5  c #0E004B",
"6  c #180A41",
"7  c #290249",
"8  c #2D1542",
"9  c #311646",
"0  c #331A43",
"q  c #311649",
"w  c #35194A",
"e  c #391B4B",
"r  c #3F1E41",
"t  c #3A1654",
"y  c #3E1954",
"u  c #371551",
"i  c #0E0061",
"p  c #2D0061",
"a  c #3D0365",
"s  c #3D1065",
"d  c #451E4A",
"f  c #40005D",
"g  c #431B5B",
"h  c #4A1E5E",
"j  c #401858",
"k  c #53294A",
"l  c #4B2456",
"z  c #572B5A",
"x  c #673849",
"c  c #633558",
"v  c #480667",
"b  c #471B61",
"n  c #4A1D63",
"m  c #4A1868",
"M  c #531E6C",
"N  c #551F72",
"B  c #53226B",
"V  c #582966",
"C  c #5B2574",
"Z  c #572272",
"A  c #512D64",
"S  c #622D71",
"D  c #63297B",
"F  c #62277B",
"G  c #693577",
"H  c #743B73",
"J  c #743A7C",
"K  c #74347C",
"L  c #622F6A",
"P  c #794658",
"I  c #764447",
"U  c #784B70",
"Y  c #9A5C1A",
"T  c #89510C",
"R  c #A25D1C",
"E  c #A8661A",
"W  c #864F2C",
"Q  c #985B2A",
"!  c #985A37",
"~  c #8D5534",
"^  c #9E6336",
"/  c #A7682E",
"(  c #AD6C38",
")  c #BA7836",
"_  c #B7722B",
"`  c #C57C17",
"'  c #C17D32",
"]  c #834B42",
"[  c #965C46",
"{  c #844F52",
"}  c #9F634F",
"|  c #B16E52",
" . c #BA7855",
".. c #814968",
"X. c #8B5268",
"o. c #8B5273",
"O. c #9D637C",
"+. c #A0626D",
"@. c #B36F72",
"#. c #D79B00",
"$. c #C8910C",
"%. c #EEAF0F",
"&. c #F4BB14",
"*. c #D9972B",
"=. c #C48336",
"-. c #C3823C",
";. c #CA853E",
":. c #CB8834",
">. c #D49134",
",. c #DC9C38",
"<. c #D48A37",
"1. c #E59F2C",
"2. c #ECA628",
"3. c #E9A634",
"4. c #F1A33A",
"5. c #ECB539",
"6. c #F9B937",
"7. c #F0B129",
"8. c #FFC222",
"9. c #FBC43D",
"0. c #C98645",
"q. c #D58F49",
"w. c #CE8C4C",
"e. c #E29F4F",
"r. c #E89B58",
"t. c #DDA75C",
"y. c #EDA84D",
"u. c #FFAB4F",
"i. c #FABD42",
"p. c #F9BA4A",
"a. c #E8A255",
"s. c #F9A655",
"d. c #EEB35A",
"f. c #FFB45F",
"g. c #CF8E6D",
"h. c #DEB270",
"j. c #ECAF60",
"k. c #EAB768",
"l. c #E0A275",
"z. c #FAC646",
"x. c #FECC52",
"c. c #F1C355",
"v. c #FFD251",
"b. c #F7CB51",
"n. c #EEC267",
"m. c #EEC475",
"M. c #F8CE71",
"N. c #FFE362",
"B. c #5C0B89",
"V. c #6C2D83",
"C. c #6C2C8A",
"Z. c #652881",
"A. c #712D87",
"S. c #6E3184",
"D. c #723485",
"F. c #75348C",
"G. c #7B3B8B",
"H. c #753987",
"J. c #783592",
"K. c #7D3B91",
"L. c #793699",
"P. c #803D96",
"I. c #833CA5",
"U. c #854487",
"Y. c #854399",
"T. c #8A459D",
"R. c #864598",
"E. c #985599",
"W. c #8E558B",
"Q. c #886591",
"!. c #A76986",
"~. c #BE7B8E",
"^. c #8C46A3",
"/. c #8E49A7",
"(. c #924DA6",
"). c #924BA9",
"_. c #8F52A0",
"`. c #9952AB",
"'. c #9A57A8",
"]. c #9C54B3",
"[. c #9D56B6",
"{. c #A25DB6",
"}. c #A65CBD",
"|. c #A85FBC",
" X c #A567AA",
".X c #AA63BD",
"XX c #AB64B9",
"oX c #B070BE",
"OX c #C17EB9",
"+X c #A55EC6",
"@X c #AB63C2",
"#X c #AE6BC2",
"$X c #AA67C9",
"%X c #B16CC3",
"&X c #B36BCB",
"*X c #B86DCF",
"=X c #B473C5",
"-X c #BC7DCA",
";X c #B577C7",
":X c #BF76D2",
">X c #B068D0",
",X c #C276D8",
"<X c #A48AAA",
"1X c #D38F89",
"2X c #D6A597",
"3X c #E2A486",
"4X c #C88BAF",
"5X c #BC85C1",
"6X c #BEA7C0",
"7X c None",
/* pixels */
"7X7X7X7X7X7X7X7X7X7X7X7X7X7X7X7X7X7X7X7X7X7X7X7X7X7X7X7X7X7X7X7X7X7X7X7X7X7X7X7X7X7X7X7X7X7X7X7X7X7X7X7X7X7X7X7X7X7X7X7X7X7X7X7X",
"7X7X7X7X7X7X7X7X7X7X7X7X7X7X7X7X7X7X7X7X7X7X7X7X7X7X7X7X7X7X7X7X7X7X7X7X7X7X7X7X7X7X7X7X7X7X7X7X7X7X7X7X7X7X7X7X7X7X7X7X7X7X7X7X",
"7X7X7X7X7X7X7X7X7X7X7X7X7X7X7X7X7X7X7X7X7X7X7X7X7X7X7X7X7X7X7X7X7X7X7X7X7X7X7X7X7X7X7X7X7X7X7X7X7X7X7X7X7X7X7X7X7X7X7X7X7X7X7X7X",
"7X7X7X7X7X7X7X7X7X7X7X7X7X7X7X7X7X7X7X7X7X7X7X7X7X7X7X7X7X7X7X7X7X7X7X7X7X7X7X7X7X7X7X7X7X7X7X7X7X7X7X7X7X7X7X7X7X7X7X7X7X7X7X7X",
"7X7X7X7X7X7X7X7X7X7X7X7X7X7X7X7X7X7X7X7X7X7X7X7X7X7X7X7X7X7X7X7X7X7X7X7X7X7X7X7X7X7X7X7X7X7X7X7X7X7X7X7X7X7X7X7X7X7X7X7X7X7X7X7X",
"7X7X7X7X7X7X7X7X7X7X7X7X7X7X7X7X7X7X7X7X7X7X7X7X7X7X7X7X7X7X7X7X7X7X7X7X7X7Xt.k.7X7X7X7X7X7X7X7X7X7X7X7X7X7X7X7X7X7X7X7X7X7X7X7X",
"7X7X7X7X7X7X7X7X7X7X7X7X7X7X7X7X7X7X7X7X7X7X7X7X7X7X7X7X7X7X7X7X7X7X7X7X7X7X7Xq.M.m.7X7X7X7X7X7X7X7X7X7X7X7X7X7X7X7X7X7X7X7X7X7X",
"7X7X7X7X7X7X7X7X7X7X7X7X7X7X7X7X7X7X7X7X7X7X7X7X7X7X7X7X7X7X7X7X7X7X7X7X7X7X7X7X0.f.j.7X7X7X7X7X7X7X7X7X7X7X7X7X7X7X7X7X7X7X7X7X",
"7X7X7X7X7X7X7X7X7X7X7X7X7X7X7X7X7X7X7X7X7X7X7X7X7X7X7X7X7X7X7X7X7X7X7X7X7X7X7X7X0.q.e.h.7X7X7X7X7X7X7X7X7X7X7X7X7X7X7X7X7X7X7X7X",
"7X7X7X7X7X7X7X7X7X7X7X7X7X7X7X7X7X7X7X7X7X7X7X7X7X7X7X7X7X7X7X7X7X7X7X7X7X7X7X7X7X-.Y j.7X7Xn.7X7X7X7X7X7X7X7X7X7X7X7X7X7X7X7X7X",
"7X7X7X7X7X7X7X7X7X7X7X7X7X7X7X7X7X7X7X7X7X7X7X7X7X7X7X7X7X7X7X7X7X7X7X7X7X7X7X7X7X;./ 0.7X7Xc.N.n.7X7X7X7X7X7X7X7X7X7X7X7X7X7X7X",
"7X7X7X7X7X7X7X7X7X7X7X7X7X7X7X7X7X7X7X7X7X7X7X7X7X7X7X7X7X7X7X7X7X7X7X7X7X7X7X7X7X;./ ) e.7X7X9.v.c.7X7X7X7X7X7X7X7X7X7X7X7X7X7X",
"7X7X7X7X7X7X7X7X7X7X7X7X7X7X7X7X7X7X7X7X7X7X7X7X7X7X7X7X7X7X7X7X7X7X7X7X7X7X7X7X7X-.) / <.7Xc.z.9.v.7X7X7X7Xx.7X7X7X7X7X7X7X7X7X",
"7X7X7X7X7X7X7X7X7X7X7X7X7X7X7X7X7X7X7X7X7X7X7X7X7X7X7X7X7X7X7X7X7X7X7X7X7X7X7X7X7X)  .' q.k.v.7.%.&.9.c.m.x.9.7X7X7X7X7X7X7X7X7X",
"7X7X7X7X7X7X7X7X7X7X7X7X7X7X7X7X7X7X7X7X7X7X7X7X7X7X7X7X7X7X7X7X7X7X7X7X7X7X7X7X7X:./ ' k.m.m.y.r.a.d.v.&.#.1.7X7X7X7X7X7X7X7X7X",
"7X7X7X7X7X7X7X7X7X7X7X7X7X7X7X7X7X7X7X7X7X7X7X7X7X7X7X7X7X7X7X7X7X7X7X7X7X7X7X7X7X3._ ) d.k.d.2X5X5X5X4X~.w.:.7X7X7X7X7X7X7X7X7X",
"7X7X7X7X7X7X7X7X7X7X7X7X7X7X7X7X7X7X7X7X7X7X7X7X7X7X7X7X7X7X7X7X7X7X7X7X7X7X7X7X7Xi.>.Y R ` g.XX$X&X$X+X$X<X X7X7X7X7X7X7X7X7X7X",
"7X7X7X7X7X7X7X7X7X7X7X7X7X7X7X7X7X7X7X7X7X7X7X7X7X7X7X7X7X7X7X7X7X7X7X7X7X7X7X7X7Xz.3.] P o.W.]..X[.@X;X5XL.L.7X7X7X7X7X7X7X7X7X",
"7X7X7X7X7X7X7X7X7X7X7X7X7X7X7X7X7X7X7X7X7X7X7X7X7X7X7X7X7X7X7X7X7X7X7X7X7X7X7X7X7Xz.,.K L.L.^.(.`.(.].'.S.Q.A 7X7X7X7X7X7X7X7X7X",
"7X7X7X7X7X7X7X7X7X7X7X7X7X7X7X7X7X7X7X7X7X7X7X7X7X7X7X7X7X7X7X7X7X7X7X7X7X7X7X7Xp.6.=.G.J.K.Y.^.Y.Y.D.a J 6XU 7X7X7X7X7X7X7X7X7X",
"7X7X7X7X7X7X7X7X7X7X7X7X7X7X7X7X7X7X7X7X7X7X7X7X7X7X7X7X7X7X7X7X7X7X7X7X7X7X7Xi.9.3.*.U Z.C.C D.F.H.Y.S.Q.<X7 7X7X7X7X7X7X7X7X7X",
"7X7X7X7X7X7X7X7X7X7X7X7X7X7X7X7X7X7X7X7X7X7X7X7X7X7X7X7X7X7X7X7X7X7X7X7X7X7X7X*.:.2.2.X.a Z C D V.T.[.`._._.A.{.7X7X7X7X7X7X7X7X",
"7X7X7X7X7X7X7X7X7X7X7X7X7X7X7X7X7X7X7X7X7X7X7X7X7X7X7X7X7X7X7X7X7X7X7X7X7X7X7X7X7X' 2.} i l g b C D.F.D.V.Z._.}..XY.7X7X7X7X7X7X",
"7X7X7X7X7X7X7X7X7X7X7X7X7X7X7X7X7X7X7X7X7X7X7X7X7X7X7X7X7X7X7X7X7X7X7X7X7X7X7X7X7X7X1.>.h 7 0 9 8 .   7 t s C S.J.M 7X7X7X7X7X7X",
"7X7X7X7X7X7X7X7X7X7X7X7X7X7X7X7X7X7X7X7X7X7X7X7X7X7X7X7X7X7X7X7X7X7X7X7X7X7X7X7X7Xy.9.3.P v w o o w e e e y g h n 7X7X7X7X7X7X7X",
"7X7X7X7X7X7X7X7X7X7X7X7X7X7X7X7X7X7X7X7X7X7X7X7X7X7X7X7X7X7X7X7X7X7X7X7X7X7X7X7Xy.x.5.' H Z.C d - : O + + : 7X7X7X7X7X7X7X7X7X7X",
"7X7X7X7X7X7X7X7X7X7X7X7X7X7X7X7X7X7X7X7X7X7X7X7X7X7X7X7X7X7X7X7X7X7X7X7X7X7Xs.s.p.5.' [ V.D.L...T 7X7X7X7X7X7X7X7X7X7X7X7X7X7X7X",
"7X7X7X7X7X7X7X7X7X7X7X7X7X7X7X7X7X7X7X7X7X7X7X7X7X7X7X7X7X7X7X7X7X7X7X7Xa.s.s.s.5.' ( 7XD.G.).E. .7X7X7X7X7X7X7X7X7X7X7X7X7X7X7X",
"7X7X7X7X7X7X7X7X7X7X7X7X7X7X7X7X7X7X7X7X7X7X7X7X7X7X7X7X7X7X7X7X7X7X7X7Xf.s.s.i.#.7X7X7XG.D Y.). .T 7X7X7X7X7X7X7X7X7X7X7X7X7X7X",
"7X7X7X7X7X7X7X7X7X7X7X7X7X7X7X7X7X7X7X7X7X7X7X7X7X7X7X7X7X7X7X7X7X7X7X4.u.r.6.g.-X7X7X7XJ v T./. .T 7X7X7X7X7X7X7X7X7X7X7X7X7X7X",
"7X7X7X7X7X7X7X7X7X7X7X7X7X7X7X7X7X7X7X7X7X7X7X7X7X7X7X7X7X7X7X7X-X-X$X1Xr.u.$.~ !.~.| o.V./.=X[.@.T 7X7X7X7X7X7X7X7X7X7X7X7X7X7X",
"7X7X7X7X7X7X7X7X7X7X7X7X7X7X7X7X7X7X7X7X7X7X7X7X7X7X7X7X7X7X7X.X,X&X:X;X3Xa.U.v - I P B D.].%X+X!.E 7X7X7X7X7X7X7X7X7X7X7X7X7X7X",
"7X7X7X7X7X7X7X7X7X7X7X7X7X7X7X7X7X7X7X7X7X7X7X7X7X7X7X7X7X-X#X}.}.#X>X-Xl.!.B.Z m a p b K.^.`.].W._ / 7X7X7X7X7X7X7X7X7X7X7X7X7X",
"7X7X7X7X7X7X7X7X7X7X7X7X7X7X7X7X7X7X7X7X7X7X7X7X7X7X7X7X.X,X&X|.@X%X>X3X1XL.m b n n b B G.K.K.J.U Q Q 7X7X7X7X7X7X7X7X7X7X7X7X7X",
"7X7X7X7X7X7X7X7X7X7X7X7X7X7X7X7X7X7X7X7X7X7X7X7X7X;X=XXX@X@X{.].].[..Xg. XL.n b n b e b C C C B b 1 2 7X7X7X7X7X7X7X7X7X7X7X7X7X",
"7X7X7X7X7X7X7X7X7X7X7X7X7X7X7X7X7X7X7X7X7X7X7X7X@X*X*X+X{.`./.K.U.^.'.'.^.V.n b g 9 X t g y y 5 k 3 < 7X7X7X7X7X7X7X7X7X7X7X7X7X",
"7X7X7X7X7X7X7X7X7X7X7X7X7X7X7X7X7X7X7X7X7X7X%X,X@X}.`.T.K.F.Z.Z N C V.J.J.K M b j 8 X X 8 6 6 : W < % 7X7X7X7X7X7X7X7X7X7X7X7X7X",
"7X7X7X7X7X7X7X7X7X7X7X7X7X7X7X7X7X7X7X7X7X%X.X@X(.K.Z.M y t d r r k L C D D M b b 8 8 8 O : ; < < # = 7X7X7X7X7X7X7X7X7X7X7X7X7X",
"7X7X7X7X7X7X7X7X>.7X7X7X7X7X7X7X7X7X7X%X,X|.^.C.N z k , 1 > - = = ; 4 c m n g g j 0 X + = % % # $ @ q 7X7X7X7X7X7X7X7X7X7X7X7X7X",
"7X7X7X7X7X7X7X7X>.6.5.9.z.3.7X7X7X%X%X[.I.C.S P ~ 4 7XP G l 8 q 8 w : 7Xz m t q 8 X O = # $ = $ = X w l 7X7X7X7X7X7X7X7X7X7X7X7X",
"7X7X7X7X7X7X7X7X7X7X3.7.2.@.I.(.+X).Y.U.X.[ W 2 7X7X7XC n . O 8 8 0 7X7XV B 8 X X 8 + * = # * 7X7X8 8 e 7X7X7X7X7X7X7X7X7X7X7X7X",
"7X7X7X7X7X7X7X7X7X7X7X4.<.| +.o.X.{ [ ^ Y 7X7X7X7X7X7Xl @ 7X7X7X7X7X7X7XB e 7X7X0 q : 7X7X7X7X7X7X7X+ 8 l G.7XP.U.7X7X7X7X7X7X7X",
"7X7X7X7X7X7X7X7X7X7X7X/ Q T 7X7X7X7X7X7X7X7X7X7X7X7Xz g 7X7X7X7X7X7X7X7XG S 7X7X8 w 7X7X7X7X7X7X7X7X7XX t L.'.K G 7X7X7X7X7X7X7X",
"7X7X7X7X7X7X7X7X7X7X7X7X7X7X7X7X7X7X7X7X7X7X7X7X7X7X7Xe y 7X7X7X7X7X7X7XJ D 7X7X9 w 7X7X7X7X7X7X7X7X7X7X8 t ..7X7X7X7X7X7X7X7X7X",
"7X7X7X7X7X7X7X7X7X7X7X7X7X7X7X7X7X7X7X7X7X7X7X7X7X7X7X0 8 7X7X7X7X7X7X7X7XF.F.V.j 8 7X7X7X7X7X7X7X7X7X7X7X7X7X7X7X7X7X7X7X7X7X7X",
"7X7X7X7X7X7X7X7X7X7X7X7X7X7X7X7X7X7X7X7X7X7X7X7X7X7X7X7X7X7X7X7X7X7X7X7X7XG J S l q 8 7X7X7X7X7X7X7X7X7X7X7X7X7X7X7X7X7X7X7X7X7X",
"7X7X7X7X7X7X7X7X7X7X7X7X7X7X7X7X7X7X7X7X7X7X7X7X7X7X7X7X7X7X7X7X7X7X7X7X7XI I P c 8 7X7X7X7X7X7X7X7X7X7X7X7X7X7X7X7X7X7X7X7X7X7X",
"7X7X7X7X7X7X7X7X7X7X7X7X7X7X7X7X7X7X7X7X7X7X7X7X7X7X7X7X7X7X7X7X7X7X7X7X7X7X7X7X7X7X7X7X7X7X7X7X7X7X7X7X7X7X7X7X7X7X7X7X7X7X7X7X",
"7X7X7X7X7X7X7X7X7X7X7X7X7X7X7X7X7X7X7X7X7X7X7X7X7X7X7X7X7X7X7X7X7X7X7X7X7X7X7X7X7X7X7X7X7X7X7X7X7X7X7X7X7X7X7X7X7X7X7X7X7X7X7X7X"
};
