/* XPM */
static char *result[] = {
/* columns rows colors chars-per-pixel */
"36 64 220 2 ",
"   c #000036",
".  c #2A193D",
"X  c #3C203F",
"o  c #5C2D15",
"O  c #5B2E1A",
"+  c #5F3118",
"@  c #5F3000",
"#  c #623215",
"$  c #62341A",
"%  c #6A3E1F",
"&  c #633109",
"*  c #492839",
"=  c #583030",
"-  c #7D3631",
";  c #774B1C",
":  c #7C5006",
">  c #794D24",
",  c #734823",
"<  c #7B5228",
"1  c #7C5233",
"2  c #1F004C",
"3  c #2C1946",
"4  c #2B194A",
"5  c #2C1647",
"6  c #321C44",
"7  c #341B4C",
"8  c #36015B",
"9  c #2B1A59",
"0  c #331D53",
"q  c #381A5A",
"w  c #2C024E",
"e  c #392146",
"r  c #3B215A",
"t  c #382454",
"y  c #160075",
"u  c #361F62",
"i  c #371F68",
"p  c #351B6E",
"a  c #3D2363",
"s  c #352169",
"d  c #3A216C",
"f  c #3E2A6F",
"g  c #3C2273",
"h  c #3E2479",
"j  c #462957",
"k  c #47325A",
"l  c #593957",
"z  c #573C4B",
"x  c #460768",
"c  c #550075",
"v  c #431262",
"b  c #432464",
"n  c #472A69",
"m  c #4A3166",
"M  c #57376B",
"N  c #412372",
"B  c #4A2A7D",
"V  c #4A2A77",
"C  c #5E2D7A",
"Z  c #562E76",
"A  c #4A3475",
"S  c #573272",
"D  c #593778",
"F  c #552E67",
"G  c #632A7E",
"H  c #62327E",
"J  c #623B7C",
"K  c #6A3469",
"L  c #754E4F",
"P  c #694679",
"I  c #6E537E",
"U  c #9E3C01",
"Y  c #9E3205",
"T  c #9D3C13",
"R  c #9D3E19",
"E  c #9B3116",
"W  c #A13B0D",
"Q  c #A83E08",
"!  c #A23D13",
"~  c #AC3D12",
"^  c #923A39",
"/  c #885D0D",
"(  c #9E421D",
")  c #9D4719",
"_  c #885D19",
"`  c #A74217",
"'  c #A34001",
"]  c #8B6003",
"[  c #BA6E0D",
"{  c #9F4423",
"}  c #9E4B24",
"|  c #855A2C",
" . c #8A5E2C",
".. c #845A25",
"X. c #875C32",
"o. c #9E592C",
"O. c #A65824",
"+. c #8C602E",
"@. c #91652E",
"#. c #96692C",
"$. c #956932",
"%. c #986A34",
"&. c #9E7132",
"*. c #8F6331",
"=. c #AD762F",
"-. c #A6673B",
";. c #A37534",
":. c #A57835",
">. c #AA7C35",
",. c #B06A2C",
"<. c #845B53",
"1. c #9B7049",
"2. c #8C496C",
"3. c #966A6E",
"4. c #A47D64",
"5. c #B48339",
"6. c #AE8137",
"7. c #D68D0D",
"8. c #E19A10",
"9. c #E2A01D",
"0. c #CD9231",
"q. c #E29F21",
"w. c #D9AA2D",
"e. c #D4AB3E",
"r. c #E6A523",
"t. c #E5AC32",
"y. c #E3A730",
"u. c #EAB73F",
"i. c #F6BD39",
"p. c #BC8F41",
"a. c #CE9C52",
"s. c #DDB544",
"d. c #DCAB4B",
"f. c #EDBD43",
"g. c #EBBF4D",
"h. c #C58F6A",
"j. c #CCA369",
"k. c #E8BD63",
"l. c #EEC448",
"z. c #F0C44C",
"x. c #FECD4D",
"c. c #F2C345",
"v. c #F3C959",
"b. c #FFD154",
"n. c #FFD25A",
"m. c #FFD04E",
"M. c #F4CB68",
"N. c #FED46D",
"B. c #FFD567",
"V. c #F4CC73",
"C. c #FBD37A",
"Z. c #F7D077",
"A. c #E8C268",
"S. c #4E2882",
"D. c #562C87",
"F. c #5E3688",
"G. c #5E3293",
"H. c #653283",
"J. c #6A3986",
"K. c #653B96",
"L. c #633797",
"P. c #6D2F8D",
"I. c #693BA3",
"U. c #5F4880",
"Y. c #674683",
"T. c #71438E",
"R. c #745788",
"E. c #684197",
"W. c #794C96",
"Q. c #764C9B",
"!. c #764995",
"~. c #7D539B",
"^. c #715897",
"/. c #6B578F",
"(. c #6C42A2",
"). c #7D59A9",
"_. c #754BB9",
"`. c #764DB4",
"'. c #744DAB",
"]. c #7C65A8",
"[. c #794DC0",
"{. c #855B9A",
"}. c #85679C",
"|. c #9A6C8E",
" X c #845CA3",
".X c #865CA8",
"XX c #8B5FBE",
"oX c #8963A7",
"OX c #8A64A9",
"+X c #8864AB",
"@X c #9379A9",
"#X c #916CAC",
"$X c #875AC3",
"%X c #986AC7",
"&X c #A676D3",
"*X c #94909F",
"=X c #A59298",
"-X c #A1819E",
";X c #9B8EA9",
":X c #A495B5",
">X c #B78BAE",
",X c #BAA1A0",
"<X c #C8AA8B",
"1X c #D4A5B1",
"2X c #F5D186",
"3X c #F5D28A",
"4X c #FFDB8B",
"5X c #FAD585",
"6X c #F9D788",
"7X c #FFE18F",
"8X c #FFEA91",
"9X c #B383DB",
"0X c #B6A4C6",
"qX c #BAB4C5",
"wX c #C2B8CE",
"eX c #D6D7DD",
"rX c #CAC5D5",
"tX c #DFE1E5",
"yX c #E6E9EB",
"uX c None",
/* pixels */
"uXuXuXuXuXuXuXuXuXuXuXuXuXuXuXuXuXuXuXuXuXuXuXuXuXuXuXuXuXuXuXuXuXuXuXuX",
"uXuXuXuXuXuXuXuXuXuXuXuXuXuXuXuXuXuXuXuXuXuXuXuXuXuXuXuXuXuXuXuXuXuXuXuX",
"uXuXuXuXuXuXuXuXuXuXuXuXuXuXuXuXuXuXuXuXuXuXuXuXuXuXuXuXuXuXuXuXuXuXuXuX",
"uXuXuXuXuXuXuXuXuXuXuXuXuXuXuXuXuXuXuXuXuXuXuXuXuXuXuXuXuXuXuXuXuXuXuXuX",
"uXuXuXuXuXuXuXuXuXuXuXuXuXuXuXuXuXuXuXuXuXuXuXuXuXuXuXuXuXuXuXuXuXuXuXuX",
"uXuXuXuXuXuXuXuXuXuXuXuXuXuXuXuXuXuXuXuXuXuXuXuXuXuXuXuXuXuXuXuXuXuXuXuX",
"uXuXuXuXuXuXuXuXuXuXuXuXuXuXuXuXuXuXuXuXuXuXuXuXuXuXuXuXuX2XuXuXuXuXuXuX",
"uXuXuXuXuXuXuXuXuXuX4XuXuXuXuXuXuXuXuXuXuXuXuXuXuXuXuXuXuX2X2XuXuXuXuXuX",
"uXuXuXuXuXuXuXuXuXuX8X2XuXuXuXuXuXuXuXuXuXuXuXuXuXuXuXuXuX4X2XuXuXuXuXuX",
"uXuXuXuXuXuXuXuXuXuXN.2XuXuXuXuXuXuXuXuXuXuXuXuXuXuXuXuX2X7XV.uXuXuXuXuX",
"uXuXuXuXuXuXuXuXuXuXf.5X3XuXuXuXuXuXuXuXuXuXuXuXuXuXuXuX7XC.c.uXuXuXuXuX",
"uXuXuXuXuXuXuXuXuXuX0.x.5XuXuXuXuXuXuXuXuXuXuXuXuXuXuXv.v.n.uXuXuXuXuXuX",
"uXuXuXuXuXuXuXuXuXuXuXc.v.C.uXuXuXuXuXuXuXuXuXuXuXuXz.b.z.z.uXuXuXuXuXuX",
"uXuXuXuXuXuXuXuXuXuXuXy.c.N.3XuXuXuXuXuXuXuXuXuXuXuXb.z.b.z.uXuXuXuXuXuX",
"uXuXuXuXuXuXuXuXuXuXuX7.i.v.4X2XuXuXuXuXz.uXuXuXuXz.v.z.z.uXuXuXuXuXuXuX",
"uXuXuXuXuXuXuXuXuXuXuXuXr.f.M.4XuXuXuXg.z.uXuXuXM.B.M.m.uXuXuXuXuXuXuXuX",
"uXuXuXuXuXuXuXuXuXuXuXuXq.i.M.6X2XuXuXt.b.uXuXuX6X3XN.f.uXuXuXuXuXuXuXuX",
"uXuXuXuXuXuXuXuXuXuXuXuXuXr.v.2X4XV.uXq.m.uXuX2X6X3XN.z.uXuXuXuXuXuXuXuX",
"uXuXuXuXuXuXuXuXuXuXuXuXuXu.N.3X3XV.t.7.x.f.2X7X2X2X3XuXuXuXuXuXuXuXuXuX",
"uXuXuXuXuXuXuXuXuXuXuXuXuXz.n.Z.Z.Z.9.0.y.i.C.2X5X4X3XuXuXuXuXuXuXuXuXuX",
"uXuXuXuXuXuXuXuXuXuXuXuXuXuXi.k.<X-X|.[ 8.d.=X=X<X7X5XuXuXuXuXuXuXuXuXuX",
"uXuXuXuXuXuXuXuXuXuXuXuXuXuXh.#X).).W.o.7.a.). X].,Xk.uXuXuXuXuXuXuXuXuX",
"uXuXuXuXuXuXuXuXuXuXuXuXuXuX^. X XW.!.2.[ |..XOXOX#XuXuXuXuXuXuXuXuXuXuX",
"uXuXuXuXuXuXuXuXuXuXuXuXuXuXW. XoXoX.X{.3.oXoXOXOX#XuXuXuXuXuXuXuXuXuXuX",
"uXuXuXuXuXuXuXuXuXuXuXuXuXuXH H.T.W.). XoXoXoXOXoX.X XuXuXuXuXuXuXuXuXuX",
"uXuXuXuXuXuXuXuXuXuXuXuXuXuXm v x c H.T.!.!.~.W.P.P.J.uXuXuXuXuXuXuXuXuX",
"uXuXuXuXuXuXuXuXuXuXuXuXuXk 2 R.qX;Xx S H C c H ;XR.v uXuXuXuXuXuXuXuXuX",
"uXuXuXuXuXuXuXuXuXuXuXuXuX9 b wXtXyX*X2 M 8 :XeXyXrXx uXuXuXuXuXuXuXuXuX",
"uXuXuXuXuXuXuXuXuXuXuXe.s.z U.0X@XwXqX8 H Y.qX:XeXeXY.uXuXs.uXuXuXuXuXuX",
"uXuXuXuXuXuXuXuXuXuX=.O.O.L /.@Xw P @XY.c }.{.  }.wXR.uXuX=.5.uXuXuXuXuX",
"uXuXuXuXuXuXuXuXuXO.E Y ^ D Y.#XM w }.Y.H.W.}.q R.0X].{.U E ` =.uXuXuXuX",
"uXuXuXuXuXuXuXuXO.Y ` ' ^ Z H.!.~.oX X{.oX XOX.X#X XQ.2.T T W } uXuXuXuX",
"uXuXuXuXuXuXuXo.! T T T ' - a H.Q.{.OX#XoX#X.XoX XQ.K U T T ! ! uXuXuXuX",
"uXuXuXuXuXuXuX) W T uXuX( U 1.A S n H.J.T.W.H.J.Q.K Q ! ! T T W } uXuXuX",
"uXuXuXuXuXuX} ~ ( ( uXuXuX) l.uXy M m C G G H.J.uXuX~ { { ! T T ( uXuXuX",
"uXuXuXuXuXuXT { uXuXuXuXuXuXw.i.uXm n n S C J.y uX0.E uXuX! T T ( uXuXuX",
"uXuXuXuXuXuX{ uXuXuXuXuXuXuXuXj.L < z k j k l 3.s.%.uXuXuX~ R T ` uXuXuX",
"uXuXuXuXuXuX{ uXuXuXuXuXuXuX%X{...@.$.:.%...> 4.d.a.d.5.-.uXuXR ! uXuXuX",
"uXuXuXuXuXuXuXuXuXuXuXuX`.$X[.P ] X.;.6.;.@.@.L >X1Xw.:.uXuXuXT ( uXuXuX",
"uXuXuXuXuXuXuXuXuXuXuXE.I._.(.X. .| ;.>.&. ._ <.XX9X>XuXuXuXuXuX{ uXuXuX",
"uXuXuXuXuXuXuXuXuXuXuXG.K._.P _ | | :.>.&.| .....X$X&XuXuXuXuXuX} uXuXuX",
"uXuXuXuXuXuXuXuXuXuXE.L.L.L.L _ *.#.%.>.@.+.*./ .X$X_.`.uXuXuXuXuXuXuXuX",
"uXuXuXuXuXuXuXuXuXuXB G.G.S.1  . .:.6.:.>.&.X._ W.$XK.D.uXuXuXuXuXuXuXuX",
"uXuXuXuXuXuXuXuXuXuXV g h b > | +.;.6.p.>. .| / T._.K.r S uXuXuXuXuXuXuX",
"uXuXuXuXuXuXuXuXuXK.S.d i 6 ; *.;.:.:.:.&.| | : K L.G.0 j uXuXuXuXuXuXuX",
"uXuXuXuXuXuXuXuXuXD g 0 5 X O > @.:.:.>.>.@.< @ b B Z t uXuXuXuXuXuXuXuX",
"uXuXuXuXuXuXuXuXuXF g u 5 X # $ > #.:.:.+., + O 0 N j uXuXuXuXuXuXuXuXuX",
"uXuXuXuXuXuXuXuXuXM N g u X $ # < +.#.| $ o o = 5 0 5 uXuXuXuXuXuXuXuXuX",
"uXuXuXuXuXuXuXuXuXuXa g d 4 O $ % > > $ O $ # * 4 4 uXuXuXuXuXuXuXuXuXuX",
"uXuXuXuXuXuXuXuXuXuXS h d 4 * & O o o O + # + 6 4 5 uXuXuXuXuXuXuXuXuXuX",
"uXuXuXuXuXuXuXuXuXuXA g s q 9 * # $ $ # # + r 9 4 e uXuXuXuXuXuXuXuXuXuX",
"uXuXuXuXuXuXuXuXuXP N g d s m uXuX+ $ + = r g 0 3 uXuXuXuXuXuXuXuXuXuXuX",
"uXuXuXuXuXuXuXuXuXM V g s t uXuXuXuXuXuXuXg u 3 uXuXuXuXuXuXuXuXuXuXuXuX",
"uXuXuXuXuXuXuXuXuXuXn g g k uXuXuXuXuXuXuX0 7 3 uXuXuXuXuXuXuXuXuXuXuXuX",
"uXuXuXuXuXuXuXuXuXuXuXh h uXuXuXuXuXuXuXa 7 3 uXuXuXuXuXuXuXuXuXuXuXuXuX",
"uXuXuXuXuXuXuXuXuXuXg g g g A uXuXuXuXuXf d . uXuXuXuXuXuXuXuXuXuXuXuXuX",
"uXuXuXuXuXuXuXuXuXuXN g g i 0 B A uXuXuXg g s uXuXuXuXuXuXuXuXuXuXuXuXuX",
"uXuXuXuXuXuXuXuXuXg d s u s . 7 D uXuXd g g g uXuXuXuXuXuXuXuXuXuXuXuXuX",
"uXuXuXuXuXuXuXuXuXN V d a N uXuXuXuXd d g g S.B uXuXuXuXuXuXuXuXuXuXuXuX",
"uXuXuXuXuXuXuXuXuXm b b 0 r uXuXuXuXuXuXD p F.F.B uXuXuXuXuXuXuXuXuXuXuX",
"uXuXuXuXuXuXuXuXuXuXk l uXj uXuXuXuXuXuXD s M uXuXuXuXuXuXuXuXuXuXuXuXuX",
"uXuXuXuXuXuXuXuXuXuXuXuXuXuXuXuXuXuXuXuXuXuXuXuXuXuXuXuXuXuXuXuXuXuXuXuX",
"uXuXuXuXuXuXuXuXuXuXuXuXuXuXuXuXuXuXuXuXuXuXuXuXuXuXuXuXuXuXuXuXuXuXuXuX",
"uXuXuXuXuXuXuXuXuXuXuXuXuXuXuXuXuXuXuXuXuXuXuXuXuXuXuXuXuXuXuXuXuXuXuXuX"
};
