/* XPM */
static char *result[] = {
/* columns rows colors chars-per-pixel */
"38 64 211 2 ",
"   c #0E0C00",
".  c #1C1118",
"X  c #06061E",
"o  c #200F17",
"O  c #381D1F",
"+  c #070426",
"@  c #1C0E2A",
"#  c #160B23",
"$  c #02003C",
"%  c #160736",
"&  c #25132D",
"*  c #351B2D",
"=  c #230834",
"-  c #251333",
";  c #2A1634",
":  c #2C1935",
">  c #251239",
",  c #2A153A",
"<  c #2F183C",
"1  c #321C3C",
"2  c #351D37",
"3  c #3E2432",
"4  c #562D1C",
"5  c #5A3213",
"6  c #703D00",
"7  c #6B3518",
"8  c #723916",
"9  c #65380C",
"0  c #46252D",
"q  c #572D31",
"w  c #4D263A",
"e  c #623629",
"r  c #6E3B3A",
"t  c #6C4419",
"y  c #744E1A",
"u  c #7A4A14",
"i  c #775017",
"p  c #7B5216",
"a  c #74511A",
"s  c #7C541A",
"d  c #6B4109",
"f  c #664224",
"g  c #784D21",
"h  c #180746",
"j  c #1A0953",
"k  c #250D46",
"l  c #2C1444",
"z  c #2D1744",
"x  c #311545",
"c  c #311945",
"v  c #32174C",
"b  c #34194C",
"n  c #3B1A4C",
"m  c #250955",
"M  c #361A51",
"N  c #3A1B54",
"B  c #3C1C5B",
"V  c #341857",
"C  c #2D1354",
"Z  c #3E2150",
"A  c #30006F",
"S  c #3D1E61",
"D  c #351861",
"F  c #401F5E",
"G  c #432244",
"H  c #53294A",
"J  c #593841",
"K  c #4B265A",
"L  c #592D57",
"P  c #401F62",
"I  c #511C7F",
"U  c #451975",
"Y  c #442165",
"T  c #45226A",
"R  c #4A246B",
"E  c #4C2564",
"W  c #592E6C",
"Q  c #52296E",
"!  c #4B2371",
"~  c #5C2D7C",
"^  c #572A73",
"/  c #5E3276",
"(  c #6C3A7D",
")  c #69357A",
"_  c #61356D",
"`  c #754943",
"'  c #784473",
"]  c #8E3C0D",
"[  c #813D17",
"{  c #854200",
"}  c #8D4413",
"|  c #844719",
" . c #944413",
".. c #954E1B",
"X. c #9A4D18",
"o. c #84541B",
"O. c #8C541C",
"+. c #87591B",
"@. c #93551D",
"#. c #9C551E",
"$. c #95591E",
"%. c #9D5A1B",
"&. c #A5571C",
"*. c #9E6900",
"=. c #B26A0F",
"-. c #8C5927",
";. c #9C5721",
":. c #9E5F23",
">. c #925825",
",. c #9A5735",
"<. c #A35B22",
"1. c #A85D22",
"2. c #A35721",
"3. c #9D6123",
"4. c #A46323",
"5. c #AB6425",
"6. c #AB6C26",
"7. c #A4632B",
"8. c #A76D2B",
"9. c #B46523",
"0. c #B56A27",
"q. c #B57529",
"w. c #AD7138",
"e. c #AC7535",
"r. c #B87836",
"t. c #C86D28",
"y. c #C47326",
"u. c #C47329",
"i. c #C7782A",
"p. c #D47429",
"a. c #D57829",
"s. c #CA7631",
"d. c #E07C2B",
"f. c #804740",
"g. c #845056",
"h. c #BF8238",
"j. c #CE862E",
"k. c #DA822D",
"l. c #DA892D",
"z. c #CC8D39",
"x. c #C78938",
"c. c #D48732",
"v. c #CE953C",
"b. c #D3933A",
"n. c #D8953A",
"m. c #E49233",
"M. c #E29B3A",
"N. c #EA9838",
"B. c #E78E30",
"V. c #EAA33C",
"C. c #BE9042",
"Z. c #BF807C",
"A. c #BB8565",
"S. c #CB8E40",
"D. c #D69C43",
"F. c #DDA040",
"G. c #DAA549",
"H. c #E5A746",
"J. c #EEB44C",
"K. c #F5BA49",
"L. c #E6B653",
"P. c #EBBB57",
"I. c #EAB956",
"U. c #F0B650",
"Y. c #FFCB5E",
"T. c #592989",
"R. c #5D2995",
"E. c #602E89",
"W. c #693688",
"Q. c #622B95",
"!. c #642C9B",
"~. c #6B3294",
"^. c #6B339C",
"/. c #653096",
"(. c #71359E",
"). c #753A99",
"_. c #6A32A2",
"`. c #7436A3",
"'. c #7538A3",
"]. c #7A3BA6",
"[. c #7A3AA9",
"{. c #7A4387",
"}. c #7B4598",
"|. c #7E41AB",
" X c #813EAC",
".X c #894A9C",
"XX c #804B89",
"oX c #9D6F84",
"OX c #B77C96",
"+X c #8443AC",
"@X c #834CAA",
"#X c #8649A7",
"$X c #9757AD",
"%X c #8D4DB2",
"&X c #8946B2",
"*X c #924FB6",
"=X c #8F50B2",
"-X c #9353B4",
";X c #995AB7",
":X c #9456B9",
">X c #9B5DBA",
",X c #9558B6",
"<X c #8951AF",
"1X c #9E61BA",
"2X c #A267BE",
"3X c #B57EB6",
"4X c #A56CC2",
"5X c #A86AC5",
"6X c #AD75C5",
"7X c #BE839E",
"8X c None",
/* pixels */
"8X8X8X8X8X8X8X8X8X8X8X8X8X8X8X8X8X8X8X8X8X8X8X8X8X8X8X8X8X8X8X8X8X8X8X8X8X8X",
"8X8X8X8X8X8X8X8X8X8X8X8X8X8X8X8X8X8X8X8X8X8X8X8X8X8X8X8X8X8X8X8X8X8X8X8X8X8X",
"8X8X8X8X8X8X8X8X8X8X8X8X8X8X8X8X8X8X8X8X8X8X8X8X8X8X8X8X8X8X8X8X8X8X8X8X8X8X",
"8X8X8X8X8X8X8X8X8X8X8X8X8X8X8X8X8X8X8X8X8X8X8X8X8X8X8X8X8X8X8X8X8X8X8X8X8X8X",
"8X8X8X8X8X8X8X8X8X7.8X8X8X8X8X8X8X8X8X8X8X8X8X8X8X7.,.8X8X8X8X8X8X8X8X8X8X8X",
"8X8X8X8X8X8X8X8X8X0.8X8X8X8X8X8X8X8X8X8X8X8X8X8X8X7.@.8X8X8X8X8X8X8X8X8X8X8X",
"8X8X8X8X8X8X8X8X8XX.x.8X8X8X8X8X8X8X8X8X8X8X8X8Xe.7.X.8X8X8X8X8X8X8X8X8X8X8X",
"8X8X8X8X8X8X8X8X8X] r.L.8X8X8X8X8X8X8X8X8X8X8X8Xx...#.8X8X8X8X8X8X8X8X8X8X8X",
"8X8X8X8X8X8X8X8X8X .@.L.8X8X8X8X8X8X8X8X8X8X8XS.e.u ;.8X8X8X8X8X8X8X8X8X8X8X",
"8X8X8X8X8X8X8X8X8X| ] x.P.8X8X8X8X8X:.8X8X8XD.H.-.o.;.8X8X8X8X8X8X8X8X8X8X8X",
"8X8X8X8X8X8X8X8X8Xa $.<.H.P.8X8X8Xr.0.8X8X8XH.e.i o.8X8X8X8X8X8X8X8X8X8X8X8X",
"8X8X8X8X8X8X8X8X8X8Xi $.r.P.P.8X8X0.9.8X8XD.z.-.p O.8X8X8X8X8X8X8X8X8X8X8X8X",
"8X8X8X8X8X8X8X8X8X8X8X+.1.r.Y.P.8XG.L.8Xv.D.w.i o.8X8X8X8X8X8X8X8X8X8X8X8X8X",
"8X8X8X8X8X8X8X8X8X8X8Xa :.1.S.L.8Xc.G.F.v.r.>.s o.8X8X8X8X8X8X8X8X8X8X8X8X8X",
"8X8X8X8X8X8X8X8X8X8X8X8Xo.O.#.z.n.1.X.b.h.-.i o.8X8X8X8X8X8X8X8X8X8X8X8X8X8X",
"8X8X8X8X8X8X8X8X8X8X8X8Xa i o.@.9.#.| >.O.i s 7.8X8X8X8X8X8X8X8X8X8X8X8X8X8X",
"8X8X8X8X8X8X8X8X8X8X8X8Xy +.y t @.@.a i i t +.%.8X8X8X8X8X8X8X8X8X8X8X8X8X8X",
"8X8X8X8X8X8X8X8X8X8X8X8X8Xd 9 5 -.&.y g e 9 s 8X8X8X8X8X8X8X8X8X8X8X8X8X8X8X",
"8X8X8X8X8X8X8X8X8X8X8X8X8XK G m ` y.=.r l * W XX8X8X8X8X8X8X8X8X8X8X8X8X8X8X",
"8X8X8X8X8X8X8X8X8X8X8X8X8XT N j ` n.j.r j , R {.8X8X8X8X8X8X8X8X8X8X8X8X8X8X",
"8X8X8X8X8X8X8X8X8X8X8X8X8XR N C w v.b.e k M T ' 8X8X8X8X8X8X8X8X8X8X8X8X8X8X",
"8X8X8X8X8X8X8X8X8X8X8X8X8XB c z = x.b.q % : V ~ 8X8X8X8X8X8X8X8X8X8X8X8X8X8X",
"8X8X8X8X8X8X8X8X8X8X8X8X8Xb - ; % e.z.q % : k {.8X8X8X8X8X8X8X8X8X8X8X8X8X8X",
"8X8X8X8X8X8X8X8X8X8X8X8X8Xb ; , - y $.3 > - v j 8X8X8X8X8X8X8X8X8X8X8X8X8X8X",
"8X8X8X8X8X8X8X8X8X8Xq.8X8X8X: : > f t 0 > : h 8Xx.v.8X8X8X8X8X8X8X8X8X8X8X8X",
"8X8X8X8X8X8X8X8X8X5.} #.8X8X8X; % e a : ; Z 8X8Xp.i.z.8X8X8X8X8X8X8X8X8X8X8X",
"8X8X8X8X8X8X8X8X4.:.6.<.8X8X8X8Xk f s ; 1 8X8Xt.B.H.b.z.8X8X8X8X8X8X8X8X8X8X",
"8X8X8X8X8X8X8X8X:.6.6.2.8X8X8X8Xm t >.3 l 8X8Xq.B.M.J.n.8X8X8X8X8X8X8X8X8X8X",
"8X8X8X8X8X8X8X8.:.q.5.1.8X8X8X8Xm e 5.0 B 8X8X6.N.l.J.J.u.8X8X8X8X8X8X8X8X8X",
"8X8X8X8X8X8X8X3.#.q.6.<.<.8X8X8XV H j.J R 8X8Xq.c.p.l.M.m.8X8X8X8X8X8X8X8X8X",
"8X8X8X8X8X8X8XO.:.6.6.#.<.8X8XW V n =.q A &X7X=.s.p.k.m.k.j.8X8X8X8X8X8X8X8X",
"8X8X8X8X8X8X8X;.<.<.5.%.1.=.8X{.! U ) W.oX7X7X{ 1.d.s.s.a.l.u.8X8X8X8X8X8X8X",
"8X8X8X8X8X8X6.5.2.<.;.#...6 | g.R.-X=X:XOX*.{ ' 8X9.<.8Xt.B.k.x.8X8X8X8X8X8X",
"8X8X8X8X8X8X4.&.<.1.8X8X} L L T.%X>X-X6X4X)..X$X8X8X8X8X9.u.u.i.8X8X8X8X8X8X",
"8X8X8X8X8X8X4.&.<.#.8X8X8X/.R.<X-X'.].@X6X2X-X+X).8X8X8X8X8X8Xa.8X8X8X8X8X8X",
"8X8X8X8X8X8X7...8X8X8X8X8XR.@X2X'.R.'.).2X6X>X^._.).8X8X8X8X8X1.5.8X8X8X8X8X",
"8X8X8X8X8X8X4. .8X8X8X8X8XW.-X].!.R.|.6X6X2X=X~.T.T.8X8X8X8X8X8X#.8X8X8X8X8X",
"8X8X8X8X8X8X4...8X8X8X8X8X-X+X_.!.R.^.-X2X;X+XE.S S ) 8X8X8X8X8X8X8X8X8X8X8X",
"8X8X8X8X8X8X8X..8X8X8X8X#X XT.~ T./.^.Q.>X-X&XW.l V / {.8X8X8X8X8X8X8X8X8X8X",
"8X8X8X8X8X8X8X| 8X8X8X8XW.~ Q F E.Q.].;X>X=X>XW.% v P ^ 8X8X8X8X8X8X8X8X8X8X",
"8X8X8X8X8X8X8X8X8X8X8X( ) R S l T.Q.+X6X1X-X$X_ + < M P 8X8X8X8X8X8X8X8X8X8X",
"8X8X8X8X8X8X8X8X8X8X8X^ T V , . ! /.|.-X-X-X#XG @ & c B 8X8X8X8X8X8X8X8X8X8X",
"8X8X8X8X8X8X8X8X8X8X8X! T M > . R ^.T.Q.=X-X{.@ ; - 1 8X8X8X8X8X8X8X8X8X8X8X",
"8X8X8X8X8X8X8X8X8X8X8X! T N , . Y !.@X@X*X%X8X# ; - * 8X8X8X8X8X8X8X8X8X8X8X",
"8X8X8X8X8X8X8X8X8X8XR R P N b b R '.1X>X*X).8X, - ; 8X8X8X8X8X8X8X8X8X8X8X8X",
"8X8X8X8X8X8X8X8X8X8XT ! T B b , ! ^.(.&X&X8X8Xc ; . 8X8X8X8X8X8X8X8X8X8X8X8X",
"8X8X8X8X8X8X8X8X8X8X8XY ! B 8X8XR.'.(.[.].^ l c @ _ 8X8X8X8X8X8X8X8X8X8X8X8X",
"8X8X8X8X8X8X8X8X8X8X8XP S l 8X8X^.>X:X[.W.c - ; @ K {.( 8X8X8X8X8X8X8X8X8X8X",
"8X8X8X8X8X8X8X8X8X8X8XM z & 8X8X(.-X-X].W * * * ; @ x Y 8X8X8X8X8X8X8X8X8X8X",
"8X8X8X8X8X8X8X8X8X8X8Xb z ; 8X8X X(. X~.K 8X8X8X8X0 8X8X8X8X8X8X8X8X8X8X8X8X",
"8X8X8X8X8X8X8X8X8X8X8XM x b X }.5X%X'./ 8X8X8X8X8X8X8X8X8X8X8X8X8X8X8X8X8X8X",
"8X8X8X8X8X8X8X8X8X8XB 1 : > x @X;X%X~.H 8X8X8X8X8X8X8X8X8X8X8X8X8X8X8X8X8X8X",
"8X8X8X8X8X8X8X8X8X8Xh + =   }.:X+X~.E 8X8X8X8X8X8X8X8X8X8X8X8X8X8X8X8X8X8X8X",
"8X8X8X8X8X8X8X8X8Xe.D.S.# ) >X<X~.K 8X8X8X8X8X8X8X8X8X8X8X8X8X8X8X8X8X8X8X8X",
"8X8X8X8X8X8X8X8XF.V.U.K.A.|./.Q N 8X8X8X8X8X8X8X8X8X8X8X8X8X8X8X8X8X8X8X8X8X",
"8X8X8X8X8X8X8XF.K.M.t.M.D.' B 8X8X8X8X8X8X8X8X8X8X8X8X8X8X8X8X8X8X8X8X8X8X8X",
"8X8X8X8X8X8XN.M.a.c.1.0.9.8 8X8X8X8X8X8X8X8X8X8X8X8X8X8X8X8X8X8X8X8X8X8X8X8X",
"8X8X8X8X8Xq.u. .X.&.&.} X.8X8X8X8X8X8X8X8X8X8X8X8X8X8X8X8X8X8X8X8X8X8X8X8X8X",
"8X8X8X8X8X8X8X7 7 [ 8 } } 8X8X8X8X8X8X8X8X8X8X8X8X8X8X8X8X8X8X8X8X8X8X8X8X8X",
"8X8X8X8X8X8X8X8X8X4 4 8 8X8X8X8X8X8X8X8X8X8X8X8X8X8X8X8X8X8X8X8X8X8X8X8X8X8X",
"8X8X8X8X8X8X8X8X8X8X8X8X8X8X8X8X8X8X8X8X8X8X8X8X8X8X8X8X8X8X8X8X8X8X8X8X8X8X",
"8X8X8X8X8X8X8X8X8X8X8X8X8X8X8X8X8X8X8X8X8X8X8X8X8X8X8X8X8X8X8X8X8X8X8X8X8X8X",
"8X8X8X8X8X8X8X8X8X8X8X8X8X8X8X8X8X8X8X8X8X8X8X8X8X8X8X8X8X8X8X8X8X8X8X8X8X8X",
"8X8X8X8X8X8X8X8X8X8X8X8X8X8X8X8X8X8X8X8X8X8X8X8X8X8X8X8X8X8X8X8X8X8X8X8X8X8X"
};
