/* XPM */
static char *_bcf1e4ccb5c42cbe06396089d5b274bPVoWdcNGA7IJ8MVt[] = {
/* columns rows colors chars-per-pixel */
"64 65 213 2 ",
"   c None",
".  c #491B5A",
"X  c #413256",
"o  c #4B3755",
"O  c #4D3A5A",
"+  c #493758",
"@  c #523B52",
"#  c #4A0062",
"$  c #473762",
"%  c #553E66",
"&  c #553F7A",
"*  c #6A494D",
"=  c #794F4F",
"-  c #704E5B",
";  c #5C4377",
":  c #5E447A",
">  c #5B426E",
",  c #63436D",
"<  c #74516A",
"1  c #6A4B7C",
"2  c #654877",
"3  c #7A5379",
"4  c #6E527B",
"5  c #9C6600",
"6  c #9F6E2C",
"7  c #9A6B33",
"8  c #9B6B3B",
"9  c #976A3E",
"0  c #A06E2D",
"q  c #A56C3C",
"w  c #AA713E",
"e  c #B4713B",
"r  c #BB753C",
"t  c #BD7A3B",
"y  c #B87535",
"u  c #C16F00",
"i  c #C17A1E",
"p  c #C2763E",
"a  c #C37C3D",
"s  c #C97F30",
"d  c #855A51",
"f  c #9A6A42",
"g  c #986846",
"h  c #976453",
"j  c #A56F41",
"k  c #AC6E4A",
"l  c #BA7D41",
"z  c #875C67",
"x  c #9F6361",
"c  c #986A79",
"v  c #A67468",
"b  c #B1787C",
"n  c #C27C44",
"m  c #CA7F40",
"M  c #C38F2E",
"N  c #C88138",
"B  c #DDA93B",
"V  c #E7BA3E",
"C  c #ECC33D",
"Z  c #BE8F5E",
"A  c #B98279",
"S  c #C58343",
"D  c #C98542",
"F  c #CC8B43",
"G  c #C5874A",
"H  c #CE924A",
"J  c #CC9046",
"K  c #D2964A",
"L  c #D49B4B",
"P  c #D59646",
"I  c #D1965E",
"U  c #DAA34B",
"Y  c #DCAA4B",
"T  c #DBA749",
"R  c #DAA554",
"E  c #DDAC52",
"W  c #DBAB5C",
"Q  c #E4B74C",
"!  c #E0A750",
"~  c #E5BA52",
"^  c #E5BB5D",
"/  c #E8B855",
"(  c #D29F65",
")  c #CA9777",
"_  c #DDB660",
"`  c #D3A376",
"'  c #E3B869",
"]  c #F1CB4E",
"[  c #ECC653",
"{  c #EEC953",
"}  c #EEC45B",
"|  c #F3CD54",
" . c #FCD959",
".. c #EEC84E",
"X. c #EAC563",
"o. c #EECB62",
"O. c #EAC46C",
"+. c #EDCB6B",
"@. c #E7C065",
"#. c #F4CE64",
"$. c #F1CE6A",
"%. c #FCD46B",
"&. c #F7D36C",
"*. c #EECC74",
"=. c #EECD79",
"-. c #F1CF74",
";. c #EFD07A",
":. c #F3D174",
">. c #F3D37C",
",. c #FBD97C",
"<. c #694B82",
"1. c #784B89",
"2. c #7A5586",
"3. c #7A5987",
"4. c #704E97",
"5. c #755192",
"6. c #7B5495",
"7. c #75519D",
"8. c #7B559C",
"9. c #7E57A1",
"0. c #845B8C",
"q. c #96489E",
"w. c #8C5E9B",
"e. c #865698",
"r. c #8B4D99",
"t. c #876588",
"y. c #956583",
"u. c #99758D",
"i. c #946A9C",
"p. c #956699",
"a. c #906D97",
"s. c #AE708D",
"d. c #B17B89",
"f. c #A6689C",
"g. c #AB7C98",
"h. c #855AA4",
"j. c #9C5DA4",
"k. c #9958A5",
"l. c #9B4CA0",
"z. c #A05FA3",
"x. c #9262A1",
"c. c #9C65A4",
"v. c #956BA3",
"b. c #9D63AA",
"n. c #9B6AA6",
"m. c #9470A1",
"M. c #9F76B7",
"N. c #A165A4",
"B. c #A36BA7",
"V. c #A56BAB",
"C. c #A465A9",
"Z. c #A972AF",
"A. c #A476AC",
"S. c #A76DB1",
"D. c #A772B3",
"F. c #AD77B4",
"G. c #AD7BB4",
"H. c #AC7ABA",
"J. c #A57BB0",
"K. c #B17CBA",
"L. c #B17FB7",
"P. c #B478AB",
"I. c #A87FC1",
"U. c #A9868E",
"Y. c #B3878B",
"T. c #BA8899",
"R. c #BA9796",
"E. c #A8829D",
"W. c #9A84A1",
"Q. c #AC87AA",
"!. c #B789A7",
"~. c #AA97AC",
"^. c #AC87B2",
"/. c #B182B5",
"(. c #B385BB",
"). c #B689BD",
"_. c #B88BBE",
"`. c #BA8DB6",
"'. c #B899B9",
"]. c #B0B0B2",
"[. c #ADACB4",
"{. c #C89987",
"}. c #DCB18D",
"|. c #CCA39C",
" X c #C195B4",
".X c #C8A5B2",
"XX c #EFD280",
"oX c #F2D584",
"OX c #FDDC82",
"+X c #F4D689",
"@X c #F4D98C",
"#X c #F9DC8B",
"$X c #F7D882",
"%X c #F5DB91",
"&X c #F8DE95",
"*X c #FFE28D",
"=X c #FFED99",
"-X c #FEE295",
";X c #FFF19E",
":X c #AF82C3",
">X c #B184C1",
",X c #B98BC2",
"<X c #BE94C6",
"1X c #C08FC5",
"2X c #C598C6",
"3X c #C3B3C6",
"4X c #CEBFD0",
"5X c #CFCAD1",
"6X c #D5CBD7",
"7X c #D8D8DC",
"8X c #CCC3CD",
"9X c #EDF1ED",
"0X c #E5E5E2",
/* pixels */
"                                                                                                                                ",
"                                                                                                                                ",
"                                                                                                                                ",
"                                                                                                                                ",
"                                                +X                                  +X                                          ",
"                                                oX                                  @X                                          ",
"                                              >.=X@X                                %X+X                                        ",
"                                              ;.=X%X                              @X;XoX                                        ",
"                                              @.,.-X@X                            @X*X;.                                        ",
"                                                @.>.@X                          *.,.:.o.                                        ",
"                                                Y $.>.>.                      *.*.*.#.                                          ",
"                                                U #.*.,.oX                    *.:.&.}                                           ",
"                                                  ~ #.;.$XoX      { {       *.>.*.{                                             ",
"                                                    | +.oX+X      { {     *.-.*.&.{                                             ",
"                                                    { &.;.=X+X  /  .|     ,.;.;.:.                                              ",
"                                                      ;.*.@X@X=.~  .[ *.@X#X@X>.*.                                              ",
"                                                      *.OX%X#X%./ { ] OX&X@X@X#X                                                ",
"                                                      *.*X%X%X+.Q { ..>.%X%X-X%X                                                ",
"                                                      *.OX,.*.! Q ..{ ;.oX$X#XoX                                                ",
"                                                        ^ |.'./.` V +. X`..XoX&.                                                ",
"                                                         X>X).H.) C ' (.).I.2X                                                  ",
"                                                        (.G./.D.b B ` (.).).2X                                                  ",
"                                                        F.F.L.Z.N.i |.I.).(.<X                                                  ",
"                                                      F.,X(._.)./.d./.>X(.).1X_.                                                ",
"                                                      c.S.C.V././.(.(.).).(.K.F.                                                ",
"                                                      0.0.n.z.l.V.Z.F.G.V.z.j.b.                                                ",
"                                                      1.Q.0X7X~.e.p.j.l./.6X'.w.                                                ",
"                                                      r.8X7X7X7Xv.r.v.3X5X9X6Xl.                                                ",
"                                          L D D S F g.q.3X~.. [.Q.q.^.[.. ].5XS. X{ Y K Y ~                                     ",
"                                        F a a r e a f.k./.~.. a.A.j.P.v.# W.<XH.P.F a p p D F                                   ",
"                                        a     r l a j b S.K.(.K.G./.L./.).1X(.s.k r r a     n                                   ",
"                                              n     t s v V.F._.,X(.).).1XL.d.N y     G                                         ",
"                                                    H G 5   c.G.(.).)./.F.  u n n                                               ",
"                                                      H S   e.j.N.B.C.V.k.  H                                                   ",
"                                                        / T.2.p.k.k.j.N.e.R.%.                                                  ",
"                                                      h.A Z d g c y.y.h x _ }.:X                                                ",
"                                                    v.h.w.v 9 7 6 7 7 M I {.Q.H.                                                ",
"                                                    5.5.8.z 6 f 7 y Z R T T.D.n.Z.                                              ",
"                                                    1 5.7.z 6 f 8 m R E B {.>X/.C.                                              ",
"                                                  4 5.8.4.g q f e R @.} ~ ( (.,XK.c.                                            ",
"                                                  3.9.7.2.9 8 w F O.>.+.{ R Q.>XG.n.                                            ",
"                                                  <.9.9.3 6 9 t ' oXoX+.[ V T.>X(.^.                                            ",
"                                                  1 5.4.< e S U O.oX;.o.[ Q T.D.H.J.                                            ",
"                                                    2 <.< r U X.*.*.*.o.~ Y d.b.n.n.                                            ",
"                                                    , : - r K ^ *.*.*.^ Y T c e.0.                                              ",
"                                                      $ * a K T X.;.+.T R U z :                                                 ",
"                                                    O + @ q H U E ' Y R E l , <.t.                                              ",
"                                                    > O X * q S F P L L t = ; 3 p.                                              ",
"                                                    % @ O X   8 k n j q   $ 3.y.                                                ",
"                                                        O o     8 8 9     2 3.                                                  ",
"                                                        O O               x.i.                                                  ",
"                                                      2 1 >               c.c.                                                  ",
"                                                      6.8.2 % 1         e.w.S.M.                                                ",
"                                                    x.i.6.w.<.3.      m.5.p.e.x.i.                                              ",
"                                                  g.u.U.2.E.t.            U.    u.R.                                            ",
"                                                          U.              Y.                                                    ",
"                                                                                                                                ",
"                                                                                                                                ",
"                                                                                                                                ",
"                                                                                                                                ",
"                                                                                                                                ",
"                                                                                                                                ",
"                                                                                                                                ",
"                                                                                                                                ",
"                                                                                                                                "
};
