/* XPM */
static char *result[] = {
/* columns rows colors chars-per-pixel */
"65 70 249 2 ",
"   c #560E01",
".  c #691400",
"X  c #5C3518",
"o  c #5C2E16",
"O  c #643B03",
"+  c #6C3112",
"@  c #52362F",
"#  c #613E20",
"$  c #6C4606",
"%  c #724A06",
"&  c #6C461A",
"*  c #724D1D",
"=  c #734C15",
"-  c #6D4C24",
";  c #6D4C2A",
":  c #674627",
">  c #714E24",
",  c #714F29",
"<  c #7A4D27",
"1  c #73522A",
"2  c #7B5429",
"3  c #694B34",
"4  c #745436",
"5  c #705033",
"6  c #5D4339",
"7  c #5D3D45",
"8  c #584C56",
"9  c #5D5159",
"0  c #6D5343",
"q  c #6B5348",
"w  c #745847",
"e  c #685657",
"r  c #755D54",
"t  c #63494B",
"y  c #796256",
"u  c #5E5362",
"i  c #665C67",
"p  c #7B5B66",
"a  c #6E5E7E",
"s  c #6B636D",
"d  c #67606D",
"f  c #71666B",
"g  c #776868",
"h  c #6D6571",
"j  c #6C6672",
"k  c #746B73",
"l  c #796E74",
"z  c #736976",
"x  c #7C7176",
"c  c #7D7379",
"v  c #777079",
"b  c #2D1628",
"n  c #8D3901",
"m  c #8C500E",
"M  c #8A572C",
"N  c #975C28",
"B  c #835837",
"V  c #945B35",
"C  c #814E29",
"Z  c #866538",
"A  c #9B6335",
"S  c #8F6428",
"D  c #A56327",
"F  c #A46433",
"G  c #A86839",
"H  c #AA7430",
"J  c #A7651C",
"K  c #865D51",
"L  c #966D4F",
"P  c #A7704D",
"I  c #836B67",
"U  c #9B7669",
"Y  c #846974",
"T  c #827679",
"R  c #86797B",
"E  c #8A7C7C",
"W  c #857576",
"Q  c #967C78",
"!  c #8F7068",
"~  c #A77A64",
"^  c #A27C70",
"/  c #845E6C",
"(  c #B08939",
")  c #C7963E",
"_  c #AC8646",
"`  c #B38C54",
"'  c #9C837C",
"]  c #988177",
"[  c #938171",
"{  c #A68B7D",
"}  c #A98D7C",
"|  c #A58578",
" . c #AF8771",
".. c #BBA16F",
"X. c #C7A65A",
"o. c #D7B555",
"O. c #E4BD53",
"+. c #D6B669",
"@. c #C3A879",
"#. c #CAB16E",
"$. c #C09C62",
"%. c #DBC176",
"&. c #E5C465",
"*. c #E4CA76",
"=. c #F0D77E",
"-. c #EDC755",
";. c #4F1497",
":. c #58308E",
">. c #5C2AAA",
",. c #6436AC",
"<. c #694897",
"1. c #715094",
"2. c #786D8E",
"3. c #6F48B2",
"4. c #7770B7",
"5. c #5E1BD7",
"6. c #5C16D8",
"7. c #590CD7",
"8. c #6A36C8",
"9. c #6324D5",
"0. c #662BD6",
"q. c #692ED6",
"w. c #662AD9",
"e. c #6C34D6",
"r. c #6E3AD5",
"t. c #6C34D9",
"y. c #723CD6",
"u. c #723BDA",
"i. c #7037D8",
"p. c #6227C9",
"a. c #631BE5",
"s. c #6927E5",
"d. c #7539E5",
"f. c #6F30E6",
"g. c #5F19DE",
"h. c #7642D6",
"j. c #7945D6",
"k. c #7B49D7",
"l. c #7743D8",
"z. c #7A46D9",
"x. c #744CC3",
"c. c #7843E0",
"v. c #897D82",
"b. c #867982",
"n. c #857F90",
"m. c #8D6F90",
"M. c #835CAF",
"N. c #8769A4",
"B. c #967AA7",
"V. c #8E72B1",
"C. c #A27FAA",
"Z. c #8150D1",
"A. c #9071C1",
"S. c #7581BA",
"D. c #7A8CC3",
"F. c #8F838E",
"G. c #938383",
"H. c #9A8682",
"J. c #9D8984",
"K. c #93858C",
"L. c #9B8A8C",
"P. c #95888F",
"I. c #8D8291",
"U. c #958993",
"Y. c #9A8B94",
"T. c #988C99",
"R. c #9D909D",
"E. c #A48C83",
"W. c #AA8E82",
"Q. c #A38D89",
"!. c #AB9184",
"~. c #AC948C",
"^. c #A5918D",
"/. c #B19485",
"(. c #B5998B",
"). c #B7988C",
"_. c #A49392",
"`. c #AB9694",
"'. c #A3949C",
"]. c #AC9A9D",
"[. c #A9979A",
"{. c #B49B92",
"}. c #B39D9B",
"|. c #B79B94",
" X c #A78C90",
".X c #B9A39C",
"XX c #B9A488",
"oX c #9A87A6",
"OX c #9D94A6",
"+X c #9895B5",
"@X c #8B8AB2",
"#X c #A788A7",
"$X c #AD9CA2",
"%X c #A897A8",
"&X c #B59CA4",
"*X c #AD95B8",
"=X c #ACA1AA",
"-X c #BBA4A2",
";X c #BCA9AC",
":X c #B5A4A8",
">X c #AAA3B8",
",X c #BCACB2",
"<X c #B5A8B7",
"1X c #BEB2B9",
"2X c #C5AA9A",
"3X c #CCB09C",
"4X c #D0B68C",
"5X c #C4ACAA",
"6X c #C1AEB3",
"7X c #C4B2B5",
"8X c #C4B4BB",
"9X c #CBBBBE",
"0X c #C8B7BC",
"qX c #D4BAAB",
"wX c #DBC89A",
"eX c #D8C589",
"rX c #E4CD82",
"tX c #E8D68A",
"yX c #F1DC87",
"uX c #E9D995",
"iX c #E0C690",
"pX c #F6E898",
"aX c #FDF29C",
"sX c #F2E290",
"dX c #D6C9A9",
"fX c #E9DAA3",
"gX c #FDF4A5",
"hX c #F4EAA8",
"jX c #8A96CA",
"kX c #989BC7",
"lX c #978FCA",
"zX c #A995C9",
"xX c #A9A6C7",
"cX c #B6A7C6",
"vX c #BBB5C8",
"bX c #A7A8D4",
"nX c #BBB9D4",
"mX c #BDB8E2",
"MX c #9495DB",
"NX c #C9BBC5",
"BX c #D0BDC1",
"VX c #D5C4C7",
"CX c #D0C5D0",
"ZX c #DBD4E7",
"AX c #D0CDE8",
"SX c #E3D9E5",
"DX c #EAE6FA",
"FX c #E9D4D5",
"GX c None",
/* pixels */
"GXGXGXGXGXGXGXGXGXGXGXGXGXGXGXGXGXGXGXGXGXGXGXGXGXGXGXGXGXGXGXGXGXGXGXGXGXGXGXGXGXGXGXGXGXGXGXGXGXGXGXGXGXGXGXGXGXGXGXGXGXGXGXGXGX",
"GXGXGXGXGXGXGXGXGXGXGXGXGXGXGXGXGXGXGXGXGXGXGXGXGXGXGXGXGXGXGXGXGXGXGXGXGXGXGXGXGXGXGXGXGXGXGXGXGXGXGXGXGXGXGXGXGXGXGXGXGXGXGXGXGX",
"GXGXGXGXGXGXGXGXGXGXGXGXGXGXGXGXGXGXGXGXGXGXGXGXGXGXGXGXGXGXGXGXGXGXGXGXGXGXGXGXGXGXGXGXGXGXGXGXGXGXGXGXGXGXGXGXGXGXGXGXGXGXGXGXGX",
"GXGXGXGXGXGXGXGXGXGXGXGXGXGXGXGXGXGXGXGXGXGXGXGXGXGXGXGXGXGXGXGXGXGXGXGXGXGXGXGXGXGXGXGXGXGXGXGXGXGXGXGXGXGXGXGXGXGXGXGXGXGXGXGXGX",
"GXGXGXGXGXGXGXGXGXGXGXGXGXGXGXGXGXGXGXGXGXGXGXGXGXGXGXGXGXGXGXGXGXGXGXGXGXGXGXGXGXGXGXGXGXGXGXGXGXGXGXGXGXGXGXGXGXGXGXGXGXGXGXGXGX",
"GXGXGXGXGXGXGXGXGXGXGXGXGXGXGXGXGXGXGXGXGXGXGXGXGXGXGXGXGXGXGXGXGXGXGXGXGXGXGXGXGXGXGXGXGXGXGXGXGXGXGXGXGXGXGXGXGXGXGXGXGXGXGXGXGX",
"GXGXGXGXGXGXGXGXGXGXGXGXGXGXGXGXGXGXGXGXGXGXGXGXGXGXGXGXGXGXGXGXGXGXGXGXGXGXGXGXGXGXGXGXGXGXGXGXGXGXGXGXGXGXGXGXGXGXGXGXGXGXGXGXGX",
"GXGXGXGXGXGXGXGXGXGXGXGXGXAXSXGXGXGXGXGXGXGXGXGXGXGXGXGXGXGXGXGXGXGXGXGXGXGXGXGXGXGXGXGXGXGXGXGXGXZXGXGXGXGXGXGXGXGXGXGXGXGXGXGXGX",
"GXGXGXGXGXGXGXGXGXGXGXGXZXSXDXZXGXGXGXGXGXGXGXGXGXGXGXGXGXGXGXGXGXGXGXGXGXGXGXGXGXGXGXGXGXGXGXGXZXDXSXAXGXGXGXGXGXGXGXGXGXGXGXGXGX",
"GXGXGXGXGXGXGXGXGXGXGXNXCXNX8XBX8XVXFXGXGXGXGXGXGXGXGXGXGXGXGXGXGXGXGXGXGXGXGXGXGXGXGXGXGXVXGXGXAXNXZXZXGXGXGXGXGXGXGXGXGXGXGXGXGX",
"GXGXGXGXGXGXGXGXGXGXGXGX6X[.6X[.I.:XBXGXGXGXGXGXGXGXGXGXGXGXGXGXGXGXGXGXGXGXGXGXGXGXGXGX$XVXdX:X:X,X,XFXGXGXGXGXGXGXGXGXGXGXGXGXGX",
"GXGXGXGXGXGXGXGXGXGXGXGX{.&X%XU.T.U.%XGXGXGXGXGXGXGXGXGXGXGXGXGXGXGXGXGXGXGXGXGXGXGXl GXU.'.%XY.b.].;XNXGXGXGXGXGXGXGXGXGXGXGXGXGX",
"GXGXGXGXGXGXGXGXGX'.&X[.}.=XbXbXcX$X[.].'. X_.GXGXGXGXGXGXGXGXGXGXGXGXGXGXGXGXGXF.OXL.c l T F.F.v T.$X'.GXGXGXGXGXGXGXGXGXGXGXGXGX",
"GXGXGXGXGXGXGXGXGXNXVXNX7X8XAXmXNX7X;X7X7X7X7X9XVXBXBX0X1X8XdXvX,X7X,X;X6X7X8X7X;X&X%X[.].].&X&X$X].[.$X5X7XGXGXGXGXGXGXGXGXGXGXGX",
"GXGXGXGXGXGXGXGXGX).`.`.=XnXvXnXcX<X&X$X=X=X=X<X,X;X<X;X;X;X;X1X8XNX0X8X8XNX8X8X8X8X7X,X8X7X8X0X6X7X9X0XNXVXvXGXGXGXGXGXGXGXGXGXGX",
"GXGXGXGXGXGXGX9XBX.X{.Q %XCXNXNX$XU Q E.L L Q U U ! U ~ | :X1X.XW.~ ^ | | ' ' Q ' ' ' | { H.W.Y._.<XNXCXNXCXZXGXGXGXGXGXGXGXGXGXGX",
"GXGXGXGXGXGXVXSXCXVXVXdXNXVX|.-X|.~ .X{.| F m n U  . ./.} dXCXVX.X . .N m M M M m C > N L L Z A I %X1XNX}.NXDXSXGXGXGXGXGXGXGXGXGX",
"GXGXGXw K p <XnX>X8X<XvX<X=X! Y.}.#X=X%X%XQ / p K.$X[.R.T.>XvXnX%XT.Y.I B 4 2 4 B , O % w w & m # ! ' ' w U :X=X' . GXGXGXGXGXGXGX",
"GXGX@ i E @X@XI.@X+XOXOX+X+X@X+X>X+X+XjXkX@X@XOX>XkXkXD.D.D.4.D.D.jXjX@Xv.Y x T Y h z S.2.I.I.2.2.z 2.y d 1.Y z 2.2.b.2.8 GXGXGXGX",
"GXGXGXGX`.%X+X+XxX>X:X<XbX>X>X:X<X<X>XMXkX%X%X>XvXbXbXjXjXjXD.MXkXkXkXkX%XK.P.P.F.Y.+XxX<X>X>XkXkXjX+XOX%XjXkX>XxXxX+X+Xu GXGXGXGX",
"GXGXGXGX/.W.L.G.L.L.K.G.G.P.G.L.G.G.[ ] ] ] G.L.G.G.[ F.] G.G.] G.G.G.G.F.K.F.K.K.U.R.[.].'.R.R.T.R.R.R.R.R.R.R.%X[.T.P.GXGXGXGXGX",
"GXGXGXGX' !.J.E.E.J.J.J.J.J.J.L.J.L.L.L.U.U.Y.T.T.U.U.U.U.U.T.Y.U.U.U.U.U.Y.U.Y.U.U.K.U.P.L.F.K.F.K.K.K.K.K.K.K.K.K.L.T GXGXGXGXGX",
"GXGXGXGXGX2.E ] R x T R R T c T c T T T T T T x c T c c c c T T T T c T c T T c R T T T c W R R T l x x l x x T c k b.GXGXGXGXGXGX",
"GXGXGXGXt [ G.' R ] R T R R R b.R R R R R R R R [ 2.[ [ 2.[ R R R R R R R R R R G.T R R R R R R R T c l k x l x v i z GXGXGXGXGXGX",
"GXGXGXGXb ] ).} !.W.H.R E R R [ R R [ v.[ b.R [ 2.[ [ 2.R R E R R R R E R E R R R R E R R E R R R R R R R R R T T x ^ GXGXGXGXGXGX",
"GXGXGXGXGXGX!.L.L.P.K.v.x x x x c x x h g x c c T c c c T x c T x T T x T x T T T c T c T T c c R E R R R E R E E `.W.GXGXGXGXGXGX",
"GXGXGXGXGXGXGXR v z z j z x x x l l k f f l k k k l v h s k j j h h h h s s s h s s h s i i h f l f g k l x x l f R GXGXGXGXGXGXGX",
"GXGXGXGXGXGXGXx h d d i k R c T T R T x T T x x l c c x c x v v x c x x x x z x c c h d i k c x k l l s d j s d 8 8 GXGXGXGXGXGXGX",
"GXGXGXGXGXGXGXv.z s s k x x s h x R x k z c E k j k c [ v j k [ c k f x E T h h c R v d h c E T s k R k i d d k g GXGXGXGXGXGXGXGX",
"GXGXGXGXGXGXGXF.s s s z x s e 8 g c s 9 9 x T s 8 i v c d 8 d c x u 8 d x x 9 9 k c f 8 e x T h 8 i c k i s k J.~.GXGXGXGXGXGXGXGX",
"GXGXGXGXGXGXGXG.d d d i h s 3 $ g v d : 3 k c i & q k k e & q v k t X e v f 6 : s c e @ 3 j c 9 @ e z k s T E.).2XGXGXGXGXGXGXGXGX",
"GXGXGXGXGXGXGXk x s i 9 9 e 1 % y h e * ; g h q = 4 f s q = 4 j s 5 % w k f 5 - y x e $ 1 g c e $ 0 h z z ' } ).qXGXGXGXGXGXGXGXGX",
"GXGXGXGXGXGXGXGXF.v u t : 5 1 * 4 q 4 , * 4 0 5 & 5 q 5 : * 5 q 4 5 * 1 w 0 , , 4 y 4 * , r v r % 5 0 e f y g g GXGXGXGXGXGXGXGXGX",
"GXGXGXGXGXGXGXGXH.v j r * * , , * % * > , * = 1 , & = = - - * $ = - , - $ = 4 3 % = * , * - 3 5 * > % 5 g I c c GXGXGXGXGXGXGXGXGX",
"GXGXGXGXGXGXGXGXK.h j e > ; > > , , ; , > + & + * Z Z 4 Z _ _ _ L : > 1 w 4 4 Z > + 1 1 > 1 * > - 1 - 0 v S.E..XGXGXGXGXGXGXGXGXGX",
"GXGXGXGXGXGXGXGXG.h d r * , , > , < M + F ..` #.+.pXtX+.eXyX=.tX#.O   _ yX#...sXX.` 1 . - & & ; > 1 * w [ [ J.3XGXGXGXGXGXGXGXGXGX",
"GXGXGXGXGXGXGXGXQ.c c r , , 1 @ C D G ) %.pXuXhXpXaXpXaXeX+.gXsX..] [ [ tX*.%.tX+.sX*.#.Z 3 B : , - > w ] J.(.3XGXGXGXGXGXGXGXGXGX",
"GXGXGXGXGXGXGXGX] x v q % 1 o S H tXeXtXaXgXgXgXpXsXsXaXwX(.uXuXR.F.F.L.rXpXsX+.$.uXuXtX( #.tX4 + O + 5 W } } GXGXGXGXGXGXGXGXGXGX",
"GXGXGXGXGXGXGXOX>X>X>XT.w & ( O.&.aX%.tXgXpXtXgXhXfXuXpXfXdXuXeXXX].R.F.XXaXsXP ..uXtXtXJ %.pXV H *.P t ^.:X7X,XGXGXGXGXGXGXGXGXGX",
"GXGXGXGXGXGXGXR.=X].=X].g # o.-.O.pX+.tXgXpX+.sXfXfXuXuXwXwXwX2X2X.XY.U.-XfXdXc ..yXtXpX+.&.sXG +.gX#.t ~..X;X5XGXGXGXGXGXGXGXGXGX",
"GXGXGXGXGXGXGX!./.| } ~.g o o.-.%.gXsXpXpX=.@.wXqXiXiX2X}.5X7X<X,X<X+X%X5XqX8XT.{.4X+.pXtX*.aXtXsXaXyX! H.J.H.|.3XGXGXGXGXGXGXGXGX",
"GXGXGXGXGXGXGX(.!.{ } ~.q & _ O.=.yXtXyXo.` (..X|...2X%XC.B.B.B.B.oXC.cXcXcXNX:X'.Y.P X.$.X.sXpXaXaXpXXXW [ x W.qXGXGXGXGXGXGXGXGX",
"GXGXGXGXGXGXGX~./.W.W.XXr * ( &.&.` _ H H ^ }..X}.#XC.V.N.<.:.;.;.>.<.V.lXzXcX7X<X@Xz . n P ` +.yX%.sX4XY b.R ~.3XGXGXGXGXGXGXGXGX",
"GXGXGXGXGXGXGX~./.{ E.(.K & ( X.` o     I '.2X3X&XzXM.u ;.p.e.i.i.q.>.;.<.V.zX*XNXbXI.L D F n D ( S ..@.R b.R Q.3XGXGXGXGXGXGXGXGX",
"GXGXGXGXGXGXGX' E.E R W 4 > X   o 4 % y  X'._.#X#X2.:.p.d.l.h.t.9.q.d.y.>.:.V.*XlXkXR. .F F P N X &   9 R l k E 2XGXGXGXGXGXGXGXGX",
"GXGXGXGXGXGXGXGXv k x y * ; ; 1 1 - $ H.:X}.oXV.1.>.f.c.r.q.r.h.e.q.0.t.k.8.<.4.MXbX<XE ~ J A C 1 1 1 3 e g W e GXGXGXGXGXGXGXGXGX",
"GXGXGXGXGXGXGXGX!.{ !.| ; 1 - - 2 = 5  X-X%XC.N.<.e.l.e.0.r.r.h.y.j.y.q.q.h.3.<.A.mXBX{.! G N ; - 1 - 0 ] (.:X_.GXGXGXGXGXGXGXGXGX",
"GXGXGXGXGXGXGXGX/.} (.} : ; M M A % K  X2X&XB.1.8.u.0.r.k.l.h.l.j.j.Z.Z.Z.t.w.8.A.MXvX.Xb.P D 2 - 1 * w ' !.-X3XGXGXGXGXGXGXGXGXGX",
"GXGXGXGXGXGXGXGX).{ (.' - S F G F $ Q :X XC.B.x.t.w.i.z.h.h.k.j.i.e.y.h.h.h.e.9.3.lXzX_.Y.^ F M - , * w ' {.;X2XGXGXGXGXGXGXGXGXGX",
"GXGXGXGXGXGXGXGX(.{ (. .M F G F m 0 ^.-X#XB.1.8.q.t.y.k.j.j.r.0.0.e.i.j.h.e.e.q.p.M.zX-X}.^ G N 2 1 - w ' ~.;X3XGXGXGXGXGXGXGXGXGX",
"GXGXGXGXGXGXGXGX/.| }  .D G G M $ y .X5X#XN.3.e.e.i.j.j.h.q.6.7.7.5.t.i.j.j.q.w.p.4.zX&X2XQ N F A A 2 w ' !.-X-XGXGXGXGXGXGXGXGXGX",
"GXGXGXGXGXGXGX[.-X.X;X2XP F A 1 O ! .X}.#XN.8.i.i.y.k.y.9.5.9.q.q.9.5.9.i.k.e.9.9.y.V.#X}.W.P D A A * y ^.{.6X-XGXGXGXGXGXGXGXGXGX",
"GXGXGXGXGXGXGX-X.X-X-X;XP F M - $ H.].oXB.M.h.i.i.h.j.e.9.e.l.k.k.y.9.7.9.h.r.9.0.8.N.B._. X~ J A M * g ]..X-X.XGXGXGXGXGXGXGXGXGX",
"GXGXGXGXGXGXGX{.W.W.W.(.P N < & 5 ^..XoXV.Z.j.t.e.j.y.0.q.h.k.k.k.k.e.6.9.e.i.q.q.8.1.#X%XY.~ D G M : l `.~.{ (.3XGXGXGXGXGXGXGXGX",
"GXGXGXGXGXGXGX!.} { | ).~ > , = 3 ~.2X#XN.y.j.0.r.k.e.9.q.h.k.y.e.j.r.9.9.0.i.u.t.u.3.#X&X XU F F M : g { { { (.3XGXGXGXGXGXGXGXGX",
"GXGXGXGXGXGXGX/./.E.} ).[ - 1 & & `.6X#XM.i.k.t.i.k.0.e.y.j.j.t.9.t.h.5.6.q.l.l.u.t.3.B.%X{.v.G N - : g W.W.{ (.3XGXGXGXGXGXGXGXGX",
"GXGXGXGXGXGXGX!./.{ { ~.U * , $ , <XNX*XA.y.j.y.u.h.0.i.j.k.i.0.7.q.y.9.5.q.h.l.t.0.3.V.bX<X XP % 5 : f !.} { ).3XGXGXGXGXGXGXGXGX",
"GXGXGXGXGXGXGX!./.W.{ |.] , 1 $ r |.,X*XV.i.i.t.r.i.9.q.h.y.q.6.5.t.u.t.5.w.r.h.0.9.x.V.A.lXB.K $ 4 @ f !.} { /.5XGXGXGXGXGXGXGXGX",
"GXGXGXGXGXGXGXR G.' !.~.U 2 2 2 w e i 1.,.8.u.s.a.s.s.g.f.d.s.g.a.f.d.f.a.s.d.d.w.0.3.3.M.N.N./ 2 ' Q g {.~./.2XqXGXGXGXGXGXGXGXGX",
"GXGXGXGXGXGXGXGXGXGXGXGXGXGXGXGXGXGXGXGXGXGXGXGXGXGXGXGXGXGXGXGXGXGXGXGXGXGXGXGXGXGXGXGXGXGXGXGXGXGXGXGXGXGXGXGXGXGXGXGXGXGXGXGXGX",
"GXGXGXGXGXGXGXGXGXGXGXGXGXGXGXGXGXGXGXGXGXGXGXGXGXGXGXGXGXGXGXGXGXGXGXGXGXGXGXGXGXGXGXGXGXGXGXGXGXGXGXGXGXGXGXGXGXGXGXGXGXGXGXGXGX",
"GXGXGXGXGXGXGXGXGXGXGXGXGXGXGXGXGXGXGXGXGXGXGXGXGXGXGXGXGXGXGXGXGXGXGXGXGXGXGXGXGXGXGXGXGXGXGXGXGXGXGXGXGXGXGXGXGXGXGXGXGXGXGXGXGX",
"GXGXGXGXGXGXGXGXGXGXGXGXGXGXGXGXGXGXGXGXGXGXGXGXGXGXGXGXGXGXGXGXGXGXGXGXGXGXGXGXGXGXGXGXGXGXGXGXGXGXGXGXGXGXGXGXGXGXGXGXGXGXGXGXGX",
"GXGXGXGXGXGXGXGXGXGXGXGXGXGXGXGXGXGXGXGXGXGXGXGXGXGXGXGXGXGXGXGXGXGXGXGXGXGXGXGXGXGXGXGXGXGXGXGXGXGXGXGXGXGXGXGXGXGXGXGXGXGXGXGXGX",
"GXGXGXGXGXGXGXGXGXGXGXGXGXGXGXGXGXGXGXGXGXGXGXGXGXGXGXGXGXGXGXGXGXGXGXGXGXGXGXGXGXGXGXGXGXGXGXGXGXGXGXGXGXGXGXGXGXGXGXGXGXGXGXGXGX",
"GXGXGXGXGXGXGXGXGXGXGXGXGXGXGXGXGXGXGXGXGXGXGXGXGXGXGXGXGXGXGXGXGXGXGXGXGXGXGXGXGXGXGXGXGXGXGXGXGXGXGXGXGXGXGXGXGXGXGXGXGXGXGXGXGX",
"GXGXGXGXGXGXGXGXGXGXGXGXGXGXGXGXGXGXGXGXGXGXGXGXGXGXGXGXGXGXGXGXGXGXGXGXGXGXGXGXGXGXGXGXGXGXGXGXGXGXGXGXGXGXGXGXGXGXGXGXGXGXGXGXGX",
"GXGXGXGXGXGXGXGXGXGXGXGXGXGXGXGXGXGXGXGXGXGXGXGXGXGXGXGXGXGXGXGXGXGXGXGXGXGXGXGXGXGXGXGXGXGXGXGXGXGXGXGXGXGXGXGXGXGXGXGXGXGXGXGXGX",
"GXGXGXGXGXGXGXGXGXGXGXGXGXGXGXGXGXGXGXGXGXGXGXGXGXGXGXGXGXGXGXGXGXGXGXGXGXGXGXGXGXGXGXGXGXGXGXGXGXGXGXGXGXGXGXGXGXGXGXGXGXGXGXGXGX",
"GXGXGXGXGXGXGXGXGXGXGXGXGXGXGXGXGXGXGXGXGXGXGXGXGXGXGXGXGXGXGXGXGXGXGXGXGXGXGXGXGXGXGXGXGXGXGXGXGXGXGXGXGXGXGXGXGXGXGXGXGXGXGXGXGX"
};
