/* XPM */
static char *result[] = {
/* columns rows colors chars-per-pixel */
"65 70 236 2 ",
"   c #2A080E",
".  c #3B2929",
"X  c #670800",
"o  c #582705",
"O  c #533314",
"+  c #653803",
"@  c #663D1A",
"#  c #7F3B00",
"$  c #4A3737",
"%  c #543D38",
"&  c #4B3329",
"*  c #683E26",
"=  c #6B4607",
"-  c #724901",
";  c #694418",
":  c #724D1C",
">  c #774919",
",  c #79521E",
"<  c #5D422D",
"1  c #574138",
"2  c #6D4D24",
"3  c #6C4D2C",
"4  c #654626",
"5  c #714E24",
"6  c #734826",
"7  c #725025",
"8  c #73522A",
"9  c #7B542C",
"0  c #7A5125",
"q  c #6A4C36",
"w  c #6F5138",
"e  c #755438",
"r  c #493D48",
"t  c #594747",
"y  c #564B55",
"u  c #5D525D",
"i  c #4F434F",
"p  c #654942",
"a  c #68524A",
"s  c #755A44",
"d  c #745B4B",
"f  c #755645",
"g  c #6A5756",
"h  c #755E56",
"j  c #744E54",
"k  c #7B6457",
"l  c #5D5564",
"z  c #645C6A",
"x  c #685C65",
"c  c #6B626D",
"v  c #6D6165",
"b  c #72656C",
"n  c #796766",
"m  c #6E6571",
"M  c #6A6677",
"N  c #716771",
"B  c #746A72",
"V  c #796E74",
"C  c #796D7A",
"Z  c #7D7176",
"A  c #7E7379",
"S  c #833606",
"D  c #935111",
"F  c #8D592E",
"G  c #85572B",
"H  c #975A29",
"J  c #965D34",
"K  c #86552E",
"L  c #A35F2C",
"P  c #9C6338",
"I  c #8F6B31",
"U  c #A4622C",
"Y  c #A46234",
"T  c #A66738",
"R  c #AC7632",
"E  c #A25C1C",
"W  c #885C47",
"Q  c #866A45",
"!  c #9A7C48",
"~  c #866856",
"^  c #9A6959",
"/  c #947152",
"(  c #A56843",
")  c #A57258",
"_  c #A67749",
"`  c #8C726B",
"'  c #96776B",
"]  c #837375",
"[  c #82757A",
"{  c #85787B",
"}  c #8C7B7B",
"|  c #8D7874",
" . c #937C73",
".. c #917E7A",
"X. c #987C79",
"o. c #8E6D6C",
"O. c #A67C6D",
"+. c #A17C71",
"@. c #AD8239",
"#. c #AA864A",
"$. c #B9924A",
"%. c #B38B50",
"&. c #94817C",
"*. c #9B857C",
"=. c #9E887D",
"-. c #9A8276",
";. c #9F836A",
":. c #A48478",
">. c #B39172",
",. c #BEAA7C",
"<. c #BCA16A",
"1. c #C29B58",
"2. c #D4AA56",
"3. c #D1B25A",
"4. c #C8A967",
"5. c #D9B96A",
"6. c #D7BC79",
"7. c #CBB370",
"8. c #C29E6C",
"9. c #DBC37B",
"0. c #DBC060",
"q. c #E5CA78",
"w. c #ECCE6B",
"e. c #ECCC5F",
"r. c #7A7686",
"t. c #78758B",
"y. c #887A85",
"u. c #8A7F93",
"i. c #8F828B",
"p. c #8E8087",
"a. c #948283",
"s. c #9B8682",
"d. c #9E8983",
"f. c #94858B",
"g. c #9B8A8B",
"h. c #99878A",
"j. c #8A8293",
"k. c #8A869C",
"l. c #938693",
"z. c #958993",
"x. c #9B8C94",
"c. c #988D9A",
"v. c #9D919C",
"b. c #A28B82",
"n. c #A28E8B",
"m. c #A98C82",
"M. c #A6918C",
"N. c #AC948B",
"B. c #A89187",
"V. c #B29689",
"C. c #A49293",
"Z. c #AB9593",
"A. c #AE9994",
"S. c #A2949D",
"D. c #AD9A9C",
"F. c #AB9699",
"G. c #B49B93",
"H. c #B29D9C",
"J. c #B89A94",
"K. c #B58E81",
"L. c #B5A19D",
"P. c #BBA39C",
"I. c #B6A495",
"U. c #9D93A2",
"Y. c #9593AB",
"T. c #9B96AC",
"R. c #9B97AA",
"E. c #9B9AB3",
"W. c #959ABA",
"Q. c #9B9EBB",
"!. c #9393B2",
"~. c #8E89A4",
"^. c #AC9CA4",
"/. c #A59BA9",
"(. c #B29FA2",
"). c #A19DB4",
"_. c #ACA2AD",
"`. c #AAA1A6",
"'. c #B5A2A2",
"]. c #BAA5A3",
"[. c #BDA9A5",
"{. c #B4A4AA",
"}. c #BDAAAC",
"|. c #B8A7AB",
" X c #A9A5B7",
".X c #B8ABB3",
"XX c #BEB1BA",
"oX c #9DA1BA",
"OX c #C5AD99",
"+X c #CDB689",
"@X c #C2ADAB",
"#X c #C2ACA4",
"$X c #C9B4AB",
"%X c #C1AFB6",
"&X c #C5B2B3",
"*X c #C9B6B4",
"=X c #CCBABA",
"-X c #C8B8B9",
";X c #D1BCBB",
":X c #DAC98A",
">X c #D9C698",
",X c #CCC08D",
"<X c #E3CC83",
"1X c #EAD58A",
"2X c #F3DC86",
"3X c #E9DA96",
"4X c #F0DD94",
"5X c #F3E394",
"6X c #F9EC9C",
"7X c #F5E799",
"8X c #F4E494",
"9X c #D9CBA5",
"0X c #E6DBAC",
"qX c #F5E9A2",
"wX c #FDF4A5",
"eX c #F6EEB4",
"rX c #9EA5C6",
"tX c #A3A9C5",
"yX c #B5AEC2",
"uX c #B9B5C9",
"iX c #B8BCD7",
"pX c #AAB2D2",
"aX c #CCBDC3",
"sX c #C6BCC7",
"dX c #BAC1DF",
"fX c #CCC2CB",
"gX c #D5C5C9",
"hX c #CAC5D6",
"jX c #D4C9D4",
"kX c #DED1D8",
"lX c #D9D4E5",
"zX c #CFD2EA",
"xX c #E2DBE7",
"cX c #EAE4F5",
"vX c #DEE0F8",
"bX c None",
/* pixels */
"bXbXbXbXbXbXbXbXbXbXbXbXbXbXbXbXbXbXbXbXbXbXbXbXbXbXbXbXbXbXbXbXbXbXbXbXbXbXbXbXbXbXbXbXbXbXbXbXbXbXbXbXbXbXbXbXbXbXbXbXbXbXbXbXbX",
"bXbXbXbXbXbXbXbXbXbXbXbXbXbXbXbXbXbXbXbXbXbXbXbXbXbXbXbXbXbXbXbXbXbXbXbXbXbXbXbXbXbXbXbXbXbXbXbXbXbXbXbXbXbXbXbXbXbXbXbXbXbXbXbXbX",
"bXbXbXbXbXbXbXbXbXbXbXbXbXbXbXbXbXbXbXbXbXbXbXbXbXbXbXbXbXbXbXbXbXbXbXbXbXbXbXbXbXbXbXbXbXbXbXbXbXbXbXbXbXbXbXbXbXbXbXbXbXbXbXbXbX",
"bXbXbXbXbXbXbXbXbXbXbXbXbXbXbXbXbXbXbXbXbXbXbXbXbXbXbXbXbXbXbXbXbXbXbXbXbXbXbXbXbXbXbXbXbXbXbXbXbXbXbXbXbXbXbXbXbXbXbXbXbXbXbXbXbX",
"bXbXbXbXbXbXbXbXbXbXbXbXbXbXbXbXbXbXbXbXbXbXbXbXbXbXbXbXbXbXbXbXbXbXbXbXbXbXbXbXbXbXbXbXbXbXbXbXbXbXbXbXbXbXbXbXbXbXbXbXbXbXbXbXbX",
"bXbXbXbXbXbXbXbXbXbXbXbXbXbXbXbXbXbXbXbXbXbXbXbXbXbXbXbXbXbXbXbXbXbXbXbXbXbXbXbXbXbXbXbXbXbXbXbXbXbXbXbXbXbXbXbXbXbXbXbXbXbXbXbXbX",
"bXbXbXbXbXbXbXbXbXbXbXbXbXbXbXbXbXbXbXbXbXbXbXbXbXbXbXbXbXbXbXbXbXbXbXbXbXbXbXbXbXbXbXbXbXbXbXbXbXbXbXbXbXbXbXbXbXbXbXbXbXbXbXbXbX",
"bXbXbXbXbXbXbXbXbXbXbXbXbXlXlXbXbXbXbXbXbXbXbXbXbXbXbXbXbXbXbXbXbXbXbXbXbXbXbXbXbXbXbXbXbXbXbXbXbXxXbXbXbXbXbXbXbXbXbXbXbXbXbXbXbX",
"bXbXbXbXbXbXbXbXbXbXbXbXxXxXxXxXbXbXbXbXbXbXbXbXbXbXbXbXbXbXbXbXbXbXbXbXbXbXbXbXbXbXbXbXbXbXbXbXvXcXcXxXbXbXbXbXbXbXbXbXbXbXbXbXbX",
"bXbXbXbXbXbXbXbXbXbXbX%XgXgXaXaX%XaXaXbXbXbXbXbXbXbXbXbXbXbXbXbXbXbXbXbXbXbXbXbXbXbXbXbXbXgXbXuXzXsXkXkXbXbXbXbXbXbXbXbXbXbXbXbXbX",
"bXbXbXbXbXbXbXbXbXbXbXbX$X(.@Xn.c.(.*XbXbXbXbXbXbXbXbXbXbXbXbXbXbXbXbXbXbXbXbXbXbXbXbXbX^.aXgX{.tX^.@XgXbXbXbXbXbXbXbXbXbXbXbXbXbX",
"bXbXbXbXbXbXbXbXbXbXbXbX^.{.D.u.c.l.Z.bXbXbXbXbXbXbXbXbXbXbXbXbXbXbXbXbXbXbXbXbXbXbXA bXf.S.H.C.[ (.'.-XbXbXbXbXbXbXbXbXbXbXbXbXbX",
"bXbXbXbXbXbXbXbXbXC.(.F./.).rXtX).S.A.H.D.C.F.bXbXbXbXbXbXbXbXbXbXbXbXbXbXbXbXbXz.c.l.{ B A y.l.y.v.^.).bXbXbXbXbXbXbXbXbXbXbXbXbX",
"bXbXbXbXbXbXbXbXbX&XaX$X@XsXdXiXiX-X&X@X@X&X;X;X=X=X;X=X&X*X=X*X*X*X%X}.&X@X|.@X@X'.D.S.D.D.D.'.(.F.(.^.%X-XbXbXbXbXbXbXbXbXbXbXbX",
"bXbXbXbXbXbXbXbXbXK.J.J.{.aXsXiXuX|.'.L.^.{.}..X{.[.}.}.&X@X@X@X@X;X*X*X=X=X*X*X=X=X&X&X=X&X&X=X-X-X*X&XgXgXsXbXbXbXbXbXbXbXbXbXbX",
"bXbXbXbXbXbXbX=XsX#XJ.y.^.aXjXsX^.^ ' :.W ^ X.+.^ ^ ^ ' ' |.&XH.:.) ) +.:.:.-. .+.:.:.:.:.=.:.m.C..XaXsXsXhXxXbXbXbXbXbXbXbXbXbXbX",
"bXbXbXbXbXbXgXxXjXkXjXgXfXgX>.J.H.O.@XJ.>.( D D ;.K.>.J.V.fXlXhX#X:.>.L D F F G H F e J W ' K P o./.%XfXH.aXvXvXbXbXbXbXbXbXbXbXbX",
"bXbX& f W n U.XX_.XX`. X`./.| f.C.x./.c.U.o.f j p.`.S.c.f.v._._.S.x.z.~ W * K s 9 @ + - f q + # o ~ ' :.6 o.M.v.o.X X bXbXbXbXbXbX",
"bXbX. g } k.W.W.W.oXW.W.W.W.E.E.).).Q.rXtX!.u.U.oXpXtXoX!.~.!.Q.Q.Q.W.Y.u.C y.y.o.B r.k.c.v.c.j.t.r.r.C r.r.u.i.k.u.j.t.% bXbXbXbX",
"bXbXbXbXC./.).E.E.E.E.E.R.R.R./.)././. X).T./.(. XoXW.oXY.~.!.E.E.Q.E.!.k.u.j.j.f.z.R. X X X_.E.).R.~.k.Y.T.R.E.W.Q.Q.Y.r bXbXbXbX",
"bXbXbXbXn.C.n.n.n.n.n.n.n.b.d.g.g.g.g.g.x.g.n.N.n.z.l.z.l.l.z.z.l.x.x.z.l.l.l.z.z.c.v.^.^.D.U.U.v.v.c.v.v.U.U.U.T.T./.l.bXbXbXbXbX",
"bXbXbXbX:.B.:.=.=.=.=.=.*.=.*.s.s.s.*.s.y.s.d.g.h.f.f.h.h.d.h.f.u.y.u.f.f.f.f.f.f.i.f.h.g.h.f.h.f.f.i.f.f.f.i.i.f.f.z.V bXbXbXbXbX",
"bXbXbXbXbXd.*.*.*.-.&.&.&.&.&.&.&.......| { { } &.{ { &.&.&.} { { [ { | } { } } { [ [ { { { } } { [ [ [ { A [ [ [ [ y.bXbXbXbXbXbX",
"bXbXbXbX$ &.d.*.*.&.&.&.&.&.&.*.&.} ..} [ A [ [ A A A A A V A Z Z [ A [ A A A [ { V [ [ Z A A A ] Z A A Z A Z ] ] A ] bXbXbXbXbXbX",
"bXbXbXbX  -.N.=.=.=.s.=.-.&.&.&...} ..} { A { { A { [ [ A A { A [ [ [ [ [ [ A [ { A [ A A [ A A A [ [ A A [ [ [ A { ' bXbXbXbXbXbX",
"bXbXbXbXbXbX:.f.i.&.i.a.&.Z Z ] V V V B B V B Z V V B Z V V V V V V V V V A [ A A { [ [ [ [ [ [ [ A [ { [ [ [ [ [ g.m.bXbXbXbXbXbX",
"bXbXbXbXbXbXbXV V A A c c V V V B B B V B B B B B B B B B B B V N c N N c m B Z B B B V B N N B B B N B B B B N N ] bXbXbXbXbXbXbX",
"bXbXbXbXbXbXbX] Z A Z c c Z Z Z Z A A B Z Z Z Z Z Z Z A Z V Z A V B B V Z V B B B B B m B V V V B B V z l z l z z y bXbXbXbXbXbXbX",
"bXbXbXbXbXbXbXs.A A [ Z B B c m A [ B c c A { B c m A A B c m [ Z c c Z { Z c c Z [ V c m A { V z m Z N l l l N ] bXbXbXbXbXbXbXbX",
"bXbXbXbXbXbX&.g.{ { { Z B c y y V Z z i u Z Z z i g Z V l r u Z B y y m A b y y B [ c y u B A z i z A V l z B a.M.bXbXbXbXbXbXbXbX",
"bXbXbXbXbXbXbX{ V Z { N m l 1 ; n M l < q B A l < a V V y & g Z m i $ v A c r % B { l $ t N A y & y A B z Z :.B.A.bXbXbXbXbXbXbXbX",
"bXbXbXbXbXbXbXB m N c u u g 3 - d z g 5 : n B a : w n m a = s ] v 1 @ d B v < 4 n Z y ; 3 n A g O a m z c } *.s.A.bXbXbXbXbXbXbXbX",
"bXbXbXbXbXbXbXbX{ V c p q w 7 7 e a w 7 2 s d w 2 3 d d 3 ; q s a 2 : e d s w e s k q : 7 k Z k - w a y m Z Z Z bXbXbXbXbXbXbXbXbX",
"bXbXbXbXbXbXbXbXf.{ A g : 7 7 8 7 7 5 8 2 ; ; @ ; + + + @ > = + ; 8 8 : + ; q * + = 7 8 7 3 d e : 7 : q A &.&.a.bXbXbXbXbXbXbXbXbX",
"bXbXbXbXbXbXbXbXh.A A g 7 7 8 7 7 : ; 2 : > > D G #.R Q ! $.$.#.! = ; G #.I I / G G @ @ 5 : : 7 7 7 2 s &.=.b.L.bXbXbXbXbXbXbXbXbX",
"bXbXbXbXbXbXbXbXf.[ A g 7 7 8 2 7 > , D _ <.%.4.<.1X9.+X6.q.q.1X4.2 4 ! 9.<.<.:X1.4.I 9 7 ; + 5 7 7 7 s *.=.B.}.bXbXbXbXbXbXbXbXbX",
"bXbXbXbXbXbXbXbXa.A Z a : 7 2 2 G #._ 1.9.8X1XwX8X7X6X6X:X+XwX6X,.` ` ;.<Xq.9.2X4.5X9.7.I s / 6 2 ; : s } =.B.[.bXbXbXbXbXbXbXbXbX",
"bXbXbXbXbXbXbXbXf.{ r.g 5 7 2 I T <X6.q.wXwXwXeX5X1X7XwX>XOX5X3XM.f.z.h.,X6X2X7.<.7X4X4X@.7.:XK 0 9 6 f } :.N.[.bXbXbXbXbXbXbXbXbX",
"bXbXbXbXbXbXbXU._.R.R.j.d ; @.0.2.wXq.4XwX7X1XeXqX3X3X7X0X9X3X:XP.D.x.l.+XwX3X) %.3X:X8X@.q.qXH @.9.! w n.'.}.@XbXbXbXbXbXbXbXbXbX",
"bXbXbXbXbXbXbXU._._..X`.n o 0.w.2.qX5.1XwX8X5.5X0X0X>X3X9X9X>XP.#X[.x.j.I.0X9X] ,.3X1X7X3.w.5X@.q.wX7.p A.'.}.$XbXbXbXbXbXbXbXbXbX",
"bXbXbXbXbXbXbXN.V.V.V.V.n O 0.e.5.6X1X7X5Xq.8.>X$X>X>X#XH.$X&X%XXX}._.{.@X=X-Xx.I.+X5.6Xq.q.wX1X8X7X1Xk h.=.d.G.L.bXbXbXbXbXbXbXbX",
"bXbXbXbXbXbXbXG.G.N.N.N.k ; $.0.2X1X4X2X2.%.V.H.(.4.+X.X(.F.^.^.D.^..XaXsXyX%X].v.x.%.1.1.4.7XqX6X2X7XB.] *.-.d.[.bXbXbXbXbXbXbXbX",
"bXbXbXbXbXbXbXN.G.A.A.L.k 2 $.w.w.%.%.R U +.H.#X].J.].H.y.n % & . y y.U.yXsX*X*X.XE.V X S ( 1.4.2Xw.7X+X` b.=.B.#XbXbXbXbXbXbXbXbX",
"bXbXbXbXbXbXbXb.G.V.B.P.~ ; @.3.#.6 + o ~ N.(.@X@XsXx.t   bXbXbXbXbXbX  z  XjXsXXXE.f.' E Y D U 1.I <.,.*.*.*.B.@XbXbXbXbXbXbXbXbX",
"bXbXbXbXbXbXbX&.n.&.[ y.e 5 4 @ ; 8 = k b.F.C.'.[.z.y bXbXbXbXbXbXbXbXbXbXM  XsXQ.W.Y.;.T U T J ; 4 4 g | | | &.L.bXbXbXbXbXbXbXbX",
"bXbXbXbXbXbXbXbXA B B k 7 7 5 2 3 8 - &.H.(.S.(.y.i bXbXbXbXbXbXbXbXbXbXbXbXM Y.pXpX X&.) L P 9 7 7 2 q n | } g bXbXbXbXbXbXbXbXbX",
"bXbXbXbXbXbXbXbXb.*.B. .7 2 2 8 9 : 7 m.].|.}.D.n bXbXbXbXbXbXbXbXbXbXbXbXbXbXr.pXhXuXC.` T H 8 7 7 7 s } B.'.g.bXbXbXbXbXbXbXbXbX",
"bXbXbXbXbXbXbXbXG.N.L.b.3 7 G F P - ~ A.P.OX#X&.bXbXbXbXbXbXbXbXbXbXbXbXbXbXbXbX).zXfXI.y.) E 9 2 7 5 s ..N.$X@XbXbXbXbXbXbXbXbXbX",
"bXbXbXbXbXbXbXbXP.N.P.b.8 F P Y U - -.'.G.I.B.bXbXbXbXbXbXbXbXbXbXbXbXbXbXbXbXbXk.uXuXG.g.+.U H 2 7 5 s &.A.@X*XbXbXbXbXbXbXbXbXbX",
"bXbXbXbXbXbXbXbXOXN.P.B.F Y T J G e M.@XL.G.&.bXbXbXbXbXbXbXbXbXbXbXbXbXbXbXbXbXbX).aX'.D.+.T U 9 9 7 s *.A.#X}.bXbXbXbXbXbXbXbXbX",
"bXbXbXbXbXbXbXbXJ.V.L.K.L Y T F = k H.*X}.D.bXbXbXbXbXbXbXbXbXbXbXbXbXbXbXbXbXbXbXY.sX}.|.b.Y R T F 0 s M.A.P.[.bXbXbXbXbXbXbXbXbX",
"bXbXbXbXbXbXbXL.#XL.}.J.( Y J 9 + | H.}.*XM.bXbXbXbXbXbXbXbXbXbXbXbXbXbXbXbXbXbXbXbX/.(.D.n._ E T J 0 k A.G.[.}.bXbXbXbXbXbXbXbXbX",
"bXbXbXbXbXbXbX].[.].}.}.) Y G 5 = -.F.D.@XF.bXbXbXbXbXbXbXbXbXbXbXbXbXbXbXbXbXbXbXbXC.{.n.n.O.D P F 7 n D.H.[.P.bXbXbXbXbXbXbXbXbX",
"bXbXbXbXbXbXbXG.b.*.*.Z.) J 8 : 2 n.(.M.D.bXbXbXbXbXbXbXbXbXbXbXbXbXbXbXbXbXbXbXbXbXy.@XA.n.O.E P F 4 b B.d.=.B.[.bXbXbXbXbXbXbXbX",
"bXbXbXbXbXbXbXB.-.*. .M.) 0 5 : 8 n.P.G.C.bXbXbXbXbXbXbXbXbXbXbXbXbXbXbXbXbXbXbXbXbXg.@XJ.n.' Y U G < g *.&.-.=.A.bXbXbXbXbXbXbXbX",
"bXbXbXbXbXbXbXB.=.=.-.A.| 5 5 : 2 F.}.$XZ.bXbXbXbXbXbXbXbXbXbXbXbXbXbXbXbXbXbXbXbXbXbX(.H.M.b.( H < $ v =.=.=.d.A.bXbXbXbXbXbXbXbX",
"bXbXbXbXbXbXbXB.=.*.*.B.' 2 8 - w .XjXkX*XbXbXbXbXbXbXbXbXbXbXbXbXbXbXbXbXbXbXbXbXbXt.uXsX_.F.P ; . $ k d.*.*.b.D.bXbXbXbXbXbXbXbX",
"bXbXbXbXbXbXbX=.d.d.*.N.| < q + k '.{.@X}.bXbXbXbXbXbXbXbXbXbXbXbXbXbXbXbXbXbXbXbXbXc. X X/.A.~ & t $ x b.=.=.b.L.bXbXbXbXbXbXbXbX",
"bXbXbXbXbXbXbXb *.d.d.B.| $ 1 $ p v V n ~ bXbXbXbXbXbXbXbXbXbXbXbXbXbXbXbXbXbXbXbXbXbX*... .s.~ < d.&.v N.N.N.N.[.bXbXbXbXbXbXbXbX",
"bXbXbXbXbXbXbXbXbXbXbXbXbXbXbXbXbXbXbXbXc bXbXbXbXbXbXbXbXbXbXbXbXbXbXbXbXbXbXbXbXbXbX..bXbXbXbXbXbXbXbXbXbXbXbXbXbXbXbXbXbXbXbXbX",
"bXbXbXbXbXbXbXbXbXbXbXbXbXbXbXbXbXbXbXbXbXbXbXbXbXbXbXbXbXbXbXbXbXbXbXbXbXbXbXbXbXbXbXbXbXbXbXbXbXbXbXbXbXbXbXbXbXbXbXbXbXbXbXbXbX",
"bXbXbXbXbXbXbXbXbXbXbXbXbXbXbXbXbXbXbXbXbXbXbXbXbXbXbXbXbXbXbXbXbXbXbXbXbXbXbXbXbXbXbXbXbXbXbXbXbXbXbXbXbXbXbXbXbXbXbXbXbXbXbXbXbX",
"bXbXbXbXbXbXbXbXbXbXbXbXbXbXbXbXbXbXbXbXbXbXbXbXbXbXbXbXbXbXbXbXbXbXbXbXbXbXbXbXbXbXbXbXbXbXbXbXbXbXbXbXbXbXbXbXbXbXbXbXbXbXbXbXbX",
"bXbXbXbXbXbXbXbXbXbXbXbXbXbXbXbXbXbXbXbXbXbXbXbXbXbXbXbXbXbXbXbXbXbXbXbXbXbXbXbXbXbXbXbXbXbXbXbXbXbXbXbXbXbXbXbXbXbXbXbXbXbXbXbXbX",
"bXbXbXbXbXbXbXbXbXbXbXbXbXbXbXbXbXbXbXbXbXbXbXbXbXbXbXbXbXbXbXbXbXbXbXbXbXbXbXbXbXbXbXbXbXbXbXbXbXbXbXbXbXbXbXbXbXbXbXbXbXbXbXbXbX",
"bXbXbXbXbXbXbXbXbXbXbXbXbXbXbXbXbXbXbXbXbXbXbXbXbXbXbXbXbXbXbXbXbXbXbXbXbXbXbXbXbXbXbXbXbXbXbXbXbXbXbXbXbXbXbXbXbXbXbXbXbXbXbXbXbX",
"bXbXbXbXbXbXbXbXbXbXbXbXbXbXbXbXbXbXbXbXbXbXbXbXbXbXbXbXbXbXbXbXbXbXbXbXbXbXbXbXbXbXbXbXbXbXbXbXbXbXbXbXbXbXbXbXbXbXbXbXbXbXbXbXbX",
"bXbXbXbXbXbXbXbXbXbXbXbXbXbXbXbXbXbXbXbXbXbXbXbXbXbXbXbXbXbXbXbXbXbXbXbXbXbXbXbXbXbXbXbXbXbXbXbXbXbXbXbXbXbXbXbXbXbXbXbXbXbXbXbXbX",
"bXbXbXbXbXbXbXbXbXbXbXbXbXbXbXbXbXbXbXbXbXbXbXbXbXbXbXbXbXbXbXbXbXbXbXbXbXbXbXbXbXbXbXbXbXbXbXbXbXbXbXbXbXbXbXbXbXbXbXbXbXbXbXbXbX",
"bXbXbXbXbXbXbXbXbXbXbXbXbXbXbXbXbXbXbXbXbXbXbXbXbXbXbXbXbXbXbXbXbXbXbXbXbXbXbXbXbXbXbXbXbXbXbXbXbXbXbXbXbXbXbXbXbXbXbXbXbXbXbXbXbX"
};
