/* XPM */
static char *_458481e9a434e0889ce1c0ac2a327c9BdUn0plw253FRmGx[] = {
/* columns rows colors chars-per-pixel */
"67 150 20 1 ",
"  c None",
". c #312722",
"X c #67442A",
"o c #364959",
"O c #41757E",
"+ c #756562",
"@ c #95623A",
"# c #B48059",
"$ c #D38F78",
"% c #D8C45C",
"& c #A467AF",
"* c #6B9B9E",
"= c #A69C87",
"- c #88BAB8",
"; c #BABCB2",
": c #E0B896",
"> c #A7CFCE",
", c #D7D5CF",
"< c #F8F8F8",
"1 c #FEFEFF",
/* pixels */
"                                                                   ",
"                                                                   ",
"                                                                   ",
"                                                                   ",
"                                                                   ",
"                                                                   ",
"                                  $$$$$$$                          ",
"                               $$$$$$$$$$$$                        ",
"                              $$$::::$$$$$$$                       ",
"                            $$$$$::::$$$$$$$$                      ",
"                           $#$$$:,1::$$$$$$$$$                     ",
"                           ##$$$$,,,$$$$$$$$$$$                    ",
"                          ######$$$$$$$$#$$##$$                    ",
"                          #@@#####$$$$#######$$                    ",
"                         @@@@@@@###########$#$$                    ",
"                         @@X@@@@@@#@####@@##$###                   ",
"                         @XXXXX@XX@##@@@@@######                   ",
"                        XXXXXXXX#$$$$$$$$::$#@##                   ",
"                        XXXXXX@$$$$:$##$$$$$$$++                   ",
"                        XXXXX#$$$$$X#$#X@$$$$$$+                   ",
"                        XXX@#$$$$$@:,::$##$$$$$$                   ",
"                        X@@#$$##$#$,,:::$#$$$$$                    ",
"                         @@#####$#:::,:::$$$$$$                    ",
"                        X@@#####$$:::::::$$$$$$                    ",
"                         @@@#@@##$$$$$$$$#####$$                   ",
"                        XXX@@@@@@$#####$##X####$                   ",
"                        XXXX@@@XX@+#######X@####                   ",
"                        XXXXXXX..X+###$$##@@#@@#+                  ",
"                        XXXXXXXXXX+######@@@@@@@+                  ",
"                        oXXXX.XXXX@+@@+#@@XXXXXX                   ",
"                        oXXXXXX.X@@@@@@XXXX.XXXX                   ",
"                         .XX....X@@@@@@XXXXX.XXXX                  ",
"                         ..X.....@@@@XXXXX@X...X                   ",
"                         .XX.....X@@XXXXX@@X...X                   ",
"                         .XX.....XX@@@##@@X....                    ",
"                         ........XXXXXXXXX....                     ",
"                         ..........XXXXX.....o                     ",
"                         X..................o                      ",
"                         X.................                        ",
"                         X..............o                          ",
"                         X............                             ",
"                         X.........                                ",
"                         XXX.....                                  ",
"                         XXX....                                   ",
"                        XX.....o                                   ",
"                        XX.....                                    ",
"                        +.....                                     ",
"                       X.....                                      ",
"                        ....                                       ",
"                        ..o                                        ",
"                       X..                                         ",
"                       X.                                          ",
"                      XXo                                          ",
"                      X.                                           ",
"                      Xo                                           ",
"                     X.                  :::$                      ",
"                     X.                  %%:@X                     ",
"                    @.o                 %%##XX                     ",
"                 >;#X.                 o....XX                     ",
"              >>>>=+o                   ....XXX                    ",
"            *->>>>>>>-                   ....XX                    ",
"            o ->>>>>>--                   ....X                    ",
"             oO*-------                   ....XX                   ",
"              OO*------           ,;*    XX....                    ",
"              O*********          ;-*$#::%$....o                   ",
"             OoO****==;=#        ;-*###$;-%$...o                   ",
"            *OooO=##$$$####     ;;-**#*****#X..                    ",
"            OOo.####$######     ;==*O-O*--#@X..                    ",
"            ooX#####$$$$####    ==****O->*-XX..                    ",
"            oX#@@###$:######   %:%%#-OO,,*-X..o                    ",
"           #==@@#@@##$#@@@@@#;++XXXXOO,,,;-+..                     ",
"           =:#@@@@@@#$$######>***--oO;,,o;-ooo                     ",
"            :@@@@@###$######=>+**&&-*->>o--                        ",
"            $+@@#@##$%::%%#>>>>>>----****-                         ",
"            XX@@@@#%%%:%%##->>-OO->>>>-*--                         ",
"             X @@@##%%:%%##*Oo&,,,o*->>>>-                         ",
"               @X@@##@XXX..+,,,,<,:&*-->-O&                        ",
"               XXXX.+;,,,>-;*++*,,,,&oOO&o,,>%#                    ",
"              XXX.o-;>>>>>-*@*++;+,;,&&&&o,,>#%#                   ",
"              X..o**--;>>---@**+oo+o*;&&oo,,,-%#                   ",
"              ...oO***->>---X@++oo+&+o;oo=,,>;%#%,                 ",
"              ...ooOO*-;>;-*XX+oo&&&&;;&o,,,>>%##,,:               ",
"               ..oooOO*->>>+XX-o&&&&&&&&&,,,>>=%#,,::              ",
"                ..oooO*-;>>;X@*&&&&&&+++;,,,>>;##,,:;;             ",
"                   oooO*----.:&&&&&&oooo,,,>>>;##===::%%           ",
"                   ooooO****+-&;&&+oooo+,,>>>>%%%=%%@#=:;=#        ",
"                    ooooOO**%-o+&ooooo+,,>>>>=@@#%@::%%%%#%%       ",
"                     .ooO***:&*oooooo&;,>>>>>@XX@@%%#=,,,,=X@      ",
"                      .ooOO+,&-*+++++;,>>>-->XXX@%#=;,,<<<,;+X X   ",
"                       ..oo=;;-++;;,;,>>----#XXX%@=;;,,<<,,;=+X    ",
"                         . ,&,&+,;,,>----*-;@XXXX=;;,,,,,,;;;=XX   ",
"                           ,&;;,,,,-====**%@,XX@#%:,,<<,,,;;;;=. X ",
"                           >,,,,,=***=+==%X,;X@##%%%%:,,,,;;;;=X@X ",
"                          ->>>*OOO+++#$::::::::::%%%%,<:%::;;;;+X  ",
"                          *---->OOO+#X$$$:::::::::%:%%@%%%%%%%==.X ",
"                          *****->>,#X$%%%$$=$==::=#%%%%>>*.X@###+X ",
"                          OOoOOOO->>>#:#%%$#$$#$$$+#%##;>>-O.XX@X. ",
"                      >>>>>*oooooO*>>>%%%%%$+$$+$$++%%##->>-OX.XX  ",
"                     >>>>>>>>-oooo*>>>>;%%####$$#$#$#%##=->>*@...  ",
"                     ----*>,,,-OoO->>>>>=%###$$$$$$$#####-->> ..   ",
"                       OOO**-*OOO*>>>>>>>-%##$$#$$##$@%##=---      ",
"                         OOOOOOOO>>>>>>>->@%##$######@%###---      ",
"                         ;=OOOO*>>>>>>--->>X@########@@###***      ",
"                         ;;,;->>>>>>>--->>>>.@##@##@##@@@@--*      ",
"                         ;,;->>>->>-O*->>>>>-.@#@##@@#@XXX--*      ",
"                         ,,,*---->-oo->>>>>--*X@X@@@@@@XXX**       ",
"                         ,,,OO**-*ooO->>>--***XXXXXXXX@XXX*-       ",
"                        ;,,,,oOOOo+o-----****OX..XXXXXX..XO        ",
"                        ;,,;$$oo=,+*--**OOOOooX....XX.X..oo        ",
"                        ;;:$:,$:,,*****OoooooX...........oo        ",
"                        ;;=,,,::;**O**Oo.............X...o         ",
"                        ;=;,,,:$-*OOOOoooo..............           ",
"                       ;;#=#,,$OOOOOOo.Xo..............            ",
"                       ;;#,#;,*OOOoOo;;;..............             ",
"                       ;;=#$$#OOoooo;;;;;;X..........              ",
"                       ;;=####ooooo+;;;;;=XXX........              ",
"                       ====:=;=ooo+;;;;;;@XXXX.......              ",
"                     X =========+;;;;;;;=XXXX........              ",
"                     .============;;;;=;XXXX.........              ",
"                     .++++++===========#@@XX.........              ",
"                     .X++XX++###======X..X.....XXX..               ",
"                      ..+++++++++====................              ",
"                      ...++++++++++o.................              ",
"                      X...X+++++o...................               ",
"                      XXXX..........................               ",
"                      XXXXXXXXX.X..................                ",
"                     XXXXXXXX@XX@XXXXXXX...........                ",
"                     XXXXX@XX@XX@XXXXXX...........                 ",
"                      XXXX@XX@@X@@XXXXX...........                 ",
"                      @X@@@XX@@X@@@XXXX...........                 ",
"                     @@X@@@XX@@@@@@@@XX..........X.                ",
"                     @@X@@@@@@@@@@@XXX.............X               ",
"                   XX@@X@@@@@@@@@@@@X......@X..X#.. X              ",
"                      @X@@@@@@@X@@XXX......XX...X.X..              ",
"                      oX@@@@@@@X  ....XX.............              ",
"                      oX@X@@@ X   XX..........o...O..              ",
"                     OooX.X@ X    X.  ...  ..oOOoOO.               ",
"                    *OOOoo.#          ..    oOOOOOO                ",
"                   -OoOOOo...                OOOOOO                ",
"                     OOoooo..                *OOOOO                ",
"                    oo.....                  OOoO-OO               ",
"                                            OoooOOOOo              ",
"                                           .o.oooo  o              ",
"                                                                   ",
"                                                                   ",
"                                                                   ",
"                                                                   ",
"                                                                   ",
"                                                                   ",
"                                                                   "
};
