/* XPM */
static char *_e2dd9f01b1a4b26fae0ca219c9d9e63wGEReYBhK6uOV6pM[] = {
/* columns rows colors chars-per-pixel */
"64 64 251 2 ",
"   c None",
".  c #010006",
"X  c #1D1B1A",
"o  c #040C19",
"O  c #271208",
"+  c #2A1A16",
"@  c #2A0000",
"#  c #2C231D",
"$  c #32241C",
"%  c #3C2516",
"&  c #37210F",
"*  c #0C0C28",
"=  c #1D242A",
"-  c #232222",
";  c #2D2522",
":  c #312722",
">  c #332923",
",  c #3B2C23",
"<  c #332C2A",
"1  c #343838",
"2  c #2E2F30",
"3  c #450B07",
"4  c #57371B",
"5  c #4D2B0F",
"6  c #693F19",
"7  c #703400",
"8  c #422F23",
"9  c #453226",
"0  c #4C3424",
"q  c #47352A",
"w  c #543926",
"e  c #5A3C25",
"r  c #5B3E29",
"t  c #533724",
"y  c #493933",
"u  c #603F26",
"i  c #64432A",
"p  c #69452B",
"a  c #694426",
"s  c #724B2D",
"d  c #7A4D2B",
"f  c #7B502F",
"g  c #6B4A33",
"h  c #744D31",
"j  c #7C5232",
"k  c #79573C",
"l  c #65421B",
"z  c #353B45",
"x  c #2C3A4C",
"c  c #15134F",
"v  c #403268",
"b  c #0F485A",
"n  c #364655",
"m  c #33505C",
"M  c #375A66",
"N  c #2C5867",
"B  c #3C616C",
"V  c #33606C",
"C  c #3D737C",
"Z  c #3A6A76",
"A  c #0F606F",
"S  c #4C4849",
"D  c #495556",
"F  c #504C52",
"G  c #67544A",
"H  c #685A59",
"J  c #755C54",
"K  c #604E45",
"L  c #6F6456",
"P  c #545160",
"I  c #576366",
"U  c #456D76",
"Y  c #45737C",
"T  c #5B787B",
"R  c #726564",
"E  c #76736C",
"W  c #69706E",
"Q  c #624B74",
"!  c #825532",
"~  c #8C5C36",
"^  c #885B39",
"/  c #915F36",
"(  c #86542F",
")  c #94623A",
"_  c #9A653B",
"`  c #986337",
"'  c #8D613A",
"]  c #A3753D",
"[  c #844100",
"{  c #8B5E49",
"}  c #9B6844",
"|  c #9D7256",
" . c #8D6952",
".. c #A5714B",
"X. c #AA7549",
"o. c #B57746",
"O. c #AD7A52",
"+. c #AA7759",
"@. c #B27D55",
"#. c #B77B59",
"$. c #A26F46",
"%. c #805D60",
"&. c #9A7A67",
"*. c #8A796C",
"=. c #B97B63",
"-. c #AA7666",
";. c #78827B",
":. c #BA9834",
">. c #BB9749",
",. c #B5825B",
"<. c #BB835D",
"1. c #BB8654",
"2. c #BD9C57",
"3. c #AD8A4F",
"4. c #9A8B79",
"5. c #978D71",
"6. c #A78367",
"7. c #BC8462",
"8. c #B4876B",
"9. c #B99577",
"0. c #B09170",
"q. c #BDA264",
"w. c #B8A875",
"e. c #ADA661",
"r. c #BAA751",
"t. c #C39748",
"y. c #C2965A",
"u. c #D4BC5B",
"i. c #CBB057",
"p. c #C58A6B",
"a. c #C5866A",
"s. c #C6966A",
"d. c #CC8C72",
"f. c #C68874",
"g. c #D38E78",
"h. c #D28E76",
"j. c #C99778",
"k. c #D5917A",
"l. c #DB957D",
"z. c #D49A7E",
"x. c #D49076",
"c. c #D39962",
"v. c #C6A667",
"b. c #D8AC6C",
"n. c #CBB277",
"m. c #D0AE75",
"M. c #E2977E",
"N. c #D7C255",
"B. c #DBC349",
"V. c #DBC673",
"C. c #3D7881",
"Z. c #7A5682",
"A. c #497B83",
"S. c #557980",
"D. c #637980",
"F. c #925B9B",
"G. c #92689B",
"H. c #8B6F93",
"J. c #AA6AB5",
"K. c #A875B0",
"L. c #9365A6",
"P. c #4A848C",
"I. c #59848A",
"U. c #588C93",
"Y. c #599599",
"T. c #4F9592",
"R. c #66979A",
"E. c #779697",
"W. c #72898B",
"Q. c #719EA1",
"!. c #7B85B0",
"~. c #6DA4A6",
"^. c #76A9AA",
"/. c #7AB4B4",
"(. c #77ADB0",
"). c #7EA09A",
"_. c #868784",
"`. c #9A9684",
"'. c #978C9C",
"]. c #839997",
"[. c #979A98",
"{. c #8C8F89",
"}. c #A69A87",
"|. c #AD9A92",
" X c #8BA29C",
".X c #B2A389",
"XX c #A9A59B",
"oX c #B9A796",
"OX c #AFAD8F",
"+X c #8F95AB",
"@X c #AC91AD",
"#X c #88A8A8",
"$X c #84B3B3",
"%X c #8CBBBB",
"&X c #88B5B6",
"*X c #93BDBB",
"=X c #99B6B5",
"-X c #92ACAE",
";X c #A7AAA8",
":X c #B9ADA4",
">X c #A7B3A9",
",X c #B7B5A8",
"<X c #A6BDBA",
"1X c #B9B9B7",
"2X c #ABA9B4",
"3X c #D39E85",
"4X c #CD9C8A",
"5X c #E49A81",
"6X c #CAA989",
"7X c #DDAC8A",
"8X c #D0B590",
"9X c #E3A887",
"0X c #E5BA97",
"qX c #EEB28F",
"wX c #D6B8A5",
"eX c #CABAB2",
"rX c #E2BEA9",
"tX c #8FC1BE",
"yX c #A9C2BD",
"uX c #BBC3BC",
"iX c #BEC196",
"pX c #D2C693",
"aX c #E9C292",
"sX c #C9C5AB",
"dX c #C4C6BA",
"fX c #D9C7B7",
"gX c #D9C8AD",
"hX c #E2C6AD",
"jX c #8BBFC2",
"kX c #8DC4C5",
"lX c #94C4C3",
"zX c #9AC5C5",
"xX c #98CACB",
"cX c #A3CDCB",
"vX c #A9CCCD",
"bX c #AAC6C3",
"nX c #B8C7C4",
"mX c #A8D1CF",
"MX c #ABD4D3",
"NX c #A6D3D3",
"BX c #B8D2CF",
"VX c #CCCDC5",
"CX c #D4D5CD",
"ZX c #CBD8D5",
"AX c #D9DAD5",
"SX c #CACFC6",
"DX c #E2D5C7",
"FX c #E1DCD6",
"GX c #E7E3DD",
"HX c #F2EEDE",
"JX c #E4E8EA",
/* pixels */
"                                                                                                                                ",
"                                                                                                                                ",
"                                                                  g.        l.                                                  ",
"                                                          k.h.z.9XqX0X9XM.5X5Xg.k.k.                                            ",
"                                                    a.p.l.3Xl.hXGXDX0Xz.g.k.g.l.l.M.k.k.                                        ",
"                                                  @.X.O.a.<.7.j.4X4Xg.h.p.d.<.a.a.7.<.5Xk.                                      ",
"                                                _ / j / ( ~ ) / ] X.@.,.O.@...} @.7.7.7.a.,.                                    ",
"                                              s h r e 4 a ^ ..=.a.a.a.#.#.=.=.j.6Xd.p.+.+.+.                                    ",
"                                              i p s ^ +.a.d.k.k.a.9.wX4Xj.p.#.p.k.k.k.k.f.&.                                    ",
"                                              ! ` _ <.p.a.,.p.d.d.rXfXfXhX0X7Xp.k.k.k.k.l.                                      ",
"                                              k ^ ^ ...._ $.X.a.z.j.x.j.j.z.z.7.+.<.7.7.d.g.                                    ",
"                                              a i i s j ! d 0 d %.| #.@.<.a.,.,.f ` ,.....<.*.                                  ",
"                                              S p i i r e i r a j  ...$.| +...' j s j f f h R                                   ",
"                                                4 i i 9 9 , > j _ ` ' ! ! i 4 i f r , w t i                                     ",
"                                                ; u w - ; ; - w j ' / f ^ { ! ' ! r $ > 1                                       ",
"                                                8 , : > > > ; , 9 w i i g h r r ; - 2                                           ",
"                                                u - ; : : : > : > ; ; ; - X =                                                   ",
"                                                p , , ; > $ $ 2 < 1                                                             ",
"                                                p r w # $ <                                                                     ",
"                                              G t ; : < 2                                                                       ",
"                                            ^ y ; 2 $                                                                           ",
"                                            s X                                                                                 ",
"                                          s y                                                                                   ",
"                                        j y                                   aXaXaXj.                                          ",
"                                      [ 3                                   r.u.v.j.{ i                                         ",
"                          cXMXMXMXBX;X].^.                                    * . . 0 a g                                       ",
"                          Q.lXxXzXxXzXxXkX/.                                    @ o ; , p                                       ",
"                          N C T.~.~.~. X#X=X].                  nXyX X8.1.z.0XOXv.{ ; ; <                                       ",
"                      U.P.N n *.4.8.6.h.p.j.f.,.,.<.          ,X>X~.R.}.{.E.=X/.OX@.a ; ;                                       ",
"                      I I  ._ X.@.O.@.d.3X7.#.X.@.@.X.      n.6Xe.5.E.Y.I.<XZX-X&XG 4 ;                                         ",
"                    6.6X4X} ` } ` } ..+.k.p.+.3.,.O.O.oXbXW.E.W.[._.T R.nXAX[.;XlXW z                                           ",
"                      z. .j ` $.` ,.2.b.u.7Xb.u.t.8.*XyXzX-X$X-X-X/.tXlXtX$XY.tX                                                ",
"                            ) ! ( ` X.y.v.oXw.w.5.*.#X=X@X2XCXGXdX2X=X$X$X&XvXQ.@X                                              ",
"                            i e y I R. X=XnXvXvXjX/.[.*.].E [.'.|.eX;X'.L.G.L.* CXAXBXw.i.=.                                    ",
"                            > $ n U R.R.~.*XnXmX=XkXW.7 R W x v Z.F.L.'.2XK.c @XAXAXBXyXN.1.n.AX                                ",
"                                1 n x N Y R.&XbXcXbX4.5 4.+XF.J.J.J.J.H.H.Z.@XAXCXCXNXNX,Xt.9.FXFX0XsX                          ",
"                                      n n M A.Q.~.(.).5.;XG.@XF.Z.Q x = 1 E CXCXBXmXMXyXw.>.q.e.v.n.m.n.V.8X.X2.:.              ",
"                                          z x M A.P.`.gX!.T.S P D W I '.1XZXBXmXxXxXyX' 7 j 3.>.r.6XOXsXDXHXHXDX8X&.d           ",
"                                                  *.dX@XVX+XXXdXSXCXuXyXuXtX/.~.-X X}.3 5 6 3.0.,XuXCXGXGXJXJXZXnX>X[. .6       ",
"                                                  <XZXSXSX2XVX;X[.Q.E.4.&..XoXOXq.wXwX6.8.9.s.V.aXpXaXGXFXpXfXgXsXdXdX,XL d f   ",
"                                                  ~.^.(.~.(.^.R.-X{. .} c.b.b.7X7X6X9X8X6X0XwXn.i.u.N.n.8XsXiXw.3.3.y.9.0.H i   ",
"                                          mXMXMXbX&XE.D.S.B U I.#XbXvX<XpXn.u.B.v.a.-.f.a.8.h.f.R q.N.t.6.>XkXlX/.C.s 5 s g     ",
"                                        %X%XlX%X(.bXbXnX-XY b m R.zXvXNXmXMX>X8X>.1.,.d.l.a.d.d.a.f.<.2.2.o.}.tXcXxX`.          ",
"                                                E.W.W.W.I.U.E.lXMXMXMXmXzXtXkXxX>Xq.` #.p.,.<.<.#.#.+.] 2.+.o.[./.kX            ",
"                                                CXSXuX(.xXcXxXNXMXlXE.Q.jXzXvXMXMXzXE.R } O.~ ,.X.) O...( J [ W.kX~.            ",
"                                                FXFXSX].S.Y.Y.Q.W.D U (.zXcXcX%X&X^.^.U.l i r h h d p ! k , 7 T ~.              ",
"                                              VXVXwXwXwXoX&.|.eXXXS.(.$X~.U.Y M M M D S 0 = ; $ , t 9 9 q + y m                 ",
"                                              1X|.oXVXAXDX5X:X$XR.A.C.A.M z * o + + + & ; > ; ; ; - , 9 -                       ",
"                                            dX,X0.6X8.eX8XA.A A b b T [.XXXXW.5.y $ > ; > > > > : > ;                           ",
"                                            ,XXX}.9.3X0.4.T D P W 4.1XuXuXdXuX}.h i i 9 ; ; ; : > :                             ",
"                                        9 4.4.4.4.`.}.}..X.X4.}.;X,X,X,XOX:X5.7 a p 0 , > > > > : >                             ",
"                                          K H R H J R *.&.&.4.}.}.}.}.5.L p 5 i q , ; ; > 0 0 q ; >                             ",
"                                          5 $ y G G L H H H P F G S S O . o ; - # : > : : : ; : : :                             ",
"                                          p i i 6 t r i i q r t O $ % , q 9 , : > > : : : : > : :                               ",
"                                          p p p h ^ e h _ p ! ) s p p p p w : : : : > : : : ;                                   ",
"                                        ) ) p ) ~ ) p j _ ^ ~ ) ) ^ j g i , - : : ; # : : : > q                                 ",
"                                      ! _ _ p _ _ ) ) ) _ _ ) _ ) ^ j w , , : > : h r > + r ^ O 4 p                             ",
"                                          S 6 ` ! ` _ ) ) j j   p 0 9 ; 9 w > : : 9 8 + z , 8 1 S O                             ",
"                                      R.C Z U F x s }                     ;         x B Y C V Y C                               ",
"                                      A.B U M N n = q                                 U.A.C P.Y.C A.                            ",
"                                                                                    Y M D n Y U.C Z M                           ",
"                                                                                                                                ",
"                                                                                                                                ",
"                                                                                                                                "
};
