/* XPM */
static char *db4d9d0b8add4942cdcdadd3528205c2e06GSC5ee3qKgZHk[] = {
/* columns rows colors chars-per-pixel */
"64 64 151 2 ",
"   c #262422",
".  c #292625",
"X  c #2C2A26",
"o  c #29272A",
"O  c #2D2C2A",
"+  c #312D25",
"@  c #312E2B",
"#  c #33322D",
"$  c #38352D",
"%  c #3C3A2F",
"&  c #2E2C31",
"*  c #312F30",
"=  c #363531",
"-  c #393633",
";  c #373832",
":  c #3B3935",
">  c #373639",
",  c #393738",
"<  c #3C3B39",
"1  c #423E35",
"2  c #403D39",
"3  c #444132",
"4  c #44433B",
"5  c #49463D",
"6  c #4D4A3E",
"7  c #524D3E",
"8  c #57523F",
"9  c #474641",
"0  c #494642",
"q  c #4E4B43",
"w  c #4E4D48",
"e  c #514E44",
"r  c #514F49",
"t  c #555145",
"y  c #595445",
"u  c #595844",
"i  c #555249",
"p  c #59554A",
"a  c #5C594A",
"s  c #595450",
"d  c #5D5B51",
"f  c #615C4C",
"g  c #625F50",
"h  c #666256",
"j  c #6C6655",
"k  c #6E6956",
"l  c #676358",
"z  c #6C6659",
"x  c #6E695A",
"c  c #706756",
"v  c #716A56",
"b  c #726B5A",
"n  c #786F5E",
"m  c #76705D",
"M  c #78715E",
"N  c #746E61",
"B  c #767061",
"V  c #797360",
"C  c #7C7B6C",
"Z  c #847F6D",
"A  c #817F72",
"S  c #878366",
"D  c #86846F",
"F  c #87856E",
"G  c #86856D",
"H  c #85836D",
"J  c #88866F",
"K  c #89856D",
"L  c #8A896B",
"P  c #88886E",
"I  c #8A886F",
"U  c #8A896D",
"Y  c #828071",
"T  c #848172",
"R  c #868072",
"E  c #868372",
"W  c #878570",
"Q  c #878471",
"!  c #868571",
"~  c #878473",
"^  c #878672",
"/  c #838174",
"(  c #868374",
")  c #868472",
"_  c #8A8571",
"`  c #898770",
"'  c #888671",
"]  c #8B8670",
"[  c #888772",
"{  c #898673",
"}  c #8C8771",
"|  c #8D8673",
" . c #8B8575",
".. c #8A8776",
"X. c #8A8672",
"o. c #888870",
"O. c #898971",
"+. c #8B8970",
"@. c #8A8871",
"#. c #8B8972",
"$. c #8A8873",
"%. c #8C8A71",
"&. c #8E8A71",
"*. c #8E8973",
"=. c #8C8A73",
"-. c #8F8B72",
";. c #8D8C70",
":. c #8E8C73",
">. c #8B8974",
",. c #8B8875",
"<. c #8A8975",
"1. c #8B8A75",
"2. c #898876",
"3. c #8B8877",
"4. c #8A8977",
"5. c #8D8B74",
"6. c #8C8A75",
"7. c #8F8A74",
"8. c #8C8976",
"9. c #8D8B76",
"0. c #8D8A77",
"q. c #8C8B77",
"w. c #8F8A76",
"e. c #8F8A77",
"r. c #8D8D75",
"t. c #8F8D74",
"y. c #8D8C77",
"u. c #8F8D76",
"i. c #8E8C77",
"p. c #8E8E76",
"a. c #8F8F77",
"s. c #8C8A74",
"d. c #898779",
"f. c #8C8978",
"g. c #8E8B78",
"h. c #8F8D78",
"j. c #8D897D",
"k. c #8D8C79",
"l. c #908B77",
"z. c #918D75",
"x. c #918C79",
"c. c #918F78",
"v. c #908E79",
"b. c #938E78",
"n. c #908D7A",
"m. c #918E7B",
"M. c #928E7A",
"N. c #909076",
"B. c #929077",
"V. c #909078",
"C. c #93917C",
/* pixels */
";.=.8.8.r.z.=.8.N.G h.<.+ X O > <.h.r.=.=.=.z.=.=.=.r.8.<.j.: = =.{ M m r.8.=.L =.z.J I v.Q $ + k n _ M.I =.r.V.r.=.r.I N.^ % . ",
"G v.E { r.J J <.G { h.^ 3 $ O < Y ^ <.{ K I 8.;...Q { 8.4./ $ $ G I k x / ..v.z.H =.J J m.E 1 - j n Z _ I =.J G ..^ ..E g.Y : . ",
"r.^ a y m m m m V m b m j h $ @ 8 a x m M n b b p y y y a i @ - N.q.u t p f b N y f n b y y l x v n M M m x a t i p p r p p # * ",
"O.4.y 7 v j k x j b k b V b : # 6 a j b b v k j q t 6 6 q 5 @ = H C p q e p h z r e h x 7 8 m n v v v j v j y t 7 r e e 6 5 @ & ",
"<.4.i e b b b n v b M v b z q q z b N b b b b n B l t e i i = O : 2 e t l b n n x b N b M j v j x b b k n n z x b l i t p t # . ",
"V.~ t e c b b x n c v v x n p t b b x k x c b b m z p e 5 w $ @ @ $ e y x b k k v n b x b j b n b b n v b x j n n j y t 6 6 # X ",
"=.| B b n b k b v v b b k k e e j b b b n b b x x b b x i r + * x c b z b n v b M j b b b b n h n c b k k b b b b b b x p 6 # O ",
"z.Z B b b b m b v n k b b b e p v b b b c b b b v v v b r r + - v n j n j b b v v b b v v b c n N z b n v n b k v b N l p q = * ",
"n b n b b b b b v b b v b b v b e y c b b b b x i i t e t r O : Q ..t e b j b b b b b b b b b b v b v b v b v b v n N b t 5 - o ",
"b v v b b n b b n v b b b b b b t f c x b b x z w w t t e r X : { { y y n v b j b b b b b b v b b b b b b b b b b b z h i 6 - O ",
"8.H M v b b v x v b b b v b b v v v b M b c p t i w q 7 q t @ = { g.n h b c b n b b b b b v v b b b v b b b v b b b a y e q # O ",
"b.K m j v j c b v b b v b b b b b b v b b b e q i r e t e w + ; I _ V j n v v v v b b v b b b b v b b b b v b b b j r 7 e q @ O ",
"L K b v n b b b b b b b b b v b v v k v b x t 6 5 p l z t q X : K =.N v n b v v b b v b b b b b b v b b b b b b b b t 6 t q = O ",
"z.=.b j N b b v b v b b b b b b m b v v b x u t t a x x t q + : J 8.N j n k b n b b b b v b v b b b v b b b b b b b t q i q = O ",
"=.H a y j x n b b v b v v b b v b k b b n b k h x j b z e q # > I { y t b v b j v b b b b b v b b b b b k b b b b j p w w q O X ",
"h.G u t z b b v b b b b b b b b m j m k b b m m b k m x t q @ > { <.t e k k b N b b v b b b b b b b v b b b b b b x p w w w = O ",
"h.{ m k b v b b k b b b b b v b m x n c b b b b b x t e t q O - U O.y w + % z m v b v b b v b v b b b b b b b b i t 6 q t w @ X ",
"{ H m k v k b b b b v k b k j v k k b b b b x z b x y t r w O = D / a 4 : 1 g m b b b b b b b b b v b v b b c c t t t t e w # O ",
"m m k b b b b k v b b b m n b n b b b b b b n b n j 7 q q w # # , 2 X # x x b k b b v b b b b b v b v b b v v b r 6 6 q q q # X ",
"k m k k m b b k k b b x b v j b b n v v v v b b b z y i q r # O @ - $ % x B b k n v b b b v v b b v b v b b b c y t e y t w = X ",
"=.H m k b k b b m m b b b b j b k b b m n b n j k V b z i q # * l x x j v v b N v v b b b b b b b b v b b b b v z z x l r 9 = # ",
"M.=.m k b v b b z z z j b b b n b n j x z j n b k B x l i w # ; b m v b v n b j v b b b v b v b v b b b b b v b m m x l u 9 * O ",
"=.H m k b b b k y t t p j b b k b k u t t y j b m k y e r w O : H L m m j c b n b v v b b b b b b v b b b b b b b j u t t w * O ",
"v._ m b b b k k r q q t z N b k b z t q q t k b x j t e w w O ; =.I b j n b b v b b b b b v b b k b j b b b b v b j u 6 t w * O ",
"=.{ m v n b e r w i e r m m k m b b p q i r t p x x t e q i O = J { p r N n k v b c b b b n b b i t t e b x b b b m t q t q O @ ",
"=.=.b j m k t i r i e t z x j k b k t 6 r q q t j z t t 9 q # < I _ t e N b b b b b n b j j v j r r t e b b b k x l t t q 9 # O ",
"=.D y f b k t 5 q r 6 t x x a t m x i q r q r e y a 6 q $ =   = I <.t 7 b k b b v b n j y e t t q q e t N x m k a t e q = ; = O ",
"z.H 7 7 z j a r t t 6 y x l u 6 j j t e t e e e 6 6 q q # @ X < L r.y e x j b k z x b h y 7 7 r t r i i x x x j t q q q O O & * ",
"h.4.p q t t q r q r e e t e q e i p e q i e r r q i t w @ X . > o.4.y 6 a e y t t t y t e e w w e q e 6 t t t t i w : # # O o o ",
"~ / d t q q q r w t r e e w w i 6 r q r w w r w w q w w # O O < D A p q i q q w q 6 q r w w i e r r r e q q e q w 0 # X # = O = ",
": $ X X O # + # X O X @ @ @ X X @ @ + @ O X # + O O @ @ X O X = % : @ X X + # @ # O # @ O + + X @ @ + O + @ @ O O = @   X o o # ",
"$ $ : < ; : # - > , - : ; ; ; : - - # = = ; < - - > > - > : O O $ # > < ; ; ; O = $ ; ; ; > > $ : = - : > : - ; = ; - : < - # O ",
"I G 8.^ =.J k v ^ G =.G { =._ =.~ 4.8 e <.<.G ;.P D P P r.P ; # S P [ [ r.=.b k K _ _ { =.{ =.=.I ;.H K J S r.=.=.G =.G ;.^ : X ",
";.<.^ ^ v.I m b =.=.=.=.8.8.8._ 4.H t p E 8.=.G r.<.O.! P C % > =.V.~ d.[ ^ b k K | z.| 8._ 8.r.^ E =.=.8.g.{ G =.H ..H <.Y : o ",
"h.! g y k n v b b b b m n j f 8 t a j b b V m m t p t y p a X > ^ ~ d t y t t y t f k b m b b b y y n b b b y y t a p t p i = * ",
"h./ t 6 j k b b b b b b v j y 7 8 y j n j x j k t t q 6 q w X < <.d.t 4 t 8 r t 7 a h N n v v v t e x x b k t e q r e 6 q 5 @ & ",
"q.~ i p b b b v b b b b b b x z n j b b b V b v x z p q e e X ; <.<.p y z x x x z x b b b b v v b k n b b M v b n z i t i e = o ",
"h.~ a t k k v b b b b b b b N N j b V b b b j n m z t e t t O ; P G t y j k m x N n N b b b b b b b c j k k b b n h y e 7 6 $ O ",
";.=.b j m m b b b k b b k x c j b b v j v b v n k j t q e q X - =.<.x x m m x x j k v b b b b k b b b b b v v b k v b z p 6 # O ",
"=.^ m j b v k m b m k k b b n b b b b n v b b b v x i i w q # - G 8.B b k k x B b m b k b b b b b k n b v n v b v v N z p q # O ",
"v.{ M k b b k b b b v b b v b b b b b v b b v b b b b z t r @ - L _ n b b b b b b b b b v b b v v b b v b b v b v n b k u 6 O O ",
"_ H M b b n v v b b b b b b b b b b b b b b b b b x b z t e @ - I =.b h b v b b b v v b b b b b b b b b v b b b v v x x t q = O ",
"n b v v b v v v v b b v b b b v b b b b v b b v b b n z t q @ - j b p y k b b b b b b b b b b b b b b b b b b b b v b x e q = O ",
"b b v v v c n b b b b b b v b b b b x v b b b b b b b x y e @ = x b e e x n v v b v b b v b b v v b b v b b v b b b b b t q = o ",
"_ D V n n b b b b b v b b b b b b b b b b v b b b v n z y q @ - 8.E p e j b k b b b b b b v b b b b v b b b v b b b b x t q # X ",
"M.8.b j b x b b b b b b b b v b b v b b b b b b b v b z t r + = | Q f y c v n b b v b v b b b b b b b b b b b b b b j h e w O O ",
"=.H a t z b b b b v v b c b v b b v b v v b c b b b n x t r @ - =._ b h n b b x b v b b b b b v v b b v v b b v b x a p i w # O ",
"z.G y r x b b v b b b b b b b b b b b b b b b b b x b j t q # = K _ V x b v b b b b b b b v b b b b b b b b b v n j 7 q q i # O ",
";.=.b k b b b b b b b b b b b b b b b b b b b b b v b N t q # = j m b b b b b b b b b b b b x b b b b b b b c b r e t e r q @ + ",
"^ H V b b b b b v b v b b v b b b v v b b v b v v b x z t q O = b m k k b b b x b b v b b v b b b b b v v b b v i e r e t r # O ",
"p p x b n b b x b b v b b v c b b b b b b v b b v c y r t q @ - =.H n k b b b b b v v b v v n x b v b b b b b v e 6 7 7 r e @ @ ",
"0 r N b c x b N b b b b b b b b b b v b b b b b b c y e q t @ - _ J M v b b n b n v b n b v b b b b b b b b v b y y y r e q # O ",
"O 2 h n b v b x b b b b b b b b b b b b b v b b v n b z i q X - k m k k b b b x v b b b b b b b b b b b b b b c x j z l t q @ O ",
"$ 5 h b b n b b b b v b b v v b v b b v b b b v v v x j i e @ - v m b b b c b b v v j j b b b b b v b c b v b v n b m x t q = O ",
"{ J V b k k b b v b v b b b b b b b b b b b b x v c y e r r + - { G M x b v n b v c a a z n k b b v b b b v b b b k b x r q @ O ",
"I I b v v n b v b b b b b v b b b v b b b v b b v v 8 6 e r X : 8.I m k b b b c b j 7 7 z m k b b b b b b b b b n j c b e q = O ",
"=.^ y 7 m k m k c n k k m n j b b c v b b N n b t t 7 t y q # ; <.g.t 8 b k n v v x - - x b b b v v b b b v c b b b t 6 y q # X ",
";...p r x j b x b v b b b j b b b v n b j j z z t t q q i q X ; <.^ a y z z b j v x - $ j j k b b n b b n b n b b k t e t q = O ",
"=.^ i q i i t p b z V b y y b b b n n j a e y y 6 q q q i w X ; 8.8.V l p y r p n z # X y e 7 t b b b v k v v b t t 6 q i q = X ",
"=.E i q t q q r z j N l 6 t l x j b j h t 6 e e q p q q w w @ < D _ b z t r 5 r x h 1 = 6 6 e t b z x b b z b b e e t y q 5 > O ",
"N.^ p q t t e r t r t i t t t t y t p p t q t w i q - @ O =   > U O.u t t t e w t p q 9 = # e s e e t t t t t e r i i q - # O O ",
"^ C p 6 q q 9 w q q 0 q q r q q e 0 0 r q w w w q 0 = O O O O : H D t 6 q q e e 0 q r w @ @ 9 q e e q 6 q q e 6 q w w 9 # O X # ",
"3 4 = o # # # = # = = # @ # # # = # = = # # $ @ = $ O * & O O # : 4 # O # # # # = @ @ = O @ - # # * # # # # = # O $ $ = O O X O ",
"  o & o = X X O O . O O O O O X & O O O X X O O X O o = O * O X . . & & O * O X O @ . O O * o O @ o @ @ & O o O O O X X X # O # "
};
