/* XPM */
static char *result[] = {
/* columns rows colors chars-per-pixel */
"35 35 140 2 ",
"   c #731818",
".  c #761919",
"X  c #781919",
"o  c #791919",
"O  c #7B1A1A",
"+  c #7D1A1A",
"@  c #7E1A1A",
"#  c #801B1B",
"$  c #821B1B",
"%  c #831B1B",
"&  c #851C1C",
"*  c #861C1C",
"=  c #871C1C",
"-  c #881C1C",
";  c #8A1D1D",
":  c #8B1D1D",
">  c #8C1D1D",
",  c #8D1D1D",
"<  c #8C1E1E",
"1  c #8F1E1E",
"2  c #911E1E",
"3  c #921E1E",
"4  c #941F1F",
"5  c #961F1F",
"6  c #971F1F",
"7  c #8F2020",
"8  c #8E2222",
"9  c #912424",
"0  c #952424",
"q  c #992020",
"w  c #9B2020",
"e  c #9C2020",
"r  c #9E2121",
"t  c #9F2121",
"y  c #A12121",
"u  c #A32222",
"i  c #A42222",
"p  c #A62222",
"a  c #A82323",
"s  c #A92323",
"d  c #AB2323",
"f  c #AD2424",
"g  c #AE2424",
"h  c #B02424",
"j  c #B22525",
"k  c #B32525",
"l  c #B52525",
"z  c #B72626",
"x  c #B82626",
"c  c #BA2626",
"v  c #BC2727",
"b  c #BD2727",
"n  c #BF2727",
"m  c #C12828",
"M  c #C22828",
"N  c #C42828",
"B  c #C62929",
"V  c #C72929",
"C  c #C92929",
"Z  c #CB2A2A",
"A  c #CE2A2A",
"S  c #D02B2B",
"D  c #D12B2B",
"F  c #D32B2B",
"G  c #D42C2C",
"H  c #D42E2E",
"J  c #C73333",
"K  c #D53030",
"L  c #D53131",
"P  c #D53333",
"I  c #D63535",
"U  c #D63636",
"Y  c #D63838",
"T  c #D73A3A",
"R  c #D73B3B",
"E  c #D73D3D",
"W  c #D84040",
"Q  c #D94545",
"!  c #D94747",
"~  c #DA4949",
"^  c #DA4A4A",
"/  c #DA4C4C",
"(  c #DB4E4E",
")  c #DB5151",
"_  c #DC5353",
"`  c #DC5454",
"'  c #DC5656",
"]  c #DD5858",
"[  c #DD5B5B",
"{  c #DE5D5D",
"}  c #DE5E5E",
"|  c #C76161",
" . c #DE6060",
".. c #DF6262",
"X. c #DF6363",
"o. c #DF7373",
"O. c #E06565",
"+. c #E06767",
"@. c #E06868",
"#. c #E16A6A",
"$. c #E16C6C",
"%. c #E16D6D",
"&. c #E26F6F",
"*. c #E27171",
"=. c #E27272",
"-. c #E37676",
";. c #E37777",
":. c #E47979",
">. c #E47B7B",
",. c #E47C7C",
"<. c #E58080",
"1. c #E58181",
"2. c #E68585",
"3. c #E68686",
"4. c #E78888",
"5. c #E78A8A",
"6. c #E78B8B",
"7. c #E88D8D",
"8. c #E89090",
"9. c #E99595",
"0. c #EA9898",
"q. c #EA9A9A",
"w. c #EDA6A6",
"e. c #EDA7A7",
"r. c #EDA9A9",
"t. c #EEABAB",
"y. c #EEAEAE",
"u. c #EFB0B0",
"i. c #EFB1B1",
"p. c #EFB3B3",
"a. c #F0B5B5",
"s. c #F0B6B6",
"d. c #F0B8B8",
"f. c #F1BABA",
"g. c #F2C0C0",
"h. c #F2C2C2",
"j. c #F3C4C4",
"k. c #F3C7C7",
"l. c #F7D9D9",
"z. c None",
/* pixels */
"z.z.z.z.z.z.z.z.z.z.z.z.z.z.z.z.z.z.z.z.z.z.z.z.z.z.z.z.z.z.z.z.z.z.z.",
"z.z.z.z.z.z.z.z.z.z.z.z.z.z.z.z.z.z.z.z.z.z.z.z.z.z.z.z.z.z.z.z.z.z.z.",
"z.z.z.z.z.z.z.z.z.z.z.z.z.z.z.z.z.z.z.z.z.z.z.z.z.z.z.z.z.z.z.z.z.z.z.",
"z.z.z.z.z.z.z.z.z.z.z.z.z.z.z.z.z.z.z.; ; ; ; ; ; ; ; z.z.z.z.z.z.z.z.",
"z.z.z.z.z.z.z.z.z.z.z.z.z.z.z.z.| 7 0 9 8 < ; ; ; ; : d &.z.z.z.z.z.z.",
"z.z.z.z.z.z.z.z.z.z.z.z.z.z.U e w J o.6.6.{ n e 1 * + . . +.z.z.z.z.z.",
"z.z.z.z.z.z.z.z.z.z.z.@.i 3 5 g Z / :.<.1.,.) m r - - - + # O.z.z.z.z.",
"z.z.z.z.z.z.z.z.z.O.r 2 4 t i h d p z b N B B C g = + = - # & O.z.z.z.",
"z.z.z.z.z.z.z.z.j 2 2 t e e y y t r 4 - % 5 l n j g q % @ $ % ; } z.z.",
"z.z.z.z.z.z.z.6 1 i l F c 5 y i e q y h B K L V d l b h 5 ; > 5 6 z.z.",
"z.z.z.z.z.z.5 u j z G L G p , 6 y z Z L L F G A z z x m M k t = c z.z.",
"z.z.z.z.z.3 k l b C n c C W F V A F H D G K Y L c l x x c n M q  .z.z.",
"z.z.z.z.e m s a A T ( %.7.y...R Q H A K U Y T L z l z c n n p u z.z.z.",
"z.z.z.p M n E >.8.r.d.a.d.q.^ _ X.+.~ K H I T K z l b m j r + E z.z.z.",
"z.z.z.Z b P 5.h.f.i.r.w.g.7.` O...O.@.' U F T F x n k t 1 & ; z.z.z.z.",
"z.z.z.M m _ _ 5.p.t.u.d.g.*.(  . . . .+...~ Q P h t 2 > 3 % k z.z.z.z.",
"z.z.z.v F } ~ { s.g.s.j.e._ _ }  . .X.#.*.#.I d 1 > 3 4 1 & z.z.z.z.z.",
"z.z.z.c P +.*.$.0.j.s.k.4.! ] ..#.$.X.^ S g w 1 3 3 4 4 = 4 z.z.z.z.z.",
"z.z.z.M { 4.3.-.=.y.h.f.#._ ....^ D h 6 4 w y e 4 4 4 3 % W z.z.z.z.z.",
"z.z.z.D -.2.<.<.;.9.l.u.` W C h w 5 q y i i y w 3 4 4 > ; z.z.z.z.z.z.",
"z.z.z.P &.;.2.2.;. .,./ f w 4 q t i i u u i u e 4 4 5 % x z.z.z.z.z.z.",
"z.z.z.Y u s h g p 3 ; = 3 y i u u u u u u u u e 5 4 3 & #.z.z.z.z.z.z.",
"z.z.z.z.( %   o & 1 2 2 6 e u i u u u u u u u e 4 4 - 3 z.z.z.z.z.z.z.",
"z.z.z.z.z.z...3 o # 3 5 3 5 w y i u u u u i u r 4 4 % I z.z.z.z.z.z.z.",
"z.z.z.z.z.z.z.z.z.3 . % 4 3 6 q y u y i u u u t 6 ; > z.z.z.z.z.z.z.z.",
"z.z.z.z.z.z.z.z.z.z.} ; X & 2 q w r y u u u u t 6 $ k z.z.z.z.z.z.z.z.",
"z.z.z.z.z.z.z.z.z.z.z.z.} 1 o = 5 w r y u u i t 3 % $.z.z.z.z.z.z.z.z.",
"z.z.z.z.z.z.z.z.z.z.z.z.z.z.[ - O - q r u i u t ; 4 z.z.z.z.z.z.z.z.z.",
"z.z.z.z.z.z.z.z.z.z.z.z.z.z.z.z.{ , o - y p p r - P z.z.z.z.z.z.z.z.z.",
"z.z.z.z.z.z.z.z.z.z.z.z.z.z.z.z.z.z.} > o 1 i q 2 z.z.z.z.z.z.z.z.z.z.",
"z.z.z.z.z.z.z.z.z.z.z.z.z.z.z.z.z.z.z.z.' , & - R z.z.z.z.z.z.z.z.z.z.",
"z.z.z.z.z.z.z.z.z.z.z.z.z.z.z.z.z.z.z.z.z.z.z.z.z.z.z.z.z.z.z.z.z.z.z.",
"z.z.z.z.z.z.z.z.z.z.z.z.z.z.z.z.z.z.z.z.z.z.z.z.z.z.z.z.z.z.z.z.z.z.z.",
"z.z.z.z.z.z.z.z.z.z.z.z.z.z.z.z.z.z.z.z.z.z.z.z.z.z.z.z.z.z.z.z.z.z.z.",
"z.z.z.z.z.z.z.z.z.z.z.z.z.z.z.z.z.z.z.z.z.z.z.z.z.z.z.z.z.z.z.z.z.z.z."
};
