/* XPM */
static char *result[] = {
/* columns rows colors chars-per-pixel */
"64 64 246 2 ",
"   c #000000",
".  c #1A0100",
"X  c #260700",
"o  c #371704",
"O  c #3D220D",
"+  c #0C003B",
"@  c #351132",
"#  c #3A302B",
"$  c #501700",
"%  c #4B2600",
"&  c #522600",
"*  c #532C00",
"=  c #5B3201",
"-  c #5A3607",
";  c #442611",
":  c #452A12",
">  c #4B2D13",
",  c #512F14",
"<  c #4E3115",
"1  c #4B331D",
"2  c #533415",
"3  c #583816",
"4  c #5C3C19",
"5  c #643E02",
"6  c #7A3000",
"7  c #643D1B",
"8  c #683B19",
"9  c #460E38",
"0  c #4E242F",
"q  c #593B25",
"w  c #6C392F",
"e  c #57441A",
"r  c #5E4119",
"t  c #674400",
"y  c #744C00",
"u  c #6A5209",
"i  c #795603",
"p  c #6A4C16",
"a  c #63451C",
"s  c #6C421D",
"d  c #66481D",
"f  c #6C4C1E",
"g  c #72431F",
"h  c #744A1C",
"j  c #6C531A",
"k  c #74551B",
"l  c #5E4228",
"z  c #5A4830",
"x  c #6D4321",
"c  c #684924",
"v  c #744722",
"b  c #6C5122",
"n  c #6C502A",
"m  c #735522",
"M  c #795621",
"N  c #765A24",
"B  c #7C5B22",
"V  c #78532B",
"C  c #755C2C",
"Z  c #7A5D2A",
"A  c #704F36",
"S  c #7D6226",
"D  c #7C622B",
"F  c #7B6232",
"G  c #090248",
"H  c #1A1550",
"J  c #372C5C",
"K  c #2F2C63",
"L  c #4C325A",
"P  c #6C3C51",
"I  c #4A3A68",
"U  c #6E3C62",
"Y  c #564E4B",
"T  c #744F4F",
"R  c #78664F",
"E  c #514271",
"W  c #584975",
"Q  c #664C79",
"!  c #69547D",
"~  c #765471",
"^  c #766D6B",
"/  c #AE3F39",
"(  c #87491B",
")  c #866A03",
"_  c #8E730F",
"`  c #8A4B27",
"'  c #944B28",
"]  c #825E24",
"[  c #854939",
"{  c #895836",
"}  c #965637",
"|  c #836325",
" . c #846A26",
".. c #886A21",
"X. c #82652C",
"o. c #856B2A",
"O. c #896E2A",
"+. c #8A752B",
"@. c #8D732C",
"#. c #977C24",
"$. c #90772D",
"%. c #91792E",
"&. c #886C34",
"*. c #946636",
"=. c #8C7332",
"-. c #8D7438",
";. c #937932",
":. c #947C32",
">. c #947C3A",
",. c #AB7A37",
"<. c #C4733B",
"1. c #8F5251",
"2. c #A95947",
"3. c #A95251",
"4. c #9A6447",
"5. c #9A7B47",
"6. c #84695C",
"7. c #9B6A57",
"8. c #8C7853",
"9. c #997355",
"0. c #A86848",
"q. c #AE754B",
"w. c #A76B58",
"e. c #A97557",
"r. c #B97A57",
"t. c #865769",
"y. c #8E576A",
"u. c #8B6E6E",
"i. c #986868",
"p. c #A26666",
"a. c #A67767",
"s. c #B47C65",
"d. c #A5797B",
"f. c #C67D52",
"g. c #9A831C",
"h. c #A58D11",
"j. c #9D862C",
"k. c #978134",
"l. c #9A8335",
"z. c #9B8438",
"x. c #9C8639",
"c. c #9E893A",
"v. c #A48D2A",
"b. c #A7912D",
"n. c #A48736",
"m. c #A28C3D",
"M. c #A99433",
"N. c #A5903F",
"B. c #B39F3D",
"V. c #9D8644",
"C. c #9C8855",
"Z. c #A48E42",
"A. c #A6874B",
"S. c #A69242",
"D. c #AA9544",
"F. c #AD9945",
"G. c #A49148",
"H. c #AA9549",
"J. c #AE9B4A",
"K. c #B99945",
"L. c #B19E4B",
"P. c #AC8952",
"I. c #B58B56",
"U. c #AF9B51",
"Y. c #B29E53",
"T. c #B69258",
"R. c #AFA04D",
"E. c #B4A24D",
"W. c #B8A54C",
"Q. c #B6A452",
"!. c #B8A652",
"~. c #BCAB55",
"^. c #B8A659",
"/. c #BEAD5A",
"(. c #958773",
"). c #BA8368",
"_. c #A8926F",
"`. c #B88778",
"'. c #BEAD62",
"]. c #B8A979",
"[. c #C6875A",
"{. c #C0AF59",
"}. c #C4B45B",
"|. c #C3B35C",
" X c #C68965",
".X c #CE8C69",
"XX c #C89665",
"oX c #D69669",
"OX c #D1AE6F",
"+X c #C5B563",
"@X c #C7B961",
"#X c #CABB64",
"$X c #C6B568",
"%X c #CCBB6A",
"&X c #D1BF6D",
"*X c #CFC068",
"=X c #D1C16B",
"-X c #5E4C81",
";X c #705688",
":X c #776487",
">X c #7F708F",
",X c #786993",
"<X c #893697",
"1X c #8135A6",
"2X c #866B87",
"3X c #8C748F",
"4X c #977789",
"5X c #99928D",
"6X c #AC8F89",
"7X c #A79D96",
"8X c #B6A986",
"9X c #B7AB93",
"0X c #A796A3",
"qX c #AAA6A5",
"wX c #B4AEAC",
"eX c #BCB7B6",
"rX c #CBB183",
"tX c #C3B798",
"yX c #C389A5",
"uX c #C3B6AC",
"iX c #D5CA9D",
"pX c #CBC2A9",
"aX c #CDC5B8",
"sX c #D7CEB0",
"dX c #D7C9B6",
"fX c #CCC8C6",
"gX c #D5CDC7",
"hX c #DBD6C8",
"jX c #DAD8D7",
"kX c #E2DDC8",
"lX c #E3DDD9",
"zX c #E6E4D9",
"xX c #E5E5E5",
"cX c #E9E7E5",
"vX c #E8E7E8",
"bX c #ECECEC",
"nX c #F0EFEE",
"mX c #F0F0EE",
"MX c #EEEFF0",
"NX c #EFF0F1",
"BX c #F0F0F0",
"VX c #F3F3F3",
"CX c #F8F8F7",
"ZX c #F5F6F8",
"AX c #F7F9FA",
"SX c #FAFAFA",
/* pixels */
"SXxXSXxXCXvXVXMXbXVXvXCXxXSXxXSXxXSXxXAXvXVXbXVXmXbXVXvXSXlXlXtX].].dXgXCXvXVXMXbXCXvXCXxXSXxXSXxXSXxXSXxXCXvXVXVXvXCXvXSXxXSXzX",
"xXSXxXCXvXCXbXBXVXbXVXvXAXxXSXxXSXxXCXvXCXbXVXMXMXVXbXAXdX.X/ <.f.f.f.f.yXVXbXmXnXbXCXxXCXvXAXxXZXxXCXvXCXbXVXbXbXVXvXCXvXAXvXAX",
"AXxXCXvXCXvXVXbXMXVXbXCXvXCXvXCXvXCXvXCXvXVXbXmXMXbXVXMX(.6 } } ' } } ( 6 jXAXbXnXVXbXVXvXCXvXCXvXCXvXCXvXVXbXVXVXbXCXvXCXvXZXvX",
"vXCXbXVXbXVXbXVXmXbXVXbXVXbXVXbXVXbXVXbXVXbXBXMXbXMXbXCXqXR l e r e - z (.vXVXMXnXbXmXnXVXbXVXbXVXvXVXbXVXbXVXnXbXVXbXVXbXVXbXVX",
"VXbXbXBXVXbXbXmXMXVXMXBXMXMXmXmXbXVXbXbXbXmXNXVXCXVXBXbXvXaXT q z w w 7XzXvXBXZXZXZXVXmXNXNXbXMXMXMXbXNXNXNXNXnXmXMXVXmXMXbXBXBX",
"CXbXVXbXVXbXVXMXMXmXMXBXbXVXbXVXvXCXVXAXVXVXxXlXdXtX8XC.>...5.&.4.-.-.$.@.V._.8XpXhXjXmXbXAXVXAXMXVXbXVXnXNXbXVXmXMXmXMXVXbXVXbX",
"xXCXvXCXbXVXbXmXmXbXBXbXVXvXCXvXCXjXhXuXqX6X).A.N.m.#.H.H.Z.m.G.Z.R.D.c.Z.G.N.j.n.n.P.a.5X6XdXaXbXvXZXbXVXbXVXnXMXVXbXVXbXVXvXAX",
"SXxXAXvXCXvXVXMXMXVXbXCXvXCXbXfX5 .._ ..` *.9.7.7.7.a.w.a.9.7.e.a.9.a.9.7.7.a.a.7.7.9.4.*.*._ i t (.jXSXvXVXbXmXmXbXVXvXCXvXAXxX",
"xXSXxXZXvXCXbXmXmXbXVXvXCXxXSXjXeX6.5 u f j S j D o.k N Z &.&.M &.=.X.Z C S o.N D o.j j N f = C 7XgXCXvXCXbXVXNXbXVXvXCXxXSXxXSX",
"SXxXSXxXCXvXVXbXbXVXbXCXvXSXvXSXMXZXfX(.o.D c Z N D C f a a b D b e a b b r N D b d N =.B R wXmXNXSXvXCXvXVXbXmXVXbXCXvXAXxXSXxX",
"xXAXxXCXvXVXbXVXVXbXCXvXCXxXSXxXZXMXcX6Xh m h V C D D Z N D N &.D m Z F F D F X.Z Z n m y 7.lXNXAXxXCXvXCXbXVXbXbXVXvXCXvXAXxXSX",
"SXxXCXvXCXbXVXbXMXmXbXVXvXCXvXSXxXwXU 1.2.2.4.1.} } ` ' } ' ` ` ( 1.[ ( ' ' ' } } ' } y.w.3.P 0XxXSXvXVXbXmXbXmXVXbXCXvXCXvXCXxX",
"vXCXvXCXvXVXbXVXNXbXVXbXVXbXAXlXs.9 W Q L W ;XQ ~ 6.1.y.6.y.1.i.i.y.<X6.i.1.1.t.t.t.~ I -X-XI L R gXSXnXVXbXmXNXmXmXbXVXvXCXvXCX",
"VXbXVXbXVXVXVXbXnXnXnXNXbXVXtXn.[.r.a.7.w T t.@ ! ~ L H G -XQ + K :X-XI G I -XL + Q t.Y T i.4.r. X[.tXxXNXNXNXNXmXMXVXMXVXbXVXbX",
"VXbXBXbXVXbXVXnXnXNXbXNXCXdX_ x.G.P.T.I.XX[.[.[. Xf.r.q.q.s.s.0.0.s.s.q.0.q.[.f.f.[.[. X[.[.I.T.P.>.) {.zXZXbXVXVXbXBXMXBXbXMXbX",
"vXVXbXVXvXVXbXnXNXnXVXNXzXF.D.+XE.%.m. .V.J.5.A.5.5.K.I.I.A.P.T.P.I.I.I.I.P.P.A.A.A.Z.Z.Z.O.z.%.m.|.U.M.rXbXVXmXbXVXbXVXbXCXvXCX",
"SXvXCXvXVXbXVXMXMXmXbXAX].j.Q.@XS.|.~.m.%X@Xz.c.F.%.k.~./.W.k.%.N.k.+.E.~.~.:.:.F.l.k.|.%XL.Q.@Xm.+X~.Z._ pXCXMXmXbXVXbXVXvXAXvX",
"xXSXvXCXvXVXbXMXMXbXSXtXg.;.c.k.:.!.c.S.|.E.:.|.{.z.z.}.#X@XZ.~.*X~.k./.*X#XF.m.}.E.@.F.}.E.z.!.Z.:.Z.:.c._ zXVXbXVXbXVXvXAXxXSX",
"SXxXCXvXCXbXVXMXMXCXhXN.F.:.z.N.k.m.@.:.z.%.:.D.m.:.$.F.R.N.$.F.~.J.$.z.J.F.c.@.F.D.%.%.z.z.:.%.m.:.@.m.L.F.Y.CXVXbXVXvXSXxXSXxX",
"xXSXxXAXvXVXbXmXMXBX9Xv.Q.k.|.Q.m.S.c.@.c.D.:.z.z.n.:.@.$.k.k.:.S.l.:.+.@.@.z.m.k.z.z.m.%.@.D.!.m.D.m.c./.J.N.9XVXVXbXCXvXCXxXSX",
"SXxXCXvXVXbXmXMXMXVXC.F.D.S.|.z.m.J.m.m.{.@Xm.S.F./.F.%.:.F./.c.D.c.N.c.:.:.F.@XW.c.F./.F.z.N.*XD.z.D.m.J.x.k.c.jXMXVXvXCXxXAXxX",
"vXCXvXCXbXVXMXMXZXzXV.z.;.:.k.| k.m.Z.D.|.|.:.S.F.#XN.F.m.E.%Xm.N.N.R.N.m.D.H.#X@Xc.m.Q./.D.c.J.S.| @.c.l.;.:.#.zXCXbXCXvXCXvXCX",
"VXbXVXbXVXMXmXmXVXzXn.:.=.@.:.@.%.$.Z.%.Z.z. .@.E.{.z.E.:.Z.!.:.+.@.F.z.Z.E.@.J.J.@. .z.~.n.m.O.$.:.@.@.=.k.D.v.dXZXmXbXmXbXVXbX",
"MXBXMXmXmXmXmXbXVXkXb.D.z.z.E.z.O.:.z.O.@.:.:.@.N.l.k.m.O.@.%.@.O.| z.+.:.m.O.O.:.:.%.%.m.%.z.@.@.D.m.O.m.S.^.B.sXZXMXmXmXMXMXMX",
"bXVXbXVXmXNXNXbXZXsXM./.S.J.#XS.$.D.D.@.l.L.F.c.:.%.z.z.%.o.:.m.c.@.O.@.:.n.k. .;.F.F.m.:.:.m.m.:.{.~.%.L.!.^.W.iXZXbXVXbXVXbXVX",
"CXvXVXbXVXbXNXmXVXpXb.*XF.Y.&XJ.m.{.~.k.J.+X{.J.:.m.N.F.m.@.S.!.W.m.O.z.D.E.F.%.Z.|.{.L.:.N.!.E.m.+X#Xc.!.@XL.m.].NXmXbXVXbXCXvX",
"xXCXvXCXvXVXbXMXVX(.b.@XF.H.@XN.F.#X}.m.^.%X@X!.z.L.{.{.E.z.Q.%X|.L.@.F.{.}.{.m.Z.%X#X{.n.L.|.|.D.^.@Xz.J.@Xm.) 8.bXbXVXvXCXxXSX",
"SXxXCXxXZXbXVXNXcX8.S R.z.l.D.k.H.#X}.n.Y.%X|.L.z.{.}.}.|.c.Y.%X#XE.%.E.#X#X}.F.Z.$X#X~.c.Q.@X@XD.Z.J.%.>.L.&.3 l xXCXvXCXvXCXxX",
"xXAXvXCXvXVXbXVXmXl - D N b X.k ;.E.W.z.x.J.F.m.k.Q.@X|.|.m.S.'.~.D.@.U.}.|.|.J.:.L.Y.D.k.H.^.!.m.| o.N d Z d 7 * fXVXVXvXAXxXSX",
"SXxXCXvXVXbXVXSXgX= s 8 3 3 4 > r &.k.X.D o.O.@.O.n.U.L.E.c.@.Z.c.:.| z.J.Q.E.m.o.@.O.@. .o.;.;.S 4 r 2 : 2 x 7 6 _.CXvXCXxXCXxX",
"vXCXvXZXbXVXZXdXC.{ - 8 a x 7 q < 3 a 4 r a a a a N D =.=.S f N Z m r j D &.@.Z a a d a 4 4 a a 4 4 x s s a * } a.^ MXVXvXVXvXSX",
"VXbXVXbXmXVXhXi g d.0.w 7 > - 5 a x x x 8 4 7 , > 4 a 4 a 3 2 3 3 2 : < < 3 r 4 7 4 3 4 2 4 v g 8 3 * * 4 v 0.y.W u.mXMXVXbXVXbX",
"mXNXmXNXmXZX8XF eXK ~ 3.T.D.1.U h = * 3 8 7 8 8 8 v 8 8 x x x v d s w 8 8 w g s 8 g 8 8 8 5 * > 8 ` 4.e.<Xd.4XE 0.6.MXNXMXNXnXNX",
"bXVXbXNXmXZX].D xXe.~ (.H.=.F 1Xs.).e.4.w ` { ` ` 8 8 > < * % & % * 5 = = = = 8 w 8 v ` { 4.e.2.w.6X4X3X;XI I .X,.(.VXMXMXNXbXVX",
"VXbXVXbXNXMX].S jXrXK.>.a p n ;X-XQ 3Xi./ 3.6Xd.`.`.s./ 2.).s.e.q.w.<Xp.).).`.).s./ 3.6Xd.d.3Xt.Q K H 2X2X1.r.T.G.lXZXbXVXbXZXvX",
"vXCXvXVXbXVX_.t fX8X_ c 5.5.*.i.T @ J >X,X-XE H J :X,Xy.~ ^ t.4X4X:X1X;X! ! Q ,X,X~ Q -XH G :X3XT A 2.f..XoXT.g.iXVXbXVXvXCXcXSX",
"SXxXCXvXVXNX].5 eXpXy n &.F 9.XX.X[.0.w.d.y.w w 0 P 4X>X~ I G G W 3X2X;XL @ @ Y u.3Xt.w w [ w. X.XoXXXT.P.S.J.b.9XVXVXvXCXxXSXxX",
"xXCXxXCXvXAXhXh.^ 7Xt C ;.S O.=.A.I.XXoXoXoXoXoX.X X[.`.s.0.0.} 4.w.s.s.f.f.f. X XoXoXoXoXOXXXI.A.5.%.@.c.%X!.) dXAXvXCXcXSXxXSX",
"SXxXCXvXVXBXvXA.b R p b D -.Q.k.D.~.S.>.>.>.5.J.T.T.T.T.T.OXoXXXoXXXOXXXXXT.).T.T.P.5.V.P.m.F.E.S.Z.#XL.S./.z.v.pXZXVXvXZXxXSXxX",
"xXCXvXZXvXVXZX(.i B m 4 d Z G.k.D.*X*XV.k.W.N.%.k.J.~.J.Z.k.+.O.;.O.+.l.J.R.E.m...k.F.m.@.F.=X%XL.H.{.m.@.k.Q.v.hXZXvXCXvXCXvXCX",
"CXvXVXbXVXbXCXgX5 -.m 3 V D :.:.$.S.J.z.N.@X~.z.:.{.&X%X*XE.c.~./.!.$.E.*X%X*X~.:.{.}.W.%.m.~.F.:.:.N.c.:.S.J.V.xXBXVXbXVXvXCXvX",
"bXVXbXVXNXmXMXZX5X& s 2 F V.:.m.z.O.k.l.$.m.m.k.@.m.L.L.J.z.z.|.|.!.:.c.!.E.F.z.@.m.D.n.%.@.@.:.!.S.m.F.m.S.#.].VXbXbXVXbXVXbXVX",
"NXNXNXNXNXmXMXNXmXuX8.i D =. .z.D.c.D./.L.k.N.N.D.%.@.$.l.z.%.n.D.z.%.$.%.+.k.F.S.z.c.m.F.D.k.m.%XN.O.c.k.x.g.hXZXMXMXMXmXMXMXmX",
"VXbXmXbXVXbXmXNXmXSXhX_ &.O.@.@.k.S.S./.@Xc.D.F.@XF.z.c.F.}.!.k.F.m.D.c.z.z.D.%X#XD.m.D.{.!.F.z.Z.%.@.@.=.m.'.bXBXBXVXbXVXbXVXbX",
"vXCXbXVXbXVXbXmXmXbXmXQ.m.;.F.z.O.:.:.:.S.@.@.z.}.F.F.D.l.+X{.%.c.z.J.m.m.W.z.!.~.>.@.%.!.D.m.$.O.N.z.@.S.B.iXBXbXVXbXVXbXCXvXCX",
"CXvXCXvXVXbXVXMXbXVXnXtXB.Z.{.L.@.z.m.O.$.z.:.:.F.k.n.m.O.>.z.O.O. .m.%.:.D.O.@.%.:.%.%.m.%.z.%.m.{.z.N./.B.gXCXMXMXVXvXCXxXCXxX",
"xXCXvXCXbXVXbXmXVXvXSXuXB.!.^.#Xk.F.!.z.z.E.F.m.k.%.l.z.$. .:.c.k.+.@.@.:.m.:.O.z.L.J.m.%.m.F.k./.@Xz.}.Q.C.mXMXMXVXvXCXxXSXxXSX",
"SXxXCXvXVXvXVXMXNXVXMXMXV.~.F.+Xm.L.@XL.c.@X|.J.%.m.D.D.m.$.m.!.E.:.@.z.F.L.m.%.E.|.{.N.z.~.!.N.%X!.m.#X) 9XCXmXmXbXCXvXCXxXAXxX",
"xXAXvXCXvXVXMXVXNXbXmXmX7Xg.H.D.m.S.%X|.N.+X%X~.l.E./.~.E.k.L.$X}.m.:.!.{.}.J.l.+X%X}.N.J.@X!.S.|.l.Z.J.- aXAXbXNXmXbXVXvXCXvXSX",
"CXvXCXvXVXMXmXmXMXVXbXSXuX- &.S @.@.~.|.S.Y.#X!.z.!.}.}.|.m.Q.%X#XD.c.@X#X}.E.z.$X#X{.z.!.#XL.c.z.N &.k T VXMXMXmXbXVXbXVXbXCXvX",
"bXVXbXVXMXmXbXmXmXMXmXMXVXA - e d d -.L.c.k.H.H.k.J.@X@X|.N.G.$X{.m.x.@X}.}.F.z.Y.J.N.k.J.Q.:.N b < l $ wXCXnXbXNXVXbXVXbXVXbXVX",
"NXbXNXMXmXNXmXmXMXmXmXMXSX7X$ c 8 > 2 Z o.S o.o.O.:.J.W.W.m.:.S.Z.:.=.L.!.W.l.o.=.@.O.X.=.o.a 2 2 4 - A xXVXnXnXmXMXmXMXmXbXMXMX",
"VXbXVXbXVXbXmXNXMXmXmXmXVXlX4 : 7 x 7 4 r 4 4 r a a D O.;.X.m D X.m f o.=.=.m d d a 7 3 a 7 8 s s x & 7XCXnXnXnXNXNXNXMXVXbXVXbX",
"vXVXvXVXbXVXbXNXmXMXVXbXVXVX6X= 1 o 4 s g s 8 8 3 > 4 4 a r < 4 r < : < 4 r 4 3 3 4 2 7 v 8 4 : ; 1 k jXCXcXVXnXMXmXbXVXbXVXvXCX",
"SXvXCXvXZXbXVXNXMXVXbXVXvXSXgXi =.f 2 ; ; 4 8 v g v v v s s s 8 7 7 a 8 g g g g g v g 8 > O o 4 n y _.SXbXVXnXnXmXbXVXvXCXvXCXvX",
"cXCXvXCXvXVXbXNXmXbXVXvXCXcXCX(.i $.@.Z 4 > : : o 2 2 > > < 2 7 7 7 8 4 2 , > ; ; O < > a O.&.@.&.t jXMXVXbXVXbXMXVXbXCXvXCXcXSX",
"SXxXSXvXCXvXVXbXMXVXbXCXxXCXbXfX5 { B  .] ] B O.b a 7 4 3 4 > o o O > ; > 3 3 N m f m N | $...] i u.vXCXvXCXbXmXmXbXVXvXCXvXSXxX",
"xXSXxXSXvXCXbXVXmXbXVXvXCXxXSXxXR i S B M ] | O.;.X.| | N O.-.| Z X.] k B X.| $.:.O.| | M M k { * wXSXxXCXbXVXMXMXVXbXCXvXCXcXCX",
"CXvXAXvXVXbXVXmXmXVXbXCXvXAXxXSXqXX C S B B M h M ] ] ] | B o.O.O.o.| ] | ] M h ] ] B B M ] F * ^ SXxXCXvXVXbXmXmXbXVXvXCXvXCXxX",
"vXVXvXVXbXVXbXmXVXMXmXbXVXvXCXbXmX^   # n M B o.] k k B ] M M N m M M ] M ] B M k B k m c c o Y VXMXVXbXVXbXmXMXmXVXMXVXvXVXbXZX",
"VXbXVXMXVXbXVXmXbXVXMXmXMXVXMXmXVXVXu.X   o l C m f f f N B M ]  .| B S M B  .m b c c <     # zXVXMXbXmXMXmXmXMXmXMXmXMXVXbXmXMX",
"VXbXmXMXmXMXMXMXMXmXmXMXMXmXbXVXbXVXAXjXqXY   . o > 3 q q z c 7 c c n l q l 1 1 2 o   X ^ wXvXVXbXVXMXVXMXMXmXVXmXMXNXMXMXMXmXMX",
"bXVXbXVXvXVXbXmXmXMXMXbXVXbXVXbXVXvXVXBXSXvXeX^ # .             . X .           . Y qXjXSXAXZXvXVXbXVXbXVXbXVXmXMXmXbXVXbXVXbXVX",
"CXvXCXvXCXbXVXmXMXVXbXCXvXCXvXCXxXAXvXCXxXCXZXVXvXjXfXeXqX5X^ R Y ^ ^ 5X0XwXuXfXjXMXCXAXvXCXvXCXvXCXvXVXbXVXbXmXmXMXVXbXCXvXCXcX"
};
