/* XPM */
static char *result[] = {
/* columns rows colors chars-per-pixel */
"64 51 218 2 ",
"   c #1D0B35",
".  c #2B153E",
"X  c #3E1E33",
"o  c #34193C",
"O  c #35193B",
"+  c #4D261E",
"@  c #542C1C",
"#  c #5E2F18",
"$  c #703C00",
"%  c #603315",
"&  c #673417",
"*  c #401F35",
"=  c #4C2623",
"-  c #4B2628",
";  c #522922",
":  c #462237",
">  c #5F3237",
",  c #673627",
"<  c #763C25",
"1  c #68333D",
"2  c #7B452A",
"3  c #150841",
"4  c #2C1442",
"5  c #271144",
"6  c #321643",
"7  c #34164A",
"8  c #39174D",
"9  c #381A47",
"0  c #2F005A",
"q  c #3C0652",
"w  c #3F1952",
"e  c #3B1652",
"r  c #310C4C",
"t  c #43184B",
"y  c #431A56",
"u  c #4A1E53",
"i  c #44135B",
"p  c #441A5A",
"a  c #441958",
"s  c #4C254C",
"d  c #4C2255",
"f  c #512651",
"g  c #6A365D",
"h  c #632F42",
"j  c #450664",
"k  c #4C1C64",
"l  c #4E1B69",
"z  c #4A1669",
"x  c #521E6C",
"c  c #531D73",
"v  c #581F76",
"b  c #4E2061",
"n  c #58256A",
"m  c #572073",
"M  c #5A2373",
"N  c #5C2677",
"B  c #5D3773",
"V  c #6A306F",
"C  c #632B76",
"Z  c #62257B",
"A  c #652A7C",
"S  c #692B7E",
"D  c #6F3574",
"F  c #764055",
"G  c #774875",
"H  c #975B04",
"J  c #8E541C",
"K  c #A36619",
"L  c #BD7A1A",
"P  c #A96E0D",
"I  c #985C23",
"U  c #8C5439",
"Y  c #965937",
"T  c #A05D24",
"R  c #9F6232",
"E  c #A96728",
"W  c #AD6B2B",
"Q  c #A26629",
"!  c #B5782A",
"~  c #AD6C33",
"^  c #A66932",
"/  c #AF723D",
"(  c #B47334",
")  c #BA7B3A",
"_  c #B16D2D",
"`  c #C27D2B",
"'  c #C27F3D",
"]  c #945B4A",
"[  c #915650",
"{  c #A06143",
"}  c #B97748",
"|  c #B07059",
" . c #844B76",
".. c #935779",
"X. c #935975",
"o. c #AF7260",
"O. c #AD6E6E",
"+. c #D28A0E",
"@. c #FDB908",
"#. c #C4802C",
"$. c #CC892D",
"%. c #C9832A",
"&. c #D48E27",
"*. c #D78E2B",
"=. c #DA9426",
"-. c #D38D39",
";. c #D99635",
":. c #C78D3E",
">. c #E49925",
",. c #E0952E",
"<. c #E59930",
"1. c #EAA32A",
"2. c #F1AF2F",
"3. c #E5A336",
"4. c #ECAA32",
"5. c #EEAD39",
"6. c #F3B43C",
"7. c #FAB439",
"8. c #F6B93F",
"9. c #F7B637",
"0. c #EFAF3B",
"q. c #FFC23E",
"w. c #FFC129",
"e. c #BF8345",
"r. c #C38544",
"t. c #C98949",
"y. c #D79345",
"u. c #D89A54",
"i. c #C68A51",
"p. c #E6A949",
"a. c #EEB24E",
"s. c #F6B942",
"d. c #FEBE43",
"f. c #FDBD4C",
"g. c #F4B847",
"h. c #F0AA50",
"j. c #EDB453",
"k. c #EEB659",
"l. c #F1B953",
"z. c #F5BA56",
"x. c #E5AF5A",
"c. c #D59B71",
"v. c #DFAA62",
"b. c #EAAE65",
"n. c #E9B66C",
"m. c #E8B46B",
"M. c #F6BD69",
"N. c #FFC741",
"B. c #FFC844",
"V. c #FFCA55",
"C. c #FFC960",
"Z. c #6B2D83",
"A. c #6D2D89",
"S. c #672882",
"D. c #6D3283",
"F. c #713286",
"G. c #74348A",
"H. c #7A3A8E",
"J. c #773988",
"K. c #793694",
"L. c #7D3B92",
"P. c #763396",
"I. c #762D96",
"U. c #813E95",
"Y. c #823C99",
"T. c #8B4B8D",
"R. c #834588",
"E. c #9A598E",
"W. c #824297",
"Q. c #85429A",
"!. c #89469E",
"~. c #905099",
"^. c #8C5492",
"/. c #AB6B88",
"(. c #8E4AA3",
"). c #8B45A5",
"_. c #944DAB",
"`. c #924DA7",
"'. c #9751AD",
"]. c #9953AE",
"[. c #9D58A6",
"{. c #8A40B0",
"}. c #9B54B2",
"|. c #9E59B3",
" X c #9F56B9",
".X c #A15AAA",
"XX c #A15AB5",
"oX c #A45CBA",
"OX c #9F6BAD",
"+X c #AA63BD",
"@X c #A563B7",
"#X c #A679B4",
"$X c #B275BC",
"%X c #B172AB",
"&X c #A65DC4",
"*X c #A257C2",
"=X c #AD64C3",
"-X c #AD67C4",
";X c #B36DC5",
":X c #B46CCB",
">X c #B86CCF",
",X c #B065C6",
"<X c #B573C5",
"1X c #B773C9",
"2X c #B975CA",
"3X c #BA7AC8",
"4X c #BA71D2",
"5X c #C072D5",
"6X c #BB84B2",
"7X c #D59F8F",
"8X c #C68B9C",
"9X c #C38090",
"0X c #C48687",
"qX c #D6A181",
"wX c #CC92AB",
"eX c #BB85C8",
"rX c #C188C4",
"tX c None",
/* pixels */
"tXtXtXtXtXtXtXtXtXtXtXtXtXtXtXtXtXtXtXtXtXtXtXtXtXtXtXtXtXtXtXtXtXtXtXtXtXtXtXtXtXtXtXtXtXtXtXtXtXtXtXtXtXtXtXtXtXtXtXtXtXtXtXtX",
"tXtXtXtXtXtXtXtXtXtXtXtXtXtXtXtXtXtXtXtXtXtXtXtXtXtXtXtXtXtXtXtXtXtXtXtXtXtXtXtXtXtXtXtXtXtXtXtXtXtXtXtXtXtXtXtXtXtXtXtXtXtXtXtX",
"tXtXtXtXtXtXtXtXtXtXtXtXtXtXtXtXtXtXtXtXtXtXtXtXtXtXtXtXtXtXtXtXtXtXtXtXtXtXtXtXtXtXtXtXtXtXtXtXtXtXtXtXtXtXtXtXtXtXtXtXtXtXtXtX",
"tXtXtXtXtXtXtXtXtXtXtXtXtXtXtXtXtXtXtXtXtXtXtXtXtXtXtXtXtXtXtXtXtXtXtXtXtXtXtXtXtXtXtXtXtXtXtXtXtXtXtXtXtXtXtXtXtXtXtXtXtXtXtXtX",
"tXtXtXtXtXtXtXtXtXtXtXtXtXtXtXtXtXtXtXtXtXtXtXtXtXtXtXtXtXtXtXtXtXtXtXtXv.n.tXtXtXtXtXtXtXtXtXtXtXtXtXtXtXtXtXtXtXtXtXtXtXtXtXtX",
"tXtXtXtXtXtXtXtXtXtXtXtXtXtXtXtXtXtXtXtXtXtXtXtXtXtXtXtXtXtXtXtXtXtXtXtXtXb.n.tXtXtXtXtXtXtXtXtXtXtXtXtXtXtXtXtXtXtXtXtXtXtXtXtX",
"tXtXtXtXtXtXtXtXtXtXtXtXtXtXtXtXtXtXtXtXtXtXtXtXtXtXtXtXtXtXtXtXtXtXtXtXtX~ b.n.tXtXtXtXtXtXtXtXtXtXtXtXtXtXtXtXtXtXtXtXtXtXtXtX",
"tXtXtXtXtXtXtXtXtXtXtXtXtXtXtXtXtXtXtXtXtXtXtXtXtXtXtXtXtXtXtXtXtXtXtXtXtXtXr.u.i.tXtXtXtXtXtXtXtXtXtXtXtXtXtXtXtXtXtXtXtXtXtXtX",
"tXtXtXtXtXtXtXtXtXtXtXtXtXtXtXtXtXtXtXtXtXtXtXtXtXtXtXtXtXtXtXtXtXtXtXtXtXtXr.t.( tXtXtXtXtXtXtXtXtXtXtXtXtXtXtXtXtXtXtXtXtXtXtX",
"tXtXtXtXtXtXtXtXtXtXtXtXtXtXtXtXtXtXtXtXtXtXtXtXtXtXtXtXtXtXtXtXtXtXtXtXtXtXtXr._ ( tXtXB.l.tXtXtXtXtXtXtXtXtXtXtXtXtXtXtXtXtXtX",
"tXtXtXtXtXtXtXtXtXtXtXtXtXtXtXtXtXtXtXtXtXtXtXtXtXtXtXtXtXtXtXtXtXtXtXtXtXtXtX' E ( tXtX5.q.j.tXtXtXtXtXtXtXtXtXtXtXtXtXtXtXtXtX",
"tXtXtXtXtXtXtXtXtXtXtXtXtXtXtXtXtXtXtXtXtXtXtXtXtXtXtXtXtXtXtXtXtXtXtXtXtXtXtXy.E ( tXtXa.8.d.j.tXtXtXtXtXtXtXtXtXtXtXtXtXtXtXtX",
"tXtXtXtXtXtXtXtXtXtXtXtXtXtXtXtXtXtXtXtXtXtXtXtXtXtXtXtXtXtXtXtXtXtXtXtXtXtXj.r.( W e.tXg.8.2.N.tXtXtXtXV.tXtXtXtXtXtXtXtXtXtXtX",
"tXtXtXtXtXtXtXtXtXtXtXtXtXtXtXtXtXtXtXtXtXtXtXtXtXtXtXtXtXtXtXtXtXtXtXtXp.f.4.) ~ ) t.M.g.>.>.1.s.j.k.f.9.tXtXtXtXtXtXtXtXtXtXtX",
"tXtXtXtXtXtXtXtXtXtXtXtXtXtXtXtXtXtXtXtXtXtXtXtXtXtXtXtXtXtXtXtXtXtXtXtXtXtX*.%.T r.m.n.n.p.y.y.3.w.@.=.*.tXtXtXtXtXtXtXtXtXtXtX",
"tXtXtXtXtXtXtXtXtXtXtXtXtXtXtXtXtXtXtXtXtXtXtXtXtXtXtXtXtXtXtXtXtXtXtXtXtXtXtX<.E ~ u.m.x.qXeXeXeXwX9X} +.tXtXtXtXtXtXtXtXtXtXtX",
"tXtXtXtXtXtXtXtXtXtXtXtXtXtXtXtXtXtXtXtXtXtXtXtXtXtXtXtXtXtXtXtXtXtXtXtXtXtXtX5.` T K L i.%X&X;X=X&X&XrX$XtXtXtXtXtXtXtXtXtXtXtX",
"tXtXtXtXtXtXtXtXtXtXtXtXtXtXtXtXtXtXtXtXtXtXtXtXtXtXtXtXtXtXtXtXtXtXtXtXtXtXtXs.&.1 g X.E.].oXoXXX+X2X@XL.S tXtXtXtXtXtXtXtXtXtX",
"tXtXtXtXtXtXtXtXtXtXtXtXtXtXtXtXtXtXtXtXtXtXtXtXtXtXtXtXtXtXtXtXtXtXtXtXtXtXl.q.-.v F.K.P.(.(.`.|.@X!.D.B q tXtXtXtXtXtXtXtXtXtX",
"tXtXtXtXtXtXtXtXtXtXtXtXtXtXtXtXtXtXtXtXtXtXtXtXtXtXtXtXtXtXtXtXtXtXtXtXtXj.7.1.} A.U.J.Q.Q.W.Q.Q.A j #XOXtXtXtXtXtXtXtXtXtXtXtX",
"tXtXtXtXtXtXtXtXtXtXtXtXtXtXtXtXtXtXtXtXtXtXtXtXtXtXtXtXtXtXtXtXtXtXtXtXl.q.6.2.( S F.F.D.J.U.H.A A Z #XG tXtXtXtXtXtXtXtXtXtXtX",
"tXtXtXtXtXtXtXtXtXtXtXtXtXtXtXtXtXtXtXtXtXtXtXtXtXtXtXtXtXtXtXtXtXtXtXtXh.y.<.>.-.D z v Z A S G.].|.!.~.N tXtXtXtXtXtXtXtXtXtXtX",
"tXtXtXtXtXtXtXtXtXtXtXtXtXtXtXtXtXtXtXtXtXtXtXtXtXtXtXtXtXtXtXtXtXtXtXtXtXtXW &.,.g 0 b k x M L.(.W.W.K.Q.|.@X@XJ.tXtXtXtXtXtXtX",
"tXtXtXtXtXtXtXtXtXtXtXtXtXtXtXtXtXtXtXtXtXtXtXtXtXtXtXtXtXtXtXtXtXtXtXtXtXtXtX` 7.:.t 9 6 e a p q r p p N H.W.Y.n tXtXtXtXtXtXtX",
"tXtXtXtXtXtXtXtXtXtXtXtXtXtXtXtXtXtXtXtXtXtXtXtXtXtXtXtXtXtXtXtXtXtXtXtXtXtXtXtXN.%.u 7 . 4 4 4 7 8 y a p x A B tXtXtXtXtXtXtXtX",
"tXtXtXtXtXtXtXtXtXtXtXtXtXtXtXtXtXtXtXtXtXtXtXtXtXtXtXtXtXtXtXtXtXtXtXtXtXtXj.8.%.[ v C p 6 O 9 6 4 o 9 y d tXtXtXtXtXtXtXtXtXtX",
"tXtXtXtXtXtXtXtXtXtXtXtXtXtXtXtXtXtXtXtXtXtXtXtXtXtXtXtXtXtXtXtXtXtXtXtXtXa.B.;.L } Z.F.A b % tXtXtXtXtXtXtXtXtXtXtXtXtXtXtXtXtX",
"tXtXtXtXtXtXtXtXtXtXtXtXtXtXtXtXtXtXtXtXtXtXtXtXtXtXtXtXtXtXtXtXtXtXtXm.f.9.3.*.>.{ S.G.Y.L.Y tXtXtXtXtXtXtXtXtXtXtXtXtXtXtXtXtX",
"tXtXtXtXtXtXtXtXtXtXtXtXtXtXtXtXtXtXtXtXtXtXtXtXtXtXtXtXtXtXtXtXtXtXm.C.6.8.#.-.R tXJ.L._._.O.! tXtXtXtXtXtXtXtXtXtXtXtXtXtXtXtX",
"tXtXtXtXtXtXtXtXtXtXtXtXtXtXtXtXtXtXtXtXtXtXtXtXtXtXtXtXtXtXtXtXtXtXj.6.8.;.tXtXtXtXW.Y.L._.~.} tXtXtXtXtXtXtXtXtXtXtXtXtXtXtXtX",
"tXtXtXtXtXtXtXtXtXtXtXtXtXtXtXtXtXtXtXtXtXtXtXtXtXtXtXtXtXtXtXtXtXwXs.8.4.^ 6XeXtXtX|.G.Z.].{.o.tXtXtXtXtXtXtXtXtXtXtXtXtXtXtXtX",
"tXtXtXtXtXtXtXtXtXtXtXtXtXtXtXtXtXtXtXtXtXtXtXtXtXtXtXtXtX1XeX;X,XwXj.s.R # U O.o.! T.A.`.1XoX/.P tXtXtXtXtXtXtXtXtXtXtXtXtXtXtX",
"tXtXtXtXtXtXtXtXtXtXtXtXtXtXtXtXtXtXtXtXtXtXtXtXtXtXtXtXtX5XoXoX>X8Xl.u.I.B i t h g j W.;X1X;X[./ tXtXtXtXtXtXtXtXtXtXtXtXtXtXtX",
"tXtXtXtXtXtXtXtXtXtXtXtXtXtXtXtXtXtXtXtXtXtXtXtXtXtX3X<X+X}.+X2XeXeXp.T.S.m v v c c S.oX1XXX-X X| tXtXtXtXtXtXtXtXtXtXtXtXtXtXtX",
"tXtXtXtXtXtXtXtXtXtXtXtXtXtXtXtXtXtXtXtXtXtXtXtXtX@X>XXX].XX2X<X>X7X0X{.S x v c M l G.`.}.'.XX}.X.H tXtXtXtXtXtXtXtXtXtXtXtXtXtX",
"tXtXtXtXtXtXtXtXtXtXtXtXtXtXtXtXtXtXtXtXtXtX<X3X2X,X+X}.`.oX2X2X3Xc.;X].n k x l p a C U.!.'.(.Q.V $ tXtXtXtXtXtXtXtXtXtXtXtXtXtX",
"tXtXtXtXtXtXtXtXtXtXtXtXtXtXtXtXtXtXtXtXtXtX+X:XoXXX].!.H.}.;X4X8X8XoXG.k a a a a 9 e F.Q.Q.H.S.p & tXtXtXtXtXtXtXtXtXtXtXtXtXtX",
"tXtXtXtXtXtXtXtXtXtXtXtXtXtXtXtXtXtXtXtX3X;X=X|.!.L.G.A H.XXoX;X%X@X).v p 9 6 9 4 4 . k S Z.M k d @ tXtXtXtXtXtXtXtXtXtXtXtXtXtX",
"tXtXtXtXtXtXtXtXtXtXtXtXtXtXtXtXtXtXtX+X>XoX(.A.c z a u W.(.].oXoX!.C z 7 . 5 5 4 5 3 5 x m x l f tXtXtXtXtXtXtXtXtXtXtXtXtXtXtX",
"tXtXtXtXtXtXtXtXtXtXtXtXtXtXtXtXtX3X;X,X`.A.z f 1 2 &  .Y.U.Q.Q.Q.A t * X * O o 6 * > , d c v v M tXtXtXtXtXtXtXtXtXtXtXtXtXtXtX",
"tXtXtXtXtXtXtXtXtXtXtXtXtXtXtXtX<X5X}.P.Z g U J < tXG U.Z.H.L.A S a : + + @ + + = @ , % s x x x N tXtXtXtXtXtXtXtXtXtXtXtXtXtXtX",
"tXtXtXtXtXtXtXtXtXtXtXtXtXtX1X>X}.K.G ] Y J tXtXtXtXG.F.Z.F.H.S k s 4 4 : : - = ; = = + : k l u a n tXtXtXtXtXtXtXtXtXtXtXtXtXtX",
"tXtXtXtXtXtX8.s.8.p.tXtXoX+X].T. .] Q I tXtXtXtXtXJ.F.Z.F.F.G.A tXtX7 o tX5 7 X tX; + ; tXs w y w a n tXtXtXtXtXtXtXtXtXtXtXtXtX",
"tXtX;.4.7.9.7.0.2.u.[..XE.X.] I J tXtXtXtXtXtXtXJ.S.l n x Z Z tXtXtX6 4 tX6 7 tXtXtXtXtXtXtXtXo 4 6 k C tXtXtXtXtXtXtXtXtXtXtXtX",
"tXtXtXtX%.*.=.>.>.*.) ^ Q H tXtXtXtXtXtXtXtXtXR.L.y 9 O : 7 tXtXtXtXo 7 4 y 8 tXtXtXtXtXtXtXtXtX4 4 7 C ).tXtXH.tXtXtXtXtXtXtXtX",
"tXtXtXtXtXtXE ` %.W tXtXtXtXtXtXtXtXtXtXtXtXtXF.S 9 tXtXtXtXtXtXtXtXtX4 4 8 4 8 tXtXtXtXtXtXtXtXtXtX  S `.].!.Y...tXtXtXtXtXtXtX",
"tXtXtXtXtXtXtX< < tXtXtXtXtXtXtXtXtXtXtXtXtXtXF.A y tXtXtXtXtXtXtXtXtXtXtX4 4 8 tXtXtXtXtXtXtXtXtXtXtXM J.Z.H.^.G tXtXtXtXtXtXtX",
"tXtXtXtXtXtXtXtXtXtXtXtXtXtXtXtXtXtXtXtXtXtXtXU.W.Q.R.tXtXtXtXtXtXtXtXtXtXtXtXtXtXtXtXtXtXtXtXtXtXtXtXtXtXtXtXtXtXtXtXtXtXtXtXtX",
"tXtXtXtXtXtXtXtXtXtXtXtXtXtXtXtXtXtXtXtXtXtXtXD ..T...tXtXtXtXtXtXtXtXtXtXtXtXtXtXtXtXtXtXtXtXtXtXtXtXtXtXtXtXtXtXtXtXtXtXtXtXtX",
"tXtXtXtXtXtXtXtXtXtXtXtXtXtXtXtXtXtXtXtXtXtXtXtXtXtXtXtXtXtXtXtXtXtXtXtXtXtXtXtXtXtXtXtXtXtXtXtXtXtXtXtXtXtXtXtXtXtXtXtXtXtXtXtX",
"tXtXtXtXtXtXtXtXtXtXtXtXtXtXtXtXtXtXtXtXtXtXtXtXtXtXtXtXtXtXtXtXtXtXtXtXtXtXtXtXtXtXtXtXtXtXtXtXtXtXtXtXtXtXtXtXtXtXtXtXtXtXtXtX"
};
