/* XPM */
static char *result[] = {
/* columns rows colors chars-per-pixel */
"64 51 214 2 ",
"   c #1C0C3F",
".  c #2B153E",
"X  c #32153C",
"o  c #35193D",
"O  c #3E1E35",
"+  c #240E3A",
"@  c #4F281E",
"#  c #4D261B",
"$  c #5B2F1A",
"%  c #653616",
"&  c #753C00",
"*  c #4B2524",
"=  c #4A2526",
"-  c #532922",
";  c #582723",
":  c #422034",
">  c #4C253D",
",  c #592E36",
"<  c #763E25",
"1  c #6F3B22",
"2  c #764100",
"3  c #7F472C",
"4  c #2D1442",
"5  c #2A1344",
"6  c #321646",
"7  c #35164A",
"8  c #39174D",
"9  c #3E1A4D",
"0  c #381945",
"q  c #390455",
"w  c #3E1952",
"e  c #3A1551",
"r  c #2D0E4E",
"t  c #441D4B",
"y  c #471843",
"u  c #431955",
"i  c #481E55",
"p  c #461A5B",
"a  c #491C5C",
"s  c #45165C",
"d  c #43204E",
"f  c #4C2251",
"g  c #56275B",
"h  c #582B4C",
"j  c #6E3C41",
"k  c #400061",
"l  c #4B1B64",
"z  c #491864",
"x  c #521D6C",
"c  c #501F66",
"v  c #541D74",
"b  c #5B1D77",
"n  c #4A1073",
"m  c #611E78",
"M  c #55216B",
"N  c #59266A",
"B  c #562072",
"V  c #5B2374",
"C  c #5E2579",
"Z  c #642C74",
"A  c #61267A",
"S  c #652A7C",
"D  c #692C7F",
"F  c #753777",
"G  c #6B356C",
"H  c #7F4852",
"J  c #975C14",
"K  c #9C6118",
"L  c #B3730F",
"P  c #864B28",
"I  c #8E5528",
"U  c #A15F26",
"Y  c #9D613F",
"T  c #9D6128",
"R  c #A96829",
"E  c #B26D2C",
"W  c #AD702F",
"Q  c #BF792A",
"!  c #B7742A",
"~  c #A66936",
"^  c #B27334",
"/  c #B4733A",
"(  c #BA793C",
")  c #C37E2A",
"_  c #C07D3B",
"`  c #864B48",
"'  c #93554B",
"]  c #AE744B",
"[  c #B57348",
"{  c #A56856",
"}  c #B3735B",
"|  c #8A5479",
" . c #8B5262",
".. c #AC6E69",
"X. c #A36170",
"o. c #B77877",
"O. c #C07F65",
"+. c #DF9400",
"@. c #C98400",
"#. c #E29810",
"$. c #EEAA00",
"%. c #C6842D",
"&. c #D38B2A",
"*. c #CB8A36",
"=. c #D08B38",
"-. c #DA9336",
";. c #D7952B",
":. c #E3982A",
">. c #E59929",
",. c #E8A42D",
"<. c #E3A235",
"1. c #EEAA35",
"2. c #EDAD39",
"3. c #E7A33C",
"4. c #F1AB36",
"5. c #EFB13B",
"6. c #F3B53C",
"7. c #F5B93E",
"8. c #FCBA3B",
"9. c #FEBD36",
"0. c #FFC52A",
"q. c #BF8349",
"w. c #C78847",
"e. c #CF9243",
"r. c #D09154",
"t. c #DFA049",
"y. c #EAAD44",
"u. c #EFB54F",
"i. c #F4B643",
"p. c #FCBD41",
"a. c #F7BA49",
"s. c #E5AB5A",
"d. c #EEB455",
"f. c #EDB55B",
"g. c #F3B955",
"h. c #D1926F",
"j. c #E1AB64",
"k. c #EBB662",
"l. c #E9B56A",
"z. c #E9B66D",
"x. c #FBBD6E",
"c. c #E0AC76",
"v. c #FFC546",
"b. c #FFCA45",
"n. c #FFC666",
"m. c #6B2C82",
"M. c #682885",
"N. c #6E3184",
"B. c #713385",
"V. c #75348A",
"C. c #79368D",
"Z. c #79398D",
"A. c #783A88",
"S. c #7D3C93",
"D. c #783494",
"F. c #702D8D",
"G. c #7F4091",
"H. c #7E4283",
"J. c #813E95",
"K. c #843E9B",
"L. c #8337AA",
"P. c #86468E",
"I. c #8B568A",
"U. c #985A89",
"Y. c #85429A",
"T. c #88459D",
"R. c #854398",
"E. c #955A98",
"W. c #A05D9E",
"Q. c #B07180",
"!. c #B2708E",
"~. c #8A45A2",
"^. c #8E4AA3",
"/. c #8A44A9",
"(. c #904CA5",
"). c #944DA9",
"_. c #9551AB",
"`. c #9A53AD",
"'. c #9D5CAF",
"]. c #9D55B2",
"[. c #9C56B4",
"{. c #964EB0",
"}. c #A15CB6",
"|. c #A55DBA",
" X c #996EA6",
".X c #B579A6",
"XX c #A962BD",
"oX c #AB66BA",
"OX c #B16DBA",
"+X c #B177BA",
"@X c #C17FB5",
"#X c #A65DC4",
"$X c #AB5FC1",
"%X c #AD64C2",
"&X c #AB65C9",
"*X c #B16CC4",
"=X c #B26BC7",
"-X c #AE75C2",
";X c #B97BC6",
":X c #B672C8",
">X c #B976C9",
",X c #B777C8",
"<X c #B772D1",
"1X c #B96CD1",
"2X c #C475DA",
"3X c #CB7CE0",
"4X c #BC86B7",
"5X c #C0849F",
"6X c #D09691",
"7X c #D3A09C",
"8X c #C991AB",
"9X c #C891AE",
"0X c #BB84CA",
"qX c None",
/* pixels */
"qXqXqXqXqXqXqXqXqXqXqXqXqXqXqXqXqXqXqXqXqXqXqXqXqXqXqXqXqXqXqXqXqXqXqXqXqXqXqXqXqXqXqXqXqXqXqXqXqXqXqXqXqXqXqXqXqXqXqXqXqXqXqXqX",
"qXqXqXqXqXqXqXqXqXqXqXqXqXqXqXqXqXqXqXqXqXqXqXqXqXqXqXqXqXqXqXqXqXqXqXqXqXqXqXqXqXqXqXqXqXqXqXqXqXqXqXqXqXqXqXqXqXqXqXqXqXqXqXqX",
"qXqXqXqXqXqXqXqXqXqXqXqXqXqXqXqXqXqXqXqXqXqXqXqXqXqXqXqXqXqXqXqXqXqXqXqXqXqXqXqXqXqXqXqXqXqXqXqXqXqXqXqXqXqXqXqXqXqXqXqXqXqXqXqX",
"qXqXqXqXqXqXqXqXqXqXqXqXqXqXqXqXqXqXqXqXqXqXqXqXqXqXqXqXqXqXqXqXqXqXqXqXqXqXqXqXqXqXqXqXqXqXqXqXqXqXqXqXqXqXqXqXqXqXqXqXqXqXqXqX",
"qXqXqXqXqXqXqXqXqXqXqXqXqXqXqXqXqXqXqXqXqXqXqXqXqXqXqXqXl.qXqXqXqXqXqXqXqXqXqXqXqXqXqXqXqXqXqXqXqXqXqXqXqXqXqXqXqXqXqXqXqXqXqXqX",
"qXqXqXqXqXqXqXqXqXqXqXqXqXqXqXqXqXqXqXqXqXqXqXqXqXqXz.x.r.qXqXqXqXqXqXqXqXqXqXqXqXqXqXqXqXqXqXqXqXqXqXqXqXqXqXqXqXqXqXqXqXqXqXqX",
"qXqXqXqXqXqXqXqXqXqXqXqXqXqXqXqXqXqXqXqXqXqXqXqXqXz.x.[ qXqXqXqXqXqXqXqXqXqXqXqXqXqXqXqXqXqXqXqXqXqXqXqXqXqXqXqXqXqXqXqXqXqXqXqX",
"qXqXqXqXqXqXqXqXqXqXqXqXqXqXqXqXqXqXqXqXqXqXqXqXr.s.w.qXqXqXqXqXqXqXqXqXqXqXqXqXqXqXqXqXqXqXqXqXqXqXqXqXqXqXqXqXqXqXqXqXqXqXqXqX",
"qXqXqXqXqXqXqXqXqXqXqXqXqXqXqXqXqXqXqXqXqXqXqXqX( w.w.qXqXqXqXqXqXqXqXqXqXqXqXqXqXqXqXqXqXqXqXqXqXqXqXqXqXqXqXqXqXqXqXqXqXqXqXqX",
"qXqXqXqXqXqXqXqXqXqXqXqXqXqXqXqXqXqXqXf.u.qXqX/ E w.qXqXqXqXqXqXqXqXqXqXqXqXqXqXqXqXqXqXqXqXqXqXqXqXqXqXqXqXqXqXqXqXqXqXqXqXqXqX",
"qXqXqXqXqXqXqXqXqXqXqXqXqXqXqXqXqXqXf.b.6.qXqX^ E _ qXqXqXqXqXqXqXqXqXqXqXqXqXqXqXqXqXqXqXqXqXqXqXqXqXqXqXqXqXqXqXqXqXqXqXqXqXqX",
"qXqXqXqXqXqXqXqXqXqXqXqXqXqXqXqXqXk.v.8.y.qXqXW R e.qXqXqXqXqXqXqXqXqXqXqXqXqXqXqXqXqXqXqXqXqXqXqXqXqXqXqXqXqXqXqXqXqXqXqXqXqXqX",
"qXqXqXqXqXqXqXqXqXqXqXqXd.qXqXqXqXv.5.p.a.qX[ E E w.s.qXqXqXqXqXqXqXqXqXqXqXqXqXqXqXqXqXqXqXqXqXqXqXqXqXqXqXqXqXqXqXqXqXqXqXqXqX",
"qXqXqXqXqXqXqXqXqXqXqXqX9.g.k.qXa.2.-.,.i.k.w.^ ^ ( 2.a.qXqXqXqXqXqXqXqXqXqXqXqXqXqXqXqXqXqXqXqXqXqXqXqXqXqXqXqXqXqXqXqXqXqXqXqX",
"qXqXqXqXqXqXqXqXqXqXqXqX:.,.0.0.$.+.+.3.l.l.j.w.U ) :.) qXqXqXqXqXqXqXqXqXqXqXqXqXqXqXqXqXqXqXqXqXqXqXqXqXqXqXqXqXqXqXqXqXqXqXqX",
"qXqXqXqXqXqXqXqXqXqXqXqX@.L h.7X8X4X9Xc.k.l.j./ R :.=.qXqXqXqXqXqXqXqXqXqXqXqXqXqXqXqXqXqXqXqXqXqXqXqXqXqXqXqXqXqXqXqXqXqXqXqXqX",
"qXqXqXqXqXqXqXqXqXqXqXqX4X.X#X&X&X,X&X.Xe.%.E T ! ,.qXqXqXqXqXqXqXqXqXqXqXqXqXqXqXqXqXqXqXqXqXqXqXqXqXqXqXqXqXqXqXqXqXqXqXqXqXqX",
"qXqXqXqXqXqXqXqXqXqXqXV.`.-X>XXX|.|.|.[.U.{ ` < %.7.qXqXqXqXqXqXqXqXqXqXqXqXqXqXqXqXqXqXqXqXqXqXqXqXqXqXqXqXqXqXqXqXqXqXqXqXqXqX",
"qXqXqXqXqXqXqXqXqXqXqXl z D '.*X[._._.).D.S.N.v -.v.f.qXqXqXqXqXqXqXqXqXqXqXqXqXqXqXqXqXqXqXqXqXqXqXqXqXqXqXqXqXqXqXqXqXqXqXqXqX",
"qXqXqXqXqXqXqXqXqXqXqXqX X Xk A.^.T.K.T.T.C.J.m.[ ,.p.qXqXqXqXqXqXqXqXqXqXqXqXqXqXqXqXqXqXqXqXqXqXqXqXqXqXqXqXqXqXqXqXqXqXqXqXqX",
"qXqXqXqXqXqXqXqXqXqXqXqXH.4Xb Z m.S.K.S.C.V.A.m./ ,.2.p.g.qXqXqXqXqXqXqXqXqXqXqXqXqXqXqXqXqXqXqXqXqXqXqXqXqXqXqXqXqXqXqXqXqXqXqX",
"qXqXqXqXqXqXqXqXqXqXqXqXc E.S.(.T.N.N.D Z A v Z =.>.1.3.v.qXqXqXqXqXqXqXqXqXqXqXqXqXqXqXqXqXqXqXqXqXqXqXqXqXqXqXqXqXqXqXqXqXqXqX",
"qXqXqXqXqXqXqXqXqX-X-X[.T.G.^._.}.R.A N M l q G :.:.! qX..qXqXqXqXqXqXqXqXqXqXqXqXqXqXqXqXqXqXqXqXqXqXqXqXqXqXqXqXqXqXqXqXqXqXqX",
"qXqXqXqXqXqXqXqXC /.).G.N.c l q s M l u 7 7 q ] 4.) qXqXqXqXqXqXqXqXqXqXqXqXqXqXqXqXqXqXqXqXqXqXqXqXqXqXqXqXqXqXqXqXqXqXqXqXqXqX",
"qXqXqXqXqXqXqXqXqXZ M.V p u u w 0 4 4 4 . 5 y ;.v.qXqXqXqXqXqXqXqXqXqXqXqXqXqXqXqXqXqXqXqXqXqXqXqXqXqXqXqXqXqXqXqXqXqXqXqXqXqXqX",
"qXqXqXqXqXqXqXqXqXqXg a u w 7 6 6 4 . 4 0 M v ' <.7.qXqXqXqXqXqXqXqXqXqXqXqXqXqXqXqXqXqXqXqXqXqXqXqXqXqXqXqXqXqXqXqXqXqXqXqXqXqX",
"qXqXqXqXqXqXqXqXqXqXqXqXqXqXO O : qX@ i V N.m.{ L 2.v.d.qXqXqXqXqXqXqXqXqXqXqXqXqXqXqXqXqXqXqXqXqXqXqXqXqXqXqXqXqXqXqXqXqXqXqXqX",
"qXqXqXqXqXqXqXqXqXqXqXqXqXqXqXqXqXqXI V.S.B.M.[ >.%.2.8.d.qXqXqXqXqXqXqXqXqXqXqXqXqXqXqXqXqXqXqXqXqXqXqXqXqXqXqXqXqXqXqXqXqXqXqX",
"qXqXqXqXqXqXqXqXqXqXqXqXqXqXqXqXqXqX../._.Z.B.qXE 3.=.7.6.n.c.qXqXqXqXqXqXqXqXqXqXqXqXqXqXqXqXqXqXqXqXqXqXqXqXqXqXqXqXqXqXqXqXqX",
"qXqXqXqXqXqXqXqXqXqXqXqXqXqXqXqXqX/ E.{.Y.J.J.qXqXqXqX<.7.7.f.qXqXqXqXqXqXqXqXqXqXqXqXqXqXqXqXqXqXqXqXqXqXqXqXqXqXqXqXqXqXqXqXqX",
"qXqXqXqXqXqXqXqXqXqXqXqXqXqXqXqXqX{ ~.).m.D.`.qXqXqX4X/ 6.7.i.qXqXqXqXqXqXqXqXqXqXqXqXqXqXqXqXqXqXqXqXqXqXqXqXqXqXqXqXqXqXqXqXqX",
"qXqXqXqXqXqXqXqXqXqXqXqXqXqXqXqXL o.[.*XT.m.E.%.o..X..& L i.a.8X&X,X0XqXqXqXqXqXqXqXqXqXqXqXqXqXqXqXqXqXqXqXqXqXqXqXqXqXqXqXqXqX",
"qXqXqXqXqXqXqXqXqXqXqXqXqXqXqXqXW W.&X>X%XS.x ` 3 ; y N V.t.g.6X1X$X*X2XqXqXqXqXqXqXqXqXqXqXqXqXqXqXqXqXqXqXqXqXqXqXqXqXqXqXqXqX",
"qXqXqXqXqXqXqXqXqXqXqXqXqXqXqXqX] }.=XXX:X'.C n n v B C F.X.y.0X>X*X}.[.XX;X;XqXqXqXqXqXqXqXqXqXqXqXqXqXqXqXqXqXqXqXqXqXqXqXqXqX",
"qXqXqXqXqXqXqXqXqXqXqXqXqXqXqXqXX.[.|.`.|.[.N.x C B B x C L.h.7X<X,X:X[.}.%X2XoXqXqXqXqXqXqXqXqXqXqXqXqXqXqXqXqXqXqXqXqXqXqXqXqX",
"qXqXqXqXqXqXqXqXqXqXqXqXqXqXqX2 F /.(._.T.Y.N.u l x B x C {.OXh.>X:X>XXX).`.XXXXOX0XqXqXqXqXqXqXqXqXqXqXqXqXqXqXqXqXqXqXqXqXqXqX",
"qXqXqXqXqXqXqXqXqXqXqXqXqXqXqX% a B.J.(.T.Z.z 7 u p p p z G.#X6X9X<X:X'.J.(.[.|.%X2XXXqXqXqXqXqXqXqXqXqXqXqXqXqXqXqXqXqXqXqXqXqX",
"qXqXqXqXqXqXqXqXqXqXqXqXqXqXqX$ i x A B.N.B . . 7 8 7 9 p C ).OX5X:XXX].Z.B.S.Y.).|.%X*X;XqXqXqXqXqXqXqXqXqXqXqXqXqXqXqXqXqXqXqX",
"qXqXqXqXqXqXqXqXqXqXqXqXqXqXqXqXf l x V B r   5 . . 4 . w l N.(.|.|.].).J.s z v A S.`.&X2X%XqXqXqXqXqXqXqXqXqXqXqXqXqXqXqXqXqXqX",
"qXqXqXqXqXqXqXqXqXqXqXqXqXqXqXqXN v v v f , > X 4 4 o X 0 : u D ~.^.~.J.Y.F % j h z b S.'.*X=X:XqXqXqXqXqXqXqXqXqXqXqXqXqXqXqXqX",
"qXqXqXqXqXqXqXqXqXqXqXqXqXqXqXqXA x B x t % 1 ; = = * @ @ # : z B.m.J.J.B.P.H & 1 3 H g M./.%X3X:XqXqXqXqXqXqXqXqXqXqXqXqXqXqXqX",
"qXqXqXqXqXqXqXqXqXqXqXqXqXqXqXN a a x z > # = * - - = = : o 6 d x S C.N.m.B.D.qXqXqXI I `  .N.~.|.:X>XqXqXqXqXqXqXqXqXqXqXqXqXqX",
"qXqXqXqXqXqXqXqXqXqXqXqXqXqXZ l u u u f * - * - * = 6 6 qX. 6 qXg N.Z.B.N.B.C.C.qXqXqXqXqXT ~  .H.^.$X%X&XqXqXqX7.7.qXqXqXqXqXqX",
"qXqXqXqXqXqXqXqXqXqXqXqXqXG N 6 6 7 o qXqXqXqXqXqXqX6 4 qX4 0 qXqXa D D C B B B.A.qXqXqXqXqXqXK I Y  .U.`._.{.t.9.p.7.6.4.<.qXqX",
"qXqXqXqXqXqXqXqXqXqXqXqXT.C w 6 4 qXqXqXqXqXqXqXqXqX8 w 7 4 o qXqXqXt u y 0 t s S.qXqXqXqXqXqXqXqXqXJ K ~ { } -.>.>.>.>.&.qXqXqX",
"qXqXqXqXqXqXqXqX| Y.J.`.`.S + qXqXqXqXqXqXqXqXqXqX7 4 e 6 4 qXqXqXqXqXqXqXqXqXt m.V.qXqXqXqXqXqXqXqXqXqXqXqXqX) &.&.Q R qXqXqXqX",
"qXqXqXqXqXqXqXqX| P.R.Y.Y.C qXqXqXqXqXqXqXqXqXqXqX8 4 4 . qXqXqXqXqXqXqXqXqXqXX V B.qXqXqXqXqXqXqXqXqXqXqXqXqX3 P P qXqXqXqXqXqX",
"qXqXqXqXqXqXqXqXqX| l qXqXqXqXqXqXqXqXqXqXqXqXqXqX4 4 qXqXqXqXqXqXqXqXqXqXqXA.Z.Z.J.qXqXqXqXqXqXqXqXqXqXqXqXqXqXqXqXqXqXqXqXqXqX",
"qXqXqXqXqXqXqXqXqXqXqXqXqXqXqXqXqXqXqXqXqXqXqXqXqXqXqXqXqXqXqXqXqXqXqXqXqXqXE.I.U.F qXqXqXqXqXqXqXqXqXqXqXqXqXqXqXqXqXqXqXqXqXqX",
"qXqXqXqXqXqXqXqXqXqXqXqXqXqXqXqXqXqXqXqXqXqXqXqXqXqXqXqXqXqXqXqXqXqXqXqXqXqXqXqXqXqXqXqXqXqXqXqXqXqXqXqXqXqXqXqXqXqXqXqXqXqXqXqX",
"qXqXqXqXqXqXqXqXqXqXqXqXqXqXqXqXqXqXqXqXqXqXqXqXqXqXqXqXqXqXqXqXqXqXqXqXqXqXqXqXqXqXqXqXqXqXqXqXqXqXqXqXqXqXqXqXqXqXqXqXqXqXqXqX"
};
