/* XPM */
static char *result[] = {
/* columns rows colors chars-per-pixel */
"44 64 220 2 ",
"   c #1A0D2E",
".  c #1F102C",
"X  c #000035",
"o  c #1A0C3B",
"O  c #1F1438",
"+  c #0B0624",
"@  c #25142E",
"#  c #261434",
"$  c #291534",
"%  c #26123A",
"&  c #2A153B",
"*  c #2F183C",
"=  c #2E1933",
"-  c #341C34",
";  c #341C3C",
":  c #3B1332",
">  c #210D38",
",  c #3C2335",
"<  c #5E3912",
"1  c #702E12",
"2  c #653A19",
"3  c #7A3815",
"4  c #683C0F",
"5  c #472329",
"6  c #5F302A",
"7  c #4D2434",
"8  c #5E353D",
"9  c #723F3D",
"0  c #6E481C",
"q  c #684119",
"w  c #734E1B",
"e  c #764D19",
"r  c #7B5216",
"t  c #75511A",
"y  c #7B521A",
"u  c #754901",
"i  c #754824",
"p  c #6F472D",
"a  c #1D0C46",
"s  c #000058",
"d  c #1B0258",
"f  c #0A034C",
"g  c #2E1643",
"h  c #2F1942",
"j  c #2C144B",
"k  c #311746",
"l  c #321847",
"z  c #32174F",
"x  c #35194B",
"c  c #391A48",
"v  c #3A1D54",
"b  c #3D1D5D",
"n  c #371757",
"m  c #280E52",
"M  c #3D2249",
"N  c #3F2159",
"B  c #3D1C60",
"V  c #421F5F",
"C  c #5B3143",
"Z  c #43215D",
"A  c #4A265B",
"S  c #4F295E",
"D  c #502750",
"F  c #532C44",
"G  c #68364F",
"H  c #421F62",
"J  c #462263",
"K  c #4A2565",
"L  c #4C256B",
"P  c #4B2569",
"I  c #532A6F",
"U  c #522B67",
"Y  c #5B3167",
"T  c #4B2277",
"R  c #552B74",
"E  c #572B7C",
"W  c #5E3177",
"Q  c #613373",
"!  c #653874",
"~  c #6D3C7D",
"^  c #65367B",
"/  c #713D7A",
"(  c #683A6B",
")  c #7A4875",
"_  c #8A390D",
"`  c #933E0E",
"'  c #873D13",
"]  c #913F12",
"[  c #8B4315",
"{  c #834614",
"}  c #944C14",
"|  c #954C1B",
" . c #984A17",
".. c #82541B",
"X. c #8C541C",
"o. c #855619",
"O. c #97541C",
"+. c #9A531B",
"@. c #935A1E",
"#. c #9B5A1F",
"$. c #995716",
"%. c #A75B04",
"&. c #A5541C",
"*. c #AF5C1C",
"=. c #A45E1D",
"-. c #825021",
";. c #885523",
":. c #925C24",
">. c #9D5822",
",. c #995423",
"<. c #96543A",
"1. c #8E5B3E",
"2. c #AC5F21",
"3. c #A85E24",
"4. c #B15F23",
"5. c #A05932",
"6. c #9A6E2F",
"7. c #A36124",
"8. c #AD6122",
"9. c #AB642A",
"0. c #AD6A2B",
"q. c #A5642E",
"w. c #B46424",
"e. c #B96925",
"r. c #B96B2A",
"t. c #B46A29",
"y. c #BE752B",
"u. c #BB7728",
"i. c #AA6D35",
"p. c #B36F32",
"a. c #BB6F31",
"s. c #B37233",
"d. c #BA7B3C",
"f. c #B87837",
"g. c #AD7334",
"h. c #C16E28",
"j. c #C2732B",
"k. c #CD752B",
"l. c #CE7A2D",
"z. c #C27929",
"x. c #D47C2D",
"c. c #C57330",
"v. c #C37D36",
"b. c #863D46",
"n. c #D3802F",
"m. c #D28724",
"M. c #C58A3A",
"N. c #C98633",
"B. c #D58230",
"V. c #D39237",
"C. c #D3963B",
"Z. c #D59B3E",
"A. c #DA993C",
"S. c #CD933E",
"D. c #C78946",
"F. c #DA9D43",
"G. c #D49A42",
"H. c #CB9545",
"J. c #DEA549",
"K. c #DEA245",
"L. c #E2A747",
"P. c #E5B652",
"I. c #ECBE59",
"U. c #F2BF56",
"Y. c #C4877F",
"T. c #F6C45A",
"R. c #5C2B8E",
"E. c #582A86",
"W. c #683589",
"Q. c #713F82",
"!. c #632E9B",
"~. c #602F91",
"^. c #653293",
"/. c #66329B",
"(. c #69359E",
"). c #713B95",
"_. c #6C35A2",
"`. c #733AA4",
"'. c #7C3FAA",
"]. c #7338AC",
"[. c #6729A6",
"{. c #7A4688",
"}. c #7F4599",
"|. c #7C43A5",
" X c #7D42AA",
".X c #824B8A",
"XX c #834B96",
"oX c #8D5494",
"OX c #975B9A",
"+X c #91579A",
"@X c #8D548E",
"#X c #9E6183",
"$X c #A66181",
"%X c #8648AD",
"&X c #8D52A5",
"*X c #995AAD",
"=X c #8443B2",
"-X c #8A49B2",
";X c #8D51B1",
":X c #9253B4",
">X c #9759B3",
",X c #995DB6",
"<X c #9655B9",
"1X c #9C5CB9",
"2X c #A05FBB",
"3X c #9F62BA",
"4X c #A464BD",
"5X c #A86BBE",
"6X c #AA6BC1",
"7X c #A969C3",
"8X c #AF71C4",
"9X c #B175C6",
"0X c #B679C7",
"qX c #B57AC9",
"wX c #B97DCB",
"eX c #B675CA",
"rX c #B06CC8",
"tX c #B683AB",
"yX c #DAA28D",
"uX c None",
/* pixels */
"uXuXuXuXuXuXuXuXuXuXuXuXuXuXuXuXuXuXuXuXuXuXuXuXuXuXuXuXuXuXuXuXuXuXuXuXuXuXuXuXuXuXuXuX",
"uXuXuXuXuXuXuXuXuXuXuXuXuXuXuXuXuXuXuXuXuXuXuXuXuXuXuXuXuXuXuXuXuXuXuXuXuXuXuXuXuXuXuXuX",
"uXuXuXuXuXuXuXuXuXuXuXuXuXuXuXuXuXuXuXuXuXuXuXuXuXuXuXuXuXuXuXuXuXuXuXuXuXuXuXuXuXuXuXuX",
"uXuXuXuXuXuXuXuXuXuXuXuXuXuXuXuXuXuXuXuXuXuXuXuXuXuXuXuXuXuXuXuXuXuXuXuXuXuXuXuXuXuXuXuX",
"uXuXuXuXuXuXuXuXuXuXuXuXuXuXuXuXuXuXuXuXuXuXuXuXuXuXuXuXuXuXuXuXuXuXuXuXuXuXuXuXuXuXuXuX",
"uXuXuXuXuXuXuXuXuXuXuXuXuXuXuXuXuXuXuXuXuXuXuXuXuXuXuXuXuXuXuXuXuXuXuXuXuXuXuXuXuXuXuXuX",
"uXuXuXuXuXuXuXuXuXuXuXuXuXuXuXuXuXuXuXuXuXuXuXuXuXuXuXuXuXuXuXuXuXuXuXuXuXuXuXuXuXuXuXuX",
"uXuXuXuXuXuXuXuXuXuXuXuX9.uXuXuXuXuXuXuXuXuXuXuXuXuXuXuX7.<.uXuXuXuXuXuXuXuXuXuXuXuXuXuX",
"uXuXuXuXuXuXuXuXuXuXuX[ t.uXuXuXuXuXuXuXuXuXuXuXuXuXuXuX0.:.uXuXuXuXuXuXuXuXuXuXuXuXuXuX",
"uXuXuXuXuXuXuXuXuXuXuX_ 8.M.uXuXuXuXuXuXuXuXuXuXuXuXuXg.3.} uXuXuXuXuXuXuXuXuXuXuXuXuXuX",
"uXuXuXuXuXuXuXuXuXuXuX' [ M.uXuXuXuXuXuXuXuXuXuXuXuXuXf.| +.uXuXuXuXuXuXuXuXuXuXuXuXuXuX",
"uXuXuXuXuXuXuXuXuXuXuX[ ` 0.P.uXuXuXuXuXuXuXuXuXuXuXS.s.{ >.uXuXuXuXuXuXuXuXuXuXuXuXuXuX",
"uXuXuXuXuXuXuXuXuXuXuXuX[ _ J.I.uXuXuXuXuXuXuXuXuXZ.K.-.X.>.uXuXuXuXuXuXuXuXuXuXuXuXuXuX",
"uXuXuXuXuXuXuXuXuXuXuXuXy @.9.T.T.uXuXuXs.9.uXuXuXK.g.t ..uXuXuXuXuXuXuXuXuXuXuXuXuXuXuX",
"uXuXuXuXuXuXuXuXuXuXuXuXuXy &.M.T.uXuXuXw.*.uXuXZ.D.;.r X.uXuXuXuXuXuXuXuXuXuXuXuXuXuXuX",
"uXuXuXuXuXuXuXuXuXuXuXuXuXt @.9.H.T.uXuXJ.J.uXZ.G.i.r ..uXuXuXuXuXuXuXuXuXuXuXuXuXuXuXuX",
"uXuXuXuXuXuXuXuXuXuXuXuXuXuXt >.9.J.I.uXF.P.uXS.d.:.y ..uXuXuXuXuXuXuXuXuXuXuXuXuXuXuXuX",
"uXuXuXuXuXuXuXuXuXuXuXuXuXuXuX@.O.8.L.C.*.w.Z.d.X.r ..uXuXuXuXuXuXuXuXuXuXuXuXuXuXuXuXuX",
"uXuXuXuXuXuXuXuXuXuXuXuXuXuXuXe y X.7.y.| [ 7.:.w y q.uXuXuXuXuXuXuXuXuXuXuXuXuXuXuXuXuX",
"uXuXuXuXuXuXuXuXuXuXuXuXuXuXuXt ..t t #.X.w ..r t @.uXuXuXuXuXuXuXuXuXuXuXuXuXuXuXuXuXuX",
"uXuXuXuXuXuXuXuXuXuXuXuXuXuXuXuXu 4 4 #.@.e e 4 4 r uXuXuXuXuXuXuXuXuXuXuXuXuXuXuXuXuXuX",
"uXuXuXuXuXuXuXuXuXuXuXuXuXuXuXuXD 7 g <.e.$.8 c 5 ( uXuXuXuXuXuXuXuXuXuXuXuXuXuXuXuXuXuX",
"uXuXuXuXuXuXuXuXuXuXuXuXuXuXuXuXJ v s 1.A.u.C a > R .XuXuXuXuXuXuXuXuXuXuXuXuXuXuXuXuXuX",
"uXuXuXuXuXuXuXuXuXuXuXuXuXuXuXuXP v d p Z.N.7 j x L {.uXuXuXuXuXuXuXuXuXuXuXuXuXuXuXuXuX",
"uXuXuXuXuXuXuXuXuXuXuXuXuXuXuXuXH x a 5 Z.M.= % g K W uXuXuXuXuXuXuXuXuXuXuXuXuXuXuXuXuX",
"uXuXuXuXuXuXuXuXuXuXuXuXuXuXuXH z @ % : M.N.: # @ z Q.uXuXuXuXuXuXuXuXuXuXuXuXuXuXuXuXuX",
"uXuXuXuXuXuXuXuXuXuXuXuXuXuXuXZ h $ & $ @.7.$ & $ z J uXuXuXuXuXuXuXuXuXuXuXuXuXuXuXuXuX",
"uXuXuXuXuXuXuXuXuXuXuXuXuXuXuXuXg * & - 0 q - % $ l uXuXuXuXuXuXuXuXuXuXuXuXuXuXuXuXuXuX",
"uXuXuXuXuXuXuXuXuXuXuXuXuXuXv.uXuX& # o 0 0 $ & l uXuXuXz.F.uXuXuXuXuXuXuXuXuXuXuXuXuXuX",
"uXuXuXuXuXuXuXuXuXuXuXuXuXu.y.3.uXuXF o 0 i o ; uXuXuXuXl.j.M.uXuXuXuXuXuXuXuXuXuXuXuXuX",
"uXuXuXuXuXuXuXuXuXuXuXuXv.t.r.8.uXuXY a i -.& j uXuXuXuXl.V.n.G.uXuXuXuXuXuXuXuXuXuXuXuX",
"uXuXuXuXuXuXuXuXuXuXuXuX8.w.h.w.uXuXU f i 8.- Z uXuXuXj.n.C.C.u.uXuXuXuXuXuXuXuXuXuXuXuX",
"uXuXuXuXuXuXuXuXuXuXuX2.e.c.s.w.uXuXL d p u.; U uXuXuXj.n.V.K.B.uXuXuXuXuXuXuXuXuXuXuXuX",
"uXuXuXuXuXuXuXuXuXuXw.w.c.d.d.t.>.uXK d C u.M W uXuXuXe.x.N.V.l.v.uXuXuXuXuXuXuXuXuXuXuX",
"uXuXuXuXuXuXuXuXuXuX3.t.v.d.d.a.%.uXT n I G J W..XuXuXh.h.k.x.l.x.uXuXuXuXuXuXuXuXuXuXuX",
"uXuXuXuXuXuXuXuXuXw.p.a.p.s.d.| %.oX{.Q R.E.&X5X5XuXuXc.e.x.l.l.k.u.uXuXuXuXuXuXuXuXuXuX",
"uXuXuXuXuXuXuXuXuXy.f.w.uXw.p.uX} 3.:.)  X3X9X5XyXY.%.w.w.w.e.j.x.y.uXuXuXuXuXuXuXuXuXuX",
"uXuXuXuXuXuXuXuXa.d.s.w.uXuXuXuX/ G Q ,X;X8XqX<X#X5.b.>.=.uXw.h.h.j.uXuXuXuXuXuXuXuXuXuX",
"uXuXuXuXuXuXuXuX3.t.uXuXuXuXuXR T (.:X4X8X0XwX3X[.>X7X$XuXuX0.w.w.l.uXuXuXuXuXuXuXuXuXuX",
"uXuXuXuXuXuXuXuX>.uXuXuXuXuXuX).>X4X-X].|.6X0XwX3X-XrX.XuXuXuXuXuXk.uXuXuXuXuXuXuXuXuXuX",
"uXuXuXuXuXuXuX+.uXuXuXuXuXuXW.-X<X%X!. X|.6X9X6X0X4X*XQ uXuXuXuXuXw.uXuXuXuXuXuXuXuXuXuX",
"uXuXuXuXuXuXuX+.uXuXuXuXuXuX]._.(././.<XwX9X3X-X5XwX7XQ.uXuXuXuXuX3.uXuXuXuXuXuXuXuXuXuX",
"uXuXuXuXuXuXuXuXuXuXuXuXuX^.~.R.E./.`.`.,X8X:X X%X4XeX4XuXuXuXuXuX| uXuXuXuXuXuXuXuXuXuX",
"uXuXuXuXuXuXuXuXuXuXuXuXR R P K R _.`.%X3X6X=X X^.W.+X7X*XuXuXuXuXuXuXuXuXuXuXuXuXuXuXuX",
"uXuXuXuXuXuXuXuXuXuXuXuXV b b z L (.'.9XwX4X1X%XW J ~ @XOXuXuXuXuXuXuXuXuXuXuXuXuXuXuXuX",
"uXuXuXuXuXuXuXuXuXuXuXuXz g & # b _.'.`.5X4X<XXXA j H W @X+XuXuXuXuXuXuXuXuXuXuXuXuXuXuX",
"uXuXuXuXuXuXuXuXuXuXuXuX; $ $ @ x /.].%X1X2X>X! & # z ~ {.{.uXuXuXuXuXuXuXuXuXuXuXuXuXuX",
"uXuXuXuXuXuXuXuXuXuXuXuX= k & $ l /.-X9X9X7XXXuX$ & ~ OX.X{.uXuXuXuXuXuXuXuXuXuXuXuXuXuX",
"uXuXuXuXuXuXuXuXuXuXuXuXuX- & # h /.`.;X4X1XQ.  @ j I {.~ W.{.uXuXuXuXuXuXuXuXuXuXuXuXuX",
"uXuXuXuXuXuXuXuXuXuXuXuXuXuX& $ & ^.'.:X7X>XY + A Q a J U z Q uXuXuXuXuXuXuXuXuXuXuXuXuX",
"uXuXuXuXuXuXuXuXuXuXuXuXuXJ l $ h !.:X0X7X&X; . S Q z L ! - uXuXuXuXuXuXuXuXuXuXuXuXuXuX",
"uXuXuXuXuXuXuXuXuXuXuXuXV H v g % /. X5X7X&XuXuXuXF B K ~ uXuXuXuXuXuXuXuXuXuXuXuXuXuXuX",
"uXuXuXuXuXuXuXuXuXuXuXuX& & # $ uX_.=X4XrXOXuXuXuXZ l . v {.uXuXuXuXuXuXuXuXuXuXuXuXuXuX",
"uXuXuXuXuXuXuXuXuXuXuXuXuXuXuXuXuX^.-X8XeXuXuXuXuX, $ & . U uXuXuXuXuXuXuXuXuXuXuXuXuXuX",
"uXuXuXuXuXuXuXuXuXuXuXuXuXuXuXuXuXE.].1XqXuXuXuXuXuXM $ # M uXuXuXuXuXuXuXuXuXuXuXuXuXuX",
"uXuXuXuXuXuXuXuXuXuXuXuXuXuXuXuXuXuX`.=XtXP.U.I.T.6.X o ; q uXuXuXuXuXuXuXuXuXuXuXuXuXuX",
"uXuXuXuXuXuXuXuXuXuXuXuXuXuXuXuXuXuXR ~.D.m.l.F.L.K.p.6 uXuXuXuXuXuXuXuXuXuXuXuXuXuXuXuX",
"uXuXuXuXuXuXuXuXuXuXuXuXuXuXuXuXuXuXuXG c.3.e.w.&. .w.uXuXuXuXuXuXuXuXuXuXuXuXuXuXuXuXuX",
"uXuXuXuXuXuXuXuXuXuXuXuXuXuXuXuXuXuXuXuX,. .+.[ ` ` 1 uXuXuXuXuXuXuXuXuXuXuXuXuXuXuXuXuX",
"uXuXuXuXuXuXuXuXuXuXuXuXuXuXuXuXuXuXuXuX' 3 3 3 [ _ uXuXuXuXuXuXuXuXuXuXuXuXuXuXuXuXuXuX",
"uXuXuXuXuXuXuXuXuXuXuXuXuXuXuXuXuXuXuXuX2 2 6 2 ' uXuXuXuXuXuXuXuXuXuXuXuXuXuXuXuXuXuXuX",
"uXuXuXuXuXuXuXuXuXuXuXuXuXuXuXuXuXuXuXuXuXuXuXuXuXuXuXuXuXuXuXuXuXuXuXuXuXuXuXuXuXuXuXuX",
"uXuXuXuXuXuXuXuXuXuXuXuXuXuXuXuXuXuXuXuXuXuXuXuXuXuXuXuXuXuXuXuXuXuXuXuXuXuXuXuXuXuXuXuX",
"uXuXuXuXuXuXuXuXuXuXuXuXuXuXuXuXuXuXuXuXuXuXuXuXuXuXuXuXuXuXuXuXuXuXuXuXuXuXuXuXuXuXuXuX"
};
