/* XPM */
static char *result[] = {
/* columns rows colors chars-per-pixel */
"32 64 225 2 ",
"   c #000002",
".  c #170B3C",
"X  c #28193D",
"o  c #3B233B",
"O  c #35203E",
"+  c #572F19",
"@  c #5C3414",
"#  c #5B331A",
"$  c #57311C",
"%  c #643C1D",
"&  c #623814",
"*  c #60360B",
"=  c #532F2C",
"-  c #472837",
";  c #4D2C2E",
":  c #744B15",
">  c #7F551B",
",  c #7D5638",
"<  c #734A29",
"1  c #28044B",
"2  c #221745",
"3  c #291946",
"4  c #2C1A4B",
"5  c #251844",
"6  c #371E4A",
"7  c #380059",
"8  c #2C1A53",
"9  c #2E1A5A",
"0  c #291750",
"q  c #311B5C",
"w  c #361C58",
"e  c #2E0055",
"r  c #3D225C",
"t  c #3C295A",
"y  c #3A204E",
"u  c #0C0066",
"i  c #351C65",
"p  c #351B6A",
"a  c #391D6B",
"s  c #3C1E72",
"d  c #3F1E7A",
"f  c #3B2267",
"g  c #3F2076",
"h  c #482C56",
"j  c #623051",
"k  c #4A0077",
"l  c #530073",
"z  c #5C197A",
"x  c #47156A",
"c  c #432A63",
"v  c #472768",
"b  c #522E6E",
"n  c #4C3168",
"m  c #56386A",
"M  c #432275",
"N  c #45227B",
"B  c #4B257D",
"V  c #452973",
"C  c #5A2977",
"Z  c #4D3474",
"A  c #593A79",
"S  c #642C7F",
"D  c #623A7D",
"F  c #653978",
"G  c #5F4259",
"H  c #694944",
"J  c #734745",
"K  c #7B5647",
"L  c #6C4758",
"P  c #755659",
"I  c #5D4374",
"U  c #644A73",
"Y  c #71536E",
"T  c #99390A",
"R  c #963D14",
"E  c #993D13",
"W  c #973816",
"Q  c #913013",
"!  c #A13F13",
"~  c #994300",
"^  c #9C4115",
"/  c #96441A",
"(  c #974015",
")  c #85591A",
"_  c #805701",
"`  c #A04807",
"'  c #A14115",
"]  c #896015",
"[  c #AB6719",
"{  c #B86A00",
"}  c #855C24",
"|  c #895E24",
" . c #845B2C",
".. c #81572B",
"X. c #9A5F28",
"o. c #A85624",
"O. c #8B622D",
"+. c #98662C",
"@. c #956C31",
"#. c #986E32",
"$. c #9B7234",
"%. c #946A2F",
"&. c #A46525",
"*. c #A07736",
"=. c #A47A36",
"-. c #A97E36",
";. c #B5792D",
":. c #C47320",
">. c #88394A",
",. c #873B54",
"<. c #85585E",
"1. c #9C6D56",
"2. c #A46141",
"3. c #825C63",
"4. c #825369",
"5. c #9A7166",
"6. c #B3822B",
"7. c #AB813B",
"8. c #B1863A",
"9. c #D48A16",
"0. c #CF900E",
"q. c #DFA812",
"w. c #DD9824",
"e. c #CA9936",
"r. c #D89B37",
"t. c #C49031",
"y. c #E19F33",
"u. c #D6A323",
"i. c #D5A037",
"p. c #ECA926",
"a. c #E5A935",
"s. c #EBB63A",
"d. c #F4BB38",
"f. c #F6BC2C",
"g. c #BA865D",
"h. c #B18645",
"j. c #BE8F6B",
"k. c #DFA44E",
"l. c #E9BE56",
"z. c #EDB541",
"x. c #D5B57F",
"c. c #EFC24D",
"v. c #F0C44B",
"b. c #F7C749",
"n. c #FFD04D",
"m. c #FACD54",
"M. c #F3C95D",
"N. c #F2C759",
"B. c #FFD554",
"V. c #EFC453",
"C. c #F2CA6C",
"Z. c #F8CE6C",
"A. c #F4CC74",
"S. c #F4CF7E",
"D. c #F8CF70",
"F. c #FBD47A",
"G. c #FFD572",
"H. c #F4CB6B",
"J. c #5C0081",
"K. c #4D2584",
"L. c #4D2983",
"P. c #4F2A89",
"I. c #512A85",
"U. c #532B89",
"Y. c #502785",
"T. c #5C3885",
"R. c #5A3396",
"E. c #522A96",
"W. c #653182",
"Q. c #6A3888",
"!. c #683C95",
"~. c #703D8F",
"^. c #5830A3",
"/. c #643DA8",
"(. c #6B4587",
"). c #72458D",
"_. c #724C8B",
"`. c #784B97",
"'. c #7D539B",
"]. c #7A579B",
"[. c #715688",
"{. c #7C6995",
"}. c #6942AA",
"|. c #744FA9",
" X c #7E55A2",
".X c #785AAA",
"XX c #6B43B0",
"oX c #7B67A6",
"OX c #7854C5",
"+X c #81589D",
"@X c #80508F",
"#X c #8B7A9C",
"$X c #8F6990",
"%X c #A37C82",
"&X c #855CA3",
"*X c #8359A7",
"=X c #8963A5",
"-X c #8B64AA",
";X c #8569A7",
":X c #957AB1",
">X c #8F6DAC",
",X c #B59783",
"<X c #9687A8",
"1X c #A38AB9",
"2X c #AE9FBD",
"3X c #ABA8B7",
"4X c #C59981",
"5X c #CEB08D",
"6X c #F4CF84",
"7X c #F6D186",
"8X c #FAD586",
"9X c #F5D28A",
"0X c #FAD589",
"qX c #FFDB8C",
"wX c #FFDA87",
"eX c #E8C581",
"rX c #FFE08D",
"tX c #BBB4C5",
"yX c #BBA6CB",
"uX c #C3BBCE",
"iX c #D4D3DC",
"pX c #CFCDD6",
"aX c #DADAE1",
"sX c #E3E8E9",
"dX c None",
/* pixels */
"dXdXdXdXdXdXdXdXdXdXdXdXdXdXdXdXdXdXdXdXdXdXdXdXdXdXdXdXdXdXdXdX",
"dXdXdXdXdXdXdXdXdXdXdXdXdXdXdXdXdXdXdXdXdXdXdXdXdXdXdXdXdXdXdXdX",
"dXdXdXdXdXdXdXdXdXdXdXdXdXdXdXdXdXdXdXdXdXdXdXdXdXdXdXdXdXdXdXdX",
"dXdXdXdXdXdXdXdXdXdXdXdXdXdXdXdXdXdXdXdXdXdXdXdXdXdXdXdXdXdXdXdX",
"dXdXdXdXdXdXdX9XdXdXdXdXdXdXdXdXdXdXdXdXdXdXdXdXdXdX7X7XdXdXdXdX",
"dXdXdXdXdXdXdXrX9XdXdXdXdXdXdXdXdXdXdXdXdXdXdXdXdXdX7X0XdXdXdXdX",
"dXdXdXdXdXdXdXG.0XdXdXdXdXdXdXdXdXdXdXdXdXdXdXdXdXdXqXwXdXdXdXdX",
"dXdXdXdXdXdXdXz.wX9XdXdXdXdXdXdXdXdXdXdXdXdXdXdXdX9X7XZ.dXdXdXdX",
"dXdXdXdXdXdXdXw.M.qXdXdXdXdXdXdXdXdXdXdXdXdXdXdXC.F.C.v.dXdXdXdX",
"dXdXdXdXdXdXdX:.s.M.S.dXdXdXdXdXdXdXdXdXdXdXdXdXm.c.n.c.dXdXdXdX",
"dXdXdXdXdXdXdXdXs.b.D.0XdXdXdXdXdXdXdXdXdXdXdXc.b.v.b.dXdXdXdXdX",
"dXdXdXdXdXdXdXdX9.z.M.rX7XdXdXdXdXN.dXdXdXdXN.B.v.m.c.dXdXdXdXdX",
"dXdXdXdXdXdXdXdXdXp.z.H.wXdXdXdXdXB.dXdXdXdXm.N.v.v.dXdXdXdXdXdX",
"dXdXdXdXdXdXdXdXdXr.f.H.7X7XdXdXa.B.dXdXdXS.S.A.B.v.dXdXdXdXdXdX",
"dXdXdXdXdXdXdXdXdXdXp.v.6XqXS.dXy.n.N.dX7XwX9XA.v.dXdXdXdXdXdXdX",
"dXdXdXdXdXdXdXdXdXdXa.M.7X9XD.l.w.b.v.dXqX9X7XwXA.dXdXdXdXdXdXdX",
"dXdXdXdXdXdXdXdXdXdXV.B.9X9XF.f.9.a.d.Z.8X6X6XqXdXdXdXdXdXdXdXdX",
"dXdXdXdXdXdXdXdXdXdXdXb.M.C.5Xj.:.0.s.x.5XS.8X9XdXdXdXdXdXdXdXdX",
"dXdXdXdXdXdXdXdXdXdXdXk.4X>X*X.X2.{ p.#XoX#X5XS.dXdXdXdXdXdXdXdX",
"dXdXdXdXdXdXdXdXdXdXdX%X|. X+X`.4.{ j.-X-X*X-X,XdXdXdXdXdXdXdXdX",
"dXdXdXdXdXdXdXdXdXdXdX].&X=X&X*X@X[ $X-X-X-X>X>XdXdXdXdXdXdXdXdX",
"dXdXdXdXdXdXdXdXdXdXdX).).'.&X&X=X=X*X-X-X-X-X-XdXdXdXdXdXdXdXdX",
"dXdXdXdXdXdXdXdXdXdXdXb C l C ).`. X X&X=X'.`. XdXdXdXdXdXdXdXdX",
"dXdXdXdXdXdXdXdXdXdXn t 1 {.(.l W.Q.W.Q.J.~.W.z _.dXdXdXdXdXdXdX",
"dXdXdXdXdXdXdXdXdXdXn 1 #XaXaX#X1 m v F 1XiX3Xv A dXdXdXdXdXdXdX",
"dXdXdXdXdXdXdXdXdXdXc w yXuXiXpXe D 7 3XiXiXsX#Xk dXdXdXdXdXdXdX",
"dXdXdXdXdXdXdXdXdXdXY Z 1XC #X3X(.z ).1Xl <XiX{.1.u.e.dXdXdXdXdX",
"dXdXdXdXdXdXdXdXt.k.3.Z :Xm   +X[.l _.=X1 7 tX>X%X6.t.8.dXdXdXdX",
"dXdXdXdXdXdXdX;.` >.A W.+X].(.=X`.].'.=X_.+X:X&X|.>.T o.X.dXdXdX",
"dXdXdXdXdXdX&.Q T R j b Q.'.-X-X-X>X-X-X-X>X*X~.,.E E E R dXdXdX",
"dXdXdXdXdX&.Q E R T / j v F D _.+X'.&X`.).'.!.3.` T E E ^ dXdXdX",
"dXdXdXdX&.E E ! ^ R E ` L i c v C W.W.S Q.!.P [ E E E E ! / dXdX",
"dXdXdXdX' E ^ ( dX' ^ / 6.dXb v m D S W.Q.dXdX[ Q dXE E E E dXdX",
"dXdXdX^ ' E E dXdX( dX;.u.Y G c i f v C b dXe.&.dXdXE E ^ E dXdX",
"dXdXdX' / dXdXdXdXdXdXdXg.3.} , K H H J u dXe.dXdXdXdXdXE E dXdX",
"dXdX/ E dXdXdXdXdXdXdXOX.XK | O.7.$...) P e.dXdXdXdXdXdXdX^ dXdX",
"dXdX^ R dXdXdXdXdXdX}.}.!... .$.*.$.O.| K 5.dXdXdXdXdXdXdX( dXdX",
"dXdXR dXdXdXdXdXdXR.B E.U ]  .$.8.*. .O.K E.|.j.q.i.dXdXE ^ dXdX",
"dXdXR dXdXdXdXdXU.U.T./.U _  .$.=.$.}  .> T././.h.u.dXdXdXdXdXdX",
"dXdXdXdXdXdXdXdXM L.}.^.K O. .@.-.$.} , ) A /.^.5.0.dXdXdXdXdXdX",
"dXdXdXdXdXdXdXdXM N R.W. .O.$.$.$.$.$.O.) P R./.U T dXdXdXdXdXdX",
"dXdXdXdXdXdXdXB M M Y.m ) ..@.7.8.7.@...O.J R.XXU.dXdXdXdXdXdXdX",
"dXdXdXdXdXdXdXM p q M b :  .@.=.7.=.%. ...< I.R.I.dXdXdXdXdXdXdX",
"dXdXdXdXdXdXdXa 9 X 8 6 & O.$.=.$.=.@...: = M K.B dXdXdXdXdXdXdX",
"dXdXdXdXdXdXdX3 4 3 5 o @ %  .*.-.=.O.% + = i s M dXdXdXdXdXdXdX",
"dXdXdXdXdXdXdXdX3 3 5 o & + % O.$. .% + @ - p s v dXdXdXdXdXdXdX",
"dXdXdXdXdXdXdXdXdXdX4 2 = & + %  .# + & @ 8 p p M dXdXdXdXdXdXdX",
"dXdXdXdXdXdXdXdXdX0 4 2 o # % + + & + * - p s p Z dXdXdXdXdXdXdX",
"dXdXdXdXdXdXdXdXi a 8 w dXO # * # # @ $ 9 a a f dXdXdXdXdXdXdXdX",
"dXdXdXdXdXdXdXr p q q i dX0 q - * @ # - p s a a dXdXdXdXdXdXdXdX",
"dXdXdXdXdXdXdX6 c 5 w 3 p a s 9 o h dXdXs N s p dXdXdXdXdXdXdXdX",
"dXdXdXdXdXdXdXdXdXdX6 q p p i p dX4 dXdXs N a dXdXdXdXdXdXdXdXdX",
"dXdXdXdXdXdXdXdXdXdXdXr q i 4 q dXdXdXdXs a 9 dXdXdXdXdXdXdXdXdX",
"dXdXdXdXdXdXdXdXdXdXdXdXdX6 5 y dXdXdXi s p 4 dXdXdXdXdXdXdXdXdX",
"dXdXdXdXdXdXdXdXdXdXdXdXdXdXdXdXdXdXdXi s i dXdXdXdXdXdXdXdXdXdX",
"dXdXdXdXdXdXdXdXdXdXdXdXdXdXdXdXdXdXdXa s 9 dXdXdXdXdXdXdXdXdXdX",
"dXdXdXdXdXdXdXdXdXdXdXdXdXdXdXdXdXdXdXB N 0 dXdXdXdXdXdXdXdXdXdX",
"dXdXdXdXdXdXdXdXdXdXdXdXdXdXdXdXdXdXdXI.U.dXdXdXdXdXdXdXdXdXdXdX",
"dXdXdXdXdXdXdXdXdXdXdXdXdXdXdXdXdXdXB U.L.K.dXdXdXdXdXdXdXdXdXdX",
"dXdXdXdXdXdXdXdXdXdXdXdXdXdXdXdXL.B N L.I.U.K.dXdXdXdXdXdXdXdXdX",
"dXdXdXdXdXdXdXdXdXdXdXdXdXdXdXI P.a M A K.B T.L.U dXdXdXdXdXdXdX",
"dXdXdXdXdXdXdXdXdXdXdXdXdXdXdXdXq . n U i i U c m dXdXdXdXdXdXdX",
"dXdXdXdXdXdXdXdXdXdXdXdXdXdXdXdXdXdXdXdXdXdXdXdXdXdXdXdXdXdXdXdX",
"dXdXdXdXdXdXdXdXdXdXdXdXdXdXdXdXdXdXdXdXdXdXdXdXdXdXdXdXdXdXdXdX"
};
