/* XPM */
static char *f405fd2efaf64915aac865bf0941ec1eaVuETOugAy1ipPOA[] = {
/* columns rows colors chars-per-pixel */
"64 64 231 2 ",
"   c #1C0201",
".  c #1C0904",
"X  c #190605",
"o  c #191015",
"O  c #1A1207",
"+  c #240200",
"@  c #2A0500",
"#  c #240B02",
"$  c #2C0B03",
"%  c #2A0D0A",
"&  c #250E08",
"*  c #320C03",
"=  c #3B0E02",
"-  c #320E0E",
";  c #24100C",
":  c #2C110D",
">  c #2E1908",
",  c #3B1006",
"<  c #34140D",
"1  c #3C150C",
"2  c #341B0D",
"3  c #391A0C",
"4  c #351306",
"5  c #2C1613",
"6  c #2C1916",
"7  c #2D1918",
"8  c #241715",
"9  c #331412",
"0  c #391712",
"q  c #341A15",
"w  c #3B1A14",
"e  c #331C19",
"r  c #3B1C1B",
"t  c #3B161B",
"y  c #2E201F",
"u  c #3C201E",
"i  c #392316",
"p  c #231E25",
"a  c #3D2321",
"s  c #312225",
"d  c #4E1E0C",
"f  c #461A0C",
"g  c #531E0B",
"h  c #421711",
"j  c #431B13",
"k  c #4C1C12",
"l  c #421D1B",
"z  c #4B1E19",
"x  c #531E14",
"c  c #4E250F",
"v  c #55230E",
"b  c #5B250E",
"n  c #57280C",
"m  c #442214",
"M  c #4C2115",
"N  c #45231C",
"B  c #4C241C",
"V  c #4C2A1D",
"C  c #442B1E",
"Z  c #542315",
"A  c #5B2512",
"S  c #542816",
"D  c #5C2914",
"F  c #52251A",
"G  c #5C251A",
"H  c #552A1C",
"J  c #5B2A1C",
"K  c #5A321D",
"L  c #612714",
"P  c #61271B",
"I  c #622A1B",
"U  c #692D1C",
"Y  c #64311E",
"T  c #6A311D",
"R  c #75331E",
"E  c #431D23",
"W  c #421E28",
"Q  c #432323",
"!  c #4C2524",
"~  c #462920",
"^  c #4B2A23",
"/  c #4C2C2A",
"(  c #4B2729",
")  c #532524",
"_  c #5A2723",
"`  c #552C24",
"'  c #5B2C24",
"]  c #552D2B",
"[  c #5B2E29",
"{  c #4A3125",
"}  c #553027",
"|  c #5A3126",
" . c #56322B",
".. c #5A322B",
"X. c #5B3A29",
"o. c #552D31",
"O. c #5A3331",
"+. c #5A3730",
"@. c #612724",
"#. c #632C23",
"$. c #622E2B",
"%. c #6D2F22",
"&. c #633325",
"*. c #6B3223",
"=. c #6E3A27",
"-. c #64322B",
";. c #6B352A",
":. c #63392E",
">. c #6D3A2D",
",. c #673B22",
"<. c #733525",
"1. c #793725",
"2. c #753823",
"3. c #7C3A24",
"4. c #73362A",
"5. c #793629",
"6. c #753B2B",
"7. c #7B3C2C",
"8. c #653532",
"9. c #623C33",
"0. c #6B3A32",
"q. c #6B3632",
"w. c #753C33",
"e. c #7B3E32",
"r. c #7C3D38",
"t. c #63402C",
"y. c #7D402E",
"u. c #7F4226",
"i. c #6E4434",
"p. c #6A4638",
"a. c #754335",
"s. c #7C4234",
"d. c #75443B",
"f. c #7C443B",
"g. c #7E493C",
"h. c #7B4A34",
"j. c #795134",
"k. c #7A4741",
"l. c #7C4B42",
"z. c #764642",
"x. c #7A5040",
"c. c #823B23",
"v. c #813E2C",
"b. c #843E32",
"n. c #8B3F31",
"m. c #883D38",
"M. c #84432D",
"N. c #8A442E",
"B. c #8A4A2D",
"V. c #874325",
"C. c #934B2D",
"Z. c #844534",
"A. c #894635",
"S. c #864935",
"D. c #8B4935",
"F. c #84463A",
"G. c #8B463A",
"H. c #844A3B",
"J. c #8B4B3A",
"K. c #934C35",
"L. c #9A4E35",
"P. c #924E3C",
"I. c #994D3B",
"U. c #94473D",
"Y. c #83523D",
"T. c #8D513D",
"R. c #8D5230",
"E. c #955136",
"W. c #93523B",
"Q. c #9A533B",
"!. c #844C42",
"~. c #8B4C42",
"^. c #834D4A",
"/. c #894B45",
"(. c #924E41",
"). c #964D46",
"_. c #845145",
"`. c #8D5242",
"'. c #8D5448",
"]. c #895A4B",
"[. c #8A5846",
"{. c #935342",
"}. c #9A5141",
"|. c #975844",
" X c #9B5A4B",
".X c #975A48",
"XX c #9B5E55",
"oX c #935952",
"OX c #A25C44",
"+X c #A45A48",
"@X c #9A624E",
"#X c #9C654B",
"$X c #886256",
"%X c #946354",
"&X c #9B6553",
"*X c #9C6A55",
"=X c #9C655B",
"-X c #9D6A58",
";X c #92685C",
":X c #9B705F",
">X c #A6674E",
",X c #A56552",
"<X c #A46B55",
"1X c #AB6B55",
"2X c #A66E5A",
"3X c #A56D5A",
"4X c #A96E59",
"5X c #AB6C5A",
"6X c #A76658",
"7X c #B16F58",
"8X c #A5715C",
"9X c #A9715D",
"0X c #AB715C",
"qX c #B4745E",
"wX c #B97C5F",
"eX c #B4785A",
"rX c #947266",
"tX c #A56C62",
"yX c #B16F63",
"uX c #A57462",
"iX c #AC7362",
"pX c #AB7868",
"aX c #B47B66",
"sX c #C07A58",
"dX c #B78767",
"fX c #BA8874",
"gX c #BD9178",
"hX c #C28B77",
"jX c #C99174",
"kX c #BE9282",
"lX c #C49581",
/* pixels */
"A A L A b A b b b b b b b b L A Z H &.Z H # # i * J I A L n v v S n v n A A A D n A b n b b b b n n Y 4 c K n K b A b A A A b A ",
"2XtX2X5X4X9X5X5X5X1X5X0X0X0X5X0X9X=X&XuXkXp.# # i.=X6X,X2X8X9X8X3X2X9X9X2X2X<X<X2X5X5X4X4X4X4X1X>X8XdXj.[.8X*X*X9X5X8X5X5X5X5X5X",
"J.Y.J.H.T.J.J.D.P.J.J.J.P.P.(.J.P.W.Q.W.fX0Xi.# #.'.`.H.T.H._.H.`.W.J.J.J.P.J.{.K.J.K.J.K.K.D.K.S.#X8Xn Y [.`.H.J.J.P.D.T.J.J.J.",
"H.S.H.J.S.S.D.D.A.A.A.A.G.G.J.G.Z.C.Q.R D.fXjX| G F.J.G.S.Z.S.Z.Z.Z.A.Z.A.A.D.D.G.D.A.S.D.D.G.D.M.Q.<Xv D H.H.A.S.D.D.D.D.S.D.S.",
"S.A.A.F.A.A.A.A.G.G.S.S.G.H.A.A.J.7.L.N.R T.8XA G F.G.A.A.N.A.M.y.Z.H.T.~.J.S.s.A.S.A.S.Z.Z.D.G.M.E.<XA L S.F.Z.A.A.A.A.A.G.A.A.",
"G.G.G.G.G.A.G.G.K.J.K.D.J.A.S.J.J.J.W.I.Q.T.@XY #.(.).G.G.K.K.A.`.`.H.Z.Z.S.S.H.H.S.S.S.S.S.D.S.S.W.5XT T H.H.J.A.G.G.A.A.S.S.D.",
"~.J.~.J.J.D.K.J.A.J.W.J.S.Z.S.Y.f._.J.M.R.T.@XS x f.G.G.G.K.U.K.J.S.4.%.%.6.Z.H.J.H.J.J.J.J.J.D.Z.J.<XG I H.H.Z.G.K.K.J.J.J.J.J.",
"H.G.G.J.G.G.G.S.M.A.T.S.u.y.y.H.!.a.A.J.D.T.8XJ #./.~.F.K.A.A.N.7.6.e.7.Z.F.J.T.J.A.J.S.J.S.G.D.S.W.6XA D !.`.A.G.G.J.D.S.S.S.S.",
"H.J.T.S.A.Z.A.G.v.M.J.J.F.6.e.H.g.H.Z.K.A.W.&XJ G k.r.r.4.;.<.U <.7.J.H.J.A.A.J.G.D.D.G.D.S.D.D.Z.(.yXg #.s.J.H.(.P.J.D.A.D.A.B.",
"B.S.S.D.D.A.D.J.{.J.F.k.!.g.;.Z K f.{.}.V.{.3XZ f $.w.>.r.m.~.F.e.7.Z.S.J.J.H.S.S.G.D.D.D.S.A.A.Z.J.5Xg U f.J.b.A.A.N.A.A.A.A.A.",
"D.B.A.A.N.Z.v.7.b./.!.w.8...! 1 M ;.H.G.U W.uXZ x w.!.F.F.F.~.G.J.y.6.Z.H.T.S.H.T.D.D.D.D.T.D.J.b.W.2XA *.H.`.J.b.n.A.A.D.K.D.K.",
"K.K.C.A.A.A.b.4.>.f.z.8.l 9 t N l ` 0.f.;.!.%XH _ f.!.!.F.b.G.Z.H.6.2.y.S.S.Z.Z.Z.S.Z.S.Z.B.S.Z.y.'.uXG A >.H.~.5.5.v.A.A.A.D.Z.",
"J.G.J.G.~.~.G.F.d.8.] ( u 5 8 7 q u ] z.l.0.` f _ !.`.~.J.J.).~.J.H.F.~.`.J.J.~.H.H.H.J.J.P.J.J.g.].%XF M ` ;.w.a.F.F.J.J.H.H.H.",
"F.f.f.g.g.F.k.k.| B w r u 6 8 8 8 5 l O. .< + < ..l.g.F.h.s.H.F.!.!.^.!.l.!.g.!.!.H.F.F.H.H.F.g.| | } < < m B ` k.f.g.g.H.g.H.H.",
"....[ ] ] [ | ..h j t w q q 5 6 8 8 5 r q : & q r ` F ` [ _ -.-.[ ..| ` B ` | ` [ [ ' ` [ ' ' [ < & . . ; 6 % w ] [ ` | [ ' [ [ ",
": 5 5 < 9 w l B ) ) z j l Q u 5 e : w z N ` { 3 B ` Z Z G z F x k B m 4 4 N N w B F F F F F B V H C N C ^ N w ! F F F F M Z F F ",
"6 6 q : ; 5 B $XpX#X|.H.q.) W E j = 0.6X=X2X8Xh.3X3X2X5X1X1X1X1X0XeXdXj.    i rXtX5X1X1X5X5X6X<X8X1X<X8X4X4X4X4X1X1X1X1X>X1X1X1X",
"a u N u u 9 w i.T.W.+X,X/.8.) z q.;.e.(.W.P.A.1.W.P.W.I.I.L.L.L.V.E.dXdXj.t.i p.).I.L.K.I.K.T.W.E.D.C.R.K.K.E.B.E.E.L.E.E.E.E.E.",
"/ ^ ] ( ( r < H y.N.Q.}.e.@.$.[ w.!.F.b.G.v.R 6.A.A.A.A.n.n.N.N.K.c.R.eXjXfXV f G.n.v.N.A.n.Z.D.D.D.K.D.K.D.D.D.D.A.A.A.N.A.B.Z.",
"O.[ ` ] ] N 9 | H.D.K.N.<.;.f.^.4.!.G.G.P.b.1.S.J.G.G.G.U.K.G.K.P.B.R.R.1XpXH &.G.J.D.S.K.G.S.J.J.D.J.J.D.G.G.F.D.D.D.J.J.J.J.S.",
"@.@.@.o.] u t ..H.H.D.D.e.Z.!.H.7.J.{.J.A.5.7.J.J.D.K.J.J.J.H.J.G.I.D.V.L.,XA #.F.(.J.s.y.S.P.S.G.A.S.A.A.A.A.A.J.J.D.J.J.J.J.G.",
"@.@.8.$.o.r 9 ..d.Z.S.D.Z.J.S.y.J.J.K.S.5.<.y.S.S.S.G.A.A.S.H.H.!.G.N.c.Q.aXJ d F.~.g.=.<.s.J.S.J.J.S.A.Z.A.A.A.A.G.A.G.A.A.A.A.",
"@.@.$.8.o.u 5 o._.H.P.J.A.J.W.S.D.S.Z.y.6.6.s.S.J.S.D.D.S.J.H.H.r.G.{.D.I.+XJ &.~.H.s.s.7.w.f.H.S.Z.7.5.4.7.M.s.J.S.J.S.S.J.J.J.",
"$.@.@._ o.W 9 O.d.f.J.A.Z.J.J.A.S.J.Z.s.e.6.6.s.S.D.D.D.S.H.H.H.'.Z.v.N.}.5X#.F H.Z.S.[.H.e.w.H.J.J.y.7.6.7.Z.A.S.J.S.F.J.S.J.S.",
"_ 8.[ _ O.l q ] d.S.S.A.A.A.J.J.D.G.F.r.F.f.!.G.Z.G.K.A.A.J.H.F.H.Z.2.R }.yXJ J s.J.S.S.T.Z.4.f.b.<.7.J.(.Z.7.A.G.J.G.J.G.G.G.J.",
"_ 8.[ [ | t 9 [ _.T.P.J.D.G.D.J.P.G.G.F.F.H.!.G.G.P.J.A.S.J.P.J.J.S.B.3.G.XXF H H.P.B.D.J.A.w.e.r.Z.G.G.G.Z.b.5.J.J.J.J.~.J.~.J.",
"_ [ _ ' [ w < | h.S.A.A.A.A.S.K.G.G.G.H.J.F.G.G.C.A.N.N.N.B.A.B.M.B.B.3.5.`.M H S.B.B.M.v.G.J.e.<.b.G.Z.b.F.F.7.G.G.G.A.G.A.G.G.",
"[ [ _ ' ` 0 1 | g.J.J.D.J.J.D.D.G.K.J.J.J.J.J.D.G.D.D.K.R.D.D.D.S.S.E.B.A.XX` | S.Z.E.K.A.I.oXs.<.F.P.H.J.J.{.J.G.J.J.H.J.H.G.J.",
"| [ ' #.[ w 9 ` x.Y.J.~.H.F.Z.S.A.A.A.Z.S.Z.A.N.A.A.S.S.Y.S.D.B.S.Z.S.N.(.tX] ~ d.F.H.D.b.G.F.&.s.S.J.D.A.s.A.S.A.S.Z.Z.Z.Z.S.Z.",
"[ [ ' [ ] Q q Q 9.0.a.!.!.~.H.J.G.G.J.J.D.S.J.J.J.H.H.a.a.j.H.H.[.Z.S.G.}.tX} r 8.r.!.`.G.F.a.;.H.S.H.T.J.Z.Z.H.H.J.H.J.J.J.J.H.",
"[ $.[ [ ] Q t 9 N ` 8.d.l.^.!.~./.~.G.!.H.H.~./.!.^.p.[ | d.!.l.^.H.G.G.~.=X/ e ) 8.z.l.^.F.w.a.F.F.F.H.~.H.!.~.!.H.!.~.~.H.H.!.",
"_ ' _ _ ) ! q # @ = k H ' J J D #.@.G G G P @.@._ ' j + + j _ J ' Z U L A >.+   @ h z ` @.x f Z -.$.[ ' ' P P G P P P G P P P I ",
"2.<.T *.=.=.&.J D v v A D d d D J A P A G &.  1 ! [ H A b v n n A A b n A A F S G Z Z D D v v K $ % Q 5 ^ | n D b D D S n n b L ",
"1X1X4X1XqXeX0X9X2XtX2X2X@X#X%X3X<X@X&X@X-XkXl.f ;XpXiX0X0X1X0X8X<X<X<X<X6X<X<X<X2X3X4X4X<X<XaXhX9.+   a $X:X9X<X<X<X*X3X4X<X<X4X",
"J.P.).P.J.J.J.J.{..X{.H.s.Z.`.`.T.`.|..X`.hXpX' -.H.J.T.K.D.T.T.T.P.P.P.).P.~.(.(.P.(.P.J.J.+XiXfXp.$ 4 x.H.J.I.T.W.T.`.E.E.E.J.",
"G.J.K.J.A.Z.Z.N.F.Z.7.2.e.H.J.Z.s.M.M.D.<.H.iXU I s.Z.A.D.N.D.S.A.G.G.K.G.G.G.G.m.A.G.G.A.v.G.{.hXgXK   ,.6.3.G.G.G.A.A.Z.A.S.S.",
"A.S.S.S.J.H.D.S.7.2.<.y.A.F.S.H.T.W.M.Q.D.P.3Xx I Z.J.G.K.A.~.J.S.D.G.S.A.A.A.A.G.A.G.J.J.S.Z.N.1XjXY.+ *.T.P.P.b.m.Z.H.J.J.f.s.",
"D.D.S.S.D.S.Z.h.y.s.H.T.T.Z.H.W.M.J.A.N.K.|.5Xg I Z.D.A.A.A.J.S.J.D.D.D.P.D.J.H.J.J.A.J.J.W.J.D.Q.dXpXG A 6.J.n.G.J.~./.!.f.0.$.",
"S.D.S.Z.7.7.1.1.1.Z.J.K.A.A.A.J.Z.P.I.M.v.J.2XD J Z.S.G.J.S.F.6.S.D.A.A.A.A.J.A.Z.Z.Z.M.A.A.G.N.V.W.aX>.F s.W.W.J.Z.w.;.$.) E E ",
"S.J.T.J.Z.5.v.Z.5.A.J.Z.Z.).P.A.J.6.D.N.A.{.iXA I S.J.D.J.H.s.*.J.D.J.G.J.J.G.J.G.P.P.P.J.D.J.G.D.G.6Xz ' [.s.Z.H.4.G d h l E W ",
"H.S.y.6.6.s.H.(.<.b.G.J.G.A.A.G.J.S.A.W.M.J.<XJ Y Z.Z.A.{.Z.=.s.J.A.Z.J.J.G.G.).J.G.F.G.J.J.J.K.A.).pXz &.d.F.A.J.s.4.0.[ z t W ",
"F.s.6.y.S.H.J.H.6.s.A.H.F.A.A.S.J.P.A.K.v.|.<XA A s.H.S.A.6.*.s.J.J.Z.G.A.7.4.e.G.G.G.G.J.J.J.D.N.P.tXd ' g.T.A.`.F.s.f.w.;.$.8.",
"y.i.2.y.H.Y.H.Z.S.S.S.J.J.S.D.J.J.K.A.G.A.,XtXY Z F.{.S.G.Z.v.`.T.D.J.J.J.J.Z.7.s.A.~.W.J.D.J.R.N.W.8XM U H.J.G.(.G.G.J.G.F.F.!.",
"6.y.Z.Y.S.S.S.S.S.Z.Z.M.Z.D.D.Z.Z.A.Z.A.y.H.].J J g.J.7.Z.G.A.H.S.S.Z.Z.J.H.Z.v.<.6.7.Z.Z.Z.S.S.u.W.-XF J f.J.m.F.m.F.A.G.A.n.G.",
"F.J.(.P.J.J.J.J.P.P.J.J.J.P.J.J.{.H.H.`.6.&.| f | !.^.F.J.~.H.H.J.J.S.A.J.H.J.F.Z.s.Z.Z.A.J.J.D.R.[.].V | !.{.~././.!.`.P.J.P.P.",
"!.H.f.f.H.H.f.F.F.H.F.F.H.H.H.H.!.f.g.g.-.j < $ w +.x.!.F.Z.f.g.g.H.g.H.H.H.H.^.!.F.a.f.g.H.g.f.g.i.X.3 V l.!.f.!.!.l.g.F.Z.F.Z.",
"O...] ` ` [ [ ` ` ` } | ` H } | ' F _ [ B 0 : 5 . r ` [ ' ' J &.` J [ | [ ` ` O.| [ [ [ [ | ` ' ` ! 9 # 1 ` J H ) ] ` ` ` ' _ J ",
"9 q r w 5 : 5 r i M B B M M M F F Z F F F ^ C C ~ B B Z G A b Z Z M B H k * * 0 w j B F B F F H F ` ` B B J c Z Z F V B F H J F ",
". X X 8 e 8 7 5 B %X8X<X>XS.T.iX1X1X5X5X1X5X5X5X5X<X>X6X1X1X1X>X1X>X4XwXhXT.$ < &.%XpX2X<X5X1XqX1X5X5X1X4X1X1X5X1X1X6X,X1X4X1X1X",
"/ { { C 9 5 y : k H.T.E.L.c.M.T.W.E.L.K.L.E.E.E.Q.E.L.E.Q.E.L.L.Q.E.B.R.eXwX| < a.{.{.R.W.Q.K.N.K.I.W.I.K.P.L.L.C.K.K.K.K.I.L.K.",
"<X*X*XY.&.j q r #.b.M.N.n.b.6.4.Z.Z.N.A.A.Z.A.A.N.A.A.S.A.A.A.A.N.K.S.R OXeX9.m Y.S.Z.y.S.J.S.N.A.Z.Z.A.A.A.A.A.b.Z.D.J.A.Z.A.J.",
" XW.|.>X`.M $  .F.G.A.H.G.G.f.>.J.J.S.J.J.S.S.S.Z.J.P.J.S.S.S.J.D.D.T.V.C.OXV ` Y.S.S.S.S.H.T.|.J.H.J.J.J.H.J.J.~.~.J.J.Z.Z.H.{.",
"N.v.v.Q.,XJ + +._.S.T.S.Z.F.f.;.J.H.S.J.S.H.J.J.Z.J.H.S.A.S.S.S.W.S.Z.S.C.>XA _ S.S.W.T.J.s.Z.H.S.J.J.S.J.J.D.J.J.H.A.Z.5.5.7.A.",
"U.I.K.D.6Xd.$  .!.Z.R.S.Z.Z.e.4.S.A.S.S.S.A.S.A.Z.S.A.M.7.Z.H.A.H.S.S.B.C.7XJ F H.B.J.P.J.S.Z.Z.A.S.S.S.S.S.S.S.Z.A.S.S.Z.6.3.5.",
"m.G.G.v. XoX) ` H.J.P.N.A.G.7.e.J.J.J.D.J.J.J.S.S.J.A.5.7.A.J.A.Z.H.`.T.n.7XH ) J.N.A.G.A.H.T.S.S.D.D.D.D.D.D.D.S.D.J.W.D.S.Z.u.",
"G.m.).D.oXXXO.F F.A.K.M.G.G.6.s.S.G.G.G.J.G.G.G.J.J.Z.5.7.J.J.G.T.u.s.T.C.qXF ) J.A.A.M.2.y.H.S.S.D.D.D.D.D.S.D.D.D.D.B.D.D.Z.M.",
"S.D.D.V.P.3XF F F.G.s.u.4.#.' a.4.Z.J.F.Z.F.~.F.F.Z.r.s.F.G.F.Z.Z.S.Y.Z.E.1X) ! !.F.J.b.;.b.`.A.S.S.A.S.A.S.S.S.S.S.A.S.S.S.A.S.",
"D.D.R.V.I.<XH H ~.J.S.g.a.x j :.w.G.(.J.G.G.J.A.G.A.Z.A.J.P.J.G.D.D.J.Z.Q.5X( o.^.~.F.6.7.e.v.Z.J.S.J.D.J.D.J.J.D.S.J.D.J.D.J.D.",
"B.S.B.V.E.>XJ J J.G.F.F.r.G h Z 6.Z.P.J.A.S.A.A.G.A.A.A.J.K.D.D.K.A.A.M.L.6X( ( k.F.6.4.G.v.1.A.G.D.G.J.D.D.J.A.D.D.G.J.J.G.D.D.",
"S.S.V.N.Q.,XJ F F.(.A.7.f.r.[ k <.3.A.S.A.A.A.A.D.A.A.A.A.G.S.A.D.D.Z.N.E.6X( 9 #.4.6.e.J.F.M.A.G.A.A.A.A.A.A.S.A.A.A.A.A.A.A.A.",
"`.~.Z.K. X6X#.x G.).J.M.~.).r.$.6.y.S.J.Y.J.H.S.J.H.J.J.J.J.H.J.S.W.H.S.Q.4X^   k #.f.`.H.`.{.H.D.J.H.J.H.H.J.J.J.H.J.J.J.J.J.H.",
"^.k.e.F.`.oX| F !.F.F.H.F.r.w.f.d.g.H.g.H.g.H.g.H.g.g.g.g.g.g.h.f._.g.g.T.%X/ . j J g.x.d.l._.w.H.g.g.g.H.g.!.g.H.g.g.l.g.g.g.H.",
"O.O.H | | X.i i [ ` | X. .B !  .| ........} ` ..| ......] } [ [ ` O. . .J p.s p q B  .O. .o.O.]  .| |  .[ | ..| .. .[ | | | .. .",
"5 q 4 2 $ > O y : < 2 > : < < : < : < < < < < w 9 9 w 2 < < < < < 9 9 9 * 2 o p ; q % < t q - Q 9 0 < 9 9 < 9 < 9 9 < 9 9 9 < 9 "
};
